<svg width="14" height="9" viewBox="0 0 14 9" fill="none" xmlns="http://www.w3.org/2000/svg">
<path fill-rule="evenodd" clip-rule="evenodd" d="M7.7071 7.8426C7.51957 8.03007 7.26526 8.13538 7.0001 8.13538C6.73493 8.13538 6.48063 8.03007 6.2931 7.8426L0.636099 2.1856C0.540589 2.09335 0.464406 1.98301 0.411997 1.861C0.359588 1.739 0.332002 1.60778 0.330848 1.475C0.329694 1.34222 0.354996 1.21054 0.405277 1.08764C0.455558 0.964747 0.529811 0.853094 0.623704 0.759202C0.717597 0.665309 0.829248 0.591056 0.952145 0.540775C1.07504 0.490494 1.20672 0.465193 1.3395 0.466346C1.47228 0.4675 1.6035 0.495086 1.7255 0.547495C1.84751 0.599904 1.95785 0.676086 2.0501 0.771597L7.0001 5.7216L11.9501 0.771597C12.1387 0.589438 12.3913 0.488644 12.6535 0.490923C12.9157 0.493201 13.1665 0.59837 13.3519 0.783778C13.5373 0.969186 13.6425 1.22 13.6448 1.4822C13.6471 1.74439 13.5463 1.99699 13.3641 2.1856L7.7071 7.8426Z" fill="#322E2C"/>
</svg>
