<svg width="61" height="61" viewBox="0 0 61 61" fill="none" xmlns="http://www.w3.org/2000/svg">
<g clip-path="url(#clip0_484_3124)">
<path d="M58.5437 24.7286C58.8939 26.7421 59.0683 28.7823 59.065 30.8261C59.065 39.9536 55.8025 47.6711 50.125 52.8948H50.1325C45.1675 57.4811 38.3425 60.1361 30.25 60.1361C22.2935 60.1361 14.6629 56.9754 9.0368 51.3493C3.41071 45.7232 0.25 38.0926 0.25 30.1361C0.25 22.1796 3.41071 14.549 9.0368 8.92287C14.6629 3.29678 22.2935 0.13607 30.25 0.13607C37.6965 0.0531426 44.8871 2.85038 50.32 7.94357L41.755 16.5086C38.6583 13.5583 34.5266 11.9422 30.25 12.0086C22.4237 12.0086 15.775 17.2886 13.405 24.3986C12.1506 28.1246 12.1506 32.1588 13.405 35.8848H13.4162C15.7975 42.9836 22.435 48.2636 30.2612 48.2636C34.3037 48.2636 37.7762 47.2286 40.4687 45.3986H40.4575C42.0212 44.3632 43.3588 43.0215 44.3894 41.4546C45.42 39.8878 46.1223 38.1282 46.4537 36.2823H30.25V24.7323L58.5437 24.7286Z" fill="#FAF5ED"/>
</g>
<defs>
<clipPath id="clip0_484_3124">
<rect width="60" height="60" fill="white" transform="translate(0.25 0.135986)"/>
</clipPath>
</defs>
</svg>
