<svg width="60" height="61" viewBox="0 0 60 61" fill="none" xmlns="http://www.w3.org/2000/svg">
<g clip-path="url(#clip0_484_3150)">
<path d="M21.7021 37.992L24.4621 37.3545L24.7359 37.2795C25.2105 37.1522 25.6474 36.9121 26.0092 36.5796C26.371 36.2471 26.6471 35.832 26.8139 35.3698C26.9808 34.9076 27.0334 34.4119 26.9674 33.925C26.9013 33.438 26.7186 32.9743 26.4346 32.5732C26.1278 32.179 25.7453 31.8501 25.3096 31.6057C24.7949 31.3165 24.2583 31.0682 23.7046 30.8632L20.6746 29.757C18.9755 29.1245 17.2705 28.5082 15.5596 27.9082C14.4459 27.5107 13.4971 27.1657 12.6834 26.9107C12.5296 26.862 12.3571 26.817 12.2184 26.7682C11.4864 26.5121 10.7207 26.3655 9.94588 26.3332C9.54239 26.3162 9.14023 26.3899 8.769 26.5489C8.39778 26.7079 8.06695 26.9482 7.80088 27.252C7.66273 27.4114 7.53136 27.5765 7.40713 27.747C7.1721 28.1111 6.97721 28.4996 6.82588 28.9057C6.26338 30.567 5.98213 32.3107 6.00088 34.0657C6.00838 35.652 6.04963 37.6882 6.92338 39.0682C7.13378 39.4216 7.4146 39.7279 7.74838 39.9682C8.37088 40.3957 8.99713 40.452 9.64963 40.497C10.6246 40.5682 11.5734 40.3282 12.5146 40.1107L21.6909 37.9882L21.7021 37.992ZM52.5234 23.3257C51.7683 21.7437 50.7543 20.2988 49.5234 19.0507C49.2091 18.7517 48.8633 18.4877 48.4921 18.2632C48.3085 18.1642 48.1209 18.0729 47.9296 17.9895C47.5574 17.8336 47.1551 17.7631 46.7521 17.7833C46.3491 17.8034 45.9557 17.9136 45.6009 18.1057C45.0684 18.3682 44.4984 18.7882 43.7409 19.4932C43.6359 19.5982 43.5046 19.7182 43.3884 19.827C42.7621 20.412 42.0646 21.1395 41.2359 21.9832C39.9609 23.2732 38.6984 24.5757 37.4484 25.8907L35.2059 28.2157C34.7981 28.642 34.4244 29.0996 34.0884 29.5845C33.803 29.9956 33.6028 30.4597 33.4996 30.9495C33.4369 31.324 33.4458 31.707 33.5259 32.0782C33.5259 32.0957 33.5296 32.112 33.5371 32.127C33.7117 32.8971 34.1793 33.569 34.8408 34.0002C35.5023 34.4315 36.3058 34.5881 37.0809 34.437L37.3584 34.3845L49.3021 31.6245C50.2434 31.407 51.1996 31.2045 52.0471 30.717C52.6134 30.387 53.1534 30.0607 53.5246 29.4045C53.7203 29.0414 53.8391 28.6418 53.8734 28.2307C54.0609 26.6032 53.2059 24.7545 52.5234 23.3257ZM31.1446 28.347C32.0071 27.2595 32.0071 25.6395 32.0821 24.3157C32.3446 19.887 32.6184 15.4582 32.8359 11.0295C32.9184 9.34946 33.0984 7.69196 33.0009 6.00446C32.9184 4.60946 32.9071 3.00821 32.0259 1.86446C30.4771 -0.153037 27.1621 0.0119626 24.8971 0.323213C24.2021 0.418213 23.5109 0.548213 22.8234 0.713213C22.1383 0.875511 21.4591 1.06188 20.7871 1.27196C18.6121 1.98446 15.5634 3.28571 15.0496 5.78696C14.7571 7.20071 15.4471 8.64821 15.9834 9.93821C16.6321 11.502 17.5209 12.9082 18.3271 14.382C20.4646 18.267 22.6396 22.1295 24.8071 25.9957C25.4521 27.1507 26.1571 28.6095 27.4134 29.2095C27.4959 29.247 27.5809 29.2782 27.6684 29.3032C28.2309 29.517 28.8421 29.5582 29.4271 29.4232L29.5321 29.397C30.0733 29.252 30.563 28.9584 30.9459 28.5495L31.1446 28.347ZM30.1096 40.2007C29.7282 39.6705 29.172 39.2918 28.5389 39.1313C27.9058 38.9708 27.2363 39.0388 26.6484 39.3232C26.4578 39.42 26.2759 39.5329 26.1046 39.6607C25.6188 40.0478 25.183 40.4937 24.8071 40.9882C24.7096 41.112 24.6196 41.277 24.5071 41.3782L22.5871 44.022C21.4996 45.4995 20.4234 46.9907 19.3584 48.4957C18.6646 49.4707 18.0609 50.292 17.5884 51.0195L17.3184 51.432C16.7484 52.3132 16.4259 52.9545 16.2609 53.5282C16.1343 53.907 16.0958 54.3098 16.1484 54.7057C16.1971 55.1182 16.3359 55.5195 16.5534 55.8757C16.6684 56.0507 16.7934 56.2232 16.9284 56.3932C17.2162 56.7238 17.5394 57.0218 17.8921 57.282C20.3403 58.9366 23.18 59.9193 26.1271 60.132C26.5658 60.1462 27.0046 60.1122 27.4359 60.0307C27.6421 59.9794 27.846 59.9193 28.0471 59.8507C28.4373 59.7031 28.7923 59.4758 29.0896 59.1832C29.3753 58.9036 29.5934 58.5624 29.7271 58.1857C29.9484 57.6345 30.0946 56.9295 30.1884 55.887L30.2334 55.3995C30.3084 54.5332 30.3459 53.517 30.4021 52.3207C30.4946 50.4832 30.5696 48.647 30.6271 46.812L30.7509 43.5495C30.7991 42.7648 30.7296 41.9773 30.5446 41.2132C30.4491 40.8559 30.305 40.5147 30.1096 40.2007ZM51.7959 45.3082C51.244 44.7492 50.6152 44.2719 49.9284 43.8907L49.5084 43.6395C48.7621 43.1895 47.8659 42.717 46.8121 42.147C45.2021 41.2645 43.5834 40.3957 41.9559 39.5407L39.0796 38.0145C38.9296 37.9695 38.7796 37.8645 38.6371 37.7932C38.0826 37.5142 37.4956 37.3051 36.8896 37.1707C36.6794 37.1301 36.4662 37.1075 36.2521 37.1032C35.5997 37.1072 34.9696 37.341 34.4724 37.7634C33.9751 38.1859 33.6427 38.77 33.5334 39.4132C33.4918 39.7793 33.5045 40.1495 33.5709 40.512C33.7134 41.277 34.0584 42.0345 34.4109 42.6982L35.9484 45.5782C36.8009 47.2032 37.6709 48.8207 38.5584 50.4307C39.1284 51.4807 39.6084 52.3807 40.0509 53.127C40.1409 53.2695 40.2259 53.4095 40.3059 53.547C40.8496 54.4432 41.2846 55.0095 41.7271 55.4107C42.0199 55.695 42.3726 55.9102 42.7593 56.0406C43.146 56.1711 43.557 56.2134 43.9621 56.1645C44.1736 56.1372 44.3838 56.1009 44.5921 56.0557C45.0148 55.9395 45.4235 55.7773 45.8109 55.572C46.9821 54.9189 48.0605 54.1117 49.0171 53.172C50.1646 52.047 51.1809 50.8095 51.9721 49.3995C52.0846 49.1995 52.1796 48.9932 52.2571 48.7807C52.3294 48.5822 52.3932 48.3808 52.4484 48.177C52.4959 47.9695 52.5321 47.7595 52.5571 47.547C52.5952 47.1328 52.5466 46.7152 52.4146 46.3207C52.2884 45.9404 52.0767 45.5941 51.7959 45.3082Z" fill="#FAF5ED"/>
</g>
<defs>
<clipPath id="clip0_484_3150">
<rect width="60" height="60" fill="white" transform="translate(0 0.135986)"/>
</clipPath>
</defs>
</svg>
