<svg width="77" height="72" viewBox="0 0 77 72" fill="none" xmlns="http://www.w3.org/2000/svg">
<g filter="url(#filter0_d_607_3048)">
<path d="M33.5831 10.7048C26.5638 11.2056 20.756 14.5578 16.9273 20.317C15.8692 21.9002 14.7545 24.3234 14.3102 26.0116C14.2294 26.2943 14.1487 26.5447 14.1244 26.577C14.0921 26.6094 13.874 26.472 13.6317 26.2701C13.1794 25.8985 12.1939 25.3897 12.1051 25.4785C12.0808 25.5108 12.1051 25.5512 12.1616 25.5674C12.412 25.6643 13.2278 26.262 13.5832 26.6336L13.9871 27.0375L13.8821 27.6675C13.8256 28.0148 13.7206 28.661 13.6479 29.1053C13.3975 30.6723 13.5105 34.8322 13.8336 35.6238C13.8821 35.7369 13.8336 35.7531 13.3975 35.7127C12.9451 35.6723 12.9047 35.6804 12.9047 35.8258C12.9047 35.9712 13.3975 36.3589 13.8336 36.5366C13.971 36.6012 13.9548 36.6174 13.7286 36.6416C13.5832 36.6577 13.4136 36.6335 13.3571 36.585C13.2763 36.5204 13.2198 36.5285 13.1471 36.6174C13.0582 36.7224 13.0744 36.7789 13.2682 36.9808C13.3894 37.102 13.4621 37.2474 13.4378 37.2959C13.4055 37.3443 13.4136 37.3847 13.4621 37.3847C13.5105 37.3847 13.5267 37.4413 13.5025 37.5059C13.4621 37.6028 13.5186 37.627 13.7771 37.627C14.1164 37.627 14.3587 37.7805 14.3587 38.0067C14.3587 38.1036 14.2779 38.1198 13.9952 38.0955C13.5509 38.0632 13.6479 38.1844 14.1164 38.249C14.3021 38.2732 14.4637 38.3379 14.4798 38.3863C15.6188 41.8273 17.6704 45.0018 20.4006 47.4977C22.6139 49.5252 25.3844 51.1245 28.2519 52.0373C30.5863 52.7723 32.1453 53.0146 34.6735 53.0146C36.5233 53.0146 37.1856 52.95 38.9142 52.6027C44.4796 51.4961 49.52 48.0066 52.5975 43.1197C53.2841 42.0373 54.0918 40.3653 54.5765 39.0325C54.8026 38.4106 54.9884 37.8774 54.9884 37.8451C54.9884 37.8128 55.045 37.6594 55.1015 37.5059L55.2227 37.2232L55.8931 37.4736C56.2647 37.6109 56.8866 37.8371 57.2824 37.9663C57.9771 38.2086 58.0013 38.2086 58.276 38.0794C58.486 37.9825 58.5344 37.9178 58.4779 37.8451C58.4294 37.7886 57.7348 37.4251 56.9351 37.0212C56.1354 36.6254 55.465 36.2458 55.4488 36.1731C55.4327 36.1085 55.4488 35.9227 55.4892 35.7611C55.6589 34.9534 55.8123 33.1602 55.8123 31.892C55.8204 21.4882 48.373 12.708 38.0661 10.9794C36.4668 10.7129 34.8593 10.6079 33.5831 10.7048ZM36.7333 12.6757C38.8415 12.8938 41.2405 13.5804 43.1549 14.5174C47.8479 16.8114 51.4505 20.9874 53.0498 25.9712C53.9303 28.7176 54.1887 31.8678 53.7687 34.7353C53.7203 35.0826 53.6476 35.3653 53.6072 35.3653C53.5668 35.3653 53.1871 35.22 52.759 35.0342C51.9917 34.703 51.9674 34.703 50.9174 34.6868C49.9481 34.6788 49.835 34.6626 49.5442 34.4849C49.1565 34.2426 49.3019 34.1618 49.7623 34.3637C50.0046 34.4768 50.2873 34.5172 50.7881 34.5172C51.5474 34.5172 51.9594 34.3799 51.9594 34.1214C51.9594 33.8952 50.8527 33.5075 50.045 33.451C49.6977 33.4268 49.415 33.3864 49.415 33.3621C49.415 33.346 49.4957 33.2571 49.5927 33.1763C49.7865 32.9986 49.7946 33.0148 49.3746 32.8694C49.0919 32.7725 48.2599 32.3201 47.8802 32.0536C47.7187 31.9405 48.0902 31.989 49.0919 32.199C50.4166 32.4817 53.2114 32.6675 53.2114 32.4736C53.2114 32.3928 50.6185 31.1247 49.3584 30.5835C48.9222 30.3977 48.2437 30.1311 47.8398 29.9938C47.1856 29.7677 46.9998 29.6223 47.2987 29.5738C47.4198 29.5576 47.5248 29.4849 47.4683 29.4446C47.2098 29.283 45.9982 28.7499 45.1662 28.4349C44.5846 28.2087 43.6719 27.8291 43.1468 27.5948C38.6881 25.5593 39.0192 25.7451 37.5249 24.3961C36.2971 23.2814 35.449 22.926 34.0435 22.926C33.1227 22.926 32.0322 23.1199 31.2325 23.4187C30.6348 23.6449 30.4167 23.6853 29.4232 23.7338C28.6801 23.7661 28.155 23.8388 27.8885 23.9276C26.4103 24.4527 25.4975 25.43 25.2956 26.7224C25.2552 26.9809 25.2714 27.0455 25.3683 27.0455C25.4329 27.0455 25.5298 26.9405 25.5702 26.8032C25.7237 26.3751 26.0791 26.0035 26.7657 25.5431C28.2035 24.59 29.2697 24.5415 30.1421 25.3897C30.6348 25.8662 30.9175 26.464 31.3214 27.8937C31.5153 28.556 31.7576 29.283 31.8707 29.5092C32.0484 29.8646 32.0807 30.0261 32.0888 30.842C32.0968 31.5851 32.1372 31.8597 32.2745 32.2232C32.953 33.9356 35.0451 35.5834 37.8238 36.5689C38.5427 36.8193 40.142 37.2393 41.1598 37.4332C41.2648 37.4574 41.3617 37.5301 41.394 37.6109C41.4182 37.6836 41.5071 37.8936 41.5879 38.0794C41.8867 38.7256 41.9191 38.6933 40.2551 39.5656L39.2858 40.0664L36.9433 39.7353C35.6509 39.5576 33.5427 39.2587 32.2503 39.081C28.4458 38.556 25.6752 38.0148 24.4313 37.5463C23.7689 37.2959 23.7205 37.1666 23.6397 35.5269C23.5266 33.3702 23.3812 32.724 22.5573 30.7693C21.7738 28.9357 21.7011 28.5722 21.6365 26.4155C21.5961 25.3816 21.5557 24.5254 21.5315 24.5011C21.5073 24.4769 21.4669 25.325 21.4426 26.3832C21.3861 28.6287 21.4184 28.8549 22.1454 30.9712C22.8723 33.0956 22.8723 33.1198 22.8804 34.7676C22.8804 36.6981 22.8158 36.7789 21.8707 36.0519C21.0307 35.3977 19.6575 33.8872 18.4701 32.2959C17.1293 30.4946 16.2003 29.1941 16.0549 28.9034C15.9984 28.7903 15.8772 28.653 15.7884 28.5883C15.6592 28.4995 15.643 28.4187 15.6834 28.1441C15.7157 27.9664 15.8045 27.6998 15.8853 27.5706C15.9742 27.4252 16.0146 27.2152 15.9984 27.0455C15.9823 26.8921 16.0065 26.7063 16.0549 26.6417C16.1276 26.5367 16.1519 26.5367 16.2488 26.6578C16.4023 26.8678 16.4588 26.8355 16.4588 26.5447C16.4588 26.4074 16.5638 26.1328 16.6931 25.9228C16.9919 25.4543 17.0566 25.1231 16.9435 24.7111C16.8708 24.4284 16.8869 24.3234 17.0727 23.8549C17.3312 23.2007 18.4943 21.2378 19.0759 20.4624C20.9499 17.9664 23.3651 15.9228 25.9499 14.6304C29.3666 12.9261 32.9046 12.2799 36.7333 12.6757ZM33.1873 24.4607C33.4135 24.59 33.4054 25.1393 33.1631 25.3008C32.9127 25.4785 32.6946 25.4624 32.4765 25.2523C31.9837 24.7919 32.5734 24.1376 33.1873 24.4607ZM16.3861 25.9389C16.2811 26.0439 16.273 25.8985 16.3619 25.5916L16.4184 25.3897L16.4427 25.6239C16.4588 25.7531 16.4346 25.8905 16.3861 25.9389ZM16.1438 30.1715C18.1874 33.9518 19.294 35.535 20.9014 36.9728C22 37.9582 23.0985 38.7094 24.5282 39.4606C24.7706 39.5818 24.9806 39.7272 24.9967 39.7837C25.0533 39.9453 23.462 40.3976 22.5169 40.4945C21.5315 40.5996 19.9806 40.2199 17.7593 39.3314C17.21 39.1133 16.7173 38.8871 16.6527 38.8306C16.5234 38.6933 16.0549 37.2797 16.0549 37.0051C16.0549 36.892 16.1276 36.6981 16.2246 36.5689C16.4346 36.27 16.378 36.0923 16.0549 36.0923C15.7884 36.0923 15.7561 35.9873 15.9096 35.6481C15.9903 35.4704 15.9742 35.4138 15.7803 35.2119C15.5865 35.0099 15.5461 34.8807 15.433 33.9437C15.2714 32.5463 15.3603 29.2265 15.5703 29.2265C15.6026 29.2265 15.8611 29.6546 16.1438 30.1715ZM52.8156 36.2862C53.3325 36.48 53.3325 36.48 53.3164 36.787C53.2841 37.1989 52.654 39.0406 52.2098 40.0018C51.822 40.8338 50.9497 42.3362 50.4893 42.9743L50.2227 43.3459L49.1726 42.8289C48.1387 42.3201 46.6282 41.7142 45.6185 41.4073C45.3277 41.3265 44.8431 41.1811 44.5442 41.0842C44.205 40.9873 44.0192 40.8903 44.0596 40.85C44.1888 40.7207 46.0386 39.808 46.1678 39.808C46.3778 39.808 46.9109 39.4606 46.9109 39.3152C46.9109 39.2425 46.7979 38.9437 46.6686 38.661C46.5313 38.3702 46.3778 37.934 46.3294 37.6836C46.2163 37.1505 46.2647 37.0616 46.8221 36.787C47.3633 36.5124 47.8722 36.4558 48.3406 36.6174C48.8334 36.7951 50.0854 36.7224 50.7558 36.4962C51.0143 36.4073 51.297 36.3346 51.3859 36.3346C51.4828 36.3266 51.6443 36.2781 51.7574 36.2135C52.0401 36.0519 52.2259 36.0681 52.8156 36.2862ZM14.1164 37.2151C14.1164 37.2555 14.0113 37.3039 13.874 37.3201C13.5832 37.3605 13.559 37.3282 13.8175 37.2232C14.0517 37.1262 14.1164 37.1262 14.1164 37.2151ZM44.9562 37.6755C45.0612 37.7078 45.4731 38.5479 45.562 38.9356C45.6347 39.2102 45.5378 39.2748 44.0515 40.0422C43.3649 40.3895 42.8318 40.6157 42.6783 40.6157C42.3472 40.6157 40.9821 40.333 40.7963 40.2199C40.667 40.1472 40.6832 40.1311 40.9336 40.0422C41.3536 39.8887 42.953 39.081 42.953 39.0083C42.953 38.976 42.8803 38.8144 42.7914 38.6367C42.6945 38.4509 42.6299 38.1602 42.6299 37.9421V37.5624L43.7446 37.6028C44.3504 37.619 44.8996 37.6513 44.9562 37.6755ZM19.6414 40.7369C20.8368 41.2538 21.8223 41.4558 22.8804 41.3911C23.6882 41.3508 24.8756 41.1004 25.7802 40.7853C26.0468 40.6884 26.4587 40.6157 26.7253 40.6157C26.9838 40.6157 27.21 40.5834 27.2423 40.5349C27.2665 40.4865 27.3553 40.4865 27.4684 40.5349C28.0096 40.753 32.0726 41.4962 34.9966 41.9081C35.8448 42.0293 35.869 42.0373 35.9659 42.2474C36.0629 42.4574 36.4021 42.5462 37.2099 42.5462C37.5572 42.5543 37.7753 42.5139 37.8561 42.4412C37.9692 42.3362 38.0499 42.3362 38.47 42.4412C38.7365 42.4978 39.0596 42.5543 39.1808 42.5543C39.3666 42.5543 39.4312 42.6108 39.5281 42.837C39.625 43.0793 39.722 43.144 39.932 43.1117C39.9562 43.1117 40.0693 43.1682 40.1824 43.2409C40.352 43.354 40.4166 43.3621 40.5701 43.2813C40.7155 43.2005 40.8205 43.2005 41.0548 43.2813C41.3213 43.3701 41.3698 43.3621 41.4344 43.249C41.4748 43.1763 41.5879 43.1197 41.6848 43.1197C41.9998 43.1197 43.373 43.5075 44.5846 43.9356C45.8205 44.3637 48.0256 45.4137 48.0983 45.5995C48.1549 45.753 47.9772 45.9388 46.9513 46.7788C43.2922 49.7837 38.8415 51.3103 34.1081 51.173C28.4054 51.0114 23.1793 48.4105 19.5929 43.9436C19.1729 43.4267 18.6155 42.6593 18.357 42.2474C17.7674 41.2942 16.9516 39.7272 16.9435 39.5414C16.9435 39.4283 17.1131 39.4929 17.8562 39.8807C18.349 40.1472 19.1567 40.5269 19.6414 40.7369Z" fill="#FEFEFE"/>
<path d="M22.3561 24.3638C21.7987 24.9535 21.7422 25.0262 21.8714 25.1069C22.0249 25.2039 22.1622 25.0746 22.3642 24.6869C22.5257 24.3638 22.6792 24.283 22.6792 24.5173C22.6792 24.6869 22.453 25.0423 22.2107 25.2766C22.033 25.43 21.9603 25.8339 22.1057 25.8339C22.1461 25.8339 22.243 25.737 22.3157 25.6077C22.6146 25.1393 22.8326 24.9696 23.0831 25.01C23.2204 25.0262 23.3496 25.0827 23.3738 25.1231C23.4223 25.2039 22.9942 25.6562 22.7196 25.8178C22.5822 25.8985 22.5742 25.9228 22.6792 25.9955C22.7438 26.0439 22.8973 26.0682 23.0265 26.052C23.1638 26.0359 23.2446 26.0601 23.2446 26.1328C23.2446 26.1893 23.3173 26.2378 23.4061 26.2378C23.5031 26.2378 23.5677 26.1893 23.5596 26.1328C23.5273 25.8743 23.5758 25.7531 23.7212 25.7531C23.9473 25.7531 24.012 25.6077 23.8504 25.43C23.7212 25.2846 23.7212 25.2685 23.9716 25.1231C24.1089 25.0342 24.2139 24.9292 24.1977 24.8969C24.1816 24.8565 23.8827 24.8242 23.5273 24.8242C22.9053 24.8242 22.8892 24.8162 22.8811 24.6223C22.8488 23.9438 22.7842 23.9115 22.3561 24.3638ZM23.5919 25.5108C23.5677 25.6077 23.5273 25.6643 23.5031 25.6401C23.4627 25.5916 23.5435 25.3493 23.6 25.3493C23.6162 25.3493 23.6162 25.422 23.5919 25.5108Z" fill="#FEFEFE"/>
<path d="M17.1541 25.6885C17.2268 26.1166 17.251 26.157 17.4287 26.157C17.6549 26.157 17.6307 26.2863 17.3803 26.4478C17.1945 26.569 17.1864 26.5932 17.3076 26.6659C17.5984 26.8275 18.8504 26.5286 19.1896 26.2136C19.3997 26.0197 19.4239 25.7612 19.23 25.7451C18.8504 25.7128 18.4061 25.7855 18.1315 25.9228L17.8245 26.0843L17.5338 25.7531C17.1783 25.3654 17.0976 25.3493 17.1541 25.6885Z" fill="#FEFEFE"/>
<path d="M20.1753 26.7791C20.1753 27.1264 20.1268 27.2072 19.8764 27.3445C19.731 27.4253 19.6341 27.4253 19.3513 27.3203C19.1656 27.2557 18.9798 27.1426 18.9394 27.078C18.8102 26.8518 18.4951 26.7952 17.8409 26.876C17.0493 26.981 16.7181 27.0941 16.8554 27.2314C16.92 27.2961 17.2835 27.3284 17.9863 27.3284L19.0121 27.3364L19.311 27.6676C19.4806 27.8453 19.7229 28.0392 19.8602 28.1038C20.0945 28.2007 20.1026 28.2088 19.9652 28.3138C19.7391 28.4754 19.9006 28.54 20.1914 28.3946C20.3368 28.3219 20.5307 28.2411 20.6195 28.2169C20.7649 28.1684 20.7568 28.1523 20.5387 28.0634C20.4095 28.0069 20.1995 27.8534 20.0702 27.7322C19.8522 27.5141 19.8522 27.5061 20.0137 27.393C20.151 27.2961 20.2076 27.3041 20.458 27.4657C20.6276 27.5788 20.773 27.7484 20.8134 27.8938C20.8861 28.1523 20.9022 28.1361 21.0557 27.5465C21.1688 27.1507 21.0638 26.9568 20.6034 26.6499C20.2399 26.4156 20.1753 26.4318 20.1753 26.7791ZM20.6276 26.9003C20.6518 27.0053 20.7488 27.183 20.8295 27.3041C21.0638 27.6272 21.0153 27.6434 20.6599 27.3607C20.361 27.1183 20.2641 26.9083 20.3933 26.7791C20.4903 26.6741 20.571 26.7225 20.6276 26.9003Z" fill="#FEFEFE"/>
<path d="M16.2168 27.6109C16.2168 27.6998 16.2491 27.7725 16.2895 27.7725C16.3299 27.7725 16.346 27.6998 16.3218 27.6109C16.2976 27.5221 16.2653 27.4494 16.2491 27.4494C16.233 27.4494 16.2168 27.5221 16.2168 27.6109Z" fill="#FEFEFE"/>
<path d="M17.4124 27.6433C16.7904 27.7402 16.54 27.8613 16.54 28.0633C16.54 28.2248 16.8793 28.2814 17.5336 28.2168C18.2686 28.1521 18.519 28.0391 18.519 27.7725C18.519 27.5221 18.3171 27.4979 17.4124 27.6433Z" fill="#FEFEFE"/>
<path d="M16.0148 28.2491C15.9502 28.3864 15.9179 28.4995 15.9582 28.4995C16.039 28.4995 16.241 28.0956 16.1844 28.0391C16.1683 28.0149 16.0875 28.1118 16.0148 28.2491Z" fill="#FEFEFE"/>
<path d="M13.4378 22.8856C13.3247 23.0067 13.2278 23.136 13.2278 23.1683C13.2278 23.2006 13.0662 23.3621 12.8724 23.5237L12.5089 23.8145L12.315 23.6206C12.0404 23.346 11.6123 23.1279 11.6123 23.2733C11.6123 23.5479 11.8223 23.8145 12.0808 23.8629C12.4443 23.9356 12.4039 24.0326 11.9758 24.0891C11.5638 24.1537 11.5073 24.3072 11.7658 24.6303C11.8465 24.7353 11.9192 24.8565 11.9273 24.9049C11.9354 24.9857 12.6704 25.2038 12.7351 25.1473C12.7512 25.123 12.727 25.018 12.6785 24.913C12.6139 24.7676 12.622 24.6949 12.727 24.5899C12.8078 24.5172 12.8239 24.4607 12.7674 24.4607C12.7108 24.4607 12.6462 24.493 12.622 24.5414C12.5573 24.6464 12.1777 24.6464 12.1777 24.5495C12.1777 24.5011 12.2827 24.4041 12.412 24.3314C12.5493 24.2507 12.6704 24.1053 12.6947 24.0083C12.727 23.8872 12.8239 23.8064 12.9935 23.7741C13.4055 23.6852 13.9305 22.9502 13.7286 22.7482C13.672 22.6917 13.5832 22.724 13.4378 22.8856Z" fill="#FEFEFE"/>
<path d="M13.8583 23.4025C13.6321 23.451 13.4221 23.6852 13.1959 24.1214L13.0586 24.3879L13.3171 24.2506C13.624 24.0972 14.0683 23.6771 14.141 23.4671C14.1733 23.3944 14.1652 23.3379 14.1329 23.3379C14.1006 23.3459 13.9794 23.3702 13.8583 23.4025Z" fill="#FEFEFE"/>
<path d="M13.6889 24.3235C13.4385 24.5577 13.2285 24.8566 13.2285 24.9777C13.2285 25.107 13.5193 24.9939 13.8747 24.7273C14.2947 24.4123 14.3917 24.1861 14.117 24.1134C14.012 24.0892 13.8666 24.1538 13.6889 24.3235Z" fill="#FEFEFE"/>
<path d="M11.0792 26.8356C11.0226 26.981 11.2165 27.3607 11.4831 27.603C11.7254 27.8292 11.7415 27.9099 11.5719 28.0957C11.4669 28.2088 11.4669 28.2492 11.5477 28.3219C11.6285 28.3865 11.7254 28.3461 11.9273 28.1684C12.2343 27.9019 12.315 27.8857 12.5574 28.0553C12.727 28.1765 12.727 28.1765 12.6866 27.7565C12.6381 27.3041 12.3231 26.7225 12.1293 26.7225C11.9758 26.7225 11.9839 27.086 12.1454 27.2395C12.2989 27.393 12.3312 27.7807 12.202 27.8292C12.1454 27.8534 12.0969 27.8049 12.0969 27.7322C12.0969 27.5545 11.3861 26.7225 11.2327 26.7225C11.1761 26.7225 11.1034 26.771 11.0792 26.8356Z" fill="#FEFEFE"/>
<path d="M12.6631 26.9727C12.6631 27.1666 13.0589 27.9339 13.1639 27.9339C13.1962 27.9339 13.277 28.0551 13.3416 28.1924L13.4466 28.459L13.5031 28.1763C13.5516 27.9501 13.5193 27.8128 13.3416 27.4897C13.075 26.9889 12.9135 26.8031 12.7681 26.8031C12.7116 26.8031 12.6631 26.8839 12.6631 26.9727Z" fill="#FEFEFE"/>
<path d="M11.2169 28.7257C10.7646 28.9519 10.4254 29.3073 10.5142 29.4608C10.6192 29.6223 10.8535 29.5577 11.2331 29.2669C11.7824 28.8469 11.9358 28.8792 11.532 29.3234C11.2654 29.6142 11.225 29.8323 11.4189 29.905C11.6208 29.9777 11.7339 29.8808 12.5013 28.9276C12.7113 28.6692 12.469 28.5722 12.0974 28.7661C11.9197 28.863 11.8793 28.8549 11.7743 28.6934L11.6451 28.5076L11.2169 28.7257Z" fill="#FEFEFE"/>
<path d="M13.0589 28.7984C12.3804 29.3638 12.138 29.7839 12.3561 30.002C12.4531 30.0989 12.4934 30.0989 12.6469 29.9858C12.8892 29.8162 13.1881 29.3315 13.3012 28.9438C13.3497 28.7742 13.3739 28.6207 13.3577 28.6046C13.3416 28.5884 13.2043 28.6773 13.0589 28.7984Z" fill="#FEFEFE"/>
<path d="M13.3093 39.2021C13.2527 39.2667 13.0831 39.3233 12.9377 39.3233C12.7842 39.3233 12.6631 39.3475 12.6631 39.3879C12.6631 39.4444 13.0427 39.7918 13.4708 40.1149C13.5839 40.2037 13.7939 40.3007 13.9393 40.333C14.1897 40.3814 14.2059 40.3814 14.1251 40.228C14.0363 40.0664 13.7374 39.7837 13.3901 39.5575C13.1073 39.3718 13.2204 39.2991 13.5355 39.4687C13.6728 39.5414 13.9636 39.6949 14.1736 39.7999C14.3836 39.9049 14.6259 40.018 14.6986 40.0583C15.0459 40.236 14.9975 39.9937 14.6259 39.6302C14.0928 39.1213 13.5274 38.9356 13.3093 39.2021Z" fill="#FEFEFE"/>
<path d="M12.041 39.7836C11.8795 39.8402 11.9118 40.2117 12.0814 40.2602C12.2187 40.3087 12.3561 40.3571 12.768 40.5268C12.8892 40.5752 13.0023 40.656 13.0184 40.7125C13.0346 40.7691 13.0911 40.9549 13.1396 41.1245C13.2284 41.391 13.2203 41.4557 13.1153 41.5768C12.9296 41.7868 12.6468 42.4734 12.6953 42.6027C12.8003 42.8692 13.1073 42.6592 13.3819 42.1423C13.5919 41.7465 13.6727 41.7788 13.6485 42.2311C13.6242 42.5623 13.6404 42.635 13.7454 42.635C14.0119 42.635 14.1816 42.3442 14.2381 41.7949C14.3431 40.8499 14.125 40.5833 13.8746 41.3426C13.7454 41.7303 13.6323 41.8353 13.6323 41.5688C13.6323 41.4637 13.5596 41.3183 13.4707 41.2376C13.2769 41.076 13.2607 40.761 13.4304 40.5833C13.6081 40.4137 13.5838 40.3491 13.285 40.1794C13.083 40.0583 12.1783 39.7109 12.146 39.7352C12.138 39.7352 12.0895 39.7594 12.041 39.7836Z" fill="#FEFEFE"/>
<path d="M14.828 40.6803C14.6422 40.8903 14.5775 41.173 14.5856 41.698C14.6018 42.2715 14.6745 42.3685 14.933 42.1585C15.1026 42.0211 15.1268 41.9242 15.151 41.3669C15.1753 40.8822 15.151 40.7045 15.0622 40.6318C14.9733 40.5591 14.9249 40.5672 14.828 40.6803Z" fill="#FEFEFE"/>
</g>
<defs>
<filter id="filter0_d_607_3048" x="0.5" y="0.669434" width="75.9995" height="70.3452" filterUnits="userSpaceOnUse" color-interpolation-filters="sRGB">
<feFlood flood-opacity="0" result="BackgroundImageFix"/>
<feColorMatrix in="SourceAlpha" type="matrix" values="0 0 0 0 0 0 0 0 0 0 0 0 0 0 0 0 0 0 127 0" result="hardAlpha"/>
<feOffset dx="4" dy="4"/>
<feGaussianBlur stdDeviation="7"/>
<feComposite in2="hardAlpha" operator="out"/>
<feColorMatrix type="matrix" values="0 0 0 0 0 0 0 0 0 0 0 0 0 0 0 0 0 0 0.11 0"/>
<feBlend mode="normal" in2="BackgroundImageFix" result="effect1_dropShadow_607_3048"/>
<feBlend mode="normal" in="SourceGraphic" in2="effect1_dropShadow_607_3048" result="shape"/>
</filter>
</defs>
</svg>
