<svg width="10" height="21" viewBox="0 0 10 21" fill="none" xmlns="http://www.w3.org/2000/svg">
<path d="M3.4375 0.500244H6.5625C7.08203 0.500244 7.5 0.918213 7.5 1.43774V3.00024H2.5V1.43774C2.5 0.918213 2.91797 0.500244 3.4375 0.500244ZM0 7.04321C0 6.28149 0.390625 5.57446 1.03906 5.17212L1.65625 4.7854C2.21484 4.43384 2.85938 4.25024 3.51953 4.25024H6.48047C7.14062 4.25024 7.78516 4.43384 8.34375 4.7854L8.96094 5.17212C9.60938 5.57446 10 6.28149 10 7.04321C10 7.70728 9.70703 8.30493 9.24219 8.70728C9.71094 9.1604 10 9.79712 10 10.5002C10 11.2463 9.67188 11.9182 9.15234 12.3752C9.67188 12.8323 10 13.5042 10 14.2502C10 14.9963 9.67188 15.6682 9.15234 16.1252C9.67188 16.5823 10 17.2542 10 18.0002C10 19.3792 8.87891 20.5002 7.5 20.5002H2.5C1.12109 20.5002 0 19.3792 0 18.0002C0 17.2542 0.328125 16.5823 0.847656 16.1252C0.328125 15.6682 0 14.9963 0 14.2502C0 13.5042 0.328125 12.8323 0.847656 12.3752C0.328125 11.9182 0 11.2463 0 10.5002C0 9.79712 0.289063 9.1604 0.757813 8.70728C0.292969 8.30103 0 7.70728 0 7.04321ZM2.5 9.87524C2.5 10.219 2.78125 10.5002 3.125 10.5002H6.875C7.21875 10.5002 7.5 10.219 7.5 9.87524C7.5 9.53149 7.21875 9.25024 6.875 9.25024H3.125C2.78125 9.25024 2.5 9.53149 2.5 9.87524ZM3.125 14.2502C2.78125 14.2502 2.5 14.5315 2.5 14.8752C2.5 15.219 2.78125 15.5002 3.125 15.5002H6.875C7.21875 15.5002 7.5 15.219 7.5 14.8752C7.5 14.5315 7.21875 14.2502 6.875 14.2502H3.125Z" fill="#322E2C"/>
</svg>
