<svg width="340" height="49" viewBox="0 0 340 49" fill="none" xmlns="http://www.w3.org/2000/svg">
<path d="M19.9397 0.207523L19.5352 0.306427L20.4161 0.468273C21.9082 0.738018 22.6633 1.25053 22.906 2.18564C23.0858 2.84202 22.6903 3.60629 21.9801 3.99292C21.6565 4.16376 21.4678 4.19073 20.6138 4.19073C19.4363 4.18174 18.6003 3.97494 14.816 2.76109C10.6631 1.43036 9.48557 1.15162 8.07431 1.16061C6.95969 1.16961 6.07878 1.40339 4.90123 2.00581C2.85176 3.05781 1.6922 4.92803 1.6922 7.19388C1.6922 8.55159 2.11468 9.65754 2.96862 10.5117C3.68773 11.24 4.9282 11.7885 4.281 11.0872C3.51694 10.2779 3.54391 8.87528 4.34392 7.94017C4.86528 7.34674 5.35068 7.15791 6.41137 7.15791C7.38217 7.16691 7.56195 7.21186 13.8722 8.91125C16.398 9.58561 18.5194 10.0981 19.5621 10.26L20.2093 10.3679V13.4879V16.6079L18.7262 17.8128C17.5936 18.7299 17.27 19.0446 17.3598 19.1165C17.4228 19.1615 18.0969 19.71 18.843 20.3214L20.2093 21.4453L20.1913 25.8062L20.1644 30.176L19.4003 30.5627C17.5576 31.4798 14.9059 31.7046 12.9643 31.1111C12.1463 30.8594 10.753 30.1401 9.98895 29.5736C9.2968 29.0611 8.43387 28.2519 8.43387 28.108C8.43387 28.063 10.1328 27.1639 12.2092 26.1299L15.9845 24.2417V17.57C15.9845 13.8925 15.9576 10.8894 15.9306 10.8894C15.8947 10.8894 13.7913 11.8245 11.2474 12.9664C8.70354 14.1083 6.60912 15.0344 6.59115 15.0164C6.52822 14.9445 7.18441 13.6497 7.66082 12.9214C8.34398 11.8694 9.26085 10.9343 10.3755 10.1611C11.1215 9.63955 11.2833 9.4867 11.1215 9.46872C10.7979 9.41477 9.71029 9.81039 8.43387 10.4578C4.37988 12.4898 1.35961 16.4551 0.658474 20.6811C0.44274 21.9489 0.505663 24.5474 0.784318 25.8781C2.0967 32.1991 7.38217 36.551 13.7373 36.542C15.1666 36.542 15.9306 36.4161 17.2879 35.9665C18.3037 35.6249 19.9486 34.8426 20.7487 34.3121C22.4745 33.1702 23.9397 31.291 24.8026 29.133C25.4049 27.6494 25.7015 26.3277 25.7555 24.916C25.7824 24.2507 25.7824 23.7202 25.7555 23.7471C25.7285 23.7741 25.5218 24.1607 25.297 24.6013C24.3532 26.4985 22.861 28.2968 21.252 29.4747C20.9644 29.6905 20.6947 29.8613 20.6498 29.8613C20.6048 29.8613 20.5689 28.063 20.5689 25.6803V21.5083L22.0341 20.3124C22.8341 19.656 23.4993 19.0716 23.4993 19.0266C23.4993 18.9727 22.8431 18.3972 22.0341 17.7319L20.5689 16.527L20.5869 13.4609L20.6138 10.3948L21.243 10.3229C22.5464 10.188 23.679 9.6935 24.5959 8.8573C25.288 8.23689 25.6296 7.71538 25.9083 6.8612C26.2139 5.9081 26.2589 5.64735 26.2499 4.77518C26.2409 3.92998 26.0431 3.14773 25.6656 2.50034C25.1442 1.61019 23.742 0.675076 22.4116 0.324409C21.7015 0.144581 20.452 0.0816422 19.9397 0.207523ZM10.2316 20.2854V26.7143L9.24287 27.2089C8.70354 27.4786 8.21814 27.7034 8.17319 27.7034C8.11926 27.7034 7.9215 27.4696 7.73274 27.1819C6.86081 25.9051 5.97091 23.6842 5.69226 22.0927C5.52147 21.0767 5.52147 19.3953 5.70124 18.1994C5.84507 17.2283 6.2226 15.7627 6.37541 15.6099C6.45631 15.529 10.0249 13.8835 10.1687 13.8655C10.2047 13.8565 10.2316 16.7518 10.2316 20.2854Z" fill="#FAF5ED"/>
<path d="M257.849 0.180618C257.669 0.216583 257.498 0.270531 257.471 0.297508C257.444 0.315491 257.759 0.387421 258.163 0.450363C259.224 0.612209 259.772 0.845985 260.204 1.31354C260.635 1.7811 260.752 2.04185 260.752 2.53638C260.752 3.26469 260.231 3.87611 259.368 4.14585C258.811 4.32568 257.561 4.1998 256.213 3.84014C255.575 3.6693 253.894 3.15679 252.482 2.70721C249.579 1.7811 247.853 1.31354 246.999 1.22363C246.676 1.18766 246.316 1.1517 246.199 1.13371C245.795 1.07077 244.527 1.27758 243.79 1.52934C240.869 2.53638 239.242 4.97306 239.556 7.8773C239.7 9.244 240.428 10.4309 241.507 11.0783C242.28 11.5458 242.406 11.5278 242.01 11.0153C241.471 10.296 241.381 9.47778 241.768 8.6146C242.172 7.69747 242.864 7.22992 243.925 7.14C244.698 7.07706 245.273 7.19395 248.482 8.05713C252.428 9.11812 256.123 10.0442 257.139 10.2241L258.056 10.3769V13.488V16.599L256.572 17.8039C255.754 18.4692 255.089 19.0177 255.089 19.0267C255.089 19.0357 255.754 19.5842 256.572 20.2495L258.056 21.4544L258.029 25.8152L258.011 30.1761L257.247 30.5537C255.359 31.4799 252.752 31.7136 250.81 31.1112C249.408 30.6796 247.952 29.8164 246.846 28.7465L246.154 28.0901L249.966 26.1659L253.786 24.2417L253.813 17.5521C253.831 11.2131 253.822 10.8715 253.678 10.9164C253.588 10.9344 251.485 11.8785 248.995 13.0024C246.505 14.1264 244.446 15.0255 244.428 14.9985C244.338 14.9176 245.327 13.1103 245.822 12.445C246.514 11.5188 247.224 10.8355 248.312 10.0622L249.201 9.43282L248.77 9.48677C248.195 9.5587 246.406 10.296 245.489 10.8445C242.693 12.5169 240.446 15.0615 239.269 17.9028C237.848 21.3285 238.046 25.8063 239.763 29.241C241.867 33.422 245.75 36.0565 250.505 36.5151C253.139 36.7758 256.033 35.9756 258.577 34.2942C260.95 32.7207 262.73 29.8884 263.404 26.5795C263.575 25.7343 263.692 23.8371 263.575 23.8371C263.53 23.8371 263.386 24.0709 263.26 24.3496C262.667 25.6894 261.166 27.7035 260.024 28.7015C259.314 29.3129 258.595 29.8614 258.496 29.8614C258.451 29.8614 258.415 27.9732 258.424 25.6534V21.4544L259.907 20.2585C260.716 19.6022 261.363 19.0267 261.336 18.9817C261.309 18.9368 260.644 18.3703 259.853 17.7229L258.415 16.5451V13.461V10.3769L259.071 10.323C260.357 10.2151 261.516 9.69357 262.541 8.75846C264.033 7.40974 264.528 4.63139 263.62 2.73419C263.143 1.73614 261.669 0.69313 260.222 0.324482C259.548 0.153645 258.334 0.0817108 257.849 0.180618ZM247.988 20.3125V26.7683L246.99 27.2539L245.992 27.7484L245.741 27.4517C245.076 26.6515 244.105 24.5205 243.709 22.956C243.287 21.3195 243.287 19.0537 243.709 17.1835C244.078 15.538 243.961 15.6639 246.1 14.7018C247.116 14.2432 247.952 13.8656 247.97 13.8656C247.979 13.8566 247.988 16.7609 247.988 20.3125Z" fill="#FAF5ED"/>
<path d="M214.118 3.93901L210.585 6.43863L210.918 6.51056C211.098 6.54653 211.358 6.65443 211.502 6.75333C211.817 6.97812 212.266 7.89525 212.392 8.54263C212.446 8.84834 212.482 13.0474 212.482 20.0697V31.1022L211.125 32.298C209.92 33.35 209.785 33.5029 209.911 33.6198C210.028 33.7367 210.127 33.6737 210.828 33.0623L211.61 32.379L213.102 33.8086C213.92 34.5909 214.801 35.4181 215.044 35.6429L215.502 36.0475L218.352 33.5389C220.329 31.7945 221.183 30.9853 221.147 30.8954C221.111 30.8235 221.057 30.7605 221.012 30.7605C220.976 30.7605 220.644 31.0213 220.284 31.345C219.925 31.6686 219.601 31.9294 219.574 31.9294C219.547 31.9294 219.125 31.4978 218.63 30.9673L217.74 30.0052L217.695 15.7178L217.65 1.43939L214.118 3.93901Z" fill="#FAF5ED"/>
<path d="M97.0377 1.59227C97.0018 1.62824 96.9748 1.74513 96.9748 1.85303C96.9748 2.18571 96.4445 3.12082 96.0759 3.46249C95.5096 3.97501 95.0332 4.17282 94.2782 4.21778C93.1186 4.28971 91.995 3.89408 90.9433 3.0399C90.6376 2.79713 90.359 2.63528 90.323 2.68024C90.2871 2.71621 89.1545 4.02896 87.8061 5.58448C86.4578 7.14 85.2443 8.52468 85.1185 8.66854C84.9207 8.88434 84.9117 8.9293 85.0286 9.04619C85.1544 9.17207 85.2533 9.09114 85.9544 8.28191L86.7365 7.38277L87.3837 7.88629C88.5073 8.76745 89.577 9.20803 90.8624 9.34291L91.5365 9.40584L91.5635 17.0486C91.5725 21.877 91.5545 24.6553 91.5006 24.6014C91.4466 24.5474 89.0646 20.2046 86.1881 14.9356C83.3117 9.6666 80.7768 5.08995 80.5521 4.74827C79.2757 2.85108 77.1183 1.89798 75.1318 2.35655C73.4868 2.73419 71.8868 4.39761 71.5003 6.13296C71.3385 6.84328 71.2486 8.46174 71.3385 9.00123L71.4014 9.40584L71.6082 8.77644C72.1475 7.13101 73.0644 6.57354 74.2779 7.14899C74.8172 7.40075 75.1588 7.75142 75.7071 8.59661L76.1206 9.21702V12.0224V14.8187L75.4734 14.8816C72.6239 15.1604 71.0329 16.3742 70.7003 18.5412C70.4666 20.0427 71.2576 21.9399 72.4172 22.6772C72.7587 22.893 73.8104 23.2976 74.0262 23.2976C74.0531 23.2976 73.9273 23.1358 73.7475 22.929C73.352 22.4974 73.2441 22.2456 73.2441 21.7331C73.2441 20.9239 73.9902 20.3394 75.1138 20.2585C75.4914 20.2316 75.806 20.2585 75.9228 20.3215L76.1206 20.4294V24.4126V28.3958L75.3385 28.4497C72.2913 28.6565 70.2059 30.0142 69.289 32.397C68.489 34.474 68.8396 36.4701 70.2778 37.9897C71.2666 39.0237 72.3722 39.5722 73.7655 39.707C74.1161 39.743 74.6374 39.743 74.9251 39.707L75.4464 39.6441L74.7992 39.4822C73.9902 39.2754 73.5138 39.0237 73.0014 38.5561C71.9497 37.5851 71.8778 36.2273 72.8306 35.1034C73.6936 34.0874 75.5633 34.0964 77.1183 35.1304C77.4419 35.3462 77.8824 35.7058 78.0802 35.9216L78.4487 36.3262L81.1993 33.2602C82.7094 31.5788 83.9319 30.1491 83.914 30.0952C83.8331 29.8524 83.5814 30.0232 82.9252 30.7605L82.233 31.5518L81.7566 31.0932C80.4892 29.8614 78.7184 28.8993 77.0644 28.5666L76.5251 28.4587L76.4981 19.1616C76.4891 14.0454 76.5161 9.90037 76.552 9.94533C76.597 9.99928 79.797 15.8617 83.6713 22.9829C87.5365 30.1042 90.7905 36.0205 90.8893 36.1374C91.0421 36.3083 91.159 36.3352 91.4916 36.3173L91.8961 36.2903L91.941 22.8481L91.986 9.40584L92.2556 9.37887C92.8489 9.31593 93.6399 9.06417 94.422 8.68653C95.1141 8.35385 95.3478 8.18301 95.8872 7.59856C96.9568 6.44766 97.5142 5.08995 97.5142 3.60636C97.5142 2.65326 97.2175 1.41245 97.0377 1.59227Z" fill="#FAF5ED"/>
<path d="M31.3111 4.42454C29.5313 5.80922 28.0391 6.97811 28.0031 7.01408C27.9672 7.05004 28.129 7.2029 28.3717 7.35575C28.6503 7.52659 28.8661 7.75137 28.9829 7.97616C29.1447 8.31784 29.1537 8.65052 29.1807 19.5751L29.1987 30.8234L27.7604 31.9024C26.52 32.8375 26.3402 32.9994 26.4391 33.1252C26.538 33.2601 26.6189 33.2152 27.1941 32.7836C27.5537 32.5138 27.8683 32.289 27.9043 32.289C27.9582 32.289 29.8189 34.0154 31.1942 35.3371L31.7066 35.8227L34.7178 33.404C37.019 31.5607 37.7022 30.9583 37.6302 30.8774C37.5763 30.8144 37.5134 30.7605 37.4774 30.7605C37.4505 30.7605 37.1179 31.0033 36.7493 31.3L36.0752 31.8395L35.3381 31.1022L34.592 30.3559V24.2327V18.1005L35.437 17.3722C35.9044 16.9676 36.3089 16.6439 36.3358 16.6439C36.3628 16.6439 36.9561 17.3542 37.6482 18.2174L38.9157 19.7999L38.8797 27.056C38.8438 34.5639 38.8348 34.8067 38.4482 36.3172C38.1696 37.4411 37.801 38.0795 36.9111 38.9967C36.0572 39.8778 35.5538 40.2015 34.556 40.5252C33.9448 40.714 33.9268 40.732 34.1875 40.8039C34.3403 40.8399 35.0864 40.8759 35.8504 40.8669C37.0909 40.8579 37.3336 40.8309 38.0527 40.6151C41.055 39.716 42.9697 37.8188 43.7966 34.9685C44.1742 33.6557 44.2281 32.6667 44.291 25.0959L44.345 17.9567L44.9292 17.4981C46.2057 16.518 46.1427 16.581 46.0169 16.4281C45.918 16.3112 45.7832 16.3742 44.9922 16.9766L44.0933 17.66L43.7697 17.2913C42.3674 15.6639 40.0123 13.0563 39.9404 13.0563C39.8955 13.0563 38.6819 14.0634 37.2437 15.3132L34.6369 17.57L34.592 9.73849L34.5471 1.90693L31.3111 4.42454Z" fill="#FAF5ED"/>
<path d="M165.56 5.18886L162.729 7.49067L162.702 5.31474C162.684 3.30964 162.666 3.1478 162.522 3.17477C162.378 3.20175 162.369 4.10989 162.342 19.2245L162.324 35.2383L161.902 35.1124C161.542 35.0045 160.293 34.7528 159.25 34.5819L158.908 34.528V20.825C158.908 11.2311 158.881 6.97816 158.809 6.64547C158.495 5.10793 157.353 3.83115 155.87 3.33662C153.794 2.65327 151.843 3.12082 150.279 4.68534C149.254 5.71036 148.652 7.02311 148.67 8.20099V8.68653L148.787 8.32687C149.119 7.27488 149.767 6.46564 150.405 6.29481C151.627 5.96212 152.643 6.81631 152.886 8.37183C152.931 8.69552 152.976 10.6647 152.976 12.8406V16.7249L152.553 16.7788C151.043 16.9767 149.946 17.4352 149.191 18.1725C148.571 18.7839 148.229 19.3144 148.014 19.9978C147.627 21.2386 147.996 22.8481 148.895 23.8371C149.317 24.3047 150.189 24.7363 150.71 24.7363H151.115L150.818 24.5295C150.135 24.0709 149.946 23.4325 150.297 22.7582C150.603 22.1737 151.169 21.904 152.104 21.904C152.625 21.904 152.823 21.9399 152.886 22.0388C152.94 22.1198 152.976 24.6643 152.976 28.5127V34.8517L152.562 35.0225C151.915 35.2832 150.818 36.0385 150.279 36.596C149.731 37.1625 149.245 37.9987 149.056 38.709C148.895 39.3114 148.904 40.6422 149.065 41.3525C149.47 43.0788 150.603 44.5984 151.924 45.2188C152.922 45.6864 153.659 45.8212 155.268 45.8212C156.985 45.8122 157.848 45.6953 161.335 44.958C166.27 43.924 167.798 43.7802 168.544 44.2747C169.03 44.6074 169.201 45.003 169.201 45.7763C169.192 46.6035 168.994 47.0441 168.284 47.7184C167.753 48.2309 167.762 48.2399 168.796 47.9162C170.414 47.4127 171.78 46.3607 172.347 45.2008C172.76 44.3466 172.931 43.6453 172.931 42.7551C172.931 41.0198 172.086 39.725 170.288 38.718C169.38 38.2145 168.778 38.0886 167.178 38.0976C165.56 38.1156 164.409 38.2684 160.589 38.9967C156.113 39.8509 154.342 40.0217 153.281 39.707C151.609 39.2125 151.178 37.0366 152.49 35.7778C153.964 34.3751 157.794 34.3661 162.863 35.7598C165.668 36.5241 166.234 36.632 167.672 36.641C169.057 36.6499 169.551 36.551 170.531 36.0565C171.565 35.535 172.149 34.7617 172.544 33.413C172.688 32.9095 172.706 31.9654 172.733 19.9258L172.76 6.97816L173.785 6.07901C174.693 5.29676 174.801 5.17088 174.693 5.05399C174.576 4.94609 174.441 5.02701 173.605 5.75532C173.084 6.21388 172.625 6.57354 172.58 6.55556C172.535 6.53757 171.592 5.71036 170.477 4.70332C169.353 3.70527 168.436 2.88705 168.419 2.88705C168.401 2.88705 167.115 3.92106 165.56 5.18886ZM165.452 8.192L166.729 9.31593V13.2902V17.2554L166.441 17.5071C165.38 18.3973 164.068 18.3793 163.016 17.4532L162.684 17.1655V12.5978V8.02116L163.34 7.49067C163.69 7.19395 164.032 6.97816 164.086 7.01412C164.14 7.0411 164.751 7.57159 165.452 8.192ZM163.187 18.1455C163.888 18.676 165.003 18.7749 165.83 18.3883C166.099 18.2624 166.414 18.0736 166.531 17.9747L166.729 17.7859V19.6471V21.5083L166.459 21.3195C165.38 20.5463 164.05 20.5642 162.998 21.3735L162.684 21.6073V19.7101C162.684 18.2085 162.711 17.8129 162.8 17.8668C162.854 17.9028 163.034 18.0287 163.187 18.1455ZM165.578 21.3735C165.803 21.4454 166.153 21.6522 166.36 21.832L166.738 22.1467L166.711 27.6495C166.684 33.1163 166.684 33.1433 166.486 33.5749C166.207 34.1683 165.461 34.9326 164.94 35.1574C164.409 35.3822 163.654 35.4811 163.097 35.4001L162.684 35.3372V28.7914V22.2546L162.98 21.9759C163.232 21.7241 163.744 21.4274 164.122 21.2925C164.4 21.1936 165.183 21.2386 165.578 21.3735Z" fill="#FAF5ED"/>
<path d="M268.186 6.85227C266.954 7.98519 266.253 8.69552 266.298 8.75846C266.46 9.03719 269.408 12.2471 269.471 12.2202C269.516 12.2022 270.424 11.393 271.494 10.4129L273.435 8.63258L273.147 8.29989C271.988 6.96916 270.244 5.04499 270.199 5.04499C270.163 5.04499 269.255 5.85422 268.186 6.85227Z" fill="#FAF5ED"/>
<path d="M114.997 8.83038C113.712 9.00122 112.867 9.45079 111.806 10.5208C110.692 11.6447 110.278 12.5259 110.278 13.7847C110.278 15.3492 110.602 16.0056 112.121 17.4981C112.777 18.1365 113.415 18.8469 113.541 19.0716C114.036 19.9348 114.054 20.1416 114.054 26.3547V32.0643L113.065 32.7836C112.517 33.1702 112.076 33.5479 112.076 33.6108C112.076 33.8896 112.337 33.7817 113.245 33.1073L114.224 32.388L116.472 34.2762C117.712 35.3102 118.746 36.1554 118.782 36.1554C118.818 36.1554 119.923 35.2832 121.254 34.2222C122.584 33.1613 123.699 32.2891 123.726 32.2891C123.762 32.2891 124.894 33.1792 126.252 34.2582L128.715 36.2363L130.081 35.3821C130.836 34.9146 133.029 33.5569 134.953 32.352L138.459 30.1761L138.485 24.4575L138.503 18.739L140.22 17.2194C141.164 16.3832 142.027 15.6279 142.126 15.547C142.306 15.4121 142.306 15.3762 142.189 15.2503C142.063 15.1334 141.964 15.1873 141.245 15.8347C140.796 16.2303 140.4 16.554 140.364 16.554C140.319 16.554 139.357 15.7808 138.225 14.8367C137.092 13.8926 136.13 13.1373 136.085 13.1553C136.04 13.1733 135.025 14.0904 133.82 15.1963C132.616 16.3113 131.609 17.2284 131.6 17.2374C131.582 17.2554 131.969 17.651 132.472 18.1365L133.38 18.9997V25.9501V32.9005L133.056 33.0893C132.885 33.1972 132.697 33.2781 132.652 33.2781C132.607 33.2781 131.717 32.5678 130.683 31.7046L128.795 30.1221V24.3227V18.5142L129.56 17.696C129.982 17.2374 130.324 16.8418 130.324 16.8148C130.324 16.7159 126.27 13.1283 126.198 13.1553C126.162 13.1733 125.128 14.0724 123.914 15.1604L121.694 17.1385L122.593 18.0376L123.492 18.9368V25.4646V31.9834L123.043 32.325L122.593 32.6667L121.227 31.5608C120.472 30.9583 119.744 30.3559 119.609 30.239L119.357 30.0053V23.8012C119.357 17.1025 119.348 17.0666 118.881 16.2573C118.539 15.6909 117.82 15.0435 116.615 14.2163C114.764 12.9575 114.117 12.1482 114.108 11.1052C114.108 10.5028 114.467 9.77448 115.051 9.22601C115.303 8.99223 115.492 8.79442 115.474 8.78543C115.456 8.77643 115.249 8.79442 114.997 8.83038Z" fill="#FAF5ED"/>
<path d="M339.118 12.5618C339.001 13.8476 338.192 14.5489 336.727 14.6479C336.116 14.6838 336.035 14.6658 335.423 14.3691C335.064 14.1893 334.534 13.8206 334.237 13.5509C333.94 13.2722 333.662 13.0564 333.608 13.0833C333.563 13.1013 332.754 13.6228 331.81 14.2342C329.68 15.6279 328.601 16.2843 326.803 17.2554L325.383 18.0196L325.392 20.9509V23.8821L326.875 25.2308C327.693 25.9681 328.439 26.6694 328.547 26.7773L328.736 26.9751L327.729 28.0271C324.978 30.8864 324.259 32.379 324.673 34.3751C325.014 35.9936 326.399 37.3872 327.945 37.675C328.538 37.7829 328.619 37.7109 328.169 37.4682C326.659 36.6589 326.372 35.3462 327.531 34.5639C328.556 33.8716 329.76 34.1953 331.208 35.562C331.558 35.8946 331.72 35.9936 331.81 35.9306C334.525 34.0334 336.143 32.9994 338.3 31.7766L339.855 30.8954L339.846 27.0291V23.1628L338.228 21.859C337.338 21.1397 336.529 20.4923 336.43 20.4204C336.259 20.2855 336.268 20.2585 336.898 19.4763C338.74 17.1834 339.675 15.0974 339.558 13.488C339.531 13.1103 339.441 12.6338 339.343 12.409L339.163 12.0134L339.118 12.5618ZM331.594 17.1834C333.536 19.0986 335.693 19.1705 337.689 17.3902L338.264 16.8777L338.048 17.2554C337.662 17.9297 336.673 19.2245 335.747 20.2585C334.803 21.3105 332.664 23.3246 332.439 23.3696C332.367 23.3875 331.882 23.0189 331.36 22.5603L330.417 21.7241V18.712V15.6999L330.74 16.1854C330.92 16.4461 331.307 16.8957 331.594 17.1834ZM333.868 24.6014L334.902 25.5005V29.2769L334.911 33.0533L334.48 32.2981C332.817 29.3399 329.707 28.3508 327.244 29.9873C326.974 30.1671 326.479 30.5987 326.156 30.9494C325.832 31.291 325.563 31.5428 325.563 31.4978C325.563 31.3899 326.147 30.4278 326.569 29.8614C326.965 29.3219 332.655 23.6393 332.763 23.6753C332.799 23.6932 333.293 24.1069 333.868 24.6014Z" fill="#FAF5ED"/>
<path d="M221.183 17.678C219.413 20.2765 217.956 22.4345 217.947 22.4705C217.929 22.5154 219.799 25.5635 222.082 29.259C225.822 35.2743 226.271 35.9576 226.406 35.8587C226.846 35.544 232.437 30.5538 232.437 30.4818C232.437 30.4369 232.375 30.3739 232.303 30.347C232.222 30.311 231.871 30.5628 231.35 31.0303C230.9 31.4259 230.496 31.7496 230.451 31.7316C230.406 31.7137 228.348 28.6296 225.885 24.8712C222.613 19.8899 221.417 18.0017 221.471 17.9028C221.759 17.3903 221.741 17.3903 222.559 17.8848C223.691 18.5772 224.545 18.8379 225.651 18.8379C226.37 18.8289 226.658 18.7929 227.062 18.6311C228.716 17.9837 229.975 16.1585 230.496 13.6319C230.568 13.2902 230.613 12.9845 230.595 12.9665C230.577 12.9485 230.361 13.1104 230.127 13.3172C229.894 13.5329 229.39 13.8477 229.022 14.0275C228.392 14.3332 228.294 14.3512 227.494 14.3512C226.73 14.3512 226.577 14.3152 226.055 14.0724C225.732 13.9196 225.237 13.6049 224.959 13.3801C224.671 13.1463 224.428 12.9575 224.419 12.9575C224.401 12.9575 222.945 15.0795 221.183 17.678Z" fill="#FAF5ED"/>
<path d="M183.852 14.441C182.621 15.1604 180.589 16.2573 179.349 16.8867L177.101 18.0196L177.11 24.4575C177.11 28.0001 177.083 30.9583 177.047 31.0393C177.011 31.1202 176.661 31.4619 176.265 31.8035C175.636 32.334 175.555 32.4419 175.663 32.5498C175.816 32.6937 175.87 32.6577 176.769 31.8755L177.29 31.4169L180.059 33.7727L182.827 36.1284L184.958 34.8516C186.881 33.6917 191.16 31.291 192.014 30.8864L192.347 30.7246V24.6373V18.5501L193.156 17.7859C193.866 17.1295 193.956 17.0126 193.83 16.9137C193.677 16.7878 193.641 16.8148 192.598 17.8038L192.095 18.2894L189.146 15.7088C187.528 14.2972 186.18 13.1373 186.153 13.1373C186.126 13.1373 185.093 13.7307 183.852 14.441ZM185.101 18.3074L187.034 20.1056V26.6604L187.043 33.2062L186.711 32.9095C186.522 32.7476 185.47 31.7945 184.373 30.7875L182.369 28.9532V22.3895V15.8167L182.773 16.1584C182.989 16.3562 184.041 17.3183 185.101 18.3074Z" fill="#FAF5ED"/>
<path d="M57.7737 13.479C56.0029 14.603 52.1017 16.8778 50.6186 17.678L48.7938 18.6401V24.7903V30.9314L47.9399 31.6238C47.4725 32.0014 47.0859 32.3341 47.0859 32.3701C47.0859 32.406 47.1309 32.478 47.1938 32.5409C47.2657 32.6128 47.4635 32.5049 47.9848 32.0733C48.3624 31.7586 48.7579 31.4529 48.8568 31.39C49.0275 31.2821 49.2433 31.4529 51.6703 33.6648C53.1175 34.9866 54.322 36.0656 54.358 36.0656C54.3849 36.0656 56.4164 34.4651 58.8614 32.5049C61.3064 30.5448 63.3918 28.8904 63.4907 28.8184C63.6435 28.7105 63.6525 28.6746 63.5266 28.5577C63.4008 28.4318 63.1221 28.6296 60.83 30.4459L58.2771 32.469L57.8277 32.0374C57.585 31.7946 56.6411 30.9045 55.7422 30.0503L54.0973 28.4947V27.7485V26.9932L58.3041 23.8731C60.6142 22.1558 62.4929 20.7082 62.4749 20.6542C62.43 20.4834 58.2771 13.2273 58.2232 13.2273C58.1962 13.2273 57.9985 13.3442 57.7737 13.479ZM56.2996 19.836C57.4142 21.7512 58.3041 23.3516 58.2771 23.3876C58.2142 23.4865 54.2141 26.4447 54.1512 26.4447C54.1153 26.4447 54.0973 24.1069 54.0973 21.2476C54.1063 17.8938 54.1332 16.1135 54.1872 16.2034C54.2321 16.2844 55.1849 17.9208 56.2996 19.836Z" fill="#FAF5ED"/>
<path d="M105.325 13.479C103.519 14.6299 99.6535 16.8868 98.1703 17.678L96.3456 18.6401V24.7813V30.9314L95.4916 31.6238C95.0242 32.0104 94.6377 32.3431 94.6377 32.3791C94.6377 32.406 94.6826 32.478 94.7456 32.5409C94.8175 32.6128 95.0152 32.5049 95.5366 32.0733C95.9141 31.7586 96.3096 31.4529 96.4085 31.39C96.5793 31.2821 96.786 31.4439 99.222 33.6648C100.669 34.9866 101.874 36.0656 101.91 36.0656C101.937 36.0656 103.923 34.492 106.323 32.5769C108.723 30.6617 110.809 29.0073 110.953 28.8904C111.177 28.7105 111.195 28.6746 111.078 28.5487C110.962 28.4318 110.647 28.6566 108.391 30.4459L105.829 32.469L105.334 31.9924C105.065 31.7317 104.121 30.8325 103.249 30.0053L101.649 28.4947V27.7395V26.9932L105.856 23.8821C108.166 22.1648 110.054 20.7351 110.054 20.6992C110.054 20.6003 105.838 13.2273 105.775 13.2273C105.748 13.2273 105.55 13.3442 105.325 13.479ZM103.797 19.7281C104.939 21.6972 105.874 23.3337 105.865 23.3696C105.865 23.4326 101.892 26.3728 101.73 26.4267C101.685 26.4447 101.649 24.4936 101.649 21.2656C101.649 18.4153 101.667 16.0955 101.685 16.1135C101.703 16.1315 102.647 17.759 103.797 19.7281Z" fill="#FAF5ED"/>
<path d="M197.237 15.5739C193.902 18.5861 194.18 18.3163 194.324 18.4782C194.423 18.604 194.531 18.5411 195.187 17.9387C195.601 17.561 195.978 17.2733 196.023 17.2913C196.077 17.3003 196.526 17.8667 197.021 18.5321L197.938 19.746L197.884 25.3656L197.83 30.9853L197.443 31.3449C197.237 31.5427 196.697 32.0373 196.257 32.4419C195.538 33.0983 195.466 33.1972 195.583 33.3141C195.708 33.4399 195.798 33.377 196.499 32.7296L197.29 32.0013L197.497 32.1721C197.614 32.2621 198.594 33.1522 199.681 34.1413C200.76 35.1393 201.695 35.9575 201.74 35.9665C201.875 35.9755 207.538 31.1921 207.538 31.0662C207.538 30.7785 207.295 30.8954 206.45 31.6057C205.56 32.352 205.533 32.37 205.344 32.2171C205.237 32.1362 204.733 31.6956 204.23 31.255L203.313 30.4458V23.936V17.4352L203.933 18.0196C204.311 18.3703 204.805 18.7299 205.174 18.9098C205.74 19.1795 205.857 19.2065 206.639 19.2065C207.43 19.2065 207.547 19.1795 208.122 18.9008C209.776 18.0825 210.954 16.0505 210.954 14.0004V13.2991L210.54 13.6677C210.315 13.8656 209.956 14.1083 209.749 14.2162C208.985 14.5759 207.807 14.3691 206.954 13.7217L206.558 13.416L204.967 15.0254C204.095 15.9066 203.322 16.7158 203.25 16.8237C203.178 16.9226 203.088 17.0036 203.052 17.0036C203.007 17.0036 202.279 16.1494 201.425 15.1154C200.571 14.0724 199.861 13.2272 199.852 13.2272C199.843 13.2272 198.666 14.2792 197.237 15.5739Z" fill="#FAF5ED"/>
<path d="M296.132 15.3941C294.649 16.572 293.417 17.5431 293.372 17.5431C293.337 17.5431 292.474 16.626 291.449 15.493C290.424 14.3691 289.561 13.443 289.525 13.434C289.498 13.416 288.303 14.3421 286.865 15.4751C285.435 16.608 284.231 17.5341 284.204 17.5161C284.177 17.5071 283.287 16.572 282.235 15.4481L280.321 13.398L280.087 13.6138C279.961 13.7307 278.694 14.8457 277.273 16.0955C275.844 17.3453 274.685 18.3793 274.685 18.3883C274.685 18.4063 274.739 18.4692 274.81 18.5232C274.909 18.6041 275.107 18.4782 275.763 17.9027C276.222 17.5071 276.626 17.1834 276.662 17.1834C276.698 17.1834 277.3 17.8398 278.001 18.64L279.269 20.0877V25.1499V30.221L278.64 30.8235L278.01 31.4349L279.988 33.6827C281.067 34.9146 281.993 35.9396 282.028 35.9486C282.064 35.9666 283.017 35.0584 284.141 33.9345L286.19 31.8845L285.336 30.9673L284.482 30.0592V23.945V17.8308L284.914 17.4801C285.148 17.2823 285.381 17.0935 285.444 17.0665C285.543 17.0036 288.24 20.0877 288.348 20.3754C288.375 20.4473 288.393 22.7491 288.384 25.5005V30.4998L287.862 31.0213C287.503 31.3899 287.359 31.5877 287.413 31.6777C287.467 31.7676 290.523 35.2562 291.017 35.7957C291.116 35.9036 291.26 35.7957 292.087 34.9865C292.608 34.465 293.516 33.5299 294.11 32.9005L295.188 31.7586L294.478 31.0123L293.759 30.266L293.696 24.0619L293.633 17.8578L294.181 17.4262C294.478 17.1924 294.739 17.0036 294.766 17.0036C294.784 17.0036 295.476 17.7499 296.294 18.658L297.786 20.3214V25.3297V30.3469L297.283 30.8594L296.77 31.3719L298.865 33.6738C300.923 35.9306 300.968 35.9756 301.148 35.8137C301.247 35.7328 302.505 34.5729 303.943 33.2422C305.373 31.9024 306.559 30.8055 306.577 30.7965C306.622 30.7695 306.487 30.4908 306.415 30.4908C306.379 30.4908 306.056 30.7605 305.705 31.0842C305.355 31.4079 305.031 31.6597 304.995 31.6417C304.95 31.6327 304.465 31.1112 303.907 30.4908L302.91 29.3668V23.6123L302.919 17.8578L303.863 17.1475C304.384 16.7518 304.824 16.4012 304.851 16.3562C304.878 16.3202 304.86 16.2213 304.815 16.1494C304.752 16.0325 304.564 16.1404 303.728 16.7878L302.712 17.5701L302.505 17.3543C302.397 17.2374 301.525 16.2573 300.582 15.1783C299.629 14.1084 298.847 13.2272 298.838 13.2362C298.829 13.2362 297.606 14.2073 296.132 15.3941Z" fill="#FAF5ED"/>
<path d="M315.854 14.6748C313.328 16.2124 311.845 17.0576 309.993 18.0286L308.843 18.6311V24.7812V30.9314L307.989 31.6237C307.521 32.0014 307.135 32.334 307.135 32.37C307.135 32.406 307.18 32.4779 307.234 32.5318C307.315 32.6128 307.53 32.4779 308.106 32.0014C308.528 31.6597 308.933 31.354 308.986 31.327C309.049 31.3 310.281 32.361 311.719 33.6828C313.166 34.9955 314.38 36.0655 314.416 36.0475C314.524 36.0115 323.566 28.7914 323.629 28.7015C323.647 28.6565 323.62 28.5756 323.548 28.5217C323.45 28.4407 322.892 28.8454 320.879 30.4368L318.335 32.4509L317.733 31.9024C317.4 31.5967 316.456 30.7156 315.647 29.9513L314.164 28.5576L314.155 27.7754L314.146 26.9841L315.998 25.6174C317.014 24.8621 318.91 23.4505 320.214 22.4794L322.587 20.7261L320.456 16.9766C319.288 14.9176 318.308 13.2362 318.281 13.2272C318.254 13.2272 317.166 13.8746 315.854 14.6748ZM318.218 23.4864C318.002 23.6843 314.254 26.4446 314.191 26.4446C314.164 26.4446 314.146 24.1069 314.146 21.2566V16.0685L316.258 19.701C318.272 23.1538 318.371 23.3426 318.218 23.4864Z" fill="#FAF5ED"/>
<path d="M265.858 15.6819C263.826 17.4712 263.215 18.0647 263.287 18.1456C263.341 18.2085 263.404 18.2625 263.44 18.2625C263.467 18.2625 263.799 18.0017 264.168 17.678C264.536 17.3543 264.869 17.0936 264.905 17.0936C264.932 17.0936 265.471 17.705 266.091 18.4513L267.224 19.809V25.5905V31.372L266.442 32.0734C266.001 32.46 265.633 32.7927 265.615 32.8017C265.588 32.8196 265.633 32.8916 265.705 32.9635C265.822 33.0894 265.939 33.0175 266.685 32.3791C267.35 31.8126 267.557 31.6777 267.637 31.7676C267.691 31.8306 268.473 32.7567 269.381 33.8177C270.289 34.8787 271.08 35.8048 271.143 35.8767C271.233 35.9756 271.709 35.58 273.912 33.5929C275.377 32.2802 276.572 31.1652 276.572 31.1382C276.572 31.1023 276.536 31.0214 276.501 30.9584C276.447 30.8775 276.213 31.0303 275.665 31.5159C275.251 31.8935 274.883 32.1992 274.847 32.1992C274.811 32.1992 274.298 31.6418 273.705 30.9584L272.626 29.7266L272.617 24.017V18.3074L273.525 17.5072C274.361 16.7789 274.505 16.5721 274.262 16.4912C274.208 16.4732 273.795 16.7789 273.336 17.1745C272.878 17.5791 272.473 17.8759 272.429 17.8579C272.393 17.8309 271.575 16.8868 270.622 15.7629C269.669 14.6479 268.806 13.6319 268.707 13.524L268.527 13.3262L265.858 15.6819Z" fill="#FAF5ED"/>
</svg>
