<svg width="312" height="37" viewBox="0 0 312 37" fill="none" xmlns="http://www.w3.org/2000/svg">
<path d="M31.3868 0.244045C26.2579 1.05174 22.3675 4.64601 21.0214 9.82874C20.7521 10.8787 20.7387 11.3499 20.6848 17.1923C20.6444 21.4596 20.6714 23.8692 20.779 24.7981C21.1425 27.8943 22.4618 30.6135 24.6425 32.7001C27.0118 34.9886 29.7714 36.1059 33.0291 36.0924C38.1984 36.0655 42.8292 32.5924 44.4581 27.5039C45.0235 25.7404 45.1446 24.0577 45.1446 17.6769C45.1446 10.5153 44.9965 9.46527 43.5831 6.70564C42.4254 4.45754 40.5542 2.62675 38.2119 1.45559C36.0984 0.405586 33.3926 -0.0655708 31.3868 0.244045ZM35.2638 6.82679C36.5292 7.45949 37.8215 8.75181 38.4138 10.0037C38.8042 10.8249 38.8715 11.1345 38.9657 12.4941C39.1138 14.7557 39.1003 23.3038 38.9523 24.4077C38.6427 26.5212 37.2292 28.4866 35.3311 29.4289C34.3618 29.9135 34.2676 29.927 32.908 29.927C31.5618 29.927 31.4272 29.9001 30.5522 29.4693C28.883 28.6481 27.4426 26.8712 26.9714 25.0135C26.8637 24.6231 26.7829 22.375 26.7426 18.6596C26.6753 13.6384 26.7022 12.7903 26.9041 11.7941C27.4156 9.26335 28.9368 7.33833 31.0503 6.55756C31.6022 6.35563 32.033 6.30179 33.0426 6.34217C34.1868 6.36909 34.4292 6.42294 35.2638 6.82679Z" fill="#FAF5ED"/>
<path d="M121.701 0.257618C119.332 0.60762 117.07 2.70764 116.424 5.15766C115.858 7.35191 116.303 9.58654 118.12 13.652C118.564 14.6212 118.914 15.4827 118.914 15.5635C118.914 15.6308 118.537 16.1424 118.08 16.6943C116.276 18.8078 112.345 23.7617 112.008 24.354C111.537 25.1482 111.106 26.8578 111.106 27.8944C111.12 29.7925 111.887 31.8386 113.139 33.2521C114.916 35.2714 117.958 36.4425 120.449 36.0656C122.993 35.6887 124.582 34.5983 126.318 32.0271C126.803 31.3136 126.924 31.1925 127.045 31.3675C127.126 31.4752 127.624 32.4579 128.135 33.5213L129.078 35.4733L131.784 35.581C133.264 35.6348 134.799 35.6348 135.189 35.581L135.876 35.4867L135.351 34.531C135.068 33.9925 133.857 31.7579 132.659 29.5502L130.478 25.5386L131.339 24.1655C131.824 23.4116 132.982 21.5943 133.91 20.127C134.853 18.6462 135.66 17.3674 135.701 17.2597C135.755 17.0981 135.243 17.0712 132.43 17.0712H129.078L128.405 18.3501C128.041 19.0501 127.691 19.6289 127.637 19.6289C127.462 19.6289 126.601 18.3231 126.008 17.1385L125.416 15.927L126.466 14.4462C127.772 12.6154 128.782 10.6365 129.159 9.14231C129.387 8.24038 129.428 7.71537 129.387 6.51728C129.347 5.11727 129.307 4.95573 128.849 3.97303C127.947 2.0884 126.237 0.742237 124.178 0.298004C123.195 0.0960808 122.858 0.0826187 121.701 0.257618ZM123.733 5.73651C124.299 6.27497 124.393 6.73267 124.11 7.78268C123.774 9.08846 123.289 10.0442 122.885 10.2327C122.455 10.4212 122.414 10.3808 121.943 9.19615C121.499 8.06537 121.364 6.88075 121.607 6.3019C122.01 5.33266 123.02 5.06343 123.733 5.73651ZM122.603 22.6174C123.074 23.5328 123.545 24.529 123.639 24.8386C123.801 25.3905 123.787 25.4444 123.289 26.2521C122.455 27.6251 120.933 29.5905 120.516 29.7925C120.314 29.9002 119.857 29.9944 119.507 29.9944C117.891 29.9944 116.787 28.4463 117.366 26.9655C117.649 26.2117 121.378 20.9886 121.633 20.9751C121.687 20.9751 122.118 21.7155 122.603 22.6174Z" fill="#FAF5ED"/>
<path d="M148.53 0.244213C144.465 0.742294 140.897 3.30001 139.04 7.04235C138.703 7.70197 138.272 8.85967 138.07 9.60006L137.707 10.9462L137.693 17.9463C137.693 24.2194 137.72 25.0675 137.936 26.0771C138.488 28.6079 139.713 30.8425 141.503 32.5791C142.688 33.7233 143.401 34.2349 144.707 34.8945C150.374 37.7214 157.199 35.5003 160.444 29.7925C161.265 28.3521 161.857 26.4675 161.951 25.0136L162.032 23.8694H159.124H156.203L155.772 25.1483C155.018 27.3425 153.901 28.6887 152.192 29.4964C151.357 29.9002 151.182 29.9271 149.863 29.9271C148.503 29.9271 148.409 29.9137 147.426 29.4156C145.703 28.5675 144.451 26.9252 143.94 24.879C143.791 24.3002 143.751 22.7655 143.765 18.0136C143.765 12.1578 143.778 11.8482 144.061 10.9462C144.855 8.33466 147.036 6.47696 149.459 6.32888C150.657 6.26157 151.882 6.5308 152.757 7.04235C154.278 7.93081 155.638 9.99045 155.961 11.902L156.122 12.8982H159.138H162.167L162.072 11.8347C161.628 6.45003 157.872 1.83269 152.918 0.580757C151.492 0.230755 149.768 0.096138 148.53 0.244213Z" fill="#FAF5ED"/>
<path d="M175.049 0.24408C169.853 0.890236 165.599 4.92873 164.482 10.273C164.294 11.1749 164.253 12.3596 164.24 17.6096C164.213 24.5289 164.294 25.8077 164.94 27.6655C166.017 30.802 168.346 33.427 171.347 34.9213C173.151 35.8097 174.349 36.079 176.463 36.079C177.796 36.079 178.469 36.0117 179.29 35.7963C183.53 34.679 187.03 31.2059 188.242 26.8981C188.605 25.5924 188.767 22.7789 188.767 17.2731C188.78 12.6961 188.659 11.0942 188.242 9.46531C187.219 5.60181 184.217 2.2364 180.609 0.930622C178.886 0.297924 176.732 0.0286942 175.049 0.24408ZM177.944 6.50374C180.111 7.06913 181.699 8.77876 182.319 11.2288C182.561 12.1846 182.588 12.7365 182.588 18.1481C182.588 23.5596 182.561 24.1116 182.319 25.0674C181.982 26.4001 181.484 27.302 180.609 28.2039C178.751 30.1155 175.83 30.5328 173.582 29.2135C172.155 28.3789 170.836 26.4808 170.486 24.7712C170.392 24.3135 170.338 21.8635 170.338 18.0404C170.338 11.4307 170.365 11.148 171.159 9.66723C172.573 7.01529 175.198 5.79028 177.944 6.50374Z" fill="#FAF5ED"/>
<path d="M0.936239 0.74197C0.895854 0.782352 0.855469 2.15544 0.855469 3.77084V6.70548H4.15357H7.45168V21.096V35.473L10.4267 35.5672C12.069 35.6211 13.4421 35.6211 13.496 35.5807C13.5363 35.5269 13.6036 29.0114 13.6171 21.096L13.671 6.70548H17.0229H20.3749V3.77084V0.822739L18.4633 0.728508C16.0267 0.620815 1.05739 0.634277 0.936239 0.74197Z" fill="#FAF5ED"/>
<path d="M45.8574 0.742283C45.1709 0.769207 44.6055 0.823055 44.6055 0.849976C44.6055 0.8769 46.0055 6.53079 47.7016 13.3962C50.9998 26.656 53.194 35.2445 53.3555 35.5137C53.4363 35.6483 54.0421 35.6483 56.0479 35.5676L58.646 35.4464L59.6287 31.0714C60.1806 28.6617 61.2306 23.9367 61.9845 20.5713C62.7383 17.2059 63.3979 14.4059 63.4383 14.352C63.5729 14.2039 64.4749 17.5559 66.871 27.0194L69.0384 35.5541L71.4615 35.5676C72.7942 35.5676 74.0461 35.5406 74.2346 35.4868C74.5711 35.3926 74.6384 35.1906 75.6346 31.381C78.1923 21.5405 83.375 1.03844 83.375 0.715359C83.375 0.621128 79.7134 0.661514 78.0038 0.769207L76.6038 0.849976L76.348 1.92691C76.2134 2.51922 75.5134 5.54809 74.8134 8.65773C73.6557 13.7732 72.0672 20.3155 71.8115 21.0021C71.7441 21.1905 70.9499 18.2693 69.3884 12.077C68.096 7.01541 66.9383 2.41153 66.7903 1.84614L66.521 0.823055L65.0537 0.728821C64.246 0.688438 63.0075 0.688438 62.321 0.728821L61.0556 0.823055L60.9883 1.24036C60.9344 1.46921 60.2075 4.78078 59.346 8.59042C57.5556 16.5463 56.4517 21.1098 56.3171 21.1098C56.2633 21.1098 56.169 20.8809 56.1152 20.5982C56.0479 20.2347 53.1805 7.66157 51.6728 1.07883C51.6055 0.809593 51.5248 0.782669 50.8247 0.782669C50.4074 0.782669 49.3978 0.755745 48.5767 0.728821C47.769 0.7019 46.5305 0.715359 45.8574 0.742283Z" fill="#FAF5ED"/>
<path d="M85.2598 18.1482V35.6483H88.2886H91.3175V24.5694L91.331 13.5039L92.3271 15.3885C92.8791 16.4251 95.3964 21.3655 97.9137 26.3732L102.504 35.4733L103.204 35.5675C103.595 35.6079 105.035 35.6483 106.435 35.6483H108.952V18.1482V0.648033H105.923H102.895V11.4174C102.895 17.3405 102.854 22.1867 102.787 22.1867C102.733 22.1867 100.243 17.3405 97.2406 11.4174L91.8021 0.648033H88.5309H85.2598V18.1482Z" fill="#FAF5ED"/>
<path d="M190.826 13.6656L190.866 26.6965L191.176 27.7734C191.943 30.4119 193.558 32.6735 195.753 34.1542C197.785 35.5273 199.603 36.0793 202.106 36.0793C204.139 36.0927 205.351 35.81 207.155 34.9216C209.376 33.8177 211.22 31.9869 212.27 29.7927C213.401 27.4234 213.333 28.4869 213.387 13.7329L213.428 0.648201H210.385H207.356V13.0195C207.356 24.9599 207.343 25.4176 207.087 26.2523C206.603 27.8138 205.728 28.8369 204.26 29.5638C203.601 29.8869 203.358 29.9273 202.174 29.9273C200.949 29.9273 200.747 29.8869 199.953 29.51C198.876 28.9984 197.947 28.0965 197.435 27.06L197.058 26.2926L196.978 13.5041C196.937 6.46363 196.897 0.702049 196.883 0.675125C196.87 0.661663 195.497 0.648201 193.827 0.648201H190.785L190.826 13.6656Z" fill="#FAF5ED"/>
<path d="M215.569 18.0674C215.569 33.831 215.596 35.4868 215.785 35.5675C215.906 35.6079 217.266 35.6483 218.814 35.6483H221.627V24.5828V13.5039L221.95 13.9751C222.112 14.2308 224.642 19.1847 227.55 24.9732L232.841 35.4868L234.402 35.581C235.681 35.6618 239.275 35.581 239.329 35.4733C239.329 35.4599 239.316 27.6117 239.289 18.0405L239.235 0.648033L236.26 0.674957L233.271 0.715343L233.244 11.0135C233.218 20.5309 233.15 22.8732 232.881 22.1194C232.827 21.9713 230.404 17.1116 227.51 11.3366L222.246 0.809574L221.573 0.728806C221.196 0.688419 219.689 0.648033 218.235 0.648033H215.569V18.0674Z" fill="#FAF5ED"/>
<path d="M241.509 0.741974C241.455 0.78236 241.415 2.15545 241.415 3.77084V6.70548H244.363C245.979 6.70548 247.5 6.74587 247.729 6.78625L248.146 6.86702V21.1768V35.473L251.121 35.5672C252.763 35.6211 254.136 35.6211 254.19 35.5807C254.231 35.5269 254.298 29.0114 254.325 21.096L254.365 6.70548H257.717H261.069V3.77084V0.822742L257.946 0.741974C253.854 0.620819 241.617 0.620819 241.509 0.741974Z" fill="#FAF5ED"/>
<path d="M263.089 18.1482V35.6483H266.118H269.147V30.2233C269.147 27.2482 269.187 23.8559 269.241 22.6713L269.322 20.5443L272.162 20.6251C273.724 20.679 275.218 20.7732 275.487 20.8405C276.322 21.0694 277.022 21.6886 277.479 22.604L277.897 23.4386V29.456V35.4733L278.408 35.5675C279.054 35.6752 282.662 35.6752 283.429 35.5675L284.022 35.4868L283.981 28.2579C283.968 23.8021 283.901 20.8405 283.806 20.5309C283.604 19.7636 282.81 18.9693 281.76 18.4847L280.845 18.0539L281.181 17.8251C282.231 17.152 283.981 14.2847 284.453 12.4943C284.735 11.4174 284.762 9.10195 284.506 8.05194C283.752 4.99615 281.639 2.64036 278.583 1.4692C276.86 0.809578 276.389 0.769192 269.524 0.715343L263.089 0.661499V18.1482ZM276.174 7.0827C277.197 7.50001 278.179 8.40195 278.583 9.29041C279.041 10.327 279.027 11.875 278.543 12.9116C278.139 13.8001 277.372 14.6212 276.618 14.9712C275.891 15.3212 274.181 15.4693 271.489 15.4289L269.214 15.3885L269.174 12.427C269.147 10.7981 269.174 8.85964 269.214 8.10579L269.308 6.74616L272.35 6.75962C275.218 6.77308 275.46 6.80001 276.174 7.0827Z" fill="#FAF5ED"/>
<path d="M282.742 0.782928C282.742 0.850239 285.085 4.64642 287.938 9.22338C290.806 13.8003 293.269 17.8119 293.431 18.1485C293.713 18.7408 293.713 18.8888 293.727 27.1678L293.74 35.5813L296.783 35.6082L299.838 35.6351V27.4639V19.2927L300.162 18.6196C300.337 18.2427 301.952 15.6446 303.769 12.8311C305.573 10.0176 307.835 6.47721 308.79 4.98296C309.746 3.47526 310.756 1.98101 311.039 1.65794C311.321 1.33486 311.55 1.02524 311.55 0.944469C311.55 0.688698 307.175 0.527157 305.277 0.729084L304.483 0.809853L303.675 2.18294C299.879 8.65799 297.281 12.8311 297.146 12.6696C297.092 12.6157 295.585 10.0445 293.781 6.97529C291.977 3.90603 290.388 1.22716 290.254 1.01178L289.998 0.648312H286.363C284.142 0.648312 282.742 0.70216 282.742 0.782928Z" fill="#FAF5ED"/>
</svg>
