<svg width="220" height="49" viewBox="0 0 220 49" fill="none" xmlns="http://www.w3.org/2000/svg">
<g clip-path="url(#clip0_695_24957)">
<path d="M66.1354 0.234566C66.0915 0.289486 65.6412 0.509166 65.1359 0.695893L64.2023 1.05836L64.4219 1.28903C64.5428 1.42084 64.6416 1.55264 64.6416 1.59658C64.6416 1.76134 61.3244 10.6144 61.1707 10.8451C60.918 11.2405 60.5556 11.3504 60.1492 11.1526C59.6439 10.9 59.2595 10.4167 58.3698 8.90093C57.4032 7.25333 57.1615 6.92381 56.6013 6.5174L56.162 6.18788L56.7002 5.91328C58.3807 5.06752 58.908 3.0245 57.7876 1.70642C57.5569 1.4428 57.1396 1.14624 56.7112 0.948524L56.0192 0.62999L52.9217 0.597037C50.7469 0.564085 49.8132 0.597037 49.8132 0.673925C49.8132 0.739829 49.9011 0.794749 50.0109 0.794749C50.3515 0.794749 50.9226 1.23411 51.0874 1.61855C51.2082 1.9261 51.2412 2.77187 51.2412 6.05608C51.2412 8.67026 51.1972 10.23 51.1203 10.4277C50.9446 10.889 50.5931 11.2185 50.1757 11.2954C49.275 11.4602 50 11.5591 52.2297 11.5591C54.4704 11.5591 55.1844 11.4602 54.2727 11.2954C53.8224 11.2076 53.3611 10.7133 53.2732 10.208C53.2402 10.0103 53.2183 9.10962 53.2402 8.20894L53.2732 6.56134L53.7126 6.57232C53.9542 6.57232 54.2947 6.67118 54.4595 6.77004C54.8 7.0007 55.6457 8.17599 56.5025 9.6039C57.5569 11.3613 58.4686 11.9105 59.9295 11.6799C60.3139 11.614 61.1926 11.5591 61.8736 11.5591C62.5437 11.5591 63.1039 11.5151 63.1039 11.4712C63.1039 11.4272 62.8952 11.3174 62.6425 11.2295C62.3569 11.1307 62.1592 10.9879 62.1373 10.8671C62.1153 10.7462 62.302 10.0762 62.5547 9.35127L63.016 8.04418H65.081H67.146L67.6622 9.37324C68.2444 10.8671 68.2334 11.1746 67.6073 11.2954C66.6736 11.4822 67.6293 11.5591 71.0672 11.5591C73.5167 11.5591 74.8567 11.5151 74.8567 11.4492C74.8567 11.3833 74.7798 11.3394 74.692 11.3394C74.3075 11.3394 73.8462 10.9769 73.6375 10.5375C73.4508 10.1092 73.4288 9.76866 73.4288 6.39658V2.71695L73.6924 2.99155C73.8352 3.14532 75.4498 5.12244 77.2732 7.38514C80.118 10.933 80.6343 11.5041 80.9089 11.5371L81.2274 11.57V6.7261C81.2274 2.17873 81.2384 1.8602 81.4361 1.47576C81.6448 1.06935 81.8755 0.893605 82.4357 0.728846L82.7103 0.640973L82.3807 0.564085C81.8755 0.454246 79.0306 0.454246 79.0306 0.564085C79.0306 0.619005 79.2064 0.728846 79.4151 0.794749C79.8764 0.948524 80.3158 1.45379 80.4036 1.9261C80.4366 2.12381 80.4585 3.58468 80.4366 5.17736L80.4036 8.06615L77.394 4.35356C75.1862 1.61855 74.3185 0.608022 74.0988 0.564085C73.6265 0.443261 71.0343 0.454246 70.9574 0.575069C70.9244 0.62999 71.0343 0.706877 71.199 0.750813C71.7922 0.871637 72.1217 1.04738 72.3853 1.36592L72.6599 1.69544V5.93525C72.6599 10.6913 72.6489 10.7353 71.8801 11.1636C71.5066 11.3723 71.4956 11.3723 70.9794 11.1417C70.6169 10.9769 70.4192 10.8121 70.2984 10.5485C70.2105 10.3508 69.2878 7.95631 68.2553 5.24326C67.2119 2.51923 66.3222 0.256534 66.2892 0.212598C66.2453 0.157678 66.1684 0.168662 66.1354 0.234566ZM54.9867 1.35493C55.8325 1.64052 56.2828 2.40939 56.2938 3.52976C56.2938 4.55127 56.0082 5.08949 55.2723 5.45196C54.8329 5.67164 54.5473 5.73754 53.9652 5.73754H53.2183V3.48582V1.23411H53.9212C54.2947 1.23411 54.778 1.28903 54.9867 1.35493ZM65.2897 2.84875C65.5643 3.56271 66.8384 7.11054 66.8384 7.18743C66.8384 7.23136 66.0476 7.2753 65.07 7.2753C64.1034 7.2753 63.3235 7.23136 63.3455 7.18743C63.3675 7.13251 63.7519 6.07804 64.2023 4.82587C64.6526 3.5737 65.059 2.55219 65.092 2.55219C65.1359 2.55219 65.2238 2.68399 65.2897 2.84875Z" fill="#FAF5ED"/>
<path d="M126.482 0.311452C123.802 0.882619 122.089 3.03548 122.067 5.84738C122.045 8.20893 123.22 10.23 125.186 11.1526C129.294 13.1078 133.743 10.4057 133.732 5.95722C133.721 3.78239 132.622 1.79429 130.909 0.871634C129.668 0.201612 127.965 -0.0180674 126.482 0.311452ZM129.283 0.992458C129.887 1.30001 130.623 2.11282 130.931 2.82678C131.513 4.13388 131.7 6.30871 131.37 7.87942C130.887 10.1421 129.415 11.4822 127.581 11.3064C125.735 11.1417 124.483 9.3952 124.307 6.74806C124.088 3.61763 124.999 1.54166 126.889 0.838683C127.471 0.619003 128.723 0.695891 129.283 0.992458Z" fill="#FAF5ED"/>
<path d="M42.0257 0.421342C39.4115 1.12432 37.8408 3.17832 37.8408 5.90235C37.8408 6.96779 38.0495 7.8575 38.5218 8.80212C38.9282 9.59297 39.8509 10.5925 40.5978 11.0319C41.839 11.7568 43.4756 12.0314 44.8596 11.7348C47.6825 11.1417 49.4838 8.92294 49.4948 6.03416C49.4948 5.47397 49.4399 4.771 49.374 4.47443C48.9346 2.53027 47.3639 0.937589 45.3648 0.410357C44.552 0.201662 42.8166 0.201662 42.0257 0.421342ZM44.9255 0.948573C45.6394 1.27809 46.4413 2.1678 46.7488 2.96963C47.4738 4.90281 47.4408 7.61585 46.65 9.28541C46.2326 10.1751 45.8921 10.5705 45.1781 10.955C44.6729 11.2406 44.4861 11.2845 43.7173 11.2845C43.0253 11.2845 42.7397 11.2296 42.3772 11.0319C40.9163 10.263 40.1145 8.4726 40.1145 5.95727C40.1145 3.87031 40.6308 2.35452 41.6303 1.4758C42.5529 0.66299 43.871 0.454294 44.9255 0.948573Z" fill="#FAF5ED"/>
<path d="M87.049 0.421383C85.4343 0.849759 84.1712 1.8493 83.4792 3.25525C82.8092 4.61726 82.6224 6.06715 82.93 7.52802C83.6769 11.0429 87.4224 12.6356 91.7941 11.2955C92.508 11.0758 93.1671 10.9001 93.2549 10.9001C93.3977 10.9001 93.4197 10.6145 93.4197 8.87905C93.4197 6.57241 93.4636 6.42962 94.2545 6.29781C94.5291 6.25388 94.6828 6.16601 94.6828 6.06715C94.6828 5.92436 94.3533 5.90239 92.4311 5.90239C90.3771 5.90239 90.1794 5.92436 90.1465 6.08912C90.1135 6.24289 90.1794 6.28683 90.443 6.28683C90.6298 6.28683 90.9044 6.39667 91.0801 6.55045L91.3877 6.81406V8.46166C91.3877 9.95548 91.3657 10.1422 91.157 10.4278C90.8055 10.9221 90.0366 11.2406 89.0481 11.3065C87.4554 11.4163 86.4888 10.8562 85.7858 9.43923C85.2915 8.41772 85.0719 7.33031 85.0719 5.86944C85.0719 4.43054 85.2806 3.40903 85.7419 2.54129C86.3899 1.33305 87.4005 0.761887 88.8504 0.761887C90.6627 0.783854 91.7501 1.5747 92.2883 3.2882C92.552 4.112 92.8046 4.07905 92.7167 3.23328C92.6838 2.89278 92.6288 2.14587 92.5849 1.59667L92.519 0.575158L91.9478 0.641063C91.5524 0.684999 91.124 0.641063 90.487 0.476303C89.4325 0.201704 87.9607 0.179736 87.049 0.421383Z" fill="#FAF5ED"/>
<path d="M115.026 0.531211C114.026 0.772859 113.202 1.23419 112.477 1.94814C111.39 3.03556 110.885 4.34265 110.885 6.12206C110.885 7.87949 111.412 9.21954 112.521 10.274C113.598 11.3065 114.839 11.7788 116.443 11.7788C118.178 11.7788 119.617 11.0429 120.617 9.63693C121.023 9.06576 121.067 8.95593 120.935 8.78018C120.803 8.60444 120.759 8.63739 120.375 9.15364C119.837 9.88956 118.815 10.6365 118.046 10.8562C115.289 11.658 113.082 9.32938 113.082 5.63876C113.093 2.74998 114.312 1.01451 116.487 0.827779C118.343 0.674003 119.914 1.75043 120.485 3.56279C120.518 3.67263 120.628 3.7605 120.726 3.7605C120.88 3.7605 120.902 3.67263 120.836 3.12343C120.803 2.78293 120.737 2.03602 120.704 1.47583C120.661 0.91565 120.584 0.432355 120.54 0.399404C120.485 0.366451 120.331 0.421371 120.199 0.509243C119.892 0.728923 119.496 0.728923 118.519 0.520226C117.563 0.322515 115.871 0.322515 115.026 0.531211Z" fill="#FAF5ED"/>
<path d="M94.6827 0.5751C94.6497 0.63002 94.8255 0.728876 95.0671 0.79478C95.6273 0.948555 95.9019 1.21217 96.0447 1.75039C96.1985 2.29959 96.2095 9.82361 96.0557 10.3728C95.9239 10.8232 95.5065 11.2076 95.0452 11.3065C94.1005 11.4932 95.1879 11.5591 99.2191 11.5591H103.701L103.898 10.3728C104.008 9.72476 104.118 9.08769 104.151 8.94489C104.261 8.48357 103.876 8.68128 103.635 9.21949C103.327 9.91148 102.932 10.4277 102.503 10.6474C102.218 10.8012 101.833 10.8341 100.394 10.8451C99.4278 10.8451 98.549 10.8122 98.4502 10.7682C98.2744 10.6913 98.2525 10.4827 98.2525 8.48357V6.28677H99.3509C100.746 6.28677 101.053 6.41858 101.24 7.11057C101.317 7.38517 101.438 7.60485 101.515 7.60485C101.625 7.60485 101.658 7.19844 101.658 5.79249C101.658 4.32064 101.625 3.98013 101.504 3.98013C101.416 3.98013 101.317 4.14489 101.284 4.36457C101.24 4.57327 101.086 4.88082 100.944 5.04558C100.702 5.34215 100.647 5.35313 99.4717 5.38608L98.2525 5.43002V3.33208V1.23414H100.043C102.393 1.23414 102.734 1.3989 103.195 2.78288C103.305 3.1124 103.459 3.387 103.536 3.41995C103.668 3.46389 103.646 2.87075 103.448 1.16823L103.393 0.608052L102.393 0.531164C100.823 0.421324 94.7596 0.454276 94.6827 0.5751Z" fill="#FAF5ED"/>
<path d="M133.797 0.553168C133.775 0.597104 133.995 0.728911 134.292 0.827767C135.214 1.15729 135.203 1.11335 135.269 5.62777C135.324 9.01083 135.357 9.582 135.522 9.94447C135.818 10.5706 136.423 11.1747 137.06 11.4603C137.565 11.6909 137.796 11.7239 139.004 11.7239C140.531 11.7239 140.926 11.614 141.98 10.8452L142.519 10.4607V11.0099V11.5591H144.265C145.32 11.5591 146.045 11.5152 146.088 11.4493C146.121 11.3834 146.045 11.3394 145.902 11.3394C145.506 11.3394 144.935 10.933 144.759 10.5156C144.529 9.94447 144.529 1.91518 144.77 1.45385C144.946 1.10237 145.44 0.794816 145.803 0.794816C146.286 0.794816 146.099 0.597104 145.561 0.5312C144.683 0.432344 141.223 0.454312 141.157 0.564152C141.124 0.619072 141.299 0.728911 141.552 0.816784C141.805 0.893671 142.101 1.10237 142.233 1.26713C142.453 1.56369 142.464 1.71747 142.497 5.68269L142.53 9.77971L142.057 10.1861C141.267 10.8781 140.509 11.1747 139.553 11.1747C138.488 11.1747 137.916 10.8781 137.554 10.1422C137.312 9.6479 137.301 9.5161 137.268 5.84745C137.246 3.32113 137.268 1.92617 137.356 1.65157C137.499 1.16827 137.927 0.794816 138.356 0.794816C138.861 0.794816 138.729 0.608088 138.169 0.5312C137.433 0.432344 133.863 0.443328 133.797 0.553168Z" fill="#FAF5ED"/>
<path d="M146.912 0.575102C146.912 0.695926 146.989 0.728878 147.505 0.849702C147.681 0.882654 148.021 1.10233 148.252 1.333L148.67 1.76137V5.74856C148.67 8.16503 148.626 9.91149 148.56 10.1531C148.406 10.7023 147.967 11.1966 147.571 11.2845C146.802 11.4492 147.351 11.5591 148.999 11.5591C150.647 11.5591 151.196 11.4492 150.438 11.2845C150.054 11.2076 149.614 10.7463 149.449 10.252C149.307 9.80165 149.274 2.73895 149.427 2.79387C149.482 2.80485 151.097 4.78197 153.019 7.16549C155.908 10.7463 156.578 11.5151 156.82 11.5371L157.116 11.5701L157.149 6.62728C157.182 1.83826 157.193 1.68448 157.413 1.37693C157.534 1.21217 157.852 0.970526 158.105 0.838717L158.588 0.608054L158.226 0.54215C157.665 0.421327 155.062 0.454278 154.985 0.575102C154.952 0.630022 155.062 0.717894 155.227 0.750846C155.71 0.87167 155.996 1.10233 156.205 1.54169C156.38 1.90416 156.391 2.26664 156.369 4.9687C156.358 6.62728 156.336 7.98929 156.325 8.00027C156.314 8.01126 154.952 6.35268 153.305 4.30966C149.878 0.0698395 150.394 0.465262 148.208 0.465262C147.384 0.465262 146.912 0.509198 146.912 0.575102Z" fill="#FAF5ED"/>
<path d="M159.5 0.586084C159.478 0.673957 159.423 1.11332 159.379 1.56366C159.346 2.014 159.291 2.59615 159.258 2.84879C159.203 3.23322 159.225 3.3211 159.368 3.3211C159.467 3.3211 159.544 3.23322 159.544 3.12338C159.544 2.76091 160.071 1.81629 160.389 1.58563C160.895 1.22316 161.631 1.09135 162.564 1.17922L163.399 1.25611L163.366 5.90233L163.333 10.5595L163.015 10.8891C162.839 11.0758 162.531 11.2625 162.323 11.2955C161.411 11.4712 162.147 11.5591 164.432 11.5591C166.002 11.5591 166.903 11.5151 166.903 11.4492C166.903 11.3833 166.804 11.3394 166.683 11.3394C166.299 11.3394 165.816 11.0319 165.618 10.6474C165.409 10.263 165.398 10.0872 165.453 4.04604L165.475 1.09135L166.606 1.14627C167.342 1.17922 167.848 1.25611 168.078 1.37693C168.573 1.64055 169.067 2.2886 169.221 2.9037C169.298 3.20027 169.429 3.43094 169.506 3.43094C169.627 3.43094 169.638 3.15634 169.583 2.02499C169.539 1.25611 169.484 0.608053 169.462 0.575101C169.44 0.553133 167.2 0.509197 164.487 0.487229C160.368 0.443293 159.544 0.465261 159.5 0.586084Z" fill="#FAF5ED"/>
<path d="M170.275 0.531164C170.143 0.662971 170.319 0.79478 170.637 0.79478C170.846 0.79478 171.087 0.904619 171.285 1.09135C171.461 1.26709 172.296 2.5632 173.152 3.98013L174.701 6.56137V8.31881C174.701 10.3289 174.558 10.8561 173.943 11.1746C173.757 11.2625 173.603 11.3943 173.603 11.4492C173.603 11.5151 174.405 11.5591 175.69 11.5591C177.315 11.5591 177.777 11.5261 177.777 11.4163C177.777 11.3394 177.634 11.2186 177.447 11.1527C177.271 11.0868 177.03 10.8671 176.909 10.6694C176.7 10.3289 176.678 10.1202 176.678 8.30782V6.33071L178.414 3.74947C180.16 1.16823 180.281 1.02544 181.127 0.728876C181.533 0.586084 180.775 0.487228 179.117 0.476244C177.985 0.465261 177.546 0.498212 177.579 0.586084C177.601 0.662971 177.788 0.772812 177.996 0.838716C178.513 1.00348 178.688 1.37693 178.491 1.87121C178.315 2.27762 176.382 5.3751 176.239 5.46297C176.118 5.53986 174.042 1.75039 174.042 1.4648C174.042 1.04741 174.251 0.805763 174.679 0.717892L175.086 0.641004L174.646 0.564116C174.108 0.454276 170.373 0.443292 170.275 0.531164Z" fill="#FAF5ED"/>
<path d="M15.0493 13.1738C11.9848 13.2726 8.19531 13.6571 5.27357 14.1404C3.39531 14.4589 1.14359 14.9422 1.02277 15.063C0.967846 15.118 0.166016 19.0832 0.166016 19.3029C0.166016 19.3138 0.440615 19.3907 0.781119 19.4676L1.39622 19.6214L1.68181 19.2369C2.22002 18.534 2.94496 17.9189 3.72483 17.5454C4.44977 17.1829 6.40492 16.6118 6.87723 16.6118C7.07494 16.6118 7.08592 16.9852 7.08592 29.6058C7.08592 43.6873 7.10789 43.1491 6.49279 44.0717C6.11933 44.6319 5.2516 45.0493 4.14222 45.1921L3.27448 45.3019L3.28547 46.0379L3.29645 46.7628L10.3591 46.7958L17.4109 46.8177V46.0598V45.3129L16.5321 45.1921C14.8406 44.9834 13.863 44.2035 13.5775 42.8635C13.5006 42.501 13.4566 40.436 13.4566 37.1299V31.9674L15.4667 32.0113C17.2241 32.0553 17.5427 32.0882 18.1248 32.3189C19.2342 32.7472 19.8713 33.5051 21.5299 36.3829C23.9024 40.5129 25.5939 43.3248 26.1541 44.0717C27.593 46.0269 29.0649 47.1363 30.9212 47.6525C31.4813 47.8173 32.0086 47.8502 33.3376 47.8502C35.2598 47.8392 36.5779 47.6415 37.918 47.1802L38.7747 46.8726L49.5939 46.8177L60.4132 46.7628L61.0942 42.8086C61.4676 40.6337 61.7752 38.7445 61.7862 38.6017C61.7862 38.382 61.7422 38.3601 61.1491 38.3601H60.512L60.0946 39.4255C59.3697 41.3038 58.3811 42.7317 57.3706 43.3688C57.1509 43.5115 56.6566 43.7312 56.2722 43.874C55.6132 44.1047 55.3825 44.1157 51.4722 44.1596C47.1555 44.2035 46.2987 44.1596 46.0241 43.896C45.8813 43.7532 45.8594 42.9514 45.8594 38.0635V32.4067L47.8694 32.4397C49.8026 32.4836 49.8905 32.4946 50.5056 32.8022C51.4942 33.2855 51.9445 34.0873 52.1752 35.7459L52.2411 36.2511L52.8452 36.2951C53.1857 36.3061 53.4823 36.3061 53.5042 36.2841C53.5262 36.2621 53.5482 33.9006 53.5482 31.0337V25.8383H52.955H52.3619L52.285 26.4644C52.1093 27.9253 51.4063 28.9907 50.3299 29.474C49.8136 29.7047 49.561 29.7376 47.8145 29.7706L45.8594 29.8145V24.4983C45.8594 21.5656 45.8813 19.1491 45.9033 19.1271C45.9253 19.1051 47.8475 19.1051 50.1651 19.1381L54.372 19.193L55.0969 19.5445C56.6237 20.3024 57.777 22.0049 58.3811 24.3775L58.5019 24.8498H59.15C59.6003 24.8498 59.809 24.8058 59.809 24.707C59.809 24.6411 59.5344 22.7848 59.2049 20.588C58.8754 18.4022 58.6008 16.5788 58.6008 16.5569C58.6008 16.5239 53.5811 16.5019 47.4521 16.5019H36.3033V17.2049C36.3033 17.9848 36.3582 18.0397 37.0612 18.0397C38.2035 18.0397 39.1152 18.6438 39.4557 19.6214C39.6424 20.1486 39.6534 20.9504 39.6534 31.55C39.6534 44.2365 39.6864 43.7422 38.9065 44.4891C38.2255 45.1482 36.9843 45.269 35.9628 44.7637C34.6887 44.1376 33.5244 42.7427 29.5372 37.042C26.8132 33.1427 25.7587 31.9894 24.2429 31.2754C23.7596 31.0447 23.6498 30.891 23.9793 30.891C24.0781 30.891 24.6823 30.6383 25.3193 30.3308C27.4173 29.3202 28.8672 27.9692 29.7129 26.2228C30.317 24.9706 30.4928 24.2237 30.5587 22.598C30.6136 21.3678 30.5807 21.0273 30.3939 20.2475C29.7678 17.798 28.3289 16.1285 25.7038 14.8543C23.6937 13.8658 21.8923 13.4264 18.9486 13.2067C17.5427 13.1079 17.1473 13.0969 15.0493 13.1738ZM18.8937 15.8978C20.6951 16.2823 22.2768 17.4575 23.0566 19.0063C23.6498 20.1926 23.8255 21.0273 23.8145 22.7628C23.8145 24.4763 23.5509 25.5747 22.8919 26.6621C22.4415 27.42 21.5299 28.2768 20.7939 28.6502C19.6516 29.2324 18.8168 29.3532 16.0159 29.3532H13.4566L13.4786 22.62L13.5116 15.8978L14.1706 15.8319C15.5546 15.7001 18.1138 15.7331 18.8937 15.8978Z" fill="#FAF5ED"/>
<path d="M76.5595 15.6342C69.9252 15.9967 64.9165 19.6324 62.9394 25.5308C61.3137 30.4076 61.6652 36.0534 63.851 39.9967C65.1362 42.3253 67.3769 44.4452 69.8593 45.6974C72.111 46.8177 74.3847 47.3559 77.3943 47.4438C80.5247 47.5427 81.8648 47.312 85.7861 46.0488C88.1476 45.2909 89.4437 44.9504 90.0478 44.9504H90.4543V40.6337C90.4652 34.285 90.5751 33.5161 91.5856 32.934C92.1018 32.6374 92.9696 32.4287 93.6945 32.4287H94.1888V31.7147V31.0008H87.4886H80.7883V31.7147V32.4287H81.4803C82.9083 32.4287 83.7211 32.901 84.0506 33.9115C84.2813 34.6365 84.4021 40.6447 84.2044 41.7761C83.787 44.1047 81.8099 45.1701 77.8776 45.1921C75.1536 45.2031 73.8245 44.6978 72.1 42.9733C71.1334 42.0177 71.0016 41.82 70.3755 40.5568C69.1673 38.0855 68.717 35.8996 68.6291 32.0443C68.5851 30.1001 68.6181 29.1555 68.7499 27.9363C69.2991 23.2022 70.9906 20.1266 73.8025 18.7756C75.1865 18.1056 75.8565 17.9848 78.1522 17.9958C80.5357 18.0067 81.3046 18.1605 82.9632 18.9843C84.0506 19.5225 85.171 20.4562 85.8959 21.4447C86.3572 22.0708 87.0602 23.4768 87.3238 24.2676L87.5105 24.8498H88.2245H88.9494L88.8835 24.5422C88.8506 24.3774 88.587 22.4772 88.3014 20.3134L87.7742 16.3921H87.2909C86.9064 16.3921 86.7197 16.458 86.4121 16.7326C86.0277 17.0731 86.0167 17.0731 85.0282 17.0182C84.2483 16.9852 83.6332 16.8534 82.2163 16.4141C80.6236 15.9308 79.4263 15.6781 78.317 15.5903C78.1412 15.5683 77.3504 15.5903 76.5595 15.6342Z" fill="#FAF5ED"/>
<path d="M119.507 15.9198C115.355 16.1175 111.928 17.7541 110.281 20.3353C109.633 21.3568 109.369 22.0488 109.171 23.2681C109.017 24.1687 109.007 24.5202 109.105 25.4539C109.314 27.3761 109.951 28.7161 111.269 30.0781C112.697 31.539 113.905 32.1651 118.354 33.8017C123.901 35.8447 125.274 36.6136 125.867 38.0525C126.12 38.6456 126.196 39.755 126.043 40.5019C125.658 42.3472 124.362 43.5555 122.242 44.0278C120.968 44.3024 117.915 44.2035 116.476 43.8191C113.301 42.9843 111.412 41.0951 110.281 37.6571L109.918 36.5477L109.248 36.5147C108.875 36.4928 108.578 36.5257 108.578 36.5806C108.578 36.6466 108.897 38.8983 109.292 41.6003C109.688 44.2914 110.006 46.5761 110.006 46.6639C110.006 46.7738 110.16 46.8177 110.61 46.8177C111.181 46.8177 111.225 46.7958 111.324 46.5102C111.544 45.8951 111.72 45.6644 112.005 45.6315C112.159 45.6095 113.147 45.8182 114.202 46.0928C118.464 47.2131 121.682 47.4218 124.34 46.7518C128.371 45.7413 131.502 42.8745 132.26 39.4804C132.534 38.2722 132.435 36.2731 132.051 35.1967C131.282 33.0109 129.623 31.3962 126.614 29.9024C125.208 29.2104 124.681 28.9907 120.232 27.3102C118.574 26.6841 116.992 26.025 116.717 25.8383C114.18 24.2127 114.125 21.3788 116.607 19.7971C116.904 19.5994 117.53 19.3138 118.002 19.1601C118.782 18.8964 118.991 18.8745 120.661 18.8745C123.275 18.8745 124.725 19.2699 126.24 20.3903C127.328 21.2031 128.415 22.8617 128.811 24.3445L128.942 24.8498H129.678C130.326 24.8498 130.414 24.8278 130.37 24.652C130.304 24.3665 129.118 16.7655 129.118 16.6228C129.118 16.5459 128.898 16.5019 128.58 16.5019C128.086 16.5019 128.02 16.5349 127.811 16.8864C127.613 17.2269 127.536 17.2708 127.152 17.2708C126.91 17.2708 126.01 17.0511 125.153 16.7765C122.912 16.0736 121.352 15.8319 119.507 15.9198Z" fill="#FAF5ED"/>
<path d="M93.75 17.2048C93.75 17.9847 93.7939 18.0396 94.5299 18.0396C95.7381 18.0396 96.6717 18.6217 97.0122 19.6103C97.199 20.1485 97.21 20.8295 97.21 31.6048C97.21 40.6776 97.177 43.127 97.0672 43.5005C96.7486 44.533 95.9468 45.0712 94.442 45.2249L93.75 45.3018V46.0597V46.8176H100.34H106.931V46.0707V45.3128L106.041 45.192C104.624 44.9833 103.943 44.489 103.603 43.3687C103.405 42.6986 103.405 20.7417 103.614 19.9618C103.932 18.7316 104.679 18.1604 106.107 18.0396L106.876 17.9847L106.909 17.2378L106.942 16.5018H100.34H93.75V17.2048Z" fill="#FAF5ED"/>
<path d="M132.578 16.8533C132.545 17.051 132.248 18.9293 131.93 21.0272L131.358 24.8497H132.138H132.907L133.149 23.927C133.632 22.0707 134.621 20.5549 135.829 19.83C136.806 19.2478 137.455 19.138 139.992 19.127H142.244V31.0776C142.244 42.2483 142.233 43.0611 142.046 43.5883C141.716 44.533 141.068 44.9833 139.728 45.181L138.893 45.3018V46.0597V46.8176H145.484H152.074V46.0597V45.3018L151.503 45.2249C150.262 45.0822 149.866 44.9394 149.383 44.4671C148.515 43.6323 148.559 44.3682 148.559 30.9568V19.0831L150.943 19.116C152.568 19.138 153.535 19.1929 153.963 19.3028C156.182 19.8629 157.347 21.3568 158.049 24.5421C158.115 24.8387 158.148 24.8497 158.829 24.8497C159.433 24.8497 159.543 24.8167 159.543 24.652C159.532 24.5531 159.247 22.6858 158.895 20.511L158.269 16.5568L145.451 16.5238L132.644 16.5018L132.578 16.8533Z" fill="#FAF5ED"/>
<path d="M160.587 16.6117C160.554 16.6666 160.532 16.9961 160.543 17.3256C160.576 18.0066 160.543 17.9847 161.641 18.0835C162.751 18.1714 163.498 18.7316 163.838 19.7421C163.97 20.1046 163.992 22.1915 163.992 31.5499C163.992 42.3471 163.981 42.9513 163.783 43.5005C163.399 44.6318 162.696 45.1261 161.301 45.2579L160.587 45.3348V46.0487V46.7627H172.658H184.741L185.367 42.6986C185.718 40.4579 186.004 38.5686 186.015 38.4918C186.015 38.4039 185.806 38.3599 185.312 38.3599H184.62L184.367 39.041C183.532 41.4025 182.401 43.0172 181.149 43.6323C180.149 44.1156 179.194 44.1924 174.624 44.1595C170.901 44.1265 170.648 44.1156 170.428 43.9178C170.198 43.7091 170.198 43.6652 170.198 38.0524V32.4066L172.098 32.4616C174.306 32.5165 174.668 32.6153 175.36 33.3073C175.909 33.8455 176.184 34.5156 176.305 35.6359L176.382 36.251L177.074 36.295L177.777 36.3279V31.0776V25.8382H177.129C176.448 25.8382 176.36 25.9261 176.349 26.5632C176.349 27.1343 175.899 28.2327 175.47 28.716C174.734 29.5618 174.207 29.7156 172.043 29.7705L170.198 29.8144V24.4103V19.0062L174.24 19.0611C178.568 19.127 178.688 19.138 179.71 19.7421C180.808 20.3902 181.896 22.0707 182.412 23.938L182.665 24.8497H183.423H184.18L184.115 24.5421C184.082 24.3773 183.796 22.4991 183.477 20.3682L182.895 16.5018H171.78C164.563 16.5018 160.631 16.5348 160.587 16.6117Z" fill="#FAF5ED"/>
<path d="M187.333 17.2598V18.0396H187.915C188.794 18.0396 189.464 18.3142 189.947 18.8634C190.716 19.7422 190.672 18.9953 190.716 31.4291C190.749 43.5994 190.76 43.2918 190.167 44.1925C189.826 44.6978 188.959 45.1261 188.058 45.225L187.333 45.3019V46.0598V46.8177H193.978H200.624V46.0708V45.3129L199.745 45.192C198.339 44.9943 197.625 44.5001 197.197 43.4236C196.955 42.8305 196.944 42.6657 196.911 38.1733L196.878 33.5271H198.295C200.107 33.5271 200.92 33.7467 201.656 34.4387C201.964 34.7243 203.249 36.5806 205.028 39.2936C206.61 41.7101 208.247 44.1376 208.664 44.6978C210.114 46.6309 211.674 47.7403 213.387 48.0259C215.035 48.3115 217.77 47.993 219.154 47.3669L219.846 47.0483V46.2355V45.4117L219.329 45.5655C218.67 45.7632 217.506 45.7632 217.122 45.5655C216.957 45.4776 216.594 45.1701 216.32 44.8735C215.847 44.3682 212.069 39.3815 209.85 36.328C208.686 34.7243 207.412 33.3403 206.643 32.8241L206.127 32.4726L207.192 31.9893C209.674 30.847 211.63 28.8039 212.464 26.4753C212.684 25.8493 212.761 25.4099 212.794 24.4653C212.871 22.2245 212.355 20.8625 210.839 19.3467C209.51 18.0177 208.137 17.3367 205.676 16.7985C204.688 16.5898 204.215 16.5788 195.988 16.5348L187.333 16.4909V17.2598ZM202.436 19.2589C203.974 19.5335 205.314 20.522 205.896 21.8072C206.313 22.7298 206.445 23.4548 206.445 24.7399C206.445 26.025 206.313 26.7499 205.896 27.6506C205.281 29.0126 204.237 29.9683 202.755 30.5394C202.03 30.814 201.876 30.825 199.448 30.8689L196.889 30.9129V25.0474C196.889 21.8181 196.911 19.149 196.933 19.1271C197.032 19.0282 201.81 19.149 202.436 19.2589Z" fill="#FAF5ED"/>
</g>
<defs>
<clipPath id="clip0_695_24957">
<rect width="219.68" height="48" fill="white" transform="translate(0.166016 0.135742)"/>
</clipPath>
</defs>
</svg>
