<svg width="57" height="49" viewBox="0 0 57 49" fill="none" xmlns="http://www.w3.org/2000/svg">
<path d="M33.0965 0.187492C32.4655 0.297661 31.7394 0.59812 31.1335 1.00374C29.9467 1.80497 29.1104 3.27221 29.0453 4.66934L29.0303 5.01988L30.132 5.04492C30.798 5.05994 31.2837 5.095 31.3588 5.12504C31.5241 5.20016 31.6443 5.34037 31.5792 5.38544C31.5541 5.40547 31.2487 5.61078 30.9081 5.84114C30.2071 6.31186 29.7764 6.71748 29.6062 7.04798C29.4058 7.43858 29.4159 7.75406 29.7013 9.52677C29.8415 10.4081 30.3523 13.618 30.833 16.6577C31.3138 19.6973 31.7144 22.1961 31.7244 22.2011C31.7344 22.2112 33.0865 19.1815 34.739 15.4709C36.3865 11.7602 37.9088 8.35498 38.1242 7.89928C38.7101 6.64737 38.8853 5.95631 38.8853 4.91973C38.8803 3.67282 38.4246 2.58616 37.5032 1.6297C36.9223 1.02878 36.3565 0.663219 35.6103 0.412836C34.8842 0.162455 33.8126 0.0673084 33.0965 0.187492Z" fill="#FAF5ED"/>
<path d="M21.6938 0.262585C20.3418 0.563044 19.3152 1.25911 18.5691 2.38082C18.0483 3.17203 17.7929 3.96324 17.7528 4.9197C17.7077 6.10652 17.5124 5.60074 21.0128 13.4327C23.7069 19.4569 24.9839 22.2512 25.0289 22.2061C25.0339 22.2011 25.6249 18.4904 26.3309 13.9585C27.5428 6.24673 27.6229 5.68087 27.6229 5.06993C27.6179 4.33381 27.5278 3.88812 27.2273 3.14699C26.7015 1.85502 25.3945 0.728296 23.9523 0.332691C23.4515 0.192476 22.1796 0.152416 21.6938 0.262585Z" fill="#FAF5ED"/>
<path d="M42.6559 6.9027C41.5693 7.06295 40.6228 7.53867 39.8416 8.31987C39.2908 8.87071 39.0754 9.22625 38.4595 10.6284C38.164 11.2894 37.3027 13.2374 36.5416 14.96C31.3987 26.5577 31.8043 25.6263 31.8844 25.6263C31.9045 25.6263 32.9611 24.9102 34.233 24.0389C37.7684 21.6102 39.6163 20.3432 42.3504 18.4654C46.2765 15.7713 46.5969 15.5409 47.0426 15.0702C48.3747 13.653 48.7002 11.1893 47.7687 9.50167C47.3431 8.7355 46.652 8.00939 45.9359 7.57874C45.4452 7.28328 44.7391 7.00786 44.2283 6.91772C43.8127 6.84261 43.1066 6.8376 42.6559 6.9027Z" fill="#FAF5ED"/>
<path d="M51.4237 17.9655C50.4401 17.4766 49.3914 17.3268 48.3041 17.5221C47.5373 17.6599 47.1575 17.8288 45.8513 18.6283C45.2314 19.0023 43.412 20.1098 41.8036 21.0895C30.9597 27.6748 31.8245 27.1417 31.8903 27.1874C31.9067 27.1989 33.183 27.2142 34.7248 27.2251C39.014 27.2497 41.2544 27.2645 44.5712 27.2839C49.3326 27.3136 49.7273 27.3075 50.3619 27.1755C52.2646 26.7725 53.9386 24.9356 54.1374 23.0183C54.2254 22.1463 54.0726 21.1556 53.7306 20.3932C53.4964 19.8705 53.0739 19.2412 52.706 18.8756C52.4077 18.5766 51.8309 18.1694 51.4237 17.9655Z" fill="#FAF5ED"/>
<path d="M5.29603 17.9655C6.27966 17.4766 7.32829 17.3268 8.41567 17.5221C9.1824 17.6599 9.56218 17.8288 10.8684 18.6283C11.4884 19.0023 13.3077 20.1098 14.9161 21.0895C25.76 27.6748 24.8952 27.1417 24.8295 27.1874C24.813 27.1989 23.5367 27.2142 21.995 27.2251C17.7058 27.2497 15.4654 27.2645 12.1485 27.2839C7.38708 27.3136 6.99245 27.3075 6.35779 27.1755C4.45508 26.7725 2.78117 24.9356 2.58235 23.0183C2.49436 22.1463 2.64714 21.1556 2.98916 20.3932C3.22337 19.8705 3.6458 19.2412 4.01369 18.8756C4.31203 18.5766 4.88885 18.1694 5.29603 17.9655Z" fill="#FAF5ED"/>
<path d="M12.2349 6.97279C11.2183 7.20314 10.3821 7.67887 9.67598 8.43502C9.09509 9.05597 8.7095 9.75704 8.48916 10.6033C8.32892 11.2243 8.30889 12.1757 8.44409 12.7817C8.64941 13.6881 9.11512 14.5544 9.73607 15.1753C9.94639 15.3806 10.8778 16.0567 12.4803 17.1584C15.2144 19.0462 18.2691 21.1545 21.3438 23.2727C24.5137 25.461 24.8542 25.6914 24.8792 25.6614C24.9043 25.6363 24.3334 24.3594 20.3573 15.5108C19.5711 13.7632 18.7849 12.0155 18.6146 11.6299C18.4394 11.2443 18.1439 10.5783 17.9486 10.1476C17.4479 9.02592 17.0172 8.44504 16.2861 7.88919C15.8905 7.58372 15.0893 7.18811 14.5835 7.04289C14.0877 6.90268 12.7256 6.86262 12.2349 6.97279Z" fill="#FAF5ED"/>
<path d="M45.5651 30.6089C43.3066 30.8944 41.3336 31.7357 39.8113 33.0577C36.8167 35.6667 36.0555 39.9833 37.9835 43.4235C38.4742 44.2999 39.3856 45.3565 40.1969 45.9875C41.5489 47.0441 43.2415 47.7502 45.1294 48.0456C45.9256 48.1658 47.9487 48.1658 48.81 48.0456C51.1236 47.7101 52.711 46.9539 54.6089 45.2964L54.7942 45.1311L53.4371 43.9193L52.085 42.7074L51.6744 43.0229C50.2072 44.1547 48.9653 44.6304 47.3328 44.6905C46.151 44.7355 45.3097 44.5703 44.3532 44.1096C42.921 43.4185 41.8995 42.1666 41.5189 40.6293C41.3887 40.0985 41.3386 39.0969 41.4238 38.5411C41.7593 36.2225 43.562 34.4648 46.0058 34.0592C46.6117 33.9641 47.7985 33.9891 48.3844 34.1143C49.5111 34.3597 50.6128 34.8905 51.6794 35.7067L51.9498 35.9121L52.706 35.1359C53.1216 34.7152 53.7326 34.0893 54.0581 33.7588L54.654 33.1478L54.2634 32.8323C53.3169 32.0812 52.1802 31.4602 51.1136 31.1197C50.4075 30.8944 50.0169 30.8042 49.2107 30.6791C48.3543 30.5438 46.3563 30.5038 45.5651 30.6089Z" fill="#FAF5ED"/>
<path d="M1.96387 39.3473V47.8604H4.04204H6.12022V42.4771C6.12022 39.5176 6.14025 37.0939 6.16028 37.0939C6.18031 37.0939 8.29354 39.5176 10.8525 42.4771L15.5096 47.8604H17.3274H19.1401V39.3473V30.8343H17.0369H14.9337L14.9237 36.0623L14.9087 41.2903L12.2045 38.1605C10.7172 36.4379 8.68915 34.0943 7.69763 32.9476L5.88987 30.8594L3.92687 30.8443L1.96387 30.8343V39.3473Z" fill="#FAF5ED"/>
<path d="M20.3418 39.3473V47.8654L25.74 47.8453C31.6591 47.8253 31.4538 47.8353 32.7908 47.5148C34.1179 47.1893 35.0242 46.7036 35.7704 45.9174C36.4164 45.2363 36.7268 44.4852 36.797 43.4536C36.852 42.6374 36.6818 41.7811 36.3312 41.1401C36.151 40.8096 35.5851 40.2036 35.1945 39.9232C34.8139 39.6528 34.188 39.3323 33.6321 39.127L33.2065 38.9668L33.6722 38.6913C34.3282 38.3107 35.0142 37.6197 35.3047 37.0638C35.6252 36.4429 35.7303 35.9171 35.7003 35.1159C35.6752 34.3797 35.5951 34.0342 35.3297 33.5034C34.6937 32.2064 33.2716 31.3351 31.1583 30.9495C30.7327 30.8744 30.1518 30.8644 25.5147 30.8493L20.3418 30.8293V39.3473ZM29.8563 34.2095C30.6676 34.4148 31.1083 34.7052 31.3386 35.176C31.4638 35.4263 31.4838 35.5265 31.4838 35.8921C31.4838 36.2576 31.4638 36.3578 31.3436 36.6031C31.1133 37.0689 30.7127 37.3493 29.9665 37.5596C29.601 37.6598 29.4557 37.6648 27.042 37.6848L24.4982 37.6998V35.8921V34.0793L27.017 34.1043C29.1453 34.1193 29.5809 34.1394 29.8563 34.2095ZM30.968 40.9848C31.7342 41.2002 32.1799 41.5006 32.4153 41.9613C32.5705 42.2568 32.6055 42.9378 32.4854 43.2984C32.3151 43.8192 31.7643 44.2448 31.0331 44.4301C30.4623 44.5703 29.7662 44.6054 27.1422 44.6054H24.4982V42.7225V40.8446L27.5428 40.8596C30.4773 40.8797 30.5975 40.8797 30.968 40.9848Z" fill="#FAF5ED"/>
</svg>
