<svg width="184" height="49" viewBox="0 0 184 49" fill="none" xmlns="http://www.w3.org/2000/svg">
<g clip-path="url(#clip0_695_25515)">
<path d="M24.2188 17.8792C25.5307 17.8761 26.8427 17.8738 28.1548 17.8724C28.7642 17.8717 29.3737 17.8708 29.9832 17.8692C30.5158 17.8679 31.0484 17.8671 31.581 17.8668C31.8618 17.8666 32.1425 17.8661 32.4233 17.8652C38.107 17.8475 38.107 17.8475 40.5981 18.6075C40.6531 18.6241 40.7081 18.6408 40.7648 18.6579C41.8575 18.9944 42.7557 19.4863 43.6485 20.0847C43.6984 20.1181 43.7484 20.1514 43.7999 20.1858C44.0374 20.3494 44.2296 20.4881 44.3396 20.7261C44.3945 20.7261 44.4494 20.7261 44.5059 20.7261C46.4412 22.6155 46.843 25.1676 46.5426 27.5255C46.1533 30.0201 44.5119 32.1242 42.261 33.8351C42.3335 33.8744 42.4059 33.9138 42.4806 33.9543C44.4758 35.0531 45.5162 36.3187 45.9562 38.2325C45.9892 38.3942 46.0195 38.5561 46.0483 38.7184C46.0642 38.808 46.0642 38.808 46.0805 38.8995C46.183 39.504 46.2363 40.1092 46.2799 40.7179C46.2988 40.9805 46.3196 41.243 46.3402 41.5054C46.3561 41.7076 46.3718 41.9099 46.3874 42.1121C46.5188 44.3151 46.5188 44.3151 47.0002 46.4806C47.1477 45.9963 47.279 45.5108 47.3968 45.0215C48.4325 40.7289 49.8366 36.4905 51.245 32.267C52.7539 27.7404 53.9944 23.2125 53.9851 18.5083C53.985 18.4538 53.985 18.3993 53.9849 18.3432C53.9848 18.2106 53.9845 18.078 53.9843 17.9454C55.6617 17.9352 57.3392 17.9254 59.0166 17.9161C59.7954 17.9118 60.5742 17.9073 61.353 17.9025C62.0316 17.8984 62.7103 17.8944 63.3889 17.8908C63.7484 17.8889 64.1079 17.8868 64.4674 17.8845C64.8054 17.8823 65.1435 17.8804 65.4816 17.8788C65.6059 17.8781 65.7303 17.8774 65.8546 17.8765C66.0239 17.8753 66.1931 17.8745 66.3624 17.8738C66.4573 17.8732 66.5522 17.8727 66.6499 17.8721C66.8716 17.8792 66.8716 17.8792 67.0379 17.9454C67.0379 18.011 67.0379 18.0765 67.0379 18.1441C67.1477 18.1441 67.2574 18.1441 67.3705 18.1441C67.3879 18.2585 67.3879 18.2585 67.4057 18.3753C68.0788 22.76 69.1693 27.084 70.4497 31.3805C70.6031 31.8957 70.7554 32.411 70.908 32.9263C71.1055 33.5931 71.303 34.2599 71.5011 34.9265C71.9243 36.3502 72.3445 37.7744 72.7597 39.1995C72.8302 39.4413 72.9007 39.6831 72.9713 39.9249C73.0181 40.0851 73.0648 40.2453 73.1116 40.4056C73.1346 40.4845 73.1577 40.5635 73.1814 40.6448C73.3174 41.1108 73.4528 41.5768 73.5879 42.043C73.6729 42.3359 73.7584 42.6289 73.844 42.9217C73.8833 43.0565 73.9224 43.1913 73.9613 43.3262C74.5863 45.7068 74.5863 45.7068 75.9077 47.8684C76.0175 48.0034 76.0175 48.0034 76.0175 48.1358C72.1488 48.1358 68.2801 48.1358 64.2942 48.1358C64.2942 48.0921 64.2942 48.0484 64.2942 48.0034C64.2119 47.9815 64.1295 47.9597 64.0447 47.9372C64.0857 47.6488 64.1376 47.3687 64.2127 47.0847C64.318 46.6255 64.3228 46.1726 64.3202 45.7068C64.3199 45.6616 64.3197 45.6164 64.3194 45.5699C64.3078 44.0602 63.9579 42.606 63.6108 41.1263C63.5963 41.0643 63.5818 41.0023 63.5668 40.9385C63.5394 40.8217 63.5118 40.705 63.484 40.5883C63.4715 40.5351 63.459 40.4819 63.4461 40.4271C63.4352 40.3813 63.4244 40.3355 63.4132 40.2883C63.3659 40.0582 63.3328 39.8264 63.2964 39.5951C60.9643 39.5951 58.6321 39.5951 56.2292 39.5951C56.2018 39.8136 56.1743 40.032 56.1461 40.2572C56.1078 40.4383 56.0674 40.6177 56.0223 40.7977C55.9977 40.8992 55.9731 41.0007 55.9486 41.1022C55.9295 41.1809 55.9295 41.1809 55.91 41.2611C55.0854 44.4719 55.0854 44.4719 55.4263 47.6977C55.4809 47.8709 55.4809 47.8709 55.4809 48.1358C53.3525 48.1435 51.2241 48.1493 49.0956 48.1529C48.1074 48.1546 47.1192 48.157 46.1309 48.1607C45.2697 48.164 44.4085 48.1662 43.5472 48.1669C43.0911 48.1673 42.635 48.1684 42.1789 48.1708C41.7497 48.173 41.3205 48.1737 40.8913 48.1732C40.7337 48.1733 40.5761 48.174 40.4184 48.1752C40.2034 48.1769 39.9884 48.1765 39.7733 48.1756C39.7108 48.1765 39.6483 48.1775 39.5839 48.1785C39.2548 48.1748 39.1169 48.1459 38.8599 47.9765C37.0535 46.1945 37.0705 43.4463 36.8153 41.2635C36.6237 39.2518 36.6237 39.2518 35.8589 37.344C35.8335 37.3001 35.8081 37.2561 35.7819 37.2109C35.6133 36.9666 35.3848 36.8665 35.0572 36.7824C34.8315 36.743 34.611 36.7251 34.3808 36.7102C34.2585 36.702 34.2585 36.702 34.1337 36.6937C34.0411 36.6879 34.0411 36.6879 33.9466 36.682C33.9517 37.7324 33.9581 38.7829 33.9662 39.8333C33.9699 40.3213 33.9732 40.8092 33.9754 41.2971C33.9773 41.7233 33.9801 42.1495 33.9839 42.5756C33.9859 42.8005 33.9873 43.0253 33.988 43.2502C33.9926 44.6911 34.0125 46.1646 34.6118 47.5399C34.6941 47.7365 34.7764 47.9332 34.8612 48.1358C31.4315 48.1358 28.0018 48.1358 24.4682 48.1358C24.4682 48.0921 24.4682 48.0484 24.4682 48.0034C24.3859 47.9815 24.3036 47.9597 24.2188 47.9372C24.2692 47.6409 24.3676 47.3848 24.4994 47.1054C24.6793 46.6971 24.7864 46.2922 24.8631 45.864C24.8727 45.8116 24.8823 45.7592 24.8921 45.7052C25.0953 44.4699 25.0628 43.2196 25.0623 41.9765C25.0623 41.7087 25.0627 41.4409 25.0631 41.1731C25.0638 40.6498 25.064 40.1266 25.0641 39.6034C25.0641 39.1774 25.0643 38.7514 25.0646 38.3255C25.0653 37.1139 25.0657 35.9023 25.0656 34.6907C25.0656 34.593 25.0656 34.593 25.0656 34.4934C25.0656 34.4282 25.0656 34.363 25.0656 34.2958C25.0656 33.2402 25.0663 32.1846 25.0675 31.129C25.0687 30.0413 25.0693 28.9536 25.0692 27.8659C25.0692 27.2568 25.0694 26.6476 25.0703 26.0385C25.0711 25.5198 25.0712 25.001 25.0707 24.4822C25.0704 24.2184 25.0704 23.9546 25.0711 23.6907C25.1614 20.9175 25.1614 20.9175 24.2798 18.2705C24.2188 18.1441 24.2188 18.1441 24.2188 17.8792ZM33.9466 23.1758C33.9466 25.8194 33.9466 28.4631 33.9466 31.1868C34.9028 31.1176 35.5017 31.0145 36.1483 30.449C37.2796 29.3489 37.3762 27.8386 37.3919 26.4778C37.3929 26.4305 37.3939 26.3833 37.395 26.3345C37.411 25.4469 37.2775 24.546 36.6904 23.7716C36.6458 23.7116 36.6012 23.6515 36.5552 23.5896C35.8142 23.0305 34.9606 23.1758 33.9466 23.1758ZM59.9707 25.9565C59.9558 26.0112 59.9558 26.0112 59.9406 26.0671C59.379 28.1338 58.8068 30.1984 58.2174 32.2602C58.1804 32.3898 58.1434 32.5195 58.1064 32.6492C58.0612 32.8078 58.0158 32.9663 57.9703 33.1248C57.9502 33.1954 57.9301 33.2659 57.9094 33.3385C57.8919 33.3996 57.8744 33.4607 57.8564 33.5236C57.8058 33.7146 57.7661 33.9074 57.7258 34.0999C59.1251 34.0999 60.5244 34.0999 61.9661 34.0999C61.9083 33.5455 61.9083 33.5455 61.8067 33.0026C61.7845 32.9075 61.7845 32.9075 61.7618 32.8104C61.7458 32.7437 61.7298 32.677 61.7133 32.6083C61.6877 32.4996 61.6877 32.4996 61.6616 32.3888C61.6058 32.1519 61.5494 31.9152 61.4929 31.6784C61.4539 31.5132 61.4148 31.348 61.3758 31.1828C61.284 30.794 61.1918 30.4053 61.0994 30.0166C60.9941 29.5736 60.8892 29.1305 60.7845 28.6875C60.5692 27.7771 60.3533 26.8667 60.137 25.9565C60.0821 25.9565 60.0272 25.9565 59.9707 25.9565Z" fill="#FAF5ED"/>
<path d="M82.6688 17.9454C82.6688 18.0109 82.6688 18.0765 82.6688 18.144C82.7785 18.144 82.8883 18.144 83.0013 18.144C82.9783 18.2199 82.9552 18.2958 82.9315 18.3739C82.9011 18.4752 82.8706 18.5765 82.8402 18.6778C82.8251 18.7276 82.8099 18.7774 82.7943 18.8287C82.7722 18.9026 82.7722 18.9026 82.7496 18.9781C82.7361 19.0228 82.7226 19.0675 82.7087 19.1136C82.5781 19.6233 82.5645 20.1273 82.5611 20.6452C82.5601 20.7404 82.5585 20.8356 82.556 20.9308C82.5383 21.6009 82.6048 22.2551 82.714 22.9193C82.721 22.9623 82.728 23.0053 82.7352 23.0495C82.9568 24.3986 83.2398 25.7407 83.5145 27.0834C83.5924 27.4642 83.6698 27.8451 83.7472 28.2259C83.877 28.8638 84.0071 29.5017 84.1374 30.1395C84.2874 30.874 84.4371 31.6087 84.5865 32.3433C84.7468 33.1313 84.9073 33.9192 85.0679 34.7072C85.1138 34.9321 85.1596 35.157 85.2053 35.3819C85.2775 35.7361 85.3498 36.0903 85.4222 36.4445C85.4485 36.5735 85.4748 36.7026 85.5011 36.8316C85.653 37.5783 85.8142 38.3227 85.9945 39.0654C86.0014 39.0292 86.0082 38.9931 86.0152 38.9558C86.1802 38.0836 86.3453 37.2113 86.5103 36.3391C86.6079 35.8239 86.7053 35.3087 86.8027 34.7936C86.9116 34.2176 87.0206 33.6416 87.1296 33.0656C87.1388 33.0171 87.148 32.9686 87.1575 32.9186C87.4147 31.5599 87.6739 30.2015 87.9355 28.8434C87.9847 28.5879 88.0338 28.3325 88.0829 28.077C88.0988 27.9943 88.1147 27.9116 88.1311 27.8263C88.1626 27.662 88.1942 27.4977 88.2257 27.3334C88.3018 26.9377 88.3781 26.5421 88.4549 26.1466C89.4071 22.2098 89.4071 22.2098 88.862 18.2919C88.8214 18.144 88.8214 18.144 88.9046 17.8792C92.0599 17.8792 95.2152 17.8792 98.4661 17.8792C98.4936 17.9447 98.521 18.0103 98.5493 18.0778C98.6041 18.0997 98.659 18.1215 98.7155 18.144C98.743 18.0566 98.7704 17.9692 98.7987 17.8792C104.945 17.8792 111.091 17.8792 117.423 17.8792C117.45 17.9666 117.478 18.054 117.506 18.144C117.616 18.144 117.726 18.144 117.839 18.144C117.839 20.2414 117.839 22.3389 117.839 24.4999C117.459 24.5754 117.414 24.5498 117.075 24.4254C114.514 23.6082 111.421 23.7568 108.776 23.7054C108.803 25.6717 108.831 27.6381 108.859 29.664C110.733 29.668 110.733 29.668 112.601 29.6102C112.662 29.6073 112.723 29.6044 112.786 29.6014C114.09 29.5386 115.336 29.4121 116.591 29.1191C116.841 29.0681 116.841 29.0681 117.174 29.0681C117.174 29.1337 117.174 29.1992 117.174 29.2668C117.283 29.2886 117.393 29.3105 117.506 29.333C117.506 31.5397 117.506 33.7463 117.506 36.0199C117.183 36.1056 117.041 36.0478 116.716 35.9702C114.153 35.3991 111.402 35.4821 108.776 35.424C108.776 37.7181 108.776 40.0121 108.776 42.3757C113.126 42.4555 113.126 42.4555 117.525 41.5712C117.672 41.515 117.672 41.515 118.005 41.515C118.005 41.5806 118.005 41.6461 118.005 41.7137C118.115 41.7137 118.224 41.7137 118.338 41.7137C118.338 43.8329 118.338 45.9522 118.338 48.1357C111.945 48.1357 105.552 48.1357 98.965 48.1357C98.965 48.092 98.965 48.0483 98.965 48.0033C98.8827 47.9815 98.8004 47.9596 98.7155 47.9371C98.7506 47.679 98.8347 47.4604 98.9546 47.2212C99.7493 45.4947 99.5727 43.4154 99.5687 41.5989C99.5683 41.3394 99.5689 41.0799 99.5694 40.8203C99.5701 40.3152 99.57 39.81 99.5695 39.3048C99.5691 38.8935 99.5691 38.4821 99.5692 38.0707C99.5693 37.9821 99.5693 37.9821 99.5693 37.8917C99.5694 37.7717 99.5694 37.6516 99.5695 37.5315C99.57 36.4118 99.5694 35.292 99.5685 34.1723C99.5678 33.2161 99.5679 32.2599 99.5687 31.3038C99.5696 30.1872 99.5699 29.0706 99.5694 27.9541C99.5693 27.8345 99.5693 27.715 99.5692 27.5954C99.5692 27.5366 99.5692 27.4779 99.5692 27.4173C99.569 27.0074 99.5693 26.5975 99.5697 26.1877C99.5701 25.6867 99.57 25.1858 99.5691 24.6849C99.5687 24.4305 99.5685 24.176 99.569 23.9215C99.571 22.9466 99.5548 21.9751 99.4726 21.0021C99.4628 20.8868 99.4628 20.8868 99.4529 20.7691C99.3782 19.9775 99.291 19.1136 98.7987 18.4088C97.3699 20.5318 97.0209 23.0195 96.4599 25.3598C96.3635 25.7616 96.2666 26.1634 96.1697 26.5652C95.9368 27.5318 95.7048 28.4986 95.4729 29.4654C95.4558 29.5367 95.4387 29.608 95.4211 29.6814C95.2503 30.3936 95.0797 31.1057 94.909 31.8178C94.8946 31.8781 94.8801 31.9385 94.8652 32.0006C94.7928 32.3028 94.7204 32.605 94.6481 32.9072C94.2332 34.6404 93.8125 36.3727 93.3872 38.1043C92.9149 40.027 92.453 41.9513 91.9963 43.8764C91.8531 44.4797 91.7094 45.0829 91.5652 45.6861C91.5521 45.7409 91.539 45.7956 91.5255 45.8521C91.4447 46.1898 91.3636 46.5275 91.2819 46.8651C91.2561 46.9721 91.2304 47.0791 91.2048 47.186C91.1696 47.3333 91.1339 47.4805 91.0981 47.6277C91.0779 47.7116 91.0576 47.7955 91.0368 47.882C90.9832 48.0695 90.9832 48.0695 90.9 48.1357C90.7527 48.1421 90.6051 48.1438 90.4576 48.1437C90.3616 48.1438 90.2657 48.1439 90.1668 48.144C90.0606 48.1437 89.9544 48.1435 89.8449 48.1432C89.7327 48.1432 89.6205 48.1432 89.5082 48.1433C89.2026 48.1433 88.8971 48.1429 88.5915 48.1424C88.2724 48.142 87.9534 48.142 87.6344 48.1419C87.0298 48.1417 86.4253 48.1412 85.8208 48.1405C85.1327 48.1398 84.4447 48.1394 83.7566 48.1391C82.3408 48.1384 80.9251 48.1372 79.5093 48.1357C79.4818 48.092 79.4544 48.0483 79.4261 48.0033C79.3438 47.9815 79.2615 47.9596 79.1767 47.9371C79.1098 47.7649 79.0609 47.6025 79.0182 47.4262C79.0042 47.3722 78.9901 47.3181 78.9757 47.2624C78.9288 47.0807 78.8836 46.8987 78.8383 46.7167C78.8054 46.5877 78.7723 46.4588 78.7392 46.3299C78.6682 46.0528 78.5979 45.7755 78.5281 45.4982C78.4174 45.0581 78.3052 44.6181 78.1927 44.1783C78.0776 43.7279 77.9626 43.2775 77.8481 42.827C77.6149 41.9093 77.3792 40.9921 77.1394 40.0756C77.1247 40.0196 77.1101 39.9637 77.095 39.9061C77.0368 39.6837 76.9786 39.4614 76.9204 39.239C76.3958 37.2363 75.8812 35.2321 75.3729 33.2268C75.358 33.1681 75.3431 33.1094 75.3278 33.0489C75.3055 32.9611 75.3055 32.9611 75.2828 32.8716C74.8022 30.9755 74.3161 29.0804 73.8223 27.1864C73.6755 26.623 73.5303 26.0594 73.3859 25.4956C73.2606 25.0062 73.1347 24.5168 73.0086 24.0275C72.9315 23.7287 72.8548 23.4298 72.7787 23.1307C72.3777 21.5484 72.3777 21.5484 71.8854 19.9828C71.8637 19.9198 71.842 19.8567 71.8197 19.7917C71.6259 19.2576 71.3552 18.7525 71.0026 18.2723C70.8623 18.0778 70.8623 18.0778 70.8623 17.9454C72.3771 17.9352 73.8919 17.9254 75.4068 17.9161C76.1101 17.9117 76.8134 17.9072 77.5167 17.9025C78.1295 17.8983 78.7424 17.8944 79.3552 17.8908C79.6799 17.8888 80.0045 17.8868 80.3292 17.8844C80.6345 17.8823 80.9398 17.8804 81.2451 17.8787C81.4111 17.8778 81.5771 17.8765 81.7431 17.8751C81.8412 17.8747 81.9394 17.8742 82.0406 17.8737C82.1263 17.8732 82.2119 17.8726 82.3002 17.8721C82.5025 17.8792 82.5025 17.8792 82.6688 17.9454Z" fill="#FAF5ED"/>
<path d="M160.789 17.8724C160.886 17.8726 160.982 17.8728 161.082 17.873C161.188 17.8735 161.294 17.874 161.403 17.8746C161.516 17.875 161.629 17.8753 161.742 17.8756C162.049 17.8765 162.356 17.8778 162.664 17.8793C162.857 17.8802 163.05 17.8811 163.242 17.8819C163.918 17.8847 164.594 17.888 165.27 17.8916C165.895 17.8949 166.519 17.8972 167.144 17.8991C167.684 17.9008 168.223 17.9032 168.762 17.9062C169.083 17.908 169.404 17.9094 169.725 17.9101C173.262 17.9185 176.679 18.1605 179.449 20.064C179.556 20.1311 179.556 20.1311 179.665 20.1995C181.372 21.3066 182.152 23.1747 182.38 24.857C182.723 27.6021 181.953 30.2494 179.767 32.4217C179.404 32.7703 179.01 33.0966 178.618 33.4236C178.436 33.5756 178.269 33.7287 178.118 33.9013C178.166 33.9215 178.213 33.9417 178.262 33.9626C179.922 34.7086 180.988 35.7792 181.514 37.2432C181.626 37.5773 181.713 37.9145 181.792 38.2544C181.805 38.3086 181.818 38.3628 181.831 38.4187C182.043 39.3803 182.117 40.3574 182.19 41.3307C182.193 41.3753 182.196 41.4199 182.2 41.4659C182.231 41.8833 182.261 42.3006 182.29 42.7181C182.309 45.4399 182.309 45.4399 183.749 47.777C183.855 47.8709 183.855 47.8709 183.855 48.1357C182.693 48.1466 181.531 48.1547 180.369 48.1597C179.829 48.1622 179.29 48.1654 178.75 48.1707C178.229 48.1757 177.708 48.1785 177.188 48.1797C176.989 48.1806 176.79 48.1822 176.592 48.1847C176.313 48.1881 176.035 48.1886 175.757 48.1884C175.675 48.19 175.592 48.1917 175.508 48.1934C174.962 48.1888 174.962 48.1888 174.717 48.0377C174.427 47.7755 174.221 47.4755 174.039 47.1592C174.011 47.1104 173.983 47.0616 173.954 47.0114C172.883 45.0816 172.847 42.7914 172.599 40.7176C172.437 38.7664 172.437 38.7664 171.467 37.013C171.086 36.7701 170.67 36.7374 170.194 36.7096C170.105 36.7043 170.017 36.6989 169.925 36.6934C169.824 36.6877 169.824 36.6877 169.721 36.6819C169.73 37.4568 169.739 38.2316 169.749 39.0065C169.754 39.3665 169.758 39.7266 169.762 40.0866C169.785 42.1057 169.785 42.1057 169.844 44.1243C169.848 44.2071 169.851 44.2898 169.854 44.3751C169.907 45.6141 170.022 46.8744 170.719 48.0033C170.719 48.047 170.719 48.0907 170.719 48.1357C167.289 48.1357 163.859 48.1357 160.326 48.1357C160.326 48.092 160.326 48.0483 160.326 48.0033C160.243 47.9815 160.161 47.9596 160.076 47.9371C160.138 47.579 160.271 47.248 160.417 46.9075C160.7 46.2183 160.775 45.4996 160.834 44.7796C160.841 44.6935 160.848 44.6075 160.855 44.5189C160.928 43.5696 160.931 42.6203 160.928 41.6696C160.928 41.4097 160.928 41.1497 160.928 40.8898C160.929 40.3838 160.928 39.8778 160.927 39.3718C160.927 38.7804 160.927 38.189 160.927 37.5975C160.927 36.5416 160.926 35.4856 160.925 34.4296C160.924 33.4086 160.923 32.3876 160.923 31.3666C160.923 31.3036 160.923 31.2406 160.923 31.1757C160.923 31.1128 160.923 31.0499 160.923 30.9851C160.923 29.8165 160.923 28.6479 160.922 27.4793C160.922 27.0685 160.922 26.6577 160.921 26.2468C160.921 25.7457 160.921 25.2446 160.92 24.7435C160.92 24.4885 160.92 24.2336 160.92 23.9787C160.928 22.0297 160.928 22.0297 160.726 20.0889C160.716 20.0262 160.706 19.9636 160.695 19.8991C160.6 19.3658 160.413 18.874 160.177 18.3706C160.076 18.144 160.076 18.144 160.076 17.9454C160.337 17.8762 160.516 17.8715 160.789 17.8724ZM169.721 23.1757C169.721 25.8194 169.721 28.463 169.721 31.1868C170.645 31.1255 171.359 31.0336 171.989 30.4833C173.323 29.0189 173.454 26.9014 173.169 25.1632C173.064 24.7178 172.91 24.3004 172.631 23.904C172.603 23.8613 172.575 23.8185 172.546 23.7745C172.256 23.3872 171.928 23.2898 171.384 23.1757C170.835 23.1757 170.286 23.1757 169.721 23.1757Z" fill="#FAF5ED"/>
<path d="M139.207 17.9454C145.408 17.9454 151.609 17.9454 157.998 17.9454C157.998 18.011 157.998 18.0765 157.998 18.1441C158.107 18.1441 158.217 18.1441 158.33 18.1441C158.33 20.2633 158.33 22.3826 158.33 24.5661C157.942 24.5147 157.686 24.4604 157.332 24.3468C154.813 23.62 151.848 23.7544 149.267 23.7054C149.295 25.6718 149.322 27.6381 149.351 29.6641C151.211 29.669 151.211 29.669 153.066 29.6144C153.126 29.6116 153.187 29.6088 153.249 29.606C154.568 29.5438 155.889 29.4378 157.149 29.1068C157.332 29.0682 157.332 29.0682 157.665 29.0682C157.692 29.1337 157.72 29.1993 157.748 29.2668C157.83 29.2668 157.913 29.2668 157.998 29.2668C157.998 31.5172 157.998 33.7676 157.998 36.0861C157.751 36.0424 157.504 35.9987 157.249 35.9537C154.591 35.4879 152.004 35.483 149.267 35.4241C149.267 37.7181 149.267 40.0122 149.267 42.3758C153.692 42.3872 153.692 42.3872 157.97 41.5927C158.247 41.5151 158.247 41.5151 158.58 41.5151C158.58 41.5806 158.58 41.6462 158.58 41.7137C158.689 41.7356 158.799 41.7574 158.912 41.7799C158.912 43.8773 158.912 45.9748 158.912 48.1358C152.519 48.1358 146.126 48.1358 139.54 48.1358C139.54 48.0702 139.54 48.0047 139.54 47.9372C139.43 47.9372 139.32 47.9372 139.207 47.9372C139.264 47.6671 139.37 47.4244 139.488 47.1675C139.656 46.7804 139.771 46.3967 139.851 45.9923C139.861 45.9457 139.871 45.899 139.88 45.851C140.103 44.6414 140.051 43.4073 140.051 42.1882C140.051 41.9116 140.051 41.6349 140.051 41.3583C140.052 40.8176 140.052 40.277 140.052 39.7364C140.052 39.2965 140.053 38.8566 140.053 38.4167C140.054 37.1664 140.054 35.9161 140.054 34.6659C140.054 34.565 140.054 34.565 140.054 34.4621C140.054 34.3948 140.054 34.3275 140.054 34.2582C140.054 33.1677 140.055 32.0772 140.056 30.9867C140.057 29.8639 140.058 28.7411 140.057 27.6183C140.057 26.9892 140.058 26.3601 140.059 25.7309C140.059 25.1953 140.06 24.6597 140.059 24.1241C140.059 23.8514 140.059 23.5788 140.059 23.3061C140.096 20.7215 140.096 20.7215 139.289 18.2418C139.207 18.0778 139.207 18.0778 139.207 17.9454Z" fill="#FAF5ED"/>
<path d="M0.855469 17.9454C8.18129 17.9454 15.5071 17.9454 23.0549 17.9454C23.0549 18.011 23.0549 18.0765 23.0549 18.1441C23.1647 18.1441 23.2744 18.1441 23.3875 18.1441C23.3875 20.3289 23.3875 22.5137 23.3875 24.7647C22.9671 24.7089 22.7797 24.667 22.4261 24.5123C21.0011 23.9318 19.4603 23.835 17.8844 23.7993C17.7724 23.7965 17.6604 23.7938 17.5484 23.7909C17.2776 23.7842 17.0068 23.7778 16.736 23.7716C16.7428 26.3846 16.7505 28.9975 16.7593 31.6104C16.7603 31.9196 16.7613 32.2288 16.7624 32.5381C16.7626 32.5996 16.7628 32.6612 16.763 32.7246C16.7663 33.7183 16.769 34.712 16.7715 35.7057C16.7741 36.727 16.7773 37.7484 16.7811 38.7698C16.7834 39.3988 16.7853 40.0279 16.7865 40.657C16.7874 41.0897 16.7888 41.5224 16.7908 41.9552C16.7919 42.204 16.7927 42.4528 16.7929 42.7015C16.7291 45.3881 16.7291 45.3881 17.6506 47.9372C17.6506 48.0027 17.6506 48.0682 17.6506 48.1358C14.0837 48.1358 10.5168 48.1358 6.84184 48.1358C6.84184 48.0702 6.84184 48.0047 6.84184 47.9372C6.75953 47.9372 6.67721 47.9372 6.59241 47.9372C6.63984 47.6735 6.71361 47.4411 6.83145 47.1923C7.56729 45.4451 7.44918 43.4156 7.45018 41.5951C7.45049 41.3544 7.45176 41.1138 7.45289 40.8731C7.45472 40.4589 7.45598 40.0447 7.45683 39.6304C7.45805 39.0316 7.46018 38.4327 7.46251 37.8339C7.46626 36.8616 7.46932 35.8893 7.47191 34.917C7.47443 33.9741 7.4773 33.0312 7.4806 32.0883C7.48081 32.0299 7.48101 31.9715 7.48122 31.9114C7.48225 31.6183 7.48329 31.3253 7.48433 31.0323C7.4929 28.6121 7.50033 26.1919 7.50699 23.7716C7.17981 23.7805 6.85265 23.79 6.5255 23.7996C6.43411 23.802 6.34272 23.8045 6.24856 23.807C4.60137 23.8564 3.09754 24.0462 1.64436 24.696C1.41673 24.7716 1.33018 24.77 1.1049 24.6985C1.1049 24.6548 1.1049 24.6111 1.1049 24.5661C1.02259 24.5661 0.940276 24.5661 0.855469 24.5661C0.855469 22.3813 0.855469 20.1965 0.855469 17.9454Z" fill="#FAF5ED"/>
<path d="M119.585 17.8792C123.097 17.8792 126.609 17.8792 130.228 17.8792C130.255 17.9447 130.282 18.0102 130.311 18.0778C130.478 18.1263 130.478 18.1263 130.643 18.144C130.621 18.197 130.621 18.197 130.597 18.251C130.553 18.3565 130.509 18.4621 130.465 18.5679C130.421 18.6738 130.376 18.7796 130.33 18.8849C130.18 19.2492 130.089 19.6162 130.009 19.9936C129.999 20.0418 129.989 20.0899 129.978 20.1395C129.84 20.8253 129.799 21.5048 129.799 22.1987C129.798 22.2842 129.798 22.3697 129.797 22.4579C129.796 22.6932 129.796 22.9286 129.795 23.164C129.794 23.4186 129.793 23.6731 129.792 23.9277C129.79 24.3681 129.789 24.8085 129.788 25.2489C129.786 25.8857 129.783 26.5224 129.781 27.1592C129.777 28.1924 129.773 29.2256 129.77 30.2589C129.767 31.2622 129.763 32.2655 129.76 33.2689C129.759 33.3308 129.759 33.3927 129.759 33.4565C129.758 33.767 129.757 34.0776 129.756 34.3882C129.746 36.9624 129.737 39.5367 129.729 42.1109C130.087 42.1025 130.446 42.094 130.804 42.0853C130.925 42.0824 131.047 42.0795 131.168 42.0767C134.417 42.0196 134.417 42.0196 137.515 41.311C137.71 41.2502 137.71 41.2502 138.043 41.2502C138.043 41.3157 138.043 41.3813 138.043 41.4488C138.153 41.4488 138.263 41.4488 138.376 41.4488C138.376 43.6555 138.376 45.8622 138.376 48.1357C132.257 48.1357 126.139 48.1357 119.835 48.1357C119.835 48.0702 119.835 48.0046 119.835 47.9371C119.725 47.9371 119.615 47.9371 119.502 47.9371C119.553 47.7044 119.632 47.4984 119.741 47.2792C120.448 45.7439 120.359 44.0649 120.356 42.4541C120.356 42.1726 120.357 41.8912 120.358 41.6097C120.359 41.06 120.359 40.5104 120.359 39.9608C120.358 39.5134 120.359 39.066 120.359 38.6186C120.359 38.5546 120.359 38.4906 120.359 38.4247C120.359 38.2946 120.359 38.1646 120.359 38.0345C120.36 36.8183 120.36 35.6021 120.36 34.3859C120.359 33.277 120.36 32.1681 120.362 31.0592C120.363 29.9164 120.364 28.7737 120.364 27.6309C120.363 26.991 120.364 26.3511 120.365 25.7112C120.366 25.1664 120.366 24.6216 120.365 24.0767C120.364 23.7996 120.364 23.5225 120.365 23.2454C120.467 20.7151 120.467 20.7151 119.611 18.3333C119.502 18.144 119.502 18.144 119.585 17.8792Z" fill="#FAF5ED"/>
<path d="M1.27148 0.135742C5.66149 0.135742 10.0515 0.135742 14.5745 0.135742C14.602 5.139 14.6294 10.1423 14.6577 15.2971C10.2402 15.2971 5.82279 15.2971 1.27148 15.2971C1.27148 10.2939 1.27148 5.29061 1.27148 0.135742ZM3.26694 1.72471C3.25882 1.87965 3.25613 2.03263 3.25694 2.18761C3.25687 2.2366 3.2568 2.28559 3.25673 2.33607C3.25659 2.50147 3.25705 2.66687 3.2575 2.83227C3.25753 2.95034 3.25751 3.06841 3.25747 3.18648C3.25744 3.50806 3.25793 3.82964 3.25851 4.15123C3.25903 4.48691 3.25908 4.8226 3.25918 5.15828C3.25944 5.79442 3.26012 6.43056 3.26095 7.06669C3.26188 7.79071 3.26234 8.51473 3.26276 9.23876C3.26363 10.7286 3.26509 12.2184 3.26694 13.7082C3.46254 13.786 3.57812 13.7827 3.79616 13.7828C3.91053 13.783 3.91053 13.783 4.0272 13.7833C4.11109 13.7832 4.19497 13.7831 4.2814 13.7829C4.36955 13.783 4.4577 13.7832 4.54852 13.7833C4.84104 13.7836 5.13356 13.7834 5.42609 13.7832C5.62864 13.7832 5.83119 13.7833 6.03374 13.7833C6.45871 13.7834 6.88368 13.7833 7.30864 13.783C7.85443 13.7826 8.40021 13.7828 8.946 13.7832C9.36439 13.7835 9.78278 13.7834 10.2012 13.7832C10.4025 13.7832 10.6038 13.7832 10.8051 13.7834C11.086 13.7836 11.3669 13.7833 11.6478 13.7829C11.7736 13.7831 11.7736 13.7831 11.902 13.7833C12.0163 13.7831 12.0163 13.7831 12.133 13.7828C12.1995 13.7827 12.2659 13.7827 12.3344 13.7827C12.5027 13.7824 12.5027 13.7824 12.6622 13.7082C12.6622 9.75362 12.6622 5.79908 12.6622 1.72471C12.3669 1.67767 12.1507 1.6502 11.8593 1.65009C11.784 1.64991 11.7087 1.64972 11.6311 1.64953C11.5088 1.64973 11.5088 1.64973 11.384 1.64993C11.2539 1.64976 11.2539 1.64976 11.1212 1.64958C10.8351 1.64929 10.5489 1.64948 10.2627 1.64971C10.0641 1.64966 9.8654 1.6496 9.66673 1.64952C9.25074 1.64942 8.83474 1.64956 8.41875 1.64987C7.88423 1.65025 7.34973 1.65003 6.81522 1.64963C6.40525 1.64939 5.99527 1.64947 5.5853 1.64964C5.38812 1.64969 5.19093 1.64963 4.99375 1.64948C4.71903 1.64931 4.44431 1.64956 4.16959 1.64993C4.08735 1.6498 4.00512 1.64967 3.92039 1.64953C3.84602 1.64971 3.77165 1.6499 3.69503 1.65009C3.59755 1.65013 3.59755 1.65013 3.49809 1.65017C3.34802 1.64568 3.34802 1.64568 3.26694 1.72471Z" fill="#FAF5ED"/>
<path d="M39.5176 8.47778C42.4151 8.47778 42.4151 8.47778 43.046 8.96192C43.4215 9.35209 43.4861 9.78818 43.4253 10.2654C43.3155 10.7776 43.0543 11.0963 42.5939 11.4571C42.5107 11.5233 42.4276 11.5895 42.3445 11.6557C42.5085 11.9186 42.6728 12.1814 42.8372 12.4441C42.8932 12.5335 42.9491 12.623 43.0049 12.7125C43.085 12.8409 43.1654 12.9692 43.2457 13.0975C43.2941 13.1748 43.3424 13.2522 43.3922 13.3318C43.4879 13.4997 43.4879 13.4997 43.5916 13.5757C43.6136 13.5245 43.6356 13.4734 43.6583 13.4206C43.8672 12.9347 44.0763 12.4488 44.2856 11.9629C44.3931 11.7132 44.5006 11.4635 44.6079 11.2137C44.7118 10.972 44.8159 10.7303 44.9201 10.4887C44.9595 10.3972 44.9988 10.3057 45.0381 10.2142C45.2888 9.63012 45.5542 9.05265 45.8365 8.47778C46.1658 8.47778 46.495 8.47778 46.8343 8.47778C47.1313 9.04243 47.3677 9.61849 47.5994 10.2015C47.6399 10.3028 47.6805 10.4041 47.721 10.5054C47.8054 10.7162 47.8895 10.9271 47.9734 11.1379C48.0812 11.4087 48.1894 11.6794 48.2977 11.9501C48.3812 12.1586 48.4644 12.3671 48.5477 12.5756C48.5876 12.6755 48.6275 12.7754 48.6674 12.8753C48.7229 13.0141 48.7781 13.1529 48.8334 13.2918C48.8649 13.3708 48.8963 13.4498 48.9288 13.5312C48.996 13.7081 48.996 13.7081 48.996 13.7743C48.557 13.7743 48.118 13.7743 47.6657 13.7743C47.1668 12.7529 47.1668 12.7529 47.1668 12.384C46.5358 12.384 45.9047 12.384 45.2545 12.384C45.0859 12.6973 44.9474 12.9796 44.8284 13.3026C44.6814 13.7011 44.6814 13.7011 44.5894 13.7743C44.417 13.7801 44.2445 13.7814 44.072 13.7808C43.9672 13.7806 43.8625 13.7804 43.7545 13.7802C43.6431 13.7796 43.5316 13.779 43.4202 13.7785C43.3084 13.7781 43.1966 13.7778 43.0848 13.7776C42.8103 13.7768 42.5358 13.7757 42.2613 13.7743C42.047 13.4467 41.8433 13.1199 41.677 12.7748C41.6506 12.7204 41.6242 12.6661 41.597 12.6102C41.5435 12.4988 41.4914 12.3871 41.4404 12.275C41.4139 12.2214 41.3874 12.1679 41.3601 12.1127C41.3375 12.0646 41.3148 12.0164 41.2916 11.9668C41.1579 11.8055 41.1579 11.8055 40.6816 11.7881C40.6816 12.4436 40.6816 13.099 40.6816 13.7743C40.2975 13.7743 39.9133 13.7743 39.5176 13.7743C39.5176 12.0265 39.5176 10.2786 39.5176 8.47778ZM40.6816 9.20606C40.6816 9.81781 40.6816 10.4296 40.6816 11.0599C41.3619 11.0961 41.3619 11.0961 41.8456 10.8612C42.1053 10.6028 42.2446 10.3992 42.2613 10.0667C42.2182 9.79382 42.1507 9.59289 41.934 9.37571C41.5196 9.12579 41.2599 9.20606 40.6816 9.20606ZM46.1691 9.66951C46.0741 9.93103 45.9794 10.1926 45.8849 10.4543C45.8527 10.5433 45.8205 10.6323 45.7881 10.7213C45.7417 10.8491 45.6956 10.977 45.6495 11.1049C45.6077 11.2203 45.6077 11.2203 45.565 11.3381C45.4969 11.5127 45.4969 11.5127 45.5039 11.6557C45.9704 11.6557 46.4368 11.6557 46.9174 11.6557C46.8088 11.1898 46.6672 10.7426 46.4913 10.2902C46.4682 10.23 46.4452 10.1699 46.4215 10.1079C46.3654 9.96166 46.309 9.81554 46.2522 9.66951C46.2248 9.66951 46.1974 9.66951 46.1691 9.66951Z" fill="#FAF5ED"/>
<path d="M41.4297 1.65845C41.7315 1.65845 42.0333 1.65845 42.3443 1.65845C42.59 1.8618 42.7459 2.01976 42.9263 2.25431C43.0137 2.35207 43.102 2.44941 43.191 2.54629C43.2814 2.64882 43.3716 2.75149 43.4615 2.85431C43.5101 2.90972 43.5588 2.96513 43.6088 3.02222C44.2267 3.72987 44.8227 4.44903 45.4206 5.16741C45.448 4.00945 45.4755 2.8515 45.5037 1.65845C45.833 1.65845 46.1622 1.65845 46.5015 1.65845C46.5015 3.40631 46.5015 5.15417 46.5015 6.955C45.5869 6.955 45.5869 6.955 45.3309 6.77747C45.2614 6.69634 45.1952 6.61337 45.1319 6.52905C45.0949 6.48455 45.0578 6.44005 45.0197 6.3942C44.9413 6.29956 44.8643 6.20421 44.7885 6.10823C44.6739 5.96392 44.5552 5.82254 44.4343 5.68152C44.1933 5.40014 43.9571 5.11639 43.7213 4.83224C43.6402 4.73485 43.5591 4.63748 43.4779 4.54013C43.3005 4.32725 43.1233 4.11424 42.9464 3.9011C42.8015 3.72712 42.656 3.55352 42.5106 3.37983C42.4831 4.55963 42.4557 5.73944 42.4274 6.955C42.0982 6.955 41.7689 6.955 41.4297 6.955C41.4297 5.20714 41.4297 3.45927 41.4297 1.65845Z" fill="#FAF5ED"/>
<path d="M32.0552 8.88752C32.7808 9.47849 33.1205 10.2468 33.136 11.0641C33.1229 11.9021 32.8672 12.7165 32.1 13.3242C31.4753 13.7291 30.8463 13.9198 30.0389 13.9068C29.4039 13.836 28.9272 13.6574 28.4592 13.311C28.3913 13.261 28.3913 13.261 28.3221 13.2101C27.4985 12.5277 27.4219 11.624 27.4384 10.7317C27.476 9.93009 27.8968 9.3562 28.6203 8.82132C29.7093 8.0962 30.9583 8.29967 32.0552 8.88752ZM29.2283 9.50408C28.5988 10.2041 28.5947 11.0566 28.7508 11.878C28.8874 12.3312 29.1142 12.659 29.5504 12.9758C29.9331 13.0884 30.3017 13.0885 30.7041 13.0461C31.1254 12.8814 31.4222 12.6617 31.6083 12.3145C31.9475 11.521 31.9959 10.6151 31.5511 9.84339C31.3515 9.56132 31.1609 9.33453 30.7654 9.21597C30.1365 9.08867 29.7087 9.1563 29.2283 9.50408Z" fill="#FAF5ED"/>
<path d="M18.3984 1.65845C19.313 1.65845 19.313 1.65845 19.5193 1.77871C19.5661 1.8387 19.6129 1.8987 19.6612 1.96052C19.721 2.03289 19.7808 2.10526 19.8424 2.17983C19.8759 2.22224 19.9095 2.26466 19.944 2.30836C20.0799 2.47581 20.2235 2.638 20.3686 2.80052C21.0771 3.59656 21.7333 4.40654 22.3894 5.23362C22.4168 4.05381 22.4442 2.87401 22.4725 1.65845C22.7743 1.65845 23.0761 1.65845 23.3871 1.65845C23.3999 2.32947 23.4122 3.00051 23.4239 3.67155C23.4294 3.98311 23.435 4.29468 23.441 4.60624C23.4467 4.90673 23.4521 5.20722 23.4571 5.50772C23.4592 5.62255 23.4613 5.73738 23.4636 5.85221C23.4668 6.01263 23.4695 6.17306 23.472 6.3335C23.4731 6.38131 23.4742 6.42912 23.4753 6.47839C23.4797 6.80748 23.4797 6.80748 23.3871 6.955C22.6792 7.01973 22.6792 7.01973 22.4149 6.88129C22.2907 6.76792 22.1894 6.65162 22.088 6.52465C22.0276 6.45515 22.0276 6.45515 21.9661 6.38425C21.8271 6.22284 21.6927 6.05933 21.5579 5.89569C21.4471 5.76506 21.3362 5.63455 21.225 5.50414C20.6301 4.80258 20.0543 4.092 19.4793 3.37983C19.4519 4.55963 19.4244 5.73944 19.3962 6.955C19.0669 6.955 18.7377 6.955 18.3984 6.955C18.3984 5.20714 18.3984 3.45927 18.3984 1.65845Z" fill="#FAF5ED"/>
<path d="M39.7873 2.06819C40.5207 2.66547 40.8273 3.41598 40.8734 4.23646C40.8588 5.08161 40.5455 5.95031 39.7708 6.55112C39.1928 6.9218 38.481 7.13175 37.7341 7.07094C36.955 6.9647 36.3528 6.72618 35.8588 6.22681C35.5376 5.83288 35.2745 5.43687 35.1936 4.96888C35.1816 4.90086 35.1696 4.83284 35.1572 4.76275C35.0489 3.95479 35.1931 3.13726 35.7756 2.45301C36.268 1.97017 36.7661 1.70621 37.5113 1.53853C38.4144 1.49538 39.043 1.66927 39.7873 2.06819ZM36.9137 2.72198C36.3244 3.34212 36.3493 4.15876 36.4408 4.90267C36.5728 5.41578 36.7692 5.84305 37.3242 6.14819C37.8067 6.28338 38.2422 6.29678 38.7116 6.1275C39.3771 5.63454 39.5415 5.03756 39.5973 4.33422C39.6051 3.73015 39.4791 3.13376 38.9737 2.66586C38.6852 2.44444 38.4283 2.32556 38.0241 2.31C37.5703 2.33832 37.2294 2.45941 36.9137 2.72198Z" fill="#FAF5ED"/>
<path d="M53.7354 8.47778C54.1195 8.47778 54.5036 8.47778 54.8994 8.47778C54.8994 9.13323 54.8994 9.78868 54.8994 10.464C55.6676 10.464 56.4359 10.464 57.2274 10.464C57.2274 9.80854 57.2274 9.15309 57.2274 8.47778C57.6115 8.47778 57.9957 8.47778 58.3914 8.47778C58.3914 10.2256 58.3914 11.9735 58.3914 13.7743C58.0073 13.7743 57.6232 13.7743 57.2274 13.7743C57.2274 12.9441 57.2274 12.1139 57.2274 11.2585C56.4591 11.2585 55.6909 11.2585 54.8994 11.2585C54.8994 12.0887 54.8994 12.9189 54.8994 13.7743C54.5152 13.7743 54.1311 13.7743 53.7354 13.7743C53.7354 12.0265 53.7354 10.2786 53.7354 8.47778Z" fill="#FAF5ED"/>
<path d="M22.4727 8.74262C22.4221 9.01663 22.2991 9.22593 22.1401 9.47089C22.0708 9.45101 22.0014 9.43112 21.93 9.41063C21.2007 9.21439 20.6824 9.13807 19.9628 9.37158C19.48 9.58262 19.2255 9.9497 19.0521 10.3541C18.8557 11.0203 18.9064 11.7098 19.3132 12.3178C19.5819 12.6447 19.85 12.8324 20.311 12.9799C20.5386 12.9936 20.7401 12.999 20.9657 12.9923C21.1612 12.9882 21.3567 12.9841 21.5581 12.9799C21.5581 12.4336 21.5581 11.8874 21.5581 11.3247C21.9423 11.3247 22.3264 11.3247 22.7221 11.3247C22.7221 12.0675 22.7221 12.8104 22.7221 13.5757C21.4724 13.8819 20.4502 14.0762 19.2561 13.6047C18.4947 13.2466 17.9941 12.7246 17.7335 12.053C17.473 11.0783 17.5689 10.2681 18.2324 9.40469C18.683 8.87185 19.3365 8.54166 20.1187 8.38675C20.9395 8.27609 21.7667 8.36781 22.4727 8.74262Z" fill="#FAF5ED"/>
<path d="M38.1872 8.67647C38.2618 8.80035 38.2618 8.80035 38.2703 8.94129C38.2057 9.08302 38.2057 9.08302 38.1092 9.22267C38.0618 9.29283 38.0618 9.29283 38.0134 9.3644C37.9884 9.39956 37.9634 9.43472 37.9377 9.47095C37.8684 9.45106 37.799 9.43118 37.7276 9.41069C37.0245 9.22152 36.5357 9.14151 35.8383 9.35509C35.2623 9.647 35.0114 10.0167 34.812 10.5233C34.6633 11.1372 34.7435 11.7898 35.1349 12.3347C35.3863 12.6253 35.6668 12.8885 36.1085 12.9799C36.531 13.0008 36.93 12.9919 37.3557 12.9799C37.3557 12.4337 37.3557 11.8875 37.3557 11.3247C37.7398 11.3247 38.124 11.3247 38.5197 11.3247C38.5995 11.5789 38.6124 11.7751 38.611 12.0354C38.6107 12.1212 38.6105 12.207 38.6102 12.2953C38.6095 12.3856 38.6088 12.4759 38.6081 12.5661C38.6076 12.6574 38.6073 12.7487 38.6069 12.84C38.6059 13.0632 38.6046 13.2864 38.6029 13.5096C37.7895 13.846 36.7649 14.0135 35.8591 13.8406C34.8021 13.5739 34.209 13.1662 33.6974 12.3841C33.2941 11.6409 33.2962 10.6704 33.6652 9.91992C34.0919 9.23848 34.6475 8.78099 35.5317 8.49026C36.383 8.2643 37.412 8.28366 38.1872 8.67647Z" fill="#FAF5ED"/>
<path d="M26.191 1.65198C26.3284 1.65313 26.3284 1.65313 26.4687 1.65431C26.6065 1.6552 26.6065 1.6552 26.747 1.65612C26.8181 1.65688 26.8891 1.65765 26.9623 1.65844C27.2071 2.08202 27.3777 2.52005 27.5518 2.96474C27.6009 3.08889 27.6499 3.21305 27.6989 3.3372C27.7672 3.51035 27.8353 3.68357 27.9033 3.85679C28.0218 4.15853 28.1408 4.46016 28.2598 4.76178C28.323 4.92189 28.386 5.08202 28.4489 5.24219C28.6178 5.67121 28.7931 6.09756 28.9805 6.52169C29.0409 6.69017 29.0409 6.69017 29.0409 6.955C28.6019 6.955 28.1629 6.955 27.7106 6.955C27.546 6.49618 27.3814 6.03737 27.2118 5.56465C26.5807 5.5428 25.9496 5.52095 25.2995 5.49844C25.2172 5.73878 25.1348 5.97911 25.05 6.22672C24.9466 6.47221 24.8321 6.71258 24.7175 6.955C24.3882 6.955 24.059 6.955 23.7197 6.955C23.8326 6.51483 23.9856 6.09809 24.1699 5.67379C24.2114 5.57687 24.2114 5.57687 24.2539 5.47799C24.3422 5.27229 24.4311 5.06675 24.52 4.8612C24.5777 4.7269 24.6354 4.59259 24.6931 4.45827C24.8371 4.12317 24.9819 3.78828 25.1271 3.45349C25.22 3.23885 25.3126 3.02411 25.4053 2.80937C25.4659 2.66934 25.5265 2.52932 25.5872 2.38931C25.6156 2.32347 25.6439 2.25764 25.6731 2.18982C25.6992 2.12965 25.7254 2.06948 25.7523 2.00748C25.7753 1.95431 25.7983 1.90113 25.822 1.84634C25.9145 1.65694 25.9236 1.65961 26.191 1.65198ZM26.2972 2.78396C26.202 3.04424 26.1073 3.30461 26.013 3.56508C25.9809 3.65366 25.9486 3.74222 25.9162 3.83074C25.8697 3.95804 25.8236 4.08544 25.7775 4.21284C25.7497 4.28946 25.7218 4.36609 25.6931 4.44503C25.6219 4.63673 25.6219 4.63673 25.632 4.83637C26.0985 4.83637 26.5649 4.83637 27.0455 4.83637C26.832 4.15031 26.6118 3.46632 26.3803 2.78396C26.3529 2.78396 26.3255 2.78396 26.2972 2.78396Z" fill="#FAF5ED"/>
<path d="M48.9959 1.65845C49.3251 1.65845 49.6544 1.65845 49.9936 1.65845C50.2811 2.20693 50.5147 2.76576 50.7406 3.33172C50.7792 3.42812 50.8179 3.5245 50.8566 3.62089C50.937 3.82148 51.0172 4.02214 51.0972 4.22283C51.1998 4.47987 51.303 4.73672 51.4065 4.99353C51.4863 5.19189 51.5656 5.39037 51.6448 5.58888C51.6827 5.68368 51.7208 5.77844 51.759 5.87317C51.8122 6.00516 51.8648 6.1373 51.9172 6.26949C51.9622 6.38206 51.9622 6.38206 52.0081 6.49689C52.0722 6.69017 52.0722 6.69017 52.0722 6.955C51.6606 6.955 51.2491 6.955 50.825 6.955C50.3262 5.93352 50.3262 5.93352 50.3262 5.49845C49.6677 5.49845 49.0092 5.49845 48.3307 5.49845C48.2484 5.73878 48.1661 5.97911 48.0813 6.22673C48.0371 6.35105 47.9923 6.47525 47.9462 6.59914C47.9262 6.65325 47.9063 6.70736 47.8858 6.7631C47.8318 6.88879 47.8318 6.88879 47.7487 6.955C47.5808 6.9598 47.4127 6.96055 47.2446 6.95914C47.1528 6.95854 47.0609 6.95794 46.9663 6.95733C46.8952 6.95656 46.8242 6.95579 46.751 6.955C46.8788 6.43378 47.0851 5.94173 47.3038 5.44078C47.3419 5.35268 47.38 5.26457 47.4181 5.17645C47.4976 4.99259 47.5775 4.8088 47.6575 4.62507C47.7593 4.39141 47.8606 4.1576 47.9616 3.92373C48.0402 3.74198 48.119 3.56028 48.1979 3.3786C48.2353 3.29249 48.2726 3.20637 48.3099 3.12024C48.5233 2.62744 48.7473 2.14073 48.9959 1.65845ZM49.3284 2.78396C49.2327 3.05145 49.1376 3.31908 49.0426 3.58672C49.0156 3.66234 48.9885 3.73796 48.9606 3.81586C48.9346 3.88926 48.9086 3.96266 48.8819 4.03828C48.8579 4.10554 48.834 4.1728 48.8093 4.2421C48.7469 4.43773 48.705 4.63728 48.6633 4.83638C49.1297 4.83638 49.5962 4.83638 50.0767 4.83638C49.9652 4.36123 49.8215 3.90141 49.6506 3.43776C49.6276 3.37443 49.6045 3.31111 49.5808 3.24586C49.5247 3.09182 49.4683 2.93786 49.4116 2.78396C49.3841 2.78396 49.3567 2.78396 49.3284 2.78396Z" fill="#FAF5ED"/>
<path d="M49.2451 8.47778C52.1426 8.47778 52.1426 8.47778 52.7735 8.96192C53.1628 9.36716 53.2272 9.83596 53.1529 10.3316C52.9736 10.8749 52.6319 11.3222 52.02 11.6143C51.4342 11.8389 51.1346 11.7881 50.4091 11.7881C50.4091 12.4436 50.4091 13.099 50.4091 13.7743C50.025 13.7743 49.6409 13.7743 49.2451 13.7743C49.2451 12.0265 49.2451 10.2786 49.2451 8.47778ZM50.4091 9.20606C50.4091 9.81781 50.4091 10.4296 50.4091 11.0599C51.0895 11.0961 51.0895 11.0961 51.5732 10.8612C51.8762 10.573 52.0133 10.308 51.9889 9.93433C51.9037 9.67444 51.7649 9.43641 51.49 9.27227C51.1529 9.17116 51.1529 9.17116 50.4091 9.20606Z" fill="#FAF5ED"/>
<path d="M23.7197 8.47778C24.7349 8.47778 25.7501 8.47778 26.7961 8.47778C26.7961 8.71811 26.7961 8.95845 26.7961 9.20606C26.165 9.20606 25.5339 9.20606 24.8837 9.20606C24.8837 9.66487 24.8837 10.1237 24.8837 10.5964C25.4874 10.5964 26.091 10.5964 26.7129 10.5964C26.7129 10.8586 26.7129 11.1208 26.7129 11.3909C26.1093 11.3909 25.5057 11.3909 24.8837 11.3909C24.8837 11.9371 24.8837 12.4833 24.8837 13.0461C25.6246 13.0461 26.3654 13.0461 27.1286 13.0461C27.1286 13.2864 27.1286 13.5267 27.1286 13.7743C26.0037 13.7743 24.8788 13.7743 23.7197 13.7743C23.7197 12.0265 23.7197 10.2786 23.7197 8.47778Z" fill="#FAF5ED"/>
<path d="M66.0403 8.74266C65.9975 9.03598 65.9055 9.22312 65.7078 9.47093C65.6127 9.4411 65.6127 9.4411 65.5158 9.41067C64.977 9.25266 64.5233 9.12824 63.9617 9.27231C63.305 9.51563 62.9647 9.85718 62.7146 10.3978C62.5135 11.0674 62.6131 11.7837 63.0189 12.3933C63.2735 12.6747 63.6352 12.8712 64.0449 12.9799C64.2214 12.9879 64.3982 12.9915 64.5749 12.9923C64.6682 12.9933 64.7614 12.9942 64.8575 12.9952C65.1235 12.98 65.2994 12.9313 65.5415 12.8475C65.6238 12.8475 65.7061 12.8475 65.7909 12.8475C65.8732 13.066 65.9555 13.2845 66.0403 13.5096C65.2502 13.8847 64.4328 13.943 63.5282 13.7977C62.7322 13.5896 62.1467 13.1484 61.7168 12.5827C61.2419 11.8033 61.1383 10.9416 61.4642 10.1084C61.8169 9.39788 62.3703 8.86365 63.2466 8.54429C64.2493 8.23617 65.1196 8.31165 66.0403 8.74266Z" fill="#FAF5ED"/>
<path d="M28.376 1.65845C29.9125 1.65845 31.449 1.65845 33.032 1.65845C33.032 1.89878 33.032 2.13911 33.032 2.38672C32.4559 2.38672 31.8797 2.38672 31.286 2.38672C31.286 3.89425 31.286 5.40178 31.286 6.955C30.9019 6.955 30.5178 6.955 30.122 6.955C30.0543 6.68533 30.0287 6.47449 30.0294 6.2035C30.0294 6.12001 30.0294 6.03653 30.0294 5.95052C30.0299 5.86009 30.0303 5.76965 30.0307 5.67922C30.0309 5.58618 30.031 5.49314 30.0311 5.4001C30.0314 5.15596 30.0322 4.91183 30.0331 4.6677C30.034 4.41828 30.0344 4.16886 30.0348 3.91944C30.0357 3.4306 30.0371 2.94177 30.0389 2.45293C29.4901 2.43108 28.9414 2.40923 28.376 2.38672C28.376 2.14639 28.376 1.90606 28.376 1.65845Z" fill="#FAF5ED"/>
<path d="M52.4043 1.65845C52.7884 1.65845 53.1725 1.65845 53.5683 1.65845C53.5683 3.16598 53.5683 4.67351 53.5683 6.22672C54.3091 6.22672 55.0499 6.22672 55.8132 6.22672C55.8132 6.46705 55.8132 6.70738 55.8132 6.955C54.6883 6.955 53.5633 6.955 52.4043 6.955C52.4043 5.20714 52.4043 3.45927 52.4043 1.65845Z" fill="#FAF5ED"/>
<path d="M33.3649 1.65845C33.7491 1.65845 34.1332 1.65845 34.5289 1.65845C34.5289 3.40631 34.5289 5.15417 34.5289 6.955C34.1448 6.955 33.7607 6.955 33.3649 6.955C33.3521 6.41106 33.3397 5.86711 33.3281 5.32315C33.3227 5.07046 33.3171 4.81778 33.311 4.5651C33.3052 4.32041 33.2999 4.07572 33.2949 3.83103C33.2929 3.73853 33.2907 3.64603 33.2884 3.55353C33.2724 2.91625 33.3029 2.29333 33.3649 1.65845Z" fill="#FAF5ED"/>
<path d="M59.4717 8.47778C59.8558 8.47778 60.2399 8.47778 60.6357 8.47778C60.6357 10.2256 60.6357 11.9735 60.6357 13.7743C60.2516 13.7743 59.8674 13.7743 59.4717 13.7743C59.4717 12.0265 59.4717 10.2786 59.4717 8.47778Z" fill="#FAF5ED"/>
<path d="M157.997 18.144C158.107 18.144 158.217 18.144 158.33 18.144C158.33 20.2633 158.33 22.3826 158.33 24.5661C158.165 24.5443 158.001 24.5224 157.831 24.4999C157.914 24.3013 157.914 24.3013 157.997 24.1689C158.005 23.979 158.008 23.7907 158.007 23.6008C158.007 23.542 158.007 23.4832 158.007 23.4226C158.007 23.2278 158.006 23.0329 158.005 22.838C158.005 22.7031 158.005 22.5682 158.005 22.4333C158.005 22.0779 158.004 21.7224 158.003 21.3669C158.002 21.0043 158.002 20.6418 158.001 20.2792C158.001 19.5675 157.999 18.8558 157.997 18.144Z" fill="#FAF5ED"/>
</g>
<defs>
<clipPath id="clip0_695_25515">
<rect width="183" height="48" fill="white" transform="translate(0.855469 0.135742)"/>
</clipPath>
</defs>
</svg>
