<svg width="111" height="49" viewBox="0 0 111 49" fill="none" xmlns="http://www.w3.org/2000/svg">
<path d="M0.0900297 24.2325L0.0990977 48.0905H6.80943H13.5198L13.5077 40.3736L13.4956 32.6597H20.1031H26.7137V26.1428V19.629L22.7177 19.6502C20.5172 19.6622 17.5671 19.6592 16.1585 19.6471L13.5953 19.626V16.8965C13.5953 15.3973 13.6044 14.0038 13.6165 13.8043L13.6346 13.4355H21.6568H29.6759V13.3449C29.6759 13.1877 28.8386 0.79171 28.8114 0.534782L28.7963 0.377605H14.4386H0.0839844L0.0900297 24.2325Z" fill="#FAF5ED"/>
<path d="M68.2758 0.456139C68.2758 0.474277 69.9081 3.29745 73.1575 8.90148C79.3207 19.5292 81.5514 23.4103 81.5363 23.4707C81.5303 23.4949 80.8502 24.6859 80.028 26.1156C79.2058 27.5453 77.0416 31.3206 75.2219 34.5035C73.4023 37.6864 71.1383 41.637 70.1892 43.2843C67.9252 47.2199 68.0008 47.0838 67.7348 47.5765L67.499 48.0088L73.9403 48.0269C77.4829 48.039 80.8018 48.0451 81.3187 48.039L82.2557 48.0299L82.8844 46.8813C83.232 46.2496 84.29 44.303 85.2391 42.5589C88.2043 37.0969 88.8058 36.0088 88.8481 36.0511C88.8663 36.0723 89.4376 37.0969 90.1146 38.3272C90.7947 39.5574 92.2003 42.1085 93.2401 43.9947C94.2799 45.8808 95.1716 47.504 95.2199 47.6007C95.2683 47.6974 95.3469 47.8304 95.3952 47.8969L95.4799 48.0148H103.052C107.217 48.0148 110.623 48.0088 110.623 48.0027C110.623 47.9967 110.146 47.1624 109.563 46.1529C108.976 45.1403 108.169 43.7408 107.767 43.0425C107.365 42.3443 105.44 39.0254 103.49 35.6672C101.54 32.309 99.1252 28.1438 98.1217 26.4088L96.299 23.2592L98.1217 20.0612C99.1252 18.305 101.078 14.8924 102.462 12.4833C107.311 4.04103 109.327 0.498459 109.309 0.468231C109.297 0.447071 106.954 0.438004 101.964 0.438004H94.6335L94.5701 0.564957C94.5338 0.637501 94.2497 1.1574 93.9383 1.72264C93.627 2.28788 92.7625 3.86571 92.0189 5.22894C90.3504 8.27881 89.0235 10.6667 88.9902 10.6758C88.9781 10.6788 88.4159 9.65413 87.7449 8.39367C86.3393 5.76697 85.1423 3.54229 84.1509 1.72264L83.4617 0.453117L75.8688 0.44405C71.6915 0.441025 68.2758 0.44405 68.2758 0.456139Z" fill="#FAF5ED"/>
<path d="M50.9249 1.12123C46.8685 1.28144 43.1567 2.4633 39.6504 4.70914C37.6312 6.00285 35.8237 7.61393 34.3728 9.41544C32.1269 12.2023 30.5975 15.2583 29.7813 18.5892C29.2131 20.9046 28.9864 23.1474 29.1012 25.2996C29.2645 28.3494 29.8629 30.9882 30.9692 33.5666C32.7496 37.7076 35.467 41.0356 39.1063 43.5414C42.5612 45.9172 46.2005 47.1656 50.4866 47.4437C51.1758 47.489 52.9501 47.489 53.4942 47.4437C56.1451 47.229 58.4393 46.6426 60.8997 45.5515C62.405 44.8835 63.9073 43.9978 65.3733 42.9127C66.9632 41.7338 68.5229 40.1802 69.729 38.5691C71.8932 35.6794 73.2897 32.6719 73.9849 29.4074C74.541 26.8049 74.6801 23.7943 74.3657 21.3096C74.0211 18.6134 73.0418 15.5636 71.7511 13.1636C70.3939 10.6396 68.2569 8.04617 66.008 6.19328C63.9768 4.52174 61.6766 3.23408 59.0982 2.32728C57.4781 1.756 55.7007 1.37212 53.7965 1.17564C53.3491 1.1303 51.5597 1.09705 50.9249 1.12123ZM52.5874 10.7001C53.8116 10.9358 55.0448 11.9515 55.5587 13.1515C55.7582 13.62 55.8458 14.0311 55.8821 14.7112C55.8972 14.9832 55.9063 19.4688 55.9033 24.6799C55.8942 33.5938 55.8912 34.1711 55.8428 34.428C55.474 36.3081 54.0232 37.5595 52.0554 37.6955C51.2393 37.75 50.3657 37.493 49.6493 36.9822C49.3531 36.7706 48.9239 36.3414 48.7123 36.0452C48.4221 35.6371 48.1894 35.087 48.0836 34.558C48.0201 34.2467 48.0201 34.2376 48.0232 24.4109C48.0232 18.1147 48.0352 14.4724 48.0534 14.285C48.2317 12.5892 49.4045 11.1716 50.9884 10.7454C51.4599 10.6185 52.0645 10.6003 52.5874 10.7001Z" fill="#FAF5ED"/>
</svg>
