<svg width="258" height="49" viewBox="0 0 258 49" fill="none" xmlns="http://www.w3.org/2000/svg">
<g clip-path="url(#clip0_695_24976)">
<path d="M58.9847 0.366768C56.3921 0.520779 56.1611 0.572117 56.1611 1.03415C56.1611 1.47051 56.3921 1.57318 57.4702 1.70153C58.9847 1.88121 59.7547 2.26624 60.1397 2.95928C60.2938 3.2673 60.3964 9.53041 60.3964 21.0299C60.3964 35.8406 60.4478 38.6384 60.7558 38.6384C60.9355 38.6384 61.5515 38.0994 62.0905 37.4063C62.6039 36.739 63.143 36.0973 63.22 35.9946C63.3226 35.8662 64.0413 36.1229 64.7857 36.5336C68.559 38.6384 72.9996 38.8438 76.3879 37.0213C83.2157 33.4021 84.9355 21.6202 79.4938 15.7935C77.2606 13.4063 73.3077 12.4053 70.0221 13.355C68.405 13.7914 66.4542 14.9208 65.6328 15.8192C65.1451 16.3582 65.1451 16.2299 65.0167 8.32399L64.8884 0.264095L63.3483 0.238426C62.5012 0.238426 60.5504 0.289764 58.9847 0.366768ZM73.4103 15.9219C76.6189 17.539 78.236 22.1336 77.62 27.832C77.1323 32.4523 75.6948 35.3272 73.3847 36.4309C72.2039 36.9956 69.7911 36.9443 68.482 36.3539C67.3526 35.8406 65.6585 34.1208 65.2734 33.094C65.1194 32.7347 65.0167 29.1411 65.0167 25.0598V17.6673L66.1718 16.8459C68.559 15.1261 71.1515 14.7924 73.4103 15.9219Z" fill="#FAF5ED"/>
<path d="M83.7546 0.366768C81.0338 0.520779 80.8027 0.546448 80.8027 1.03415C80.8027 1.47051 81.0338 1.57318 82.1118 1.70153C83.6263 1.88121 84.3963 2.26624 84.7813 2.95928C84.9354 3.2673 85.038 9.53041 85.038 21.0299C85.038 35.8406 85.0894 38.6384 85.3974 38.6384C85.5771 38.6384 86.1931 38.0994 86.7321 37.432C87.2455 36.739 87.7846 36.0973 87.8616 35.9946C87.9642 35.8662 88.6829 36.1229 89.4273 36.5336C94.4583 39.3571 100.285 38.6641 103.75 34.8908C107.524 30.7582 108.499 23.3914 105.958 18.3604C102.955 12.4566 95.2797 11.1732 90.3771 15.7422L89.6583 16.4095V8.27265V0.135754L88.1952 0.187092C87.3739 0.212757 85.3717 0.289764 83.7546 0.366768ZM98.0776 15.9475C101.286 17.539 102.878 22.1079 102.262 27.8063C101.877 31.3743 101.183 33.4277 99.8744 34.9165C99.284 35.5839 98.4113 36.3026 97.9493 36.4823C96.7685 36.9956 94.3557 36.9186 93.1236 36.3539C91.9942 35.8406 90.3001 34.1208 89.915 33.094C89.761 32.7347 89.6583 29.1411 89.6583 25.0598V17.6673L90.8134 16.8459C93.2263 15.1261 95.7931 14.7924 98.0776 15.9475Z" fill="#FAF5ED"/>
<path d="M0.845703 2.26617C0.845703 2.85655 0.974045 2.90788 2.41148 3.06189C4.33661 3.29291 5.90239 3.88329 6.23608 4.525C6.59544 5.19238 6.56977 34.4031 6.21041 35.0961C5.82538 35.7892 4.56763 36.2769 2.53982 36.4822C0.974045 36.6362 0.845703 36.7132 0.845703 37.2523V37.8683H9.05961H17.2735V37.2523C17.2735 36.7132 17.1452 36.6362 15.6821 36.5079C14.7837 36.4309 13.6799 36.2255 13.1922 36.0459C11.7291 35.5325 11.6265 34.9164 11.6265 27.3186V20.6191L15.9388 20.7218C19.712 20.7988 20.3537 20.8758 21.2521 21.3635C23.3569 22.4672 23.819 23.6223 24.358 29.0127C24.8457 33.7614 25.2821 35.4298 26.3345 36.5336C27.4382 37.6886 29.1067 38.125 32.2639 38.125C35.4981 38.125 36.0115 37.9967 36.0115 37.2009C36.0115 36.6876 35.8831 36.5849 35.2158 36.5849C33.8297 36.5849 32.2382 36.0459 31.5708 35.3528C30.7494 34.4544 30.4671 33.556 29.7227 29.0897C29.389 26.9592 28.85 24.8031 28.542 24.1357C27.4382 21.7742 25.2307 20.3624 22.0222 20.0031C21.2265 19.9004 20.6361 19.7721 20.6874 19.7207C20.7388 19.6694 21.4831 19.464 22.3045 19.233C24.3837 18.7197 26.7195 17.5902 27.8746 16.5635C31.2885 13.586 31.3398 7.70789 28.0029 4.85869C26.8222 3.88329 24.4093 2.80521 22.2789 2.29184C20.8414 1.95815 18.4799 1.85548 10.6767 1.7528L0.845703 1.62446V2.26617ZM20.174 3.80628C22.2019 4.44799 23.3056 5.32072 24.127 6.98917C24.7687 8.3496 24.8457 8.70895 24.82 11.0448C24.7687 14.9207 23.973 16.6918 21.6885 17.9239C20.1484 18.771 17.3505 19.1817 14.065 19.079L11.7548 19.002L11.6778 11.0705L11.6265 3.1389L15.2714 3.29291C17.4532 3.36992 19.4553 3.57526 20.174 3.80628Z" fill="#FAF5ED"/>
<path d="M113.787 2.26617C113.787 2.85655 113.915 2.90788 115.404 3.06189C116.277 3.16457 117.483 3.47259 118.074 3.72927C118.946 4.1143 119.203 4.37099 119.409 5.19238C119.819 6.62981 119.768 33.325 119.357 34.5314C118.972 35.6865 117.843 36.2512 115.533 36.4822C113.915 36.6362 113.787 36.6876 113.787 37.2523V37.8683H122.001H130.215V37.2523C130.215 36.7132 130.087 36.6362 128.623 36.5079C127.725 36.4309 126.621 36.2255 126.134 36.0459C124.671 35.5325 124.568 34.9164 124.568 27.3443V20.6705H128.315C132.782 20.6705 134.04 20.9528 135.349 22.1849C136.555 23.34 136.812 24.187 137.299 29.0127C137.761 33.6587 138.198 35.2758 139.225 36.4566C140.303 37.663 141.945 38.125 145.205 38.125C148.44 38.125 148.953 37.9967 148.953 37.2009C148.953 36.6876 148.825 36.5849 148.157 36.5849C146.771 36.5849 145.18 36.0459 144.512 35.3528C143.691 34.4544 143.409 33.556 142.69 29.1154C142.33 27.0876 141.843 24.8801 141.56 24.2384C140.559 21.9025 138.172 20.3624 134.964 20.0031C134.168 19.9004 133.577 19.7721 133.629 19.7207C133.68 19.6694 134.425 19.464 135.246 19.233C137.325 18.7197 139.661 17.5902 140.816 16.5635C144.23 13.5603 144.307 7.70789 140.944 4.85869C139.764 3.88329 137.351 2.80521 135.22 2.29184C133.783 1.95815 131.421 1.85548 123.618 1.7528L113.787 1.62446V2.26617ZM133.115 3.80628C135.143 4.44799 136.247 5.32072 137.068 6.98917C137.71 8.3496 137.787 8.70895 137.761 11.0448C137.71 14.9207 136.914 16.6918 134.63 17.9239C133.09 18.771 130.292 19.1817 127.006 19.079L124.696 19.002L124.619 11.4298C124.594 7.27152 124.619 3.70361 124.696 3.49826C124.876 3.01056 131.344 3.26724 133.115 3.80628Z" fill="#FAF5ED"/>
<path d="M246.749 5.65447L244.824 6.5272L244.696 9.9411L244.567 13.355L242.257 13.894C240.306 14.3561 239.947 14.5101 239.87 14.9721C239.793 15.4855 239.896 15.5112 242.18 15.5882L244.567 15.6652L244.696 25.1625C244.85 35.6352 244.875 35.8149 246.544 37.2267C248.443 38.8181 252.14 38.7411 254.501 37.0727C254.912 36.7646 255.785 35.8149 256.426 34.9422C257.504 33.4791 257.53 33.3764 257.094 33.0427C256.683 32.7604 256.529 32.8374 255.733 33.7614C254.424 35.2759 253.5 35.8149 252.114 35.8149C250.625 35.8149 249.778 35.1989 249.367 33.8128C249.162 33.1197 249.059 30.0652 249.059 24.1614V15.5368H252.91H256.76V14.5101V13.4834H252.91H249.059V9.11971C249.059 6.70688 248.982 4.75608 248.88 4.78175C248.751 4.78175 247.802 5.16677 246.749 5.65447Z" fill="#FAF5ED"/>
<path d="M43.0706 13.3294C39.785 14.1251 36.7305 16.6406 35.2674 19.7208C32.2642 26.0866 34.5743 34.1978 40.17 36.9443C47.4342 40.4866 55.3914 36.816 57.4449 28.9871C58.215 26.0353 57.7786 21.8256 56.4438 19.1818C54.0823 14.5358 48.3839 12.0203 43.0706 13.3294ZM47.7422 14.6385C49.847 15.2545 51.4385 17.154 52.1829 19.9005C52.7219 21.9026 52.9273 25.5476 52.6706 28.2427C52.1059 34.1978 50.1037 36.816 46.1508 36.8417C42.9422 36.8417 40.9144 35.1476 39.785 31.6053C39.2973 30.0139 39.2203 29.2181 39.2203 25.4192C39.2203 21.5689 39.2973 20.8246 39.8107 19.1561C41.0684 15.2032 43.9946 13.5347 47.7422 14.6385Z" fill="#FAF5ED"/>
<path d="M156.037 13.2266C153.187 13.971 149.902 16.6918 148.593 19.4897C146.668 23.5453 146.693 28.5507 148.67 32.4266C151.673 38.3303 159.81 40.1528 165.277 36.1229C166.278 35.3785 168.717 32.4266 168.717 31.9389C168.717 31.8106 168.537 31.6309 168.332 31.5282C168.075 31.4512 167.382 31.9132 166.33 32.9143C163.994 35.1731 162.89 35.6865 160.349 35.6865C158.552 35.6865 158.09 35.5838 156.781 34.9164C154.009 33.5047 152.263 30.2191 152.186 26.2918L152.161 24.495L160.246 24.4437L168.332 24.3924L168.409 23.2373C168.614 20.5678 167.177 17.0255 165.175 15.2801C164.559 14.7154 163.404 14.0223 162.582 13.7143C160.939 13.0983 157.602 12.8416 156.037 13.2266ZM159.861 14.5357C162.171 15.1774 163.583 17.7186 163.583 21.2352V22.9806L158.835 23.0319C156.216 23.0576 153.65 23.0833 153.136 23.0833C152.186 23.109 152.161 23.0833 152.238 22.2106C152.443 19.5667 153.47 16.9742 154.779 15.7421C156.216 14.3817 157.859 13.9967 159.861 14.5357Z" fill="#FAF5ED"/>
<path d="M181.885 13.4833C180.935 13.7914 179.575 14.5357 178.599 15.2801L176.931 16.5379V15.0234C176.931 14.2021 176.854 13.4577 176.751 13.4063C176.623 13.3293 174.749 13.355 172.567 13.4577C168.82 13.6117 168.589 13.6373 168.589 14.125C168.589 14.5357 168.82 14.6641 169.846 14.8181C170.591 14.9208 171.335 15.2288 171.694 15.5625L172.311 16.1272V31.0919C172.311 44.1058 172.259 46.0566 171.925 46.339C171.72 46.5186 170.873 46.724 170.052 46.8267C168.794 46.955 168.589 47.0577 168.512 47.5454L168.435 48.1357H175.262H182.09L182.013 47.571C181.936 47.0577 181.756 46.9807 180.781 46.9037C178.805 46.801 177.958 46.5956 177.419 46.0566C176.982 45.6202 176.931 45.1839 176.931 41.0769C176.931 38.6127 176.982 36.5849 177.034 36.5849C177.085 36.5849 177.804 36.893 178.625 37.278C180.037 37.9454 180.396 37.9967 183.348 37.9967C186.377 37.9967 186.634 37.9454 188.045 37.2523C192.152 35.1732 194.411 30.8095 194.411 25.0341C194.411 20.8502 193.487 18.0267 191.408 15.7935C189.739 14.0224 187.994 13.201 185.478 13.0726C183.938 12.9956 183.117 13.0983 181.885 13.4833ZM185.889 16.1272C187.147 16.9486 188.328 18.694 188.892 20.5422C189.123 21.2352 189.354 23.109 189.431 24.6748C189.662 29.1154 188.738 32.8373 186.916 34.9165C184.195 37.9967 179.215 37.3293 177.47 33.6331C176.956 32.555 176.931 32.0673 176.931 25.3165V18.155L177.881 17.3336C180.345 15.1518 183.656 14.6641 185.889 16.1272Z" fill="#FAF5ED"/>
<path d="M205.5 13.355C201.085 14.5614 197.928 17.8983 196.824 22.5186C195.233 29.2694 198.723 36.0202 204.653 37.6887C207.014 38.3561 208.734 38.4588 210.762 38.0224C216.614 36.7903 220.311 31.9903 220.311 25.5475C220.311 21.5946 219.002 18.309 216.537 16.0502C213.611 13.3807 209.325 12.3283 205.5 13.355ZM211.481 15.1518C214.381 16.8459 215.87 22.0566 215.228 28.1657C214.869 31.5026 214.356 33.1967 213.303 34.5828C210.865 37.817 205.731 37.586 203.498 34.1721C202.009 31.9133 201.701 30.3732 201.701 25.4192C201.701 21.5176 201.752 20.8502 202.317 19.1817C203.036 16.9743 204.499 15.2031 206.065 14.6128C207.553 14.0737 210.069 14.3304 211.481 15.1518Z" fill="#FAF5ED"/>
<path d="M234.352 13.355C232.76 13.7657 231.272 14.8181 229.885 16.5122L228.782 17.8726V15.6908C228.782 14.4844 228.705 13.4576 228.602 13.4063C228.474 13.3293 226.6 13.355 224.418 13.4576C220.67 13.6116 220.439 13.6373 220.439 14.125C220.439 14.4844 220.645 14.6641 221.081 14.7154C221.441 14.7411 222.159 14.8951 222.698 15.0491C224.367 15.5111 224.418 15.7678 224.418 26.1635C224.418 36.7646 224.521 36.2769 221.98 36.5592C220.67 36.6876 220.439 36.7903 220.439 37.2266C220.439 37.7143 220.619 37.74 226.857 37.74C233.094 37.74 233.274 37.7143 233.274 37.2266C233.274 36.8159 233.068 36.6876 232.375 36.6362C230.578 36.5079 229.783 36.3026 229.269 35.7892C228.807 35.3272 228.782 34.8908 228.782 27.5239C228.782 19.002 228.705 19.4897 230.424 17.6416C231.297 16.6919 232.863 15.7935 233.582 15.7935C233.967 15.7935 234.044 16.0245 234.044 16.9485C234.069 18.3603 234.891 19.3357 236.303 19.5667C238.253 19.8748 239.562 18.6683 239.562 16.5635C239.562 13.971 237.304 12.5849 234.352 13.355Z" fill="#FAF5ED"/>
</g>
<defs>
<clipPath id="clip0_695_24976">
<rect width="256.685" height="48" fill="white" transform="translate(0.845703 0.135742)"/>
</clipPath>
</defs>
</svg>
