<svg width="157" height="49" viewBox="0 0 157 49" fill="none" xmlns="http://www.w3.org/2000/svg">
<path d="M0.661735 0.192551C2.11105 0.183852 3.56034 0.177235 5.00968 0.173195C5.68285 0.171255 6.35598 0.168628 7.02913 0.164368C7.68013 0.160276 8.3311 0.158068 8.98211 0.157107C9.22908 0.156422 9.47605 0.155086 9.72301 0.153052C11.5094 0.138939 13.2428 0.197936 14.8268 0.939719C14.9616 1.00136 15.0965 1.063 15.2354 1.12651C15.6051 1.3133 15.6051 1.3133 15.9401 1.5249C16.2238 1.72101 16.2238 1.72101 16.6266 1.66354C17.0393 1.56827 17.0393 1.56827 17.473 1.3133C17.4333 2.71034 16.1173 3.8206 15.0311 4.82733C14.5884 5.25333 14.2384 5.69074 13.8928 6.16989C13.9817 6.17166 14.0706 6.17342 14.1622 6.17524C15.9298 6.25842 17.617 6.77302 18.874 7.78876C20.0753 8.9756 20.2878 10.1555 20.1193 11.6491C19.4962 14.5514 16.9981 17.2441 14.0886 18.9841C13.5815 19.2453 13.5815 19.2453 13.2021 19.1908C13.0047 19.0945 13.0047 19.0945 12.8032 18.9963C11.9637 18.6217 11.1345 18.3794 10.2154 18.1635C10.102 18.1368 9.98853 18.1101 9.87168 18.0826C7.96793 17.6477 5.43402 17.3722 3.60408 18.108C3.50636 18.1546 3.40864 18.2011 3.30796 18.2491C3.1378 18.3262 2.96765 18.4032 2.79233 18.4826C1.95568 19.0097 1.95568 19.0097 1.50935 19.7653C1.462 20.2161 1.47308 20.4964 1.84135 20.853C2.11285 21.0397 2.38536 21.2062 2.68532 21.3623C2.60827 21.6089 2.60827 21.6089 2.52966 21.8604C1.65451 21.3603 1.07218 20.7941 0.661735 19.9925C0.533671 19.3382 0.543138 18.6933 0.555707 18.0336C0.555971 17.8383 0.555822 17.643 0.555294 17.4478C0.555027 16.9212 0.560494 16.3946 0.567037 15.868C0.572901 15.3164 0.573427 14.7648 0.574533 14.2132C0.577428 13.1702 0.585083 12.1273 0.594472 11.0843C0.604935 9.8962 0.610053 8.70814 0.614735 7.52006C0.624481 5.07753 0.640894 2.63504 0.661735 0.192551Z" fill="#FAF5ED"/>
<path d="M41.3281 27.0593C41.8664 27.2029 42.3159 27.3778 42.8166 27.5886C43.8316 28.015 44.6779 28.0867 45.8033 28.0867C45.5065 29.0602 44.8063 29.6204 43.7603 30.1336C42.8465 30.5066 41.9883 30.5969 40.9778 30.4527C40.6696 30.3294 40.3614 30.2061 40.0439 30.0791C40.0439 34.394 40.0439 38.7089 40.0439 43.1546C41.8272 42.8279 41.8272 42.8279 43.4684 42.2984C43.7061 42.2102 43.9441 42.1224 44.1822 42.0348C44.2974 41.9923 44.4125 41.9498 44.5311 41.906C45.3038 41.629 46.0984 41.3957 46.8929 41.1621C46.9443 41.2443 46.9956 41.3265 47.0486 41.4112C45.6343 43.2118 43.3124 45.1675 40.643 45.7136C39.6704 45.8875 38.7328 45.938 37.7381 45.9331C37.5132 45.9321 37.5132 45.9321 37.2837 45.931C34.3627 45.8913 32.0219 45.0135 29.9941 43.3414C28.6926 42.1418 27.9065 40.7029 27.4354 39.1697C27.4005 39.0649 27.3656 38.96 27.3296 38.852C26.5707 36.1781 27.2712 33.524 28.992 31.1999C29.2754 30.8424 29.5741 30.5194 29.926 30.2037C30.005 30.1305 30.0841 30.0573 30.1655 29.9818C31.1872 29.0987 32.5231 28.4123 33.9731 28.0867C34.3191 28.1412 34.3191 28.1412 34.5958 28.2112C34.583 28.6203 34.5717 28.9555 34.2355 29.2809C33.9616 29.4741 33.6806 29.6537 33.3894 29.8301C31.9136 30.7462 31.1359 31.6795 30.8599 33.1923C30.5703 35.7413 31.1125 38.1466 32.3557 40.4904C32.5722 40.9131 32.5722 40.9131 32.5722 41.1621C33.4575 40.7793 33.8373 40.3772 34.1853 39.6188C34.3987 38.9201 34.3379 38.1954 34.3234 37.4808C34.3215 37.311 34.3198 37.1413 34.3182 36.9715C34.3067 36.0262 34.2616 35.0888 34.1647 34.1467C34.1162 33.5301 34.1048 32.915 34.0996 32.2973C34.0976 32.1839 34.0956 32.0704 34.0935 31.9536C34.0933 31.8469 34.0931 31.7403 34.0929 31.6304C34.0923 31.5353 34.0916 31.4403 34.091 31.3423C34.152 30.9116 34.3066 30.6638 34.7291 30.3899C34.845 30.3318 34.9609 30.2737 35.0804 30.2139C35.2095 30.1481 35.3387 30.0824 35.4718 30.0147C35.6097 29.9461 35.7476 29.8774 35.8897 29.8067C36.1738 29.6623 36.4577 29.5176 36.7416 29.3728C36.8804 29.3023 37.0193 29.2317 37.1624 29.159C37.6761 28.8953 38.1808 28.6224 38.6818 28.3435C38.8387 28.2567 38.9957 28.1698 39.1573 28.0804C39.5384 27.8599 39.8964 27.6265 40.2579 27.3862C40.6716 27.1404 40.7936 27.0922 41.3281 27.0593Z" fill="#FAF5ED"/>
<path d="M67.8549 0.815186C68.2474 0.949605 68.5549 1.11206 68.8995 1.3133C69.919 1.82982 70.9312 1.80889 72.11 1.81141C72.1908 2.53545 72.1061 2.98127 71.5847 3.58447C70.6726 4.37549 69.3575 4.43738 68.0921 4.49654C67.7228 4.51452 67.3536 4.5325 66.9732 4.55102C66.9219 5.4551 66.8705 6.35917 66.8176 7.29064C67.8963 7.35228 67.8963 7.35228 68.9968 7.41517C69.1525 7.91328 69.1525 7.91328 68.9512 8.1993C68.8539 8.30011 68.7566 8.40092 68.6563 8.50479C67.1284 10.1791 66.9124 11.9229 66.8857 13.9607C66.8648 15.2047 66.7539 16.3979 66.5063 17.6265C66.4509 17.9583 66.4005 18.2903 66.3506 18.6227C65.9591 18.3095 65.9993 18.2039 65.9979 17.7709C65.9973 17.5876 65.9973 17.5876 65.9967 17.4005C65.9979 17.2722 65.9991 17.1438 66.0004 17.0116C65.9986 16.8256 65.9986 16.8256 65.9967 16.6358C65.9991 15.8871 66.0945 15.1938 66.2779 14.4603C66.3853 13.9867 66.4165 13.5229 66.4187 13.0423C66.4193 12.9477 66.4199 12.8531 66.4205 12.7556C66.3967 11.8057 66.0575 11.017 65.5723 10.1548C64.8067 10.7488 64.6489 11.3316 64.6286 12.1816C64.6318 12.3263 64.635 12.471 64.6383 12.62C64.638 12.8659 64.6377 13.1118 64.637 13.3577C64.6379 13.5253 64.641 13.6929 64.6463 13.8605C64.674 14.8101 64.6388 15.4803 63.8266 16.2085C63.5828 16.3944 63.3349 16.577 63.0817 16.7548C62.9283 16.8785 62.7756 17.0028 62.6239 17.1279C61.7592 17.7722 60.8615 18.36 59.9004 18.9107C59.743 19.0038 59.743 19.0038 59.5824 19.0989C59.3002 19.2552 59.0407 19.3899 58.7233 19.4944C58.314 19.4258 58.314 19.4258 57.945 19.2453C57.8053 19.1952 57.6656 19.1452 57.5218 19.0936C57.2331 18.9872 56.9445 18.8808 56.6559 18.7745C54.9268 18.1544 52.7322 17.9548 50.8794 18.3663C50.1884 18.6303 49.5771 18.9358 49.228 19.4944C49.1363 19.8845 49.1217 20.2263 49.228 20.6151C49.5912 20.9681 49.5912 20.9681 50.0063 21.2378C50.1328 21.5257 50.1328 21.5257 50.1619 21.7359C50.0592 21.777 49.9565 21.8181 49.8506 21.8604C49.0061 21.4357 48.6135 20.8536 48.294 20.117C48.0267 19.0239 48.4811 18.161 49.228 17.2529C50.1522 16.2806 51.5715 15.405 53.1191 15.2241C53.7457 15.1898 54.3631 15.2126 54.9874 15.2604C55.0322 15.1699 55.0769 15.0794 55.123 14.9861C55.2294 14.7753 55.3404 14.5658 55.4599 14.3595C56.1595 12.9891 56.0525 11.4884 56.077 10.0303C55.0529 9.98323 55.0529 9.98323 54.1605 10.3416C53.6275 10.6529 53.6275 10.6529 53.1195 10.6529C52.7095 10.0835 52.7063 9.5521 52.8082 8.9095C53.2075 8.25837 53.8597 7.74172 54.6761 7.41517C55.1438 7.39828 55.6086 7.40981 56.077 7.41517C56.077 6.75766 56.077 6.10015 56.077 5.42272C56.3371 5.35081 56.5971 5.27889 56.8651 5.2048C57.4065 5.04931 57.8962 4.88988 58.3827 4.64442C58.927 4.40538 59.2062 4.40754 59.8129 4.4265C59.8248 5.21264 59.8329 5.99877 59.8385 6.78496C59.8409 7.05173 59.844 7.31851 59.8481 7.58527C59.8903 10.4197 59.8903 10.4197 59.3459 11.7736C59.3024 11.8878 59.2589 12.0019 59.214 12.1195C58.7408 13.2928 57.7115 14.1303 56.3786 14.7156C56.1229 14.815 55.8668 14.9137 55.6101 15.0114C55.7073 15.0421 55.8045 15.0728 55.9047 15.1044C56.3518 15.2462 56.7981 15.3895 57.2445 15.5328C57.3974 15.5811 57.5503 15.6293 57.7078 15.679C58.6322 15.9773 59.4516 16.3107 60.2799 16.7548C60.474 14.8866 60.4595 13.016 60.4558 11.143C60.4549 10.6899 60.4555 10.2368 60.4563 9.78378C60.4594 7.9537 60.455 6.1278 60.2799 4.30197C61.8612 3.49345 63.4647 2.73134 65.1078 2.00516C65.7543 1.71742 66.37 1.43584 66.9532 1.07057C67.4402 0.815186 67.4402 0.815186 67.8549 0.815186Z" fill="#FAF5ED"/>
<path d="M49.6948 27.0905C50.6063 27.5134 51.1074 28.0793 51.4426 28.8642C51.7246 29.962 51.6247 31.1042 51.6017 32.2195C51.5985 32.4832 51.5957 32.7469 51.5932 33.0107C51.5863 33.6524 51.5756 34.294 51.5628 34.9357C51.7629 34.8611 51.9623 34.7852 52.1614 34.7087C52.2725 34.6666 52.3836 34.6244 52.4981 34.581C52.9643 34.3653 53.2085 34.066 53.5085 33.7138C54.113 33.0944 54.113 33.0944 54.5252 32.9803C55.6206 33.0429 56.6369 33.7199 57.3611 34.3364C59.1338 36.1328 59.1464 38.6746 58.8339 40.8525C58.3738 43.2224 57.1148 46.1081 54.676 47.6376C53.7579 48.1357 53.7579 48.1357 53.275 48.1357C53.3817 47.6665 53.5376 47.2215 53.7128 46.7659C53.9929 45.9915 54.2055 45.215 54.3938 44.4232C54.4198 44.3148 54.4457 44.2063 54.4724 44.0946C54.7748 42.7878 54.869 41.5105 54.8776 40.1829C54.8793 39.9911 54.8825 39.7992 54.8871 39.6074C54.9296 37.8324 54.7071 36.2548 53.275 34.8112C52.5871 35.0513 52.3236 35.3935 52.0297 35.932C51.5601 36.9731 51.4911 37.9617 51.5044 39.0607C51.5026 39.2115 51.5008 39.3622 51.4989 39.5175C51.5037 40.6937 51.7605 41.6321 52.4967 42.6565C52.6508 42.7181 52.6508 42.7181 52.808 42.781C52.3742 43.547 51.5344 44.3462 50.6288 44.7734C50.1036 44.81 49.8324 44.7368 49.4206 44.4738C48.1779 43.4559 47.6521 42.019 47.6506 40.6266C47.6504 40.5377 47.6503 40.4489 47.6501 40.3573C47.65 40.1688 47.6503 39.9803 47.651 39.7918C47.6518 39.5101 47.651 39.2284 47.65 38.9467C47.6495 38.0953 47.6673 37.2517 47.7485 36.4023C47.8524 35.2818 47.8559 34.1625 47.8558 33.0394C47.8561 32.6749 47.8589 32.3105 47.8619 31.9461C47.8623 31.7126 47.8626 31.4791 47.8628 31.2456C47.8639 31.1376 47.865 31.0295 47.8662 30.9182C47.8636 30.3746 47.834 29.9513 47.5156 29.4565C47.3165 29.4385 47.1175 29.4205 46.9124 29.402C46.5416 29.3685 46.2945 29.3417 45.959 29.2074C48.1499 26.9039 48.1499 26.9039 49.6948 27.0905Z" fill="#FAF5ED"/>
<path d="M0.662109 0.192505C3.79555 0.192505 6.92899 0.192505 10.1574 0.192505C10.1574 0.233599 10.1574 0.274693 10.1574 0.317033C10.0294 0.342877 9.90134 0.368722 9.76945 0.395349C7.8322 0.823065 6.2715 1.58843 5.25348 3.00995C4.5777 4.06962 4.24729 5.09057 4.68374 6.27346C5.3635 7.46145 6.45505 8.07247 7.94895 8.53588C8.72476 8.73059 9.50696 8.83286 10.313 8.90946C10.313 8.99165 10.313 9.07384 10.313 9.15852C7.6594 9.11645 5.67178 8.11014 3.46399 7.04154C3.16647 7.93866 3.0922 9.17917 3.61965 10.0302C4.34894 10.5526 5.49654 10.6857 6.40998 10.9005C7.03269 11.0644 7.66169 11.2714 8.1338 11.6491C8.10461 12.0771 8.10461 12.0771 7.97814 12.5208C7.37194 12.8573 6.63276 12.8699 5.9199 12.9488C5.45707 13.0011 5.45707 13.0011 5.02059 13.2679C4.96923 13.3912 4.91786 13.5145 4.86493 13.6415C6.15895 13.5512 7.11213 13.4606 7.97814 12.6453C8.08729 12.5349 8.19645 12.4244 8.30892 12.3106C8.78193 11.8439 9.15987 11.6751 9.90443 11.5868C11.8549 11.652 13.7297 12.448 15.0315 13.5715C15.5138 14.0259 15.8897 14.4811 16.2281 15.0113C16.9703 14.1208 16.9668 13.186 16.8508 12.1472C16.5565 11.216 15.6622 10.6463 14.7019 10.1275C13.7376 9.69046 12.636 9.56742 11.5583 9.40758C11.6097 9.32539 11.6611 9.2432 11.714 9.15852C12.7714 8.92563 14.0486 8.86319 15.0509 9.25192C15.2386 9.34167 15.4238 9.43477 15.6055 9.5321C15.7403 9.59888 15.8752 9.66566 16.0141 9.73446C17.1018 10.6046 17.7962 11.7773 17.8431 13.0033C17.797 14.2229 17.379 15.0889 16.3838 16.0076C16.2811 16.1129 16.1783 16.2182 16.0725 16.3267C15.7611 16.5057 15.7611 16.5057 15.3732 16.4925C14.6103 16.3369 13.9518 16.0568 13.2511 15.7741C10.9386 14.8737 8.68822 14.3859 6.1394 14.9646C3.64694 15.6711 1.84764 16.8503 0.662109 18.7472C0.662109 12.6241 0.662109 6.50109 0.662109 0.192505Z" fill="#606B2F"/>
<path d="M118.808 7.0415C119.731 7.26297 120.214 7.62588 120.69 8.28678C120.954 8.75109 121.008 9.17303 121.017 9.68055C121.019 9.80943 121.022 9.93831 121.025 10.0711C121.027 10.2098 121.029 10.3484 121.031 10.4913C121.034 10.6347 121.037 10.7782 121.04 10.9259C121.049 11.3849 121.057 11.8438 121.065 12.3028C121.076 12.9054 121.087 13.5079 121.099 14.1104C121.101 14.2481 121.103 14.3857 121.106 14.5276C121.12 15.2386 121.168 15.9267 121.299 16.6302C121.488 16.5916 121.677 16.5531 121.873 16.5134C122.354 16.417 122.835 16.3297 123.322 16.2566C122.492 17.3537 121.396 18.4966 119.82 18.8794C119.221 18.8709 118.969 18.7704 118.541 18.4373C117.544 17.4969 117.518 16.2329 117.549 15.0624C117.552 14.8106 117.555 14.5589 117.558 14.3072C117.565 13.9156 117.573 13.5241 117.581 13.1326C117.589 12.7511 117.593 12.3696 117.597 11.9881C117.601 11.8727 117.604 11.7574 117.608 11.6385C117.615 10.835 117.431 10.1631 117.096 9.40753C117.019 9.22261 117.019 9.22261 116.94 9.03395C115.859 9.03761 114.981 9.21422 113.992 9.53984C112.961 9.872 111.988 10.1017 110.869 9.90565C110.497 9.7511 110.141 9.57805 109.78 9.40753C109.772 10.0077 109.766 10.6079 109.763 11.2081C109.761 11.4119 109.759 11.6156 109.756 11.8193C109.711 13.944 109.711 13.944 110.714 15.883C111.402 16.4065 111.923 16.5336 112.871 16.5265C113.375 16.4949 113.815 16.3843 114.294 16.2566C114.063 16.6597 113.776 16.9953 113.438 17.3462C113.343 17.4457 113.248 17.5452 113.151 17.6478C113.066 17.7229 112.981 17.798 112.893 17.8754C112.79 17.8754 112.688 17.8754 112.582 17.8754C112.582 17.9576 112.582 18.0398 112.582 18.1245C112.36 18.2806 112.36 18.2806 112.066 18.4436C111.922 18.5247 111.922 18.5247 111.776 18.6075C111.063 18.9579 110.277 18.9709 109.468 18.8717C108.982 18.6802 108.615 18.422 108.223 18.1245C108.115 18.0436 108.008 17.9627 107.897 17.8793C107.581 17.6342 107.276 17.387 106.978 17.1283C106.84 17.0318 106.702 16.9353 106.56 16.8359C105.923 16.2145 106.077 15.3448 106.073 14.5832C106.07 14.4109 106.066 14.2386 106.062 14.0664C106.051 13.5512 106.047 13.036 106.044 12.5207C106.043 12.3687 106.041 12.2167 106.04 12.0601C106.034 11.2588 106.035 10.4578 106.044 9.65659C106.159 9.62753 106.275 9.59848 106.394 9.56854C107.642 9.22257 108.667 8.76121 109.752 8.16356C110.898 7.53834 111.911 7.09358 113.321 7.11933C113.614 7.12174 113.614 7.12174 113.912 7.1242C114.416 7.16338 114.774 7.24199 115.228 7.41509C115.15 7.87946 115.066 8.3318 114.917 8.78489C115.619 8.72578 115.999 8.68646 116.471 8.25078C116.657 8.02988 116.837 7.8058 117.011 7.57853C117.5 6.99201 117.978 6.97621 118.808 7.0415Z" fill="#FAF5ED"/>
<path d="M95.0409 7.24379C95.6241 7.50827 95.9438 7.79708 96.2376 8.28671C96.2765 8.70699 96.2765 8.70699 96.2376 9.03388C96.3596 8.97223 96.4816 8.91059 96.6072 8.84708C97.0159 8.66029 97.0159 8.66029 97.3272 8.66029C97.3625 8.59608 97.3978 8.53187 97.4342 8.46572C97.6118 8.2019 97.7982 7.95841 98.0082 7.71077C98.0704 7.63725 98.1326 7.56373 98.1967 7.48798C98.5594 7.16257 98.8947 7.05689 99.431 6.99959C100.413 6.98838 101.215 7.03024 101.997 7.53954C103.217 8.6265 103.287 9.85577 103.296 11.2579C103.298 11.3958 103.3 11.5337 103.303 11.6758C103.312 12.2615 103.319 12.8473 103.325 13.4332C103.33 13.8626 103.337 14.2919 103.344 14.7213C103.346 14.9196 103.346 14.9196 103.347 15.1219C103.349 15.2454 103.351 15.3688 103.353 15.4961C103.355 15.6582 103.355 15.6582 103.357 15.8235C103.403 16.169 103.532 16.439 103.709 16.7546C104.12 16.6313 104.531 16.508 104.955 16.381C104.862 17.2243 104.113 17.6961 103.359 18.2178C103.252 18.2891 103.146 18.3604 103.036 18.4338C102.758 18.6118 102.758 18.6118 102.62 18.8716C102.001 18.9112 101.608 18.9017 101.044 18.6848C100.267 18.1444 99.8321 17.5661 99.6621 16.7546C99.6482 16.555 99.6411 16.3549 99.64 16.155C99.6389 16.0394 99.6378 15.9238 99.6367 15.8047C99.636 15.681 99.6354 15.5574 99.6347 15.43C99.6311 15.1653 99.6273 14.9006 99.6235 14.6359C99.618 14.2209 99.6134 13.8059 99.6113 13.3908C99.6089 12.9887 99.6026 12.5866 99.5958 12.1845C99.5961 12.0622 99.5964 11.9398 99.5967 11.8137C99.577 10.9134 99.3908 10.0272 98.6573 9.31081C98.4094 9.12224 98.4094 9.12224 97.9693 9.15062C97.3396 9.32189 97.0334 9.58323 96.7045 10.0301C96.2759 10.808 96.1526 11.5445 96.1597 12.3883C96.1599 12.504 96.1602 12.6196 96.1604 12.7388C96.2039 14.3906 96.6625 16.0296 97.1715 17.6263C97.0591 17.6725 96.9468 17.7188 96.831 17.7664C96.3037 18.0476 96.0112 18.353 95.6149 18.7471C95.1653 18.9269 94.8683 18.9185 94.3696 18.8716C93.9513 18.5914 93.9513 18.5914 93.5913 18.2489C93.5079 18.177 93.4244 18.1051 93.3384 18.031C92.6889 17.1808 92.4812 16.1638 92.484 15.1808C92.4841 15.0462 92.4841 14.9117 92.4841 14.773C92.4849 14.6298 92.4857 14.4865 92.4865 14.339C92.4867 14.1908 92.487 14.0426 92.4872 13.8899C92.488 13.4179 92.49 12.9459 92.492 12.474C92.4928 12.1534 92.4935 11.8328 92.4941 11.5123C92.4958 10.7276 92.4984 9.94303 92.5017 9.1584C91.8746 9.22872 91.2534 9.30232 90.6338 9.40746C90.6338 9.32527 90.6338 9.24308 90.6338 9.1584C90.7365 9.1584 90.8393 9.1584 90.9451 9.1584C91.0086 9.02212 91.0086 9.02212 91.0734 8.88308C91.4167 8.23153 91.8886 7.63033 92.5504 7.15817C93.4098 6.91832 94.2088 6.94694 95.0409 7.24379Z" fill="#FAF5ED"/>
<path d="M35.5306 7.04157C36.4388 7.35533 36.9397 7.9814 37.3985 8.66043C37.3985 8.74262 37.3985 8.82481 37.3985 8.90949C37.5526 8.90949 37.7067 8.90949 37.8655 8.90949C37.9028 8.83661 37.9401 8.76373 37.9786 8.68864C38.2162 8.35627 38.4767 8.1899 38.8578 7.95996C38.9778 7.88644 39.0978 7.81292 39.2214 7.73717C40.0713 7.26609 40.733 7.20777 41.757 7.29062C42.8128 7.61696 43.4383 8.41858 43.8876 9.21302C44.8219 11.1492 44.9498 13.1615 44.4634 15.1899C44.3808 15.6284 44.4193 15.953 44.5589 16.3812C44.9262 16.675 45.1471 16.6914 45.6485 16.7547C45.7255 16.5082 45.7255 16.5082 45.8042 16.2566C45.8555 16.2566 45.9069 16.2566 45.9598 16.2566C45.9186 16.8945 45.8657 17.3338 45.2934 17.8196C44.5968 18.2894 43.8199 18.6294 42.9828 18.9106C42.2155 18.8439 41.7664 18.4656 41.29 18C40.7712 17.233 40.498 16.4271 40.4847 15.5553C40.4826 15.4447 40.4805 15.3341 40.4783 15.2201C40.4767 15.102 40.4751 14.9838 40.4734 14.862C40.4683 14.6087 40.4631 14.3553 40.4579 14.102C40.4505 13.705 40.4436 13.308 40.4375 12.911C40.4313 12.5261 40.4232 12.1414 40.415 11.7566C40.4137 11.6397 40.4124 11.5228 40.4111 11.4023C40.447 10.1382 40.447 10.1382 39.8891 9.03401C39.4025 8.95453 38.9737 8.94834 38.4881 9.03401C37.6844 9.5145 37.3612 10.302 37.1608 11.0605C36.8451 13.0518 36.905 15.0489 38.3325 16.7547C38.3325 17.4291 37.6497 17.9052 37.0872 18.3736C36.6112 18.6503 36.1349 18.8941 35.5239 18.8474C34.8448 18.624 34.4459 18.012 34.1327 17.5029C33.5879 16.4011 33.4596 15.316 33.448 14.1397C33.4454 14.0006 33.4427 13.8615 33.44 13.7182C33.4318 13.2776 33.4255 12.8369 33.4194 12.3963C33.4126 11.9521 33.4054 11.5079 33.3972 11.0637C33.3922 10.788 33.388 10.5124 33.3847 10.2367C33.3826 10.1132 33.3805 9.98968 33.3784 9.86242C33.3769 9.75325 33.3754 9.64408 33.3739 9.53161C33.3854 9.28316 33.3854 9.28316 33.1957 9.15854C32.8844 9.15346 32.573 9.15324 32.2617 9.15854C32.3266 8.49708 32.4412 8.13094 33.04 7.66421C33.8642 7.13351 34.4726 6.93056 35.5306 7.04157Z" fill="#FAF5ED"/>
<path d="M85.8074 33.0678C86.6254 33.3171 86.9692 33.8451 87.364 34.4376C87.476 34.6424 87.5845 34.8488 87.6753 35.0602C87.778 34.978 87.8808 34.8959 87.9866 34.8112C88.0574 34.755 88.1283 34.6988 88.2012 34.6409C88.3865 34.4917 88.5689 34.3402 88.7497 34.1876C89.4621 33.5947 90.045 33.1364 91.0998 33.0133C91.9756 33.1155 92.5667 33.5476 93.0997 34.0966C95.1537 36.5754 94.8894 39.9568 94.8357 42.781C94.9789 42.7619 95.1222 42.7428 95.2698 42.7231C95.5172 42.6901 95.5172 42.6901 95.7696 42.6564C95.943 42.6333 96.1163 42.6102 96.295 42.5864C96.4972 42.5594 96.4972 42.5594 96.7036 42.5319C96.2681 43.3516 95.6106 44.028 94.68 44.5244C93.917 44.7278 93.3812 44.7457 92.6467 44.4699C90.984 43.3095 90.3656 41.495 90.1658 39.7923C90.0773 38.3349 90.1307 36.8843 90.3215 35.4338C90.0133 35.3105 89.7051 35.1873 89.3875 35.0602C89.3875 34.937 89.3875 34.8137 89.3875 34.6866C88.3948 35.1299 87.9114 35.6951 87.502 36.5375C87.252 37.2857 87.2976 38.0744 87.2959 38.8428C87.2955 38.9258 87.2951 39.0089 87.2947 39.0945C87.2947 40.4565 87.4974 41.6439 88.1423 42.9055C88.2021 43.026 88.2619 43.1466 88.3235 43.2708C88.3664 43.3557 88.4093 43.4406 88.4536 43.5281C88.1942 43.7357 87.9347 43.9432 87.6753 44.1508C87.5597 44.2664 87.4441 44.3819 87.3251 44.501C86.7969 44.8371 86.4893 44.859 85.8299 44.824C85.2954 44.743 85.071 44.6064 84.7177 44.2753C84.0382 43.2876 83.9177 42.4212 83.9352 41.3119C83.9372 41.0694 83.9391 40.8268 83.941 40.5842C83.9448 40.2041 83.9492 39.8241 83.9544 39.444C83.9591 39.0756 83.9619 38.7072 83.9644 38.3388C83.9665 38.2267 83.9686 38.1146 83.9707 37.9991C83.9747 37.1802 83.9697 36.2963 83.3363 35.6206C83.0084 35.4355 82.7776 35.3544 82.3828 35.3093C82.3087 34.9832 82.3244 34.7637 82.5415 34.4775C83.359 33.6668 84.4329 32.8775 85.8074 33.0678Z" fill="#FAF5ED"/>
<path d="M27.0465 7.22045C28.6963 7.87583 29.6195 9.30459 30.1866 10.6526C30.5718 11.665 30.8793 12.6843 30.8809 13.7465C30.8811 13.8812 30.8813 14.0158 30.8815 14.1546C30.8809 14.2935 30.8803 14.4323 30.8797 14.5754C30.8803 14.7142 30.8809 14.8531 30.8815 14.9961C30.8813 15.1308 30.8811 15.2655 30.8809 15.4043C30.8807 15.526 30.8805 15.6478 30.8803 15.7732C30.8592 16.1502 30.791 16.5084 30.7045 16.8791C31.2299 16.7315 31.5836 16.5957 31.9498 16.2565C32.0763 16.5133 32.0763 16.5133 32.1055 16.8791C31.6931 17.5145 31.1046 17.9357 30.4127 18.3813C30.259 18.4803 30.1053 18.5793 29.9469 18.6814C29.4593 18.8716 29.4593 18.8716 28.8865 18.7947C28.0643 18.5208 27.5006 18.184 27.1438 17.5251C27.086 17.3941 27.0282 17.2632 26.9687 17.1282C25.9781 17.1702 25.4484 17.4432 24.6824 17.9298C24.4811 18.0545 24.2794 18.1789 24.0774 18.3029C23.9898 18.3582 23.9022 18.4135 23.8119 18.4705C23.3514 18.732 23.0464 18.8738 22.474 18.8638C21.4577 18.6199 20.9592 18.0675 20.4279 17.3729C20.0035 16.6923 19.9947 15.9343 20.2096 15.2034C20.8042 13.8305 22.1014 12.901 23.6998 12.2716C24.5847 11.9485 25.5425 11.9452 26.5017 11.898C26.6227 10.8548 26.6227 10.8548 26.1904 9.8978C25.6156 9.3697 24.936 9.188 24.0793 9.13263C23.4177 9.12397 22.786 9.14583 22.1432 9.28294C23.038 7.73431 24.9194 6.59504 27.0465 7.22045Z" fill="#FAF5ED"/>
<path d="M131.532 7.26731C131.732 7.269 131.931 7.27068 132.137 7.27242C132.623 7.27677 133.109 7.28288 133.595 7.29066C132.922 8.67675 131.969 9.98193 130.637 11.0265C130.728 11.084 130.818 11.1414 130.911 11.2006C132.445 12.2254 133.39 13.5301 133.595 15.1359C133.598 15.3514 133.599 15.5669 133.598 15.7824C133.598 15.8945 133.597 16.0067 133.597 16.1222C133.596 16.2077 133.596 16.2931 133.595 16.3812C133.49 16.4219 133.385 16.4626 133.277 16.5045C132.792 16.6932 132.308 16.8835 131.824 17.0739C131.659 17.1379 131.494 17.2018 131.324 17.2677C130.366 17.6462 129.498 18.052 128.65 18.5726C128.261 18.7682 127.982 18.8442 127.524 18.8718C127.27 18.7454 127.015 18.619 126.762 18.4909C126.129 18.2641 125.394 18.2572 124.722 18.3736C124.468 18.6193 124.468 18.6193 124.255 18.8718C123.759 18.9029 123.759 18.9029 123.321 18.8718C123.342 18.9426 123.363 19.0133 123.384 19.0863C123.553 19.6776 123.692 20.2625 123.788 20.8642C123.208 20.5341 122.881 20.3012 122.699 19.7435C122.549 18.9908 122.967 18.4798 123.477 17.8755C123.926 17.4065 124.4 16.956 124.878 16.5057C125.135 16.2598 125.391 16.0134 125.647 15.7663C125.76 15.6573 125.874 15.5484 125.991 15.4361C126.241 15.1754 126.425 14.9368 126.59 14.6378C126.821 14.6995 126.821 14.6995 127.057 14.7623C127.028 15.0425 127.028 15.0425 126.902 15.385C126.645 15.5536 126.385 15.7196 126.123 15.8831C125.916 16.2091 125.916 16.2091 125.812 16.5057C126.005 16.4441 126.005 16.4441 126.201 16.3812C127.048 16.1877 127.696 16.1498 128.507 16.4435C128.645 16.5051 128.783 16.5667 128.925 16.6303C129.079 16.6303 129.233 16.6303 129.392 16.6303C129.835 16.0985 129.783 15.6359 129.703 15.0114C129.578 14.6644 129.412 14.3493 129.237 14.0152C129.237 13.8919 129.237 13.7686 129.237 13.6416C128.928 13.6416 128.62 13.6416 128.303 13.6416C128.258 13.7597 128.213 13.8779 128.166 13.9996C127.991 14.3888 127.991 14.3888 127.68 14.6378C126.37 14.5679 125.13 13.9103 124.246 13.159C123.307 12.1934 123.145 11.0829 123.222 9.88532C123.321 9.40764 123.321 9.40764 123.542 9.1401C123.921 8.92813 124.294 8.80015 124.722 8.66047C124.929 8.57834 125.134 8.49489 125.339 8.41044C127.404 7.57789 129.2 7.22933 131.532 7.26731Z" fill="#FAF5ED"/>
<path d="M79.6788 34.1341C81.325 35.4857 81.5261 37.1311 81.4981 38.9362C81.4986 39.0988 81.4991 39.2614 81.4996 39.4289C81.4964 39.8834 81.4793 40.3347 81.4494 40.7885C81.4422 40.901 81.435 41.0135 81.4276 41.1294C81.3578 41.5694 81.2731 41.8153 80.8479 42.1113C80.4711 42.2996 80.0915 42.4526 79.6885 42.602C79.5554 42.6563 79.4222 42.7106 79.2851 42.7666C78.6203 43.029 78.1545 43.1863 77.4022 43.1545C77.3976 42.9107 77.3976 42.9107 77.3929 42.6619C77.381 42.0531 77.3672 41.4444 77.3528 40.8356C77.3469 40.5732 77.3415 40.3108 77.3366 40.0483C77.3294 39.669 77.3204 39.2897 77.311 38.9104C77.3092 38.7949 77.3074 38.6794 77.3056 38.5604C77.2747 37.4405 77.2263 36.2876 76.3017 35.3915C75.76 35.0187 75.1214 34.8493 74.4447 34.6866C74.4306 34.8489 74.4306 34.8489 74.4161 35.0145C74.4031 35.158 74.39 35.3015 74.3766 35.4494C74.364 35.591 74.3513 35.7325 74.3383 35.8784C74.289 36.3055 74.289 36.3055 74.2105 36.6571C74.0757 37.3488 74.0916 38.0428 74.0847 38.7416C74.078 38.9656 74.078 38.9656 74.0711 39.1942C74.0593 40.5392 74.32 41.8821 75.4212 42.9483C75.8731 43.2951 76.3836 43.5442 76.9353 43.7772C76.2473 44.3943 75.6408 44.7222 74.6204 44.8133C73.4056 44.8497 72.722 44.7173 71.8295 44.0729C70.0305 42.5937 69.7376 40.4581 69.7263 38.4925C69.7254 38.3642 69.7245 38.2358 69.7236 38.1035C69.7429 36.488 69.7429 36.488 70.386 35.913C73.083 34.2992 76.3628 32.555 79.6788 34.1341Z" fill="#FAF5ED"/>
<path d="M153.695 7.34509C155.076 7.96484 155.526 9.28526 155.956 10.4238C156.126 10.9238 156.211 11.4212 156.277 11.9357C156.309 12.1753 156.345 12.4146 156.384 12.6535C156.761 15.1432 156.761 15.1432 156.075 15.9089C155.372 16.3972 154.538 16.6759 153.685 16.9597C153.174 17.1403 152.698 17.3485 152.213 17.5705C152.049 17.6459 151.884 17.7213 151.714 17.7989C151.471 17.91 151.471 17.91 151.224 18.0234C149.03 19.0188 149.03 19.0188 147.866 18.8056C146.594 18.2595 145.876 17.4699 145.425 16.3811C145.028 15.0109 145.077 13.6297 145.094 12.2328C145.096 12.0062 145.097 11.7796 145.099 11.553C145.102 11.0039 145.107 10.4548 145.114 9.90569C145.944 9.5205 146.759 9.21775 147.655 8.94012C148.045 8.7949 148.264 8.67065 148.538 8.41136C148.848 9.13395 148.891 9.77675 148.887 10.5371C148.889 10.7823 148.892 11.0274 148.894 11.2726C148.897 11.6545 148.898 12.0364 148.897 12.4184C148.845 14.5493 148.845 14.5493 149.784 16.5057C150.253 16.844 150.612 17.0584 151.233 17.1594C151.517 17.2057 151.517 17.2057 151.807 17.2528C151.804 17.1082 151.801 16.9636 151.797 16.8146C151.797 16.3007 151.872 15.8083 151.963 15.2993C152.265 13.4295 152.668 10.7734 151.185 9.15853C150.633 8.73728 150.09 8.46761 149.317 8.41136C150.389 7.37612 152.09 6.82107 153.695 7.34509Z" fill="#FAF5ED"/>
<path d="M86.2538 7.28917C87.8424 7.99085 88.777 9.19665 89.3883 10.5284C89.438 10.6348 89.4878 10.7412 89.5391 10.8509C89.868 11.6999 89.8983 12.5342 89.9039 13.4159C89.9048 13.5312 89.9056 13.6466 89.9065 13.7655C89.898 14.4151 89.8186 15.007 89.6122 15.6358C89.5077 16.0144 89.5234 16.3686 89.5439 16.7548C90.2374 16.6931 90.2374 16.6931 90.9449 16.6302C90.7164 16.8758 90.4871 17.1209 90.2566 17.3652C90.0686 17.5651 89.8835 17.7666 89.6996 17.9689C89.2089 18.4106 88.6923 18.6727 88.0068 18.8873C87.2448 18.8629 86.7957 18.5535 86.2751 18.1246C85.6241 17.3441 85.4769 16.6395 85.4816 15.7099C85.4818 15.6222 85.482 15.5344 85.4822 15.444C85.4831 15.1649 85.485 14.8858 85.487 14.6067C85.4878 14.4169 85.4885 14.2272 85.4892 14.0375C85.4909 13.5735 85.4936 13.1094 85.4968 12.6453C85.2725 12.6607 85.0483 12.6773 84.8243 12.6945C84.6994 12.7036 84.5746 12.7127 84.446 12.7221C83.9248 12.7932 83.6715 12.9598 83.3175 13.268C82.8747 13.8501 82.778 14.3424 82.7922 15.0114C82.7904 15.0968 82.7886 15.1822 82.7867 15.2702C82.7909 15.8557 82.9471 16.253 83.3175 16.7548C83.7285 16.7137 84.1394 16.6726 84.5628 16.6302C84.6333 17.1156 84.6259 17.3132 84.2417 17.7043C83.4674 18.2052 82.1896 18.9291 81.1358 18.8474C80.7374 18.7182 80.5504 18.5492 80.2724 18.288C80.1373 18.164 80.1373 18.164 79.9994 18.0375C79.1505 17.1094 79.1191 16.2563 79.2704 15.1359C79.6852 13.9881 80.7357 13.1293 82.0041 12.5364C83.2295 12.0412 84.2986 11.9907 85.6524 12.0227C85.6274 10.8032 85.6274 10.8032 84.8741 9.78119C84.0859 9.30505 83.5376 9.14104 82.5587 9.14299C82.3986 9.14267 82.2384 9.14235 82.0735 9.14202C81.6403 9.15732 81.2484 9.2047 80.827 9.28308C81.3151 8.42549 82.1449 7.75287 83.1619 7.29063C84.1349 7.03117 85.2828 7.02107 86.2538 7.28917Z" fill="#FAF5ED"/>
<path d="M116.162 27.0904C117.44 27.7875 117.911 29.043 118.185 30.2036C118.303 31.0563 118.266 31.9139 118.245 32.7701C118.242 33.0121 118.24 33.2542 118.238 33.4962C118.233 34.1279 118.223 34.7594 118.212 35.391C118.194 36.4031 118.181 37.4153 118.171 38.4275C118.167 38.7779 118.16 39.1282 118.152 39.4786C118.135 40.6331 118.182 41.6732 118.652 42.7809C119.024 42.7092 119.379 42.6287 119.742 42.5319C119.704 43.1557 119.458 43.4971 118.944 43.9416C118.266 44.4279 117.564 44.7183 116.677 44.8746C116.002 44.7419 115.809 44.5211 115.437 44.0646C115.368 43.9698 115.299 43.8749 115.228 43.7772C115.139 43.6599 115.139 43.6599 115.048 43.5403C113.623 41.3595 114.047 38.4316 114.213 36.0691C114.308 34.7087 114.346 33.348 114.381 31.9859C114.388 31.7387 114.395 31.4915 114.402 31.2443C114.418 30.6484 114.434 30.0524 114.45 29.4564C113.885 29.4154 113.319 29.3743 112.737 29.3319C112.942 28.5354 113.567 28.0015 114.294 27.464C114.882 27.1576 115.461 27.0293 116.162 27.0904Z" fill="#FAF5ED"/>
<path d="M127.381 33.0756C127.84 33.2542 127.884 33.5078 128.05 33.885C128.39 34.5878 128.798 35.106 129.393 35.6829C129.569 35.8691 129.744 36.0559 129.918 36.2433C129.997 36.3268 130.075 36.4102 130.155 36.4962C130.212 36.5566 130.269 36.617 130.327 36.6791C129.645 37.1726 128.93 37.6047 128.177 38.0256C126.14 39.0785 126.14 39.0785 124.972 40.6718C124.974 40.7514 124.975 40.8311 124.976 40.9131C124.975 40.9927 124.974 41.0723 124.972 41.1544C125.089 41.6382 125.374 41.952 125.849 42.2581C126.924 42.7941 126.924 42.7941 128.148 42.781C128.456 42.5695 128.717 42.3498 128.976 42.1C129.237 41.9093 129.237 41.9093 129.86 41.9093C129.487 42.6255 128.72 43.1642 128.057 43.7159C127.86 43.8815 127.669 44.0509 127.478 44.2209C126.855 44.7318 126.416 44.9618 125.511 44.9914C124.199 44.9126 123.056 44.591 122.16 43.7982C120.657 42.0963 120.788 40.0015 120.812 38.0178C120.814 37.7907 120.815 37.5635 120.816 37.3363C120.82 36.7852 120.825 36.2341 120.832 35.6829C120.922 35.6598 121.013 35.6367 121.106 35.613C122.716 35.1945 124.064 34.6088 125.417 33.7951C126.689 33.0589 126.689 33.0589 127.381 33.0756Z" fill="#FAF5ED"/>
<path d="M62.4591 33.0679C62.8855 33.2259 63.2132 33.3998 63.5682 33.6438C64.1404 33.969 64.5864 34.0282 65.2817 34.0028C66.011 33.8995 66.6778 33.6682 67.3673 33.4565C68.4904 33.1661 69.6153 33.2236 70.7091 33.566C70.7861 33.6893 70.7861 33.6893 70.8648 33.815C70.3028 34.861 69.3766 35.6177 68.0629 36.0565C67.6713 36.1028 67.6713 36.1028 67.2457 36.111C67.0374 36.1185 67.0374 36.1185 66.8249 36.1261C66.3399 36.055 66.1061 35.9519 65.6983 35.7409C65.587 35.6837 65.4757 35.6266 65.3611 35.5677C65.2767 35.5235 65.1923 35.4794 65.1053 35.4339C65.1118 36.3648 65.1231 37.2955 65.1376 38.2264C65.142 38.5431 65.1453 38.8598 65.1475 39.1765C65.1508 39.6315 65.1581 40.0865 65.1661 40.5415C65.1663 40.6833 65.1665 40.8251 65.1667 40.9712C65.1698 41.1033 65.1729 41.2354 65.176 41.3715C65.1774 41.4876 65.1788 41.6038 65.1802 41.7234C65.2838 42.1214 65.5149 42.263 65.8836 42.532C65.8836 42.6142 65.8836 42.6964 65.8836 42.7811C66.0377 42.74 66.1918 42.6989 66.3506 42.6565C66.5677 42.6482 66.7852 42.6459 67.0024 42.6487C67.1983 42.6513 67.3941 42.6539 67.5959 42.6565C67.3814 43.3642 66.726 43.724 66.0393 44.1509C65.9372 44.2149 65.835 44.279 65.7298 44.3449C65.0699 44.7184 64.5335 44.8694 63.7202 44.8236C63.1549 44.737 62.8766 44.5942 62.4591 44.2754C61.5086 43.1179 61.3266 41.8556 61.3105 40.4997C61.3079 40.3822 61.3052 40.2647 61.3025 40.1436C61.2943 39.7723 61.288 39.401 61.2819 39.0296C61.2751 38.6574 61.2678 38.2852 61.2597 37.913C61.2548 37.6827 61.2506 37.4523 61.2472 37.2219C61.2343 36.5748 61.1733 35.9501 61.0582 35.3094C60.335 35.3698 60.335 35.3698 59.6572 35.5584C59.6572 35.0974 59.6729 34.8193 60.0512 34.461C60.795 33.9321 61.6192 33.4925 62.4591 33.0679Z" fill="#FAF5ED"/>
<path d="M73.355 7.16608C74.0291 7.47768 74.2955 7.84682 74.6002 8.41136C74.7215 8.33696 74.7215 8.33696 74.8453 8.26105C76.4923 7.26005 77.6825 7.00268 79.7662 7.22056C80.204 7.29061 80.204 7.29061 80.3597 7.41514C80.3116 8.06892 80.1516 8.56065 79.5814 9.034C78.8719 9.52151 78.1806 9.94154 77.2951 10.1937C76.6694 10.1464 76.3302 9.97717 75.8291 9.68485C75.5216 9.52557 75.2691 9.46213 74.9116 9.40758C74.4808 11.6107 74.0367 14.4564 75.3785 16.5057C76.1023 16.5284 76.5824 16.472 77.2465 16.2566C77.5803 16.3116 77.5803 16.3116 77.8691 16.3812C75.1281 18.8404 75.1281 18.8404 74.2014 18.9184C73.6383 18.7382 73.228 18.5255 72.7615 18.2199C72.448 18.0008 72.448 18.0008 72.1539 17.8955C71.8123 17.7474 71.5849 17.6146 71.3314 17.3774C71.1701 16.8752 71.1903 16.3825 71.2019 15.8665C71.2007 15.7186 71.1995 15.5707 71.1983 15.4183C71.1954 14.9453 71.1999 14.4726 71.2049 13.9996C71.2058 13.5293 71.2052 13.059 71.2032 12.5888C71.2023 12.2964 71.2034 12.0041 71.2068 11.7118C71.2095 10.8334 71.1016 10.0165 70.8644 9.15853C70.2701 9.19282 70.2701 9.19282 69.7748 9.40758C69.4635 9.41267 69.1521 9.41288 68.8408 9.40758C69.5678 8.127 71.572 6.97133 73.355 7.16608Z" fill="#FAF5ED"/>
<path d="M111.122 33.2701C111.317 33.2692 111.511 33.2682 111.712 33.2672C112.306 33.32 112.691 33.4515 113.204 33.6904C113.297 34.7697 113.297 34.7697 112.839 35.2446C112.096 35.7903 111.081 36.3397 110.052 36.4067C109.376 36.2896 109.015 36.0892 108.497 35.7339C108.214 35.5321 108.214 35.5321 107.756 35.4338C107.254 37.4305 106.964 39.9877 108.34 41.8003C108.877 42.3675 109.391 42.6963 110.289 42.8359C110.669 42.8597 110.966 42.8576 111.336 42.781C111.759 42.4223 111.759 42.4223 112.115 42.0338C112.63 41.9248 112.63 41.9248 113.048 41.9093C112.515 42.9598 110.739 44.4107 109.468 44.8979C108.323 45.0862 107.375 44.9123 106.373 44.4494C105.042 43.7447 104.411 42.5679 104.084 41.3485C103.979 40.8355 103.982 40.33 103.99 39.8113C103.99 39.6995 103.991 39.5878 103.991 39.4727C103.993 39.12 103.997 38.7674 104.001 38.4147C104.002 38.1738 104.004 37.933 104.005 37.6921C104.008 37.1054 104.014 36.5186 104.02 35.9319C104.186 35.8677 104.353 35.8034 104.524 35.7373C105.742 35.2618 106.858 34.7901 107.927 34.1173C108.94 33.5018 109.849 33.2638 111.122 33.2701Z" fill="#FAF5ED"/>
<path d="M144.804 7.66407C144.52 8.57172 143.786 9.41026 142.798 9.92357C142.079 10.1563 141.353 10.1467 140.601 10.0301C140.221 9.86601 139.927 9.69046 139.608 9.45854C139.347 9.25396 139.347 9.25396 138.889 9.15841C138.183 11.0437 138.245 13.3614 139.356 15.1357C139.783 15.7259 140.251 16.2506 141.068 16.5056C141.961 16.6134 142.432 16.419 143.138 16.0191C143.403 15.8829 143.403 15.8829 143.714 15.8829C143.714 15.8007 143.714 15.7185 143.714 15.6339C143.817 15.6339 143.92 15.6339 144.026 15.6339C144.044 16.2961 143.812 16.6151 143.267 17.1126C143.005 17.329 142.739 17.5416 142.469 17.7508C142.329 17.8593 142.189 17.9679 142.044 18.0797C140.844 18.9402 140.844 18.9402 140.037 18.965C139.695 18.9319 139.695 18.9319 139.356 18.8716C139.241 18.8542 139.125 18.8369 139.007 18.8191C137.812 18.5743 136.936 17.9703 136.269 17.1525C135.319 15.7314 135.21 14.211 135.157 12.6273C135.148 12.4207 135.134 12.2142 135.115 12.008C134.994 10.6292 134.994 10.6292 135.309 10.0301C135.857 9.53666 136.598 9.28387 137.342 9.02528C137.837 8.83482 138.254 8.57906 138.694 8.31784C140.745 7.17406 142.469 6.73823 144.804 7.66407Z" fill="#FAF5ED"/>
<path d="M99.1946 33.0679C100.096 33.377 100.607 33.9365 101.004 34.6286C101.286 35.2578 101.287 35.865 101.287 36.5274C101.289 36.6536 101.291 36.7797 101.293 36.9097C101.299 37.3102 101.303 37.7107 101.306 38.1113C101.309 38.5118 101.314 38.9123 101.32 39.3129C101.324 39.5612 101.326 39.8096 101.327 40.058C101.34 40.9924 101.524 41.7932 101.997 42.6565C102.356 42.6154 102.716 42.5743 103.086 42.532C103 43.0309 102.688 43.2887 102.269 43.6528C102.09 43.8107 102.09 43.8107 101.907 43.9719C100.943 44.7473 100.943 44.7473 100.294 44.8358C99.5392 44.7372 99.0844 44.4363 98.5525 44.0108C97.7773 43.0599 97.4633 42.054 97.4617 40.9253C97.4614 40.7849 97.4611 40.6445 97.4608 40.4998C97.4618 40.2768 97.4618 40.2768 97.4629 40.0492C97.4632 39.8962 97.4635 39.7432 97.4638 39.5855C97.4721 38.1582 97.5399 36.7344 97.638 35.3094C97.4174 35.3237 97.1969 35.3396 96.9765 35.3561C96.8537 35.3647 96.7309 35.3734 96.6043 35.3823C96.2222 35.436 95.9577 35.5434 95.6144 35.683C95.4603 35.683 95.3062 35.683 95.1475 35.683C95.1475 35.6008 95.1475 35.5186 95.1475 35.4339C95.2502 35.4339 95.3529 35.4339 95.4588 35.4339C95.4911 35.3687 95.5234 35.3036 95.5567 35.2364C95.8624 34.8058 96.2722 34.4706 96.6943 34.1108C96.82 34.0015 96.82 34.0015 96.9482 33.89C97.6624 33.2756 98.0848 32.9913 99.1946 33.0679Z" fill="#FAF5ED"/>
<path d="M59.8123 4.42639C59.8243 5.21253 59.8324 5.99866 59.838 6.78485C59.8403 7.05162 59.8435 7.3184 59.8476 7.58516C59.8897 10.4196 59.8897 10.4196 59.3454 11.7735C59.2801 11.9447 59.2801 11.9447 59.2134 12.1194C58.7623 13.238 57.783 14.1143 56.4851 14.6532C56.0353 14.8189 55.7985 14.8867 55.2982 14.8867C55.3301 14.8026 55.362 14.7185 55.3949 14.6318C55.4578 14.4652 55.4578 14.4652 55.522 14.2952C55.5635 14.1854 55.605 14.0756 55.6478 13.9625C55.6865 13.8566 55.7253 13.7506 55.7652 13.6415C55.7923 13.5677 55.8193 13.4939 55.8473 13.4179C55.9376 13.0808 55.9547 12.7583 55.9701 12.4137C55.9766 12.2748 55.9831 12.136 55.9898 11.9929C55.996 11.8486 56.0021 11.7043 56.0084 11.5556C56.0151 11.4094 56.0218 11.2631 56.0288 11.1125C56.0453 10.7517 56.0611 10.3909 56.0765 10.0301C55.0524 9.98312 55.0524 9.98312 54.1599 10.3415C53.627 10.6528 53.627 10.6528 53.1189 10.6528C52.7089 10.0834 52.7058 9.55199 52.8076 8.90939C53.2069 8.25826 53.8592 7.74161 54.6755 7.41506C55.1433 7.39817 55.6081 7.40971 56.0765 7.41506C56.0765 6.75755 56.0765 6.10004 56.0765 5.42261C56.3365 5.3507 56.5966 5.27878 56.8645 5.20469C57.406 5.0492 57.8957 4.88977 58.3822 4.64431C58.9264 4.40527 59.2057 4.40744 59.8123 4.42639Z" fill="#FAF5ED"/>
<path d="M38.0202 29.083C38.4503 29.1481 38.8493 29.2211 39.2655 29.3321C39.2655 33.8935 39.2655 38.455 39.2655 43.1547C37.6883 43.1547 37.6883 43.1547 37.04 42.9771C36.9006 42.9395 36.7611 42.9018 36.6174 42.863C36.4768 42.8232 36.3361 42.7833 36.1912 42.7422C36.0481 42.7037 35.9051 42.6653 35.7577 42.6257C35.0636 42.4348 34.4281 42.243 33.8174 41.9094C34.1198 41.725 34.4214 41.5455 34.7404 41.3797C36.2513 40.5666 36.8606 39.3084 37.2419 37.9245C37.6036 36.2282 37.6108 34.4995 37.6558 32.783C37.7365 29.764 37.7365 29.764 38.0202 29.083Z" fill="#606B2F"/>
<path d="M10.0371 1.42165C11.7664 1.92579 13.6529 2.67294 14.5153 4.05279C14.5945 4.44191 14.5982 4.69608 14.3287 5.03393C13.7935 5.55053 13.3733 5.87293 12.5197 5.9713C10.1564 6.02493 8.03677 5.25652 5.95403 4.42637C5.89877 3.62726 5.8814 2.88486 6.42101 2.18487C7.48793 1.27799 8.51715 1.09377 10.0371 1.42165Z" fill="#606B2F"/>
<path d="M58.2564 0.566067C58.5458 0.757237 58.5458 0.757237 58.8109 0.963C59.2218 1.27395 59.4779 1.36948 60.0465 1.38328C60.7212 1.34717 61.2377 1.18429 61.8365 0.939651C61.8856 1.50831 61.9 1.82828 61.5933 2.34837C60.9765 2.89245 60.2327 3.07118 59.346 3.18115C58.913 3.19287 58.4849 3.19855 58.0521 3.19672C57.8837 3.19744 57.8837 3.19744 57.7119 3.19818C57.066 3.19725 56.4521 3.15524 55.8113 3.08435C55.0209 3.02294 54.2241 3.04412 53.4309 3.04884C53.2509 3.0494 53.0709 3.04997 52.8855 3.05054C52.4446 3.052 52.0038 3.05404 51.563 3.05663C51.7749 3.61644 51.9736 3.89721 52.4969 4.3019C52.4969 4.42519 52.4969 4.54847 52.4969 4.67549C51.6116 4.45906 51.2816 4.02647 50.7847 3.43021C50.651 2.65468 50.835 2.20586 51.4134 1.57591C53.08 0.141734 56.059 -0.272923 58.2564 0.566067Z" fill="#FAF5ED"/>
<path d="M59.5013 4.30188C59.8865 4.36352 59.8865 4.36352 60.2796 4.42641C60.6671 6.28961 60.6389 8.16254 60.6315 10.0451C60.6297 10.4993 60.6308 10.9534 60.6325 11.4076C60.6445 15.0002 60.6445 15.0002 60.2796 16.7547C59.7769 16.5961 59.2984 16.4268 58.8203 16.2254C58.026 15.9015 57.2089 15.6415 56.3748 15.3918C55.6262 15.1622 55.6262 15.1622 55.4541 14.8868C55.5745 14.8458 55.6949 14.8049 55.8189 14.7627C57.5581 14.1273 58.4688 13.3595 59.1887 11.9458C59.5792 10.8973 59.7048 9.85757 59.7214 8.76786C59.7244 8.64265 59.7274 8.51745 59.7305 8.38845C59.7397 7.99395 59.747 7.59946 59.7542 7.20494C59.7602 6.93521 59.7662 6.66548 59.7725 6.39575C59.7873 5.73932 59.8006 5.08288 59.8126 4.42641C59.7099 4.38531 59.6071 4.34422 59.5013 4.30188Z" fill="#606B2F"/>
<path d="M26.5013 12.6453C26.509 13.1682 26.5147 13.6911 26.5184 14.214C26.52 14.3918 26.5221 14.5696 26.5248 14.7474C26.5286 15.0034 26.5303 15.2593 26.5317 15.5152C26.5333 15.6691 26.535 15.823 26.5366 15.9816C26.5033 16.3583 26.4385 16.5641 26.19 16.8792C24.948 16.9766 24.948 16.9766 24.3318 16.599C23.6498 15.8716 23.5763 15.2875 23.6994 14.3887C23.9432 13.7055 24.442 13.2448 25.0888 12.7737C25.5562 12.5878 25.9866 12.6374 26.5013 12.6453Z" fill="#606B2F"/>
<path d="M127.058 9.03394C127.175 9.0609 127.292 9.08787 127.412 9.11566C129.205 9.51833 129.205 9.51833 130.969 9.22073C131.066 9.15909 131.162 9.09744 131.261 9.03394C131.222 9.92027 130.901 10.371 130.171 11.0264C130.071 11.1201 129.97 11.2139 129.866 11.3105C129.09 11.9865 129.09 11.9865 128.43 12.1316C127.805 11.976 127.578 11.7 127.214 11.2754C127.026 10.8248 127.041 10.4131 127.049 9.94455C127.049 9.85714 127.05 9.76974 127.051 9.67968C127.053 9.46443 127.055 9.24918 127.058 9.03394Z" fill="#606B2F"/>
<path d="M98.3288 28.2656C99.1713 28.3116 99.7475 28.589 100.44 28.9583C100.52 29.5188 100.547 29.81 100.187 30.297C99.1662 31.0707 99.1662 31.0707 98.4066 31.0831C97.8336 30.9172 97.5664 30.6956 97.1711 30.3281C97.0748 30.2485 96.9785 30.1689 96.8792 30.0868C96.7041 29.83 96.7041 29.83 96.7041 29.472C96.9856 28.7682 97.3631 28.293 98.3288 28.2656Z" fill="#FAF5ED"/>
<path d="M128.303 13.6415C128.611 13.6415 128.919 13.6415 129.237 13.6415C129.687 14.486 130.112 15.3288 129.86 16.2566C129.631 16.5379 129.423 16.6743 129.081 16.8792C128.988 16.8201 128.895 16.7611 128.799 16.7002C128.014 16.2515 127.112 16.3393 126.202 16.4434C126.009 16.4742 126.009 16.4742 125.812 16.5056C125.832 16.2332 125.832 16.2332 125.968 15.883C126.279 15.6749 126.59 15.4674 126.902 15.2603C126.902 15.096 126.902 14.9316 126.902 14.7622C126.799 14.7211 126.697 14.68 126.591 14.6377C126.642 14.5555 126.694 14.4733 126.746 14.3886C127.209 14.4503 127.209 14.4503 127.68 14.5132C127.886 14.2255 128.091 13.9379 128.303 13.6415Z" fill="#606B2F"/>
<path d="M118.029 1.8114C118.876 2.15015 119.546 2.52697 120.053 3.18121C120.156 3.52026 120.156 3.52026 120.208 3.80385C119.65 4.24782 119.162 4.61579 118.418 4.83899C117.587 4.77959 117.051 4.39133 116.472 3.92838C116.414 3.58592 116.414 3.58592 116.472 3.18121C116.813 2.86989 116.813 2.86989 117.251 2.55857C117.519 2.31463 117.773 2.06334 118.029 1.8114Z" fill="#FAF5ED"/>
<path d="M15.6048 9.53212C15.7396 9.5989 15.8745 9.66567 16.0134 9.73448C17.1011 10.6046 17.7955 11.7773 17.8424 13.0033C17.8169 13.7698 17.7107 14.6177 17.0933 15.2351C16.8501 15.3849 16.8501 15.3849 16.4317 15.346C16.2535 15.3036 16.2535 15.3036 16.0718 15.2604C16.2274 15.0113 16.2274 15.0113 16.5387 14.6378C16.9782 13.7576 17.0454 12.7653 16.754 11.8432C16.2599 10.9494 15.2036 10.2919 14.1151 9.88624C13.2861 9.65595 12.4188 9.53532 11.5576 9.40759C11.609 9.3254 11.6604 9.24321 11.7133 9.15853C13.0685 8.86005 14.4293 8.90223 15.6048 9.53212Z" fill="#606B2F"/>
<path d="M64.6385 3.05664C65.1054 3.18117 65.1054 3.18117 65.407 3.43022C65.7326 3.72439 65.7326 3.72439 66.3507 3.80381C66.3507 4.99554 66.3507 6.18727 66.3507 7.41512C65.7857 7.41512 65.2206 7.41512 64.6385 7.41512C64.6346 7.30833 64.6307 7.20154 64.6266 7.09152C64.6118 6.69418 64.5964 6.29687 64.5805 5.89956C64.5738 5.72782 64.5673 5.55606 64.5611 5.3843C64.552 5.137 64.5421 4.88971 64.5321 4.64243C64.5264 4.49374 64.5206 4.34505 64.5148 4.19186C64.5006 3.81682 64.5006 3.81682 64.3824 3.5179C64.3642 3.44788 64.3459 3.37785 64.3271 3.3057C64.4299 3.22351 64.5326 3.14132 64.6385 3.05664Z" fill="#606B2F"/>
<path d="M124.723 35.683C125.014 35.7117 125.014 35.7117 125.346 35.8075C125.532 36.0473 125.532 36.0473 125.676 36.3445C125.725 36.4417 125.774 36.5388 125.824 36.6388C125.871 36.7343 125.919 36.8299 125.968 36.9283C126.186 37.3345 126.263 37.4173 126.747 37.6754C126.723 38.0076 126.677 38.2288 126.378 38.4693C126.14 38.6223 125.899 38.7716 125.657 38.9207C125.606 39.0029 125.554 39.0851 125.501 39.1698C125.122 39.1231 125.122 39.1231 124.723 39.0452C124.167 38.1548 124.601 36.6496 124.723 35.683Z" fill="#606B2F"/>
<path d="M66.5066 12.5208C66.558 12.5208 66.6093 12.5208 66.6623 12.5208C66.842 13.1669 66.8477 13.7836 66.8471 14.4432C66.8471 14.5653 66.8471 14.6873 66.8471 14.8131C66.8377 15.7732 66.717 16.6807 66.5066 17.6264C66.4724 17.8286 66.4397 18.0309 66.4093 18.2335C66.3901 18.3619 66.3708 18.4903 66.351 18.6226C65.9595 18.3094 65.9997 18.2038 65.9983 17.7709C65.9979 17.6486 65.9975 17.5264 65.9971 17.4004C65.9983 17.2721 65.9995 17.1438 66.0007 17.0115C65.9989 16.8255 65.9989 16.8255 65.9971 16.6358C65.9995 15.8843 66.0914 15.1847 66.2768 14.4484C66.3729 14.0483 66.4155 13.6509 66.4482 13.2446C66.4599 13.1067 66.4715 12.9688 66.4835 12.8267C66.4911 12.7258 66.4988 12.6248 66.5066 12.5208Z" fill="#FAF5ED"/>
<path d="M59.501 4.30188C59.8862 4.36352 59.8862 4.36352 60.2793 4.42641C60.4621 5.55176 60.6357 6.6513 60.5906 7.78866C60.5392 7.78866 60.4879 7.78866 60.4349 7.78866C60.4349 7.501 60.4349 7.21334 60.4349 6.91697C60.3322 6.91697 60.2295 6.91697 60.1236 6.91697C60.0722 7.61557 60.0209 8.31417 59.968 9.03394C59.9166 9.03394 59.8652 9.03394 59.8123 9.03394C59.8123 7.51346 59.8123 5.99297 59.8123 4.42641C59.7096 4.38531 59.6068 4.34422 59.501 4.30188Z" fill="#606B2F"/>
<path d="M8.13312 12.6454C7.9361 12.7888 7.73809 12.9313 7.53967 13.0734C7.42951 13.1529 7.31935 13.2324 7.20585 13.3142C6.68637 13.6456 6.25439 13.656 5.61337 13.6494C5.40298 13.6477 5.40298 13.6477 5.18835 13.646C5.0814 13.6445 4.97445 13.6431 4.86426 13.6416C4.9129 13.4081 4.9129 13.4081 5.01992 13.1435C5.55438 12.8584 6.04603 12.7792 6.66408 12.6843C6.82405 12.6577 6.82405 12.6577 6.98726 12.6305C7.78236 12.5051 7.78236 12.5051 8.13312 12.6454Z" fill="#FAF5ED"/>
<path d="M17.1619 12.5208C17.316 12.5618 17.4701 12.6029 17.6289 12.6453C17.6953 13.6967 17.7276 14.4832 17.0062 15.3849C16.698 15.3438 16.3898 15.3027 16.0723 15.2604C16.2279 15.0113 16.2279 15.0113 16.5392 14.6377C16.8973 13.9428 17.0771 13.267 17.1619 12.5208Z" fill="#606B2F"/>
<path d="M126.591 14.6378C126.745 14.6789 126.899 14.72 127.058 14.7623C127.011 15.2068 126.946 15.3531 126.522 15.6574C126.325 15.7691 126.325 15.7691 126.124 15.8831C126.021 15.9653 125.918 16.0475 125.812 16.1322C125.71 16.1322 125.607 16.1322 125.501 16.1322C125.716 15.7749 125.956 15.4397 126.221 15.1048C126.29 15.0168 126.36 14.9289 126.431 14.8382C126.484 14.7721 126.536 14.706 126.591 14.6378Z" fill="#FAF5ED"/>
<path d="M51.4066 3.18115C51.4596 3.28517 51.4596 3.28517 51.5137 3.39129C51.7156 3.70693 51.7156 3.70693 52.1266 3.99837C52.4963 4.3019 52.4963 4.3019 52.4963 4.67549C51.5215 4.4015 51.5215 4.4015 51.251 4.05285C51.2996 3.59365 51.2996 3.59365 51.4066 3.18115Z" fill="#FAF5ED"/>
<path d="M66.0392 16.6301C66.1933 16.6712 66.3474 16.7123 66.5062 16.7547C66.4548 17.3711 66.4034 17.9875 66.3505 18.6226C66.0392 18.3735 66.0392 18.3735 66.0088 17.9678C66.0124 17.8089 66.016 17.65 66.0197 17.4863C66.0225 17.3267 66.0254 17.1671 66.0282 17.0027C66.0319 16.8798 66.0355 16.7568 66.0392 16.6301Z" fill="#FAF5ED"/>
<path d="M5.4871 7.41516C6.05215 7.70282 6.61719 7.99048 7.19936 8.28686C7.148 8.36905 7.09663 8.45123 7.0437 8.53591C6.37317 8.34085 5.78882 8.07723 5.17578 7.78874C5.27852 7.74765 5.38125 7.70656 5.4871 7.66422C5.4871 7.58203 5.4871 7.49984 5.4871 7.41516Z" fill="#606B2F"/>
<path d="M49.2279 20.864C49.6902 21.1106 49.6902 21.1106 50.1619 21.3621C50.1105 21.5265 50.0592 21.6909 50.0062 21.8602C49.2633 21.5555 49.2633 21.5555 49.0917 21.222C49.0853 21.145 49.0789 21.0679 49.0723 20.9885C49.1236 20.9474 49.175 20.9064 49.2279 20.864Z" fill="#FAF5ED"/>
<path d="M23.6992 7.66418C23.8019 7.70528 23.9047 7.74637 24.0105 7.78871C23.8925 7.87443 23.8925 7.87443 23.7721 7.96188C23.671 8.03829 23.5699 8.1147 23.4657 8.19343C23.3646 8.26855 23.2634 8.34368 23.1592 8.42108C22.8562 8.67434 22.8562 8.67434 22.9209 9.15852C22.664 9.19961 22.4072 9.24071 22.1426 9.28305C22.3659 8.88345 22.6434 8.58842 23.0084 8.26348C23.105 8.17695 23.2015 8.09043 23.3009 8.00129C23.4312 7.8871 23.5625 7.77351 23.6992 7.66418Z" fill="#FAF5ED"/>
<path d="M14.515 4.67542C14.6691 4.7576 14.8232 4.83979 14.982 4.92447C14.6738 5.25323 14.3656 5.58198 14.048 5.9207C13.8939 5.79741 13.7398 5.67413 13.5811 5.54711C13.8893 5.25945 14.1975 4.97179 14.515 4.67542Z" fill="#FAF5ED"/>
<path d="M130.949 10.0302C131.155 10.0712 131.36 10.1123 131.572 10.1547C130.871 10.8863 130.871 10.8863 130.171 11.0264C130.428 10.6976 130.685 10.3689 130.949 10.0302Z" fill="#FAF5ED"/>
<path d="M113.049 41.9093C112.776 42.3918 112.776 42.3918 112.426 42.5319C112.426 42.4498 112.426 42.3676 112.426 42.2829C112.272 42.324 112.118 42.3651 111.959 42.4074C112.01 42.2841 112.062 42.1608 112.115 42.0338C112.426 41.9093 112.426 41.9093 113.049 41.9093Z" fill="#FAF5ED"/>
</svg>
