<svg width="204" height="49" viewBox="0 0 204 49" fill="none" xmlns="http://www.w3.org/2000/svg">
<path d="M184.515 3.56433C186.495 3.56433 188.475 3.56433 190.515 3.56433C190.515 15.3029 190.515 27.0415 190.515 39.1358C192.778 39.1358 195.041 39.1358 197.372 39.1358C197.372 40.9743 197.372 42.8129 197.372 44.7072C191.149 44.7072 184.926 44.7072 178.515 44.7072C178.006 43.1813 178.045 41.948 178.06 40.3411C178.063 39.7958 178.067 39.2506 178.071 38.6888C178.076 38.2706 178.081 37.8524 178.086 37.4215C176.531 37.4215 174.975 37.4215 173.372 37.4215C173.231 39.8258 173.089 42.23 172.943 44.7072C171.105 44.7072 169.266 44.7072 167.372 44.7072C167.544 40.1298 167.917 35.5973 168.443 31.0465C168.499 30.5601 168.555 30.0737 168.613 29.5726C169.03 26.0696 169.03 26.0696 169.307 24.9953C169.568 23.9178 169.647 22.8691 169.729 21.7635C169.765 21.3108 169.8 20.8581 169.836 20.3916C169.908 19.4396 169.979 18.4876 170.051 17.5356C170.086 17.0834 170.121 16.6312 170.158 16.1653C170.189 15.7521 170.22 15.3388 170.252 14.913C170.372 13.85 170.372 13.85 170.801 12.5643C170.891 11.8993 170.966 11.232 171.03 10.5638C171.086 9.98991 171.086 9.98991 171.143 9.40445C171.18 9.00641 171.218 8.60837 171.256 8.19826C171.295 7.79524 171.334 7.39223 171.374 6.977C171.47 5.98243 171.564 4.98768 171.658 3.9929C174.345 3.9929 177.032 3.9929 179.801 3.9929C180.427 7.19421 180.847 10.3309 181.086 13.5822C181.351 17.1454 181.826 20.5874 182.372 24.1358C182.938 30.0758 183.503 36.0158 184.086 42.1358C184.228 29.4072 184.369 16.6786 184.515 3.56433Z" fill="#FAF5ED"/>
<path d="M108.149 3.83214C108.852 3.80811 108.852 3.80811 109.57 3.78359C113.042 3.7455 113.042 3.7455 114.744 5.02076C115.981 6.80834 116.012 8.07563 116.02 10.1967C116.024 10.6923 116.024 10.6923 116.028 11.1979C116.037 12.294 116.042 13.39 116.046 14.4862C116.048 14.8604 116.049 15.2347 116.051 15.6203C116.06 17.6018 116.066 19.5832 116.07 21.5647C116.075 23.6102 116.09 25.6555 116.107 27.7009C116.118 29.2745 116.122 30.8481 116.123 32.4217C116.125 33.1756 116.13 33.9295 116.138 34.6833C116.149 35.74 116.148 36.7962 116.145 37.8529C116.151 38.1629 116.156 38.4729 116.162 38.7923C116.14 40.9579 115.583 42.1783 114.23 43.85C112.998 44.7046 112.014 44.8136 110.533 44.8059C109.973 44.8047 109.973 44.8047 109.401 44.8034C109.015 44.7982 108.628 44.7929 108.23 44.7875C107.843 44.7872 107.456 44.7869 107.058 44.7867C103.326 44.7618 103.326 44.7618 102.23 44.2786C100.605 42.2994 100.266 40.7135 100.293 38.2232C100.29 37.8835 100.287 37.5438 100.284 37.1938C100.277 36.077 100.282 34.9607 100.288 33.8439C100.286 33.0648 100.285 32.2857 100.283 31.5066C100.28 29.8764 100.284 28.2464 100.292 26.6162C100.302 24.5284 100.296 22.441 100.286 20.3532C100.279 18.7454 100.281 17.1377 100.286 15.5299C100.287 14.7601 100.286 13.9903 100.282 13.2206C100.277 12.1444 100.284 11.0689 100.293 9.99275C100.29 9.67588 100.287 9.35902 100.283 9.03255C100.317 6.95104 100.748 5.88191 102.23 4.42143C103.986 3.54326 106.219 3.85691 108.149 3.83214Z" fill="#FAF5ED"/>
<path d="M6.6582 3.99292C8.35535 3.99292 10.0525 3.99292 11.8011 3.99292C11.9618 4.45919 12.1226 4.92546 12.2882 5.40587C13.583 9.13324 14.9393 12.8021 16.5153 16.4215C17.4767 15.237 18.0659 14.1833 18.5527 12.7401C18.6801 12.3686 18.8074 11.9971 18.9386 11.6143C19.0671 11.2295 19.1955 10.8447 19.3278 10.4483C19.5869 9.68531 19.8464 8.92247 20.1063 8.15977C20.2193 7.82281 20.3323 7.48585 20.4488 7.13867C20.8211 6.07875 21.241 5.03598 21.6582 3.99292C23.3553 3.99292 25.0525 3.99292 26.8011 3.99292C26.8011 17.4286 26.8011 30.8643 26.8011 44.7072C24.8211 44.7072 22.8411 44.7072 20.8011 44.7072C20.6596 37.4944 20.5182 30.2815 20.3725 22.8501C19.3825 25.5372 18.3925 28.2243 17.3725 30.9929C16.9482 30.9929 16.5239 30.9929 16.0868 30.9929C15.8357 30.3773 15.586 29.7611 15.3368 29.1447C15.1279 28.6301 15.1279 28.6301 14.9149 28.1051C14.1293 26.0803 13.4004 24.034 12.6582 21.9929C12.5168 29.4886 12.3753 36.9843 12.2296 44.7072C10.3911 44.7072 8.55249 44.7072 6.6582 44.7072C6.6582 31.2715 6.6582 17.8358 6.6582 3.99292Z" fill="#FAF5ED"/>
<path d="M133.943 3.99292C146.372 3.99292 146.372 3.99292 148.515 5.27863C149.723 6.82881 149.511 8.75237 149.516 10.6324C149.519 10.9854 149.522 11.3383 149.525 11.702C149.529 12.4476 149.531 13.1933 149.531 13.939C149.533 15.0754 149.548 16.211 149.564 17.3473C149.567 18.0733 149.569 18.7993 149.569 19.5253C149.576 19.8629 149.582 20.2004 149.588 20.5483C149.57 22.7739 149.184 24.1157 147.658 25.8501C147.233 25.8501 146.809 25.8501 146.372 25.8501C146.428 26.0953 146.484 26.3405 146.541 26.5932C147.104 29.0602 147.664 31.5277 148.223 33.9954C148.493 35.1847 148.766 36.3735 149.039 37.5621C149.195 38.2474 149.35 38.9326 149.506 39.6179C149.579 39.9344 149.653 40.2509 149.728 40.577C150.051 42.0067 150.229 43.2313 150.229 44.7072C148.249 44.7072 146.269 44.7072 144.229 44.7072C143.11 41.0021 142.206 37.368 141.534 33.5577C141.176 31.5543 140.771 29.5598 140.372 27.5643C140.231 33.2215 140.089 38.8786 139.943 44.7072C137.963 44.7072 135.983 44.7072 133.943 44.7072C133.943 31.2715 133.943 17.8358 133.943 3.99292Z" fill="#FAF5ED"/>
<path d="M42.2295 3.99292C44.0681 3.99292 45.9066 3.99292 47.8009 3.99292C48.87 7.31891 49.8291 10.6533 50.6938 14.0376C50.7892 14.4026 50.8846 14.7676 50.9829 15.1437C51.4597 17.042 51.7737 18.7325 51.6581 20.7072C51.9409 20.7072 52.2238 20.7072 52.5152 20.7072C52.5152 15.1915 52.5152 9.67578 52.5152 3.99292C54.3538 3.99292 56.1923 3.99292 58.0866 3.99292C58.0866 17.4286 58.0866 30.8643 58.0866 44.7072C56.5309 44.7072 54.9752 44.7072 53.3723 44.7072C53.224 44.1379 53.224 44.1379 53.0727 43.5571C52.1361 39.9941 52.1361 39.9941 51.1123 36.4555C51.0204 36.1516 50.9285 35.8478 50.8339 35.5347C50.6597 34.9633 50.4831 34.3927 50.3034 33.8231C49.3685 30.7529 48.8703 27.7685 48.2295 24.5643C48.0881 31.2115 47.9466 37.8586 47.8009 44.7072C45.9623 44.7072 44.1238 44.7072 42.2295 44.7072C42.2295 31.2715 42.2295 17.8358 42.2295 3.99292Z" fill="#FAF5ED"/>
<path d="M150.658 3.99292C152.497 3.99292 154.335 3.99292 156.23 3.99292C157.053 5.9923 157.661 7.93466 158.131 10.0465C158.815 13.0559 159.668 16.0255 160.515 18.9929C160.657 14.0429 160.798 9.09292 160.944 3.99292C162.782 3.99292 164.621 3.99292 166.515 3.99292C166.515 17.4286 166.515 30.8643 166.515 44.7072C164.96 44.7072 163.404 44.7072 161.801 44.7072C161.659 44.1345 161.659 44.1345 161.514 43.5503C161.153 42.1004 160.792 40.6507 160.43 39.201C160.276 38.5798 160.121 37.9585 159.967 37.3373C159.742 36.4316 159.516 35.5262 159.29 34.6207C159.155 34.0798 159.021 33.5389 158.882 32.9817C158.162 30.1704 157.406 27.3684 156.658 24.5643C156.517 31.2115 156.375 37.8586 156.23 44.7072C154.391 44.7072 152.552 44.7072 150.658 44.7072C150.658 31.2715 150.658 17.8358 150.658 3.99292Z" fill="#FAF5ED"/>
<path d="M117.229 3.99292C119.209 3.99292 121.189 3.99292 123.229 3.99292C123.37 15.4486 123.512 26.9043 123.658 38.7072C125.143 38.9193 125.143 38.9193 126.658 39.1358C126.658 27.5386 126.658 15.9415 126.658 3.99292C128.638 3.99292 130.618 3.99292 132.658 3.99292C132.677 8.81736 132.693 13.6418 132.702 18.4663C132.707 20.7065 132.713 22.9466 132.722 25.1868C132.732 27.3487 132.737 29.5106 132.739 31.6725C132.741 32.4973 132.744 33.3221 132.748 34.1469C132.754 35.3022 132.755 36.4574 132.755 37.6127C132.758 37.9536 132.761 38.2945 132.764 38.6458C132.758 40.4234 132.643 41.84 131.8 43.4215C129.866 45.2075 127.42 44.8971 124.943 44.8679C124.31 44.8754 124.31 44.8754 123.664 44.883C119.651 44.8667 119.651 44.8667 118.086 43.4215C117.082 41.5369 117.113 39.6959 117.132 37.6127C117.132 37.2487 117.131 36.8847 117.131 36.5097C117.132 35.3108 117.139 34.112 117.145 32.9131C117.147 32.0802 117.148 31.2473 117.149 30.4144C117.152 28.2254 117.161 26.0363 117.17 23.8473C117.179 21.6122 117.183 19.3772 117.187 17.1422C117.196 12.7591 117.211 8.376 117.229 3.99292Z" fill="#FAF5ED"/>
<path d="M69.8183 3.88572C70.2238 3.87688 70.6293 3.86804 71.0471 3.85894C74.8853 3.83737 74.8853 3.83737 76.5147 5.27858C77.308 6.57209 77.4749 7.52839 77.4556 9.03527C77.4528 9.41647 77.4501 9.79766 77.4472 10.1904C77.44 10.5849 77.4329 10.9793 77.4255 11.3857C77.4216 11.7868 77.4177 12.1879 77.4137 12.6011C77.4037 13.5889 77.3883 14.5766 77.3719 15.5643C75.3919 15.5643 73.4119 15.5643 71.3719 15.5643C71.3719 13.5843 71.3719 11.6043 71.3719 9.56429C70.2405 9.56429 69.109 9.56429 67.9433 9.56429C67.7674 15.5799 67.7674 15.5799 70.7726 20.5766C71.1118 20.9025 71.451 21.2285 71.8005 21.5643C72.5638 22.3906 73.3226 23.2211 74.0772 24.0554C74.4292 24.4294 74.7811 24.8034 75.1436 25.1887C76.9271 27.2509 77.5349 28.6142 77.5426 31.3679C77.5451 32.2131 77.5451 32.2131 77.5477 33.0755C77.545 33.3669 77.5423 33.6583 77.5395 33.9585C77.5326 34.8475 77.5394 35.7356 77.5477 36.6246C77.546 37.1881 77.5443 37.7516 77.5426 38.3321C77.5412 38.8459 77.5397 39.3597 77.5382 39.8891C77.3089 41.8043 76.6482 42.9319 75.2039 44.1898C73.3472 44.9518 71.6171 44.8769 69.6308 44.8411C69.246 44.8425 68.8612 44.8438 68.4648 44.8453C66.5986 44.83 65.3063 44.7943 63.6576 43.85C63.6576 43.5671 63.6576 43.2843 63.6576 42.9929C63.3747 42.9929 63.0919 42.9929 62.8005 42.9929C62.0624 41.7109 61.8397 40.8042 61.8596 39.3299C61.8624 38.9681 61.8651 38.6062 61.868 38.2334C61.8752 37.8594 61.8823 37.4854 61.8897 37.1C61.8936 36.7194 61.8975 36.3387 61.9015 35.9465C61.9115 35.0096 61.9269 34.0726 61.9433 33.1357C63.9233 33.1357 65.9033 33.1357 67.9433 33.1357C67.9433 35.1157 67.9433 37.0957 67.9433 39.1357C69.0747 39.1357 70.2062 39.1357 71.3719 39.1357C71.6878 33.5668 71.6878 33.5668 69.3897 28.7696C68.774 28.2145 68.1491 27.6694 67.5147 27.1357C66.9775 26.5469 66.4502 25.9488 65.9344 25.3411C65.7117 25.0875 65.4891 24.8339 65.2597 24.5727C65.0139 24.287 64.768 24.0014 64.5147 23.7071C64.1514 23.3344 63.788 22.9616 63.4136 22.5775C62.1746 21.0811 62.0663 19.6666 62.1024 17.7724C62.1013 17.4577 62.1003 17.143 62.0992 16.8188C62.0996 16.1571 62.1053 15.4954 62.1161 14.8339C62.1308 13.8243 62.1249 12.8164 62.1166 11.8068C62.1195 11.1614 62.1237 10.516 62.1291 9.87065C62.127 9.57105 62.1249 9.27144 62.1227 8.96276C62.1717 6.91666 62.6156 5.84301 64.0862 4.42144C65.9814 3.78968 67.8329 3.89645 69.8183 3.88572Z" fill="#FAF5ED"/>
<path d="M28.0869 3.99292C32.3298 3.99292 36.5726 3.99292 40.9441 3.99292C40.9441 5.69006 40.9441 7.38721 40.9441 9.13578C38.6812 9.13578 36.4183 9.13578 34.0869 9.13578C34.0869 13.0958 34.0869 17.0558 34.0869 21.1358C35.9255 21.1358 37.7641 21.1358 39.6583 21.1358C39.6583 22.9743 39.6583 24.8129 39.6583 26.7072C37.9612 26.7072 36.2641 26.7072 34.5155 26.7072C34.5155 30.8086 34.5155 34.9101 34.5155 39.1358C36.6369 39.1358 38.7583 39.1358 40.9441 39.1358C40.9441 40.9743 40.9441 42.8129 40.9441 44.7072C36.7012 44.7072 32.4583 44.7072 28.0869 44.7072C28.0869 31.2715 28.0869 17.8358 28.0869 3.99292Z" fill="#FAF5ED"/>
<path d="M92.8007 3.99292C94.7807 3.99292 96.7607 3.99292 98.8007 3.99292C98.8305 8.87323 98.8533 13.7535 98.8673 18.6339C98.874 20.9001 98.8831 23.1661 98.8977 25.4323C98.9116 27.6192 98.9193 29.8061 98.9226 31.993C98.925 32.8274 98.9297 33.6618 98.9366 34.4961C98.9459 35.6648 98.9472 36.8332 98.9466 38.0019C98.9512 38.3468 98.9559 38.6918 98.9606 39.0472C98.9498 41.0088 98.7513 42.2994 97.5149 43.8501C95.3427 45.0312 93.0713 44.8962 90.6578 44.9215C90.2357 44.9392 89.8137 44.9569 89.3788 44.9751C87.3176 44.9973 86.2752 44.9534 84.5858 43.6994C83.342 41.8082 83.5709 39.6516 83.6667 37.4751C83.6764 37.0574 83.6861 36.6398 83.696 36.2094C83.7211 35.1846 83.7596 34.1601 83.8007 33.1358C85.6392 33.1358 87.4778 33.1358 89.3721 33.1358C89.3721 35.1158 89.3721 37.0958 89.3721 39.1358C90.5035 39.1358 91.6349 39.1358 92.8007 39.1358C92.8007 27.5386 92.8007 15.9415 92.8007 3.99292Z" fill="#FAF5ED"/>
<path d="M184.943 3.99292C186.782 3.99292 188.621 3.99292 190.515 3.99292C190.656 15.5901 190.798 27.1872 190.943 39.1358C193.913 39.3479 193.913 39.3479 196.943 39.5643C196.943 41.1201 196.943 42.6758 196.943 44.2786C192.983 44.2786 189.023 44.2786 184.943 44.2786C184.943 30.9843 184.943 17.6901 184.943 3.99292Z" fill="#FAF5ED"/>
<path d="M41.8013 9.13574C41.8112 12.984 41.8189 16.8322 41.8235 20.6804C41.8258 22.4672 41.8288 24.2539 41.8337 26.0406C41.8383 27.7634 41.8409 29.4863 41.842 31.2091C41.8428 31.8679 41.8443 32.5266 41.8467 33.1854C41.8497 34.1049 41.8502 35.0244 41.85 35.944C41.8509 36.4683 41.8519 36.9927 41.8529 37.533C41.8013 38.7072 41.8013 38.7072 41.3728 39.1357C40.2162 39.1671 39.0735 39.1753 37.9174 39.1625C36.7948 39.1537 35.6722 39.1448 34.5156 39.1357C34.5156 35.0343 34.5156 30.9329 34.5156 26.7072C36.2128 26.7072 37.9099 26.7072 39.6585 26.7072C39.6585 24.8686 39.6585 23.03 39.6585 21.1357C37.9613 21.1357 36.2642 21.1357 34.5156 21.1357C34.5156 17.3172 34.5156 13.4986 34.5156 9.56431C36.1995 9.45824 36.1995 9.45824 37.9174 9.35003C38.2715 9.32765 38.6256 9.30528 38.9904 9.28223C41.3251 9.13574 41.3251 9.13574 41.8013 9.13574Z" fill="#606B2F"/>
<path d="M106.516 9.56433C107.647 9.56433 108.778 9.56433 109.944 9.56433C109.944 19.3229 109.944 29.0815 109.944 39.1358C108.813 39.1358 107.681 39.1358 106.516 39.1358C106.516 29.3772 106.516 19.6186 106.516 9.56433Z" fill="#606B2F"/>
<path d="M139.943 9.56433C141.075 9.56433 142.206 9.56433 143.372 9.56433C143.384 11.4125 143.392 13.2607 143.399 15.109C143.402 15.6368 143.406 16.1647 143.41 16.7086C143.411 17.2099 143.412 17.7113 143.414 18.2278C143.416 18.6924 143.418 19.157 143.421 19.6357C143.372 20.7072 143.372 20.7072 142.943 21.1358C141.953 21.1358 140.963 21.1358 139.943 21.1358C139.943 17.3172 139.943 13.4986 139.943 9.56433Z" fill="#606B2F"/>
<path d="M175.515 12.9929C175.656 12.9929 175.798 12.9929 175.944 12.9929C176.467 15.645 176.525 18.2955 176.632 20.9885C176.717 22.9338 176.902 24.7856 177.229 26.7072C177.257 27.6175 177.266 28.5286 177.256 29.4393C177.252 29.8935 177.248 30.3476 177.244 30.8155C177.239 31.1569 177.234 31.4983 177.229 31.8501C176.098 31.8501 174.966 31.8501 173.801 31.8501C173.915 30.121 174.029 28.392 174.143 26.6629C174.182 26.0774 174.221 25.4919 174.259 24.9064C174.389 22.935 174.523 20.9639 174.658 18.9929C174.712 18.1753 174.712 18.1753 174.767 17.3412C174.802 16.8361 174.838 16.3309 174.874 15.8104C174.92 15.134 174.92 15.134 174.967 14.4438C175.086 13.4215 175.086 13.4215 175.515 12.9929Z" fill="#606B2F"/>
<path d="M184.515 3.56433C186.495 3.56433 188.475 3.56433 190.515 3.56433C190.515 3.70576 190.515 3.84719 190.515 3.9929C188.676 3.9929 186.838 3.9929 184.943 3.9929C184.943 17.2872 184.943 30.5815 184.943 44.2786C188.903 44.2786 192.863 44.2786 196.943 44.2786C196.943 42.7229 196.943 41.1672 196.943 39.5643C194.963 39.5643 192.983 39.5643 190.943 39.5643C190.943 39.4229 190.943 39.2815 190.943 39.1358C193.065 39.1358 195.186 39.1358 197.372 39.1358C197.372 40.9743 197.372 42.8129 197.372 44.7072C191.149 44.7072 184.926 44.7072 178.515 44.7072C178.103 43.472 178.041 42.6935 178.059 41.4125C178.063 41.0662 178.067 40.7198 178.071 40.3629C178.076 40.0994 178.081 39.8358 178.086 39.5643C178.228 39.5643 176.869 39.5643 177.015 39.5643C177.156 41.12 177.512 42.6758 177.658 44.2786C179.213 44.2786 182.055 44.2786 183.658 44.2786C184.086 44.2786 184.086 44.2786 184.086 42.9929C184.086 42.7786 184.086 42.35 184.086 42.1358C184.228 29.4072 184.369 16.6786 184.515 3.56433Z" fill="#606B2F"/>
<path d="M166.515 3.99292C166.657 3.99292 166.798 3.99292 166.944 3.99292C166.944 15.0243 166.944 26.0558 166.944 37.4215C167.227 37.4215 167.509 37.4215 167.801 37.4215C167.853 39.8976 167.729 42.2556 167.372 44.7072C169.211 44.7072 171.049 44.7072 172.944 44.7072C172.944 44.8486 172.944 44.9901 172.944 45.1358C169.408 45.1358 165.872 45.1358 162.229 45.1358C162.229 44.9944 162.229 44.8529 162.229 44.7072C163.644 44.7072 165.058 44.7072 166.515 44.7072C166.515 31.2715 166.515 17.8358 166.515 3.99292Z" fill="#606B2F"/>
<path d="M58.9434 3.99292C59.9334 3.99292 60.9234 3.99292 61.9434 3.99292C62.0104 6.16285 61.7838 8.06606 61.3005 10.1804C61.1812 10.7102 61.0618 11.24 60.9389 11.7859C60.8461 12.1842 60.7533 12.5825 60.6576 12.9929C60.0919 12.9929 59.5262 12.9929 58.9434 12.9929C58.9434 10.0229 58.9434 7.05292 58.9434 3.99292Z" fill="#FAF5ED"/>
<path d="M121.516 3.99292C122.081 3.99292 122.647 3.99292 123.23 3.99292C123.371 15.4486 123.513 26.9043 123.658 38.7072C124.507 38.8486 125.356 38.9901 126.23 39.1358C124.623 40.4215 124.623 40.4215 123.658 40.4215C123.658 40.8458 123.658 41.2701 123.658 41.7072C123.093 41.5658 122.527 41.4244 121.944 41.2786C122.013 40.8548 122.082 40.4309 122.153 39.9942C122.397 38.2744 122.447 36.5651 122.461 34.8301C122.465 34.4994 122.469 34.1687 122.474 33.8281C122.487 32.7452 122.498 31.6623 122.508 30.5794C122.517 29.8246 122.526 29.0698 122.535 28.315C122.559 26.336 122.58 24.3569 122.601 22.3778C122.622 20.3552 122.646 18.3327 122.67 16.3102C122.716 12.3473 122.759 8.3844 122.801 4.42149C122.377 4.28006 121.953 4.13863 121.516 3.99292Z" fill="#FAF5ED"/>
<path d="M58.515 3.99292C58.6564 3.99292 58.7978 3.99292 58.9435 3.99292C58.9435 6.96292 58.9435 9.93292 58.9435 12.9929C59.5092 12.9929 60.075 12.9929 60.6578 12.9929C60.7992 12.5686 60.9407 12.1443 61.0864 11.7072C61.2278 12.2729 61.3692 12.8386 61.515 13.4215C60.2292 13.8501 60.2292 13.8501 58.515 13.4215C58.515 23.6043 58.515 33.7872 58.515 44.2786C58.3735 44.2786 58.2321 44.2786 58.0864 44.2786C58.0764 39.9752 58.0688 35.6718 58.0642 31.3684C58.062 29.3696 58.0589 27.3707 58.0541 25.3718C58.0494 23.4377 58.0468 21.5037 58.0457 19.5696C58.0449 18.8368 58.0434 18.1041 58.0411 17.3714C58.0274 12.8907 58.1481 8.46009 58.515 3.99292Z" fill="#606B2F"/>
<path d="M166.515 36.1357C166.657 36.56 166.798 36.9843 166.944 37.4215C167.227 37.4215 167.509 37.4215 167.801 37.4215C167.853 39.8976 167.729 42.2556 167.372 44.7072C169.211 44.7072 171.049 44.7072 172.944 44.7072C172.944 44.8486 172.944 44.99 172.944 45.1357C169.408 45.1357 165.872 45.1357 162.229 45.1357C162.229 44.9943 162.229 44.8529 162.229 44.7072C163.644 44.7072 165.058 44.7072 166.515 44.7072C166.515 41.8786 166.515 39.05 166.515 36.1357Z" fill="#606B2F"/>
<path d="M164.801 3.99292C165.366 3.99292 165.932 3.99292 166.515 3.99292C166.515 7.10435 166.515 10.2158 166.515 13.4215C166.374 13.4215 166.232 13.4215 166.086 13.4215C166.086 11.0172 166.086 8.61292 166.086 6.13578C165.804 6.13578 165.521 6.13578 165.229 6.13578C165.088 5.42863 164.946 4.72149 164.801 3.99292Z" fill="#FAF5ED"/>
<path d="M149.372 41.2786C150.129 42.602 150.229 43.0928 150.229 44.7071C148.249 44.7071 146.269 44.7071 144.229 44.7071C144.229 44.5657 144.229 44.4243 144.229 44.2786C146.775 44.0664 146.775 44.0664 149.372 43.85C149.231 43.2843 149.089 42.7186 148.944 42.1357C149.085 41.8529 149.227 41.57 149.372 41.2786Z" fill="#FAF5ED"/>
<path d="M67.9441 17.2786C68.6512 17.9857 69.3583 18.6929 70.0869 19.4214C69.2383 19.8457 69.2383 19.8457 68.3726 20.2786C67.9483 19.8543 67.5241 19.43 67.0869 18.9929C67.3698 18.4271 67.6526 17.8614 67.9441 17.2786Z" fill="#FAF5ED"/>
<path d="M17.3726 15.5643C17.6555 15.5643 17.9383 15.5643 18.2298 15.5643C18.3712 15.9886 18.5126 16.4129 18.6583 16.85C18.0958 17.4929 18.0958 17.4929 17.3726 18.1358C16.9483 18.1358 16.5241 18.1358 16.0869 18.1358C16.3327 16.9069 16.4561 16.4809 17.3726 15.5643Z" fill="#FAF5ED"/>
<path d="M19.0865 23.7072C19.3694 23.8486 19.6522 23.99 19.9436 24.1357C19.6608 24.9843 19.3779 25.8329 19.0865 26.7072C18.6622 26.7072 18.2379 26.7072 17.8008 26.7072C18.6044 24.1893 18.6044 24.1893 19.0865 23.7072Z" fill="#FAF5ED"/>
</svg>
