<svg width="105" height="20" viewBox="0 0 105 20" fill="none" xmlns="http://www.w3.org/2000/svg">
<path d="M6.56583 1.09567C1.92583 2.77567 -0.87417 8.93567 0.96583 13.4157C2.72583 17.6557 5.28583 18.9357 11.8458 18.9357C15.0458 18.9357 17.9258 18.5357 18.1658 18.1357C18.4058 17.6557 18.7258 15.8957 18.7258 14.1357C18.7258 12.3757 18.9658 10.9357 19.2858 10.9357C19.5258 10.9357 20.7258 12.7757 21.9258 14.9357C23.8458 18.3757 24.4858 18.9357 26.5658 18.9357C29.0458 18.9357 29.4458 18.2157 29.9258 12.9357L30.1658 10.5357L31.6858 13.3357C32.4858 14.8557 33.6858 16.7757 34.4058 17.4957C35.9258 19.3357 39.2858 19.3357 39.9258 17.5757C40.8058 15.2557 40.4858 1.01567 39.5258 0.695667C38.8858 0.535667 38.5658 2.93567 38.4058 8.61567C38.2458 14.0557 37.8458 16.9357 37.2058 17.0957C36.6458 17.3357 34.5658 14.5357 32.4858 10.9357C30.4058 7.41567 28.4858 4.29567 28.1658 4.13567C27.8458 3.89567 27.6858 6.37567 27.7658 9.57567C28.0858 19.7357 26.7258 19.8957 21.2858 10.2957L17.3658 3.33567L16.9658 10.1357L16.5658 16.9357L12.0858 17.1757C8.16583 17.4157 7.20583 17.0957 5.04583 15.3357C0.00583002 11.0157 2.80583 2.93567 9.36583 2.93567C11.2858 2.93567 12.1658 2.61567 12.1658 1.73567C12.1658 0.535667 9.12583 0.215668 6.56583 1.09567Z" fill="#FAF5ED"/>
<path d="M14.7258 1.49574C14.1658 2.05574 13.7658 4.69574 13.7658 8.29574V14.1357H11.0458C7.8458 14.1357 5.7658 12.3757 5.7658 9.81574C5.7658 7.41574 7.2058 6.13574 9.9258 6.13574C11.3658 6.13574 12.1658 5.73574 12.1658 4.93574C12.1658 2.93574 7.6058 3.41574 5.3658 5.73574C2.8858 8.13574 2.8058 10.8557 5.0458 13.6557C6.5658 15.5757 7.2058 15.8157 11.2058 15.5757L15.6058 15.3357L15.4458 9.65574C15.2858 5.41574 15.6058 3.73574 16.4858 3.01574C17.7658 1.89574 17.3658 1.41574 23.0458 10.9357L26.1658 16.1357L26.4058 9.49574C26.7258 0.695741 28.0858 0.615741 32.8858 9.33574C34.8858 12.8557 36.6458 15.7357 36.8858 15.7357C37.1258 15.7357 37.2858 12.2957 37.1258 8.13574C36.8058 -0.0242596 35.3658 -2.50426 35.3658 5.09574V9.73574L33.0458 5.81574C29.8458 0.455741 27.8458 -0.664259 25.4458 1.73574C24.6458 2.53574 24.4058 3.89574 24.5658 5.73574C24.8058 7.25574 24.7258 8.53574 24.3258 8.53574C24.0058 8.53574 22.7258 6.77574 21.3658 4.69574C18.8858 0.855742 16.5658 -0.344259 14.7258 1.49574Z" fill="#FAF5ED"/>
<path d="M43.3662 1.33577C43.3662 1.73577 44.8062 2.13577 46.5662 2.13577H49.7662V10.4558C49.7662 15.1758 50.0862 19.0958 50.5662 19.3358C51.0462 19.6558 51.3662 16.6958 51.3662 11.0158V2.13577H54.5662C56.3262 2.13577 57.7662 1.73577 57.7662 1.33577C57.7662 0.855774 54.8062 0.535772 50.5662 0.535772C46.3262 0.535772 43.3662 0.855774 43.3662 1.33577Z" fill="#FAF5ED"/>
<path d="M102.565 10.1357C102.565 15.9757 102.885 19.7357 103.365 19.7357C103.845 19.7357 104.165 15.9757 104.165 10.1357C104.165 4.29572 103.845 0.535717 103.365 0.535717C102.885 0.535717 102.565 4.29572 102.565 10.1357Z" fill="#FAF5ED"/>
<path d="M61.7658 5.89567C61.1258 6.13567 59.8458 6.93567 59.0458 7.65567C57.6058 8.85567 57.5258 8.85567 58.0058 7.49567C58.3258 6.77567 58.1658 6.13567 57.7658 6.13567C57.2858 6.13567 56.9658 8.93567 56.9658 12.5357C56.9658 16.2957 57.2858 18.9357 57.7658 18.9357C58.2458 18.9357 58.5658 16.7757 58.5658 14.1357C58.5658 9.57567 58.7258 9.17567 60.9658 7.89567C62.2458 7.17567 63.3658 6.29567 63.3658 5.89567C63.3658 5.57567 63.2858 5.33567 63.2058 5.41567C63.0458 5.41567 62.4058 5.65567 61.7658 5.89567Z" fill="#FAF5ED"/>
<path d="M66.326 6.77575C65.526 7.57575 64.966 8.77575 64.966 9.41575C64.966 10.0557 65.446 9.81575 66.246 8.69575C67.766 6.45575 71.766 6.29575 72.886 8.37575C73.846 10.2157 72.566 11.7357 70.086 11.7357C69.046 11.7357 67.286 12.0557 66.166 12.5357C64.406 13.1757 64.086 13.7357 64.326 15.8957C64.646 19.3357 68.006 20.6957 71.286 18.8557C73.126 17.8157 73.606 17.7357 74.486 18.6957C75.046 19.3357 75.766 19.6557 76.006 19.3357C76.246 19.0957 76.006 18.4557 75.526 17.9757C74.966 17.4157 74.566 14.7757 74.566 11.9757C74.566 7.89575 74.326 6.85575 73.046 6.13575C70.646 4.93575 67.766 5.17575 66.326 6.77575ZM73.206 14.5357C72.646 17.1757 71.126 18.2957 68.406 17.9757C65.366 17.6557 65.126 14.0557 68.166 13.2557C72.406 12.0557 73.606 12.3757 73.206 14.5357Z" fill="#FAF5ED"/>
<path d="M90.7262 6.93573C86.9662 10.4557 88.1662 18.2957 92.5662 19.4157C95.4462 20.1357 98.4062 19.1757 99.4462 17.2557C100.646 14.9357 99.6062 14.2157 98.0862 16.3757C96.4862 18.7757 92.6462 18.6957 91.0462 16.3757C90.3262 15.4157 89.7662 14.2957 89.7662 13.9757C89.7662 13.5757 92.0862 13.3357 94.9662 13.3357C100.006 13.3357 100.166 13.2557 100.166 11.3357C100.166 8.77573 96.8062 5.33573 94.3262 5.33573C93.2862 5.33573 91.6862 6.05573 90.7262 6.93573ZM97.2862 8.21573C99.7662 10.6957 98.8862 11.7357 94.1662 11.7357C89.4462 11.7357 89.1262 11.4157 91.0462 8.69573C92.4862 6.61573 95.5262 6.37573 97.2862 8.21573Z" fill="#FAF5ED"/>
<path d="M77.0454 8.29567C77.5254 9.49567 78.6454 12.4557 79.5254 14.6957C80.4054 17.0157 81.5254 18.9357 82.0854 18.9357C82.7254 18.9357 84.0854 16.2957 85.2854 13.0157C87.6054 6.45567 87.6854 6.13567 86.7254 6.13567C86.4054 6.13567 85.2854 8.69567 84.2454 11.8157C83.2854 14.9357 82.3254 17.3357 82.0854 17.1757C81.9254 17.0157 80.9654 14.5357 79.8454 11.7357C78.8054 8.93567 77.5254 6.45567 77.0454 6.29567C76.4054 6.05567 76.4054 6.61567 77.0454 8.29567Z" fill="#FAF5ED"/>
</svg>
