<svg width="151" height="49" viewBox="0 0 151 49" fill="none" xmlns="http://www.w3.org/2000/svg">
<g clip-path="url(#clip0_695_25478)">
<path d="M0.529709 0.135742C42.0272 0.135742 83.5247 0.135742 126.28 0.135742C128.413 3.85434 128.413 3.85434 129.077 5.05702C129.232 5.3386 129.389 5.62009 129.545 5.90157C129.604 6.00795 129.604 6.00795 129.664 6.11648C130.134 6.96261 130.609 7.80661 131.084 8.65063C131.776 9.8797 132.467 11.1094 133.155 12.34C133.84 13.5663 134.528 14.7917 135.217 16.0166C135.749 16.9616 136.281 17.9067 136.81 18.8526C136.853 18.9298 136.896 19.007 136.941 19.0865C137.153 19.4652 137.364 19.844 137.575 20.2231C137.948 20.8928 138.325 21.5605 138.715 22.2236C138.813 22.3927 138.813 22.3927 138.914 22.5652C139.033 22.7706 139.155 22.9753 139.279 23.1792C139.331 23.269 139.383 23.3587 139.436 23.4512C139.482 23.5274 139.528 23.6035 139.574 23.682C139.786 24.3405 139.409 24.9255 139.068 25.5065C138.998 25.6297 138.998 25.6297 138.926 25.7554C138.771 26.0245 138.615 26.2928 138.459 26.5613C138.351 26.7504 138.242 26.9395 138.133 27.1288C137.968 27.4179 137.802 27.707 137.635 27.996C137.174 28.7969 136.722 29.601 136.274 30.4067C135.51 31.7788 134.737 33.1473 133.959 34.5145C133.247 35.7674 132.54 37.0219 131.842 38.2804C131.063 39.6858 130.272 41.0863 129.476 42.4854C128.769 43.7288 128.066 44.9735 127.363 46.2184C127.257 46.4049 127.152 46.5914 127.047 46.7778C126.791 47.2305 126.535 47.6831 126.28 48.1357C116.495 48.1392 106.711 48.1425 96.9265 48.1444C96.7816 48.1444 96.6367 48.1444 96.4875 48.1445C93.3392 48.1451 90.1909 48.1456 87.0426 48.1462C85.4986 48.1464 83.9547 48.1467 82.4107 48.147C82.257 48.147 82.1034 48.147 81.9451 48.147C76.9669 48.1479 71.9887 48.1494 67.0105 48.1513C61.8939 48.1532 56.7773 48.1545 51.6607 48.1549C50.9377 48.155 50.2147 48.155 49.4916 48.1551C49.2782 48.1551 49.2782 48.1551 49.0604 48.1552C46.7717 48.1554 44.4829 48.1563 42.1942 48.1576C39.8921 48.1588 37.59 48.1592 35.288 48.1589C33.921 48.1588 32.554 48.1592 31.187 48.1604C30.2726 48.1612 29.3583 48.1612 28.4439 48.1606C27.9237 48.1603 27.4035 48.1603 26.8833 48.1612C20.5306 48.1719 14.5098 47.3066 9.27971 44.1528C9.09723 44.0438 9.09723 44.0438 8.91106 43.9325C4.65827 41.2318 2.03692 37.3565 0.998459 33.0783C0.97012 32.9637 0.97012 32.9637 0.941208 32.8468C-1.47093 22.1221 0.529709 11.04 0.529709 0.135742Z" fill="#FAF5ED"/>
<path d="M129.404 0.135742C132.127 0.135742 134.849 0.135742 137.654 0.135742C138.917 2.45352 140.179 4.77156 141.425 7.09523C142.144 8.43605 142.867 9.77565 143.592 11.1145C144.412 12.629 145.229 14.1447 146.043 15.6614C146.579 16.6618 147.118 17.6618 147.659 18.6607C147.711 18.758 147.764 18.8552 147.818 18.9554C148.117 19.5073 148.416 20.059 148.716 20.6107C148.807 20.7797 148.898 20.949 148.989 21.1185C149.23 21.5701 149.478 22.0176 149.737 22.4624C149.845 22.6526 149.952 22.8428 150.06 23.0331C150.113 23.1197 150.165 23.2063 150.219 23.2955C150.467 23.7417 150.584 24.0314 150.397 24.5077C150.32 24.6575 150.239 24.806 150.154 24.9528C150.121 25.0177 150.087 25.0826 150.052 25.1494C149.952 25.3417 149.846 25.531 149.737 25.7203C149.698 25.7902 149.659 25.8601 149.618 25.9322C149.534 26.0815 149.449 26.2307 149.364 26.3799C149.137 26.7807 148.911 27.1823 148.685 27.5837C148.617 27.705 148.617 27.705 148.547 27.8287C148.147 28.5382 147.755 29.2502 147.365 29.9634C146.708 31.165 146.045 32.3645 145.381 33.5634C144.548 35.0659 143.718 36.5692 142.89 38.0736C142.117 39.4794 141.34 40.8839 140.561 42.2878C140.008 43.2848 139.457 44.2825 138.912 45.2821C138.862 45.3731 138.812 45.464 138.761 45.5577C138.524 45.9926 138.287 46.4277 138.05 46.863C137.966 47.0172 137.882 47.1713 137.798 47.3255C137.76 47.3962 137.721 47.467 137.682 47.5398C137.418 48.022 137.418 48.022 137.279 48.1357C137.038 48.1453 136.796 48.1477 136.554 48.1473C136.321 48.1473 136.321 48.1473 136.084 48.1473C135.913 48.1468 135.742 48.1463 135.572 48.1457C135.398 48.1455 135.225 48.1454 135.051 48.1453C134.593 48.1449 134.136 48.1439 133.678 48.1427C133.211 48.1417 132.745 48.1412 132.278 48.1407C131.362 48.1396 130.446 48.1379 129.529 48.1357C129.667 47.7894 129.807 47.4524 129.996 47.1225C130.037 47.0495 130.079 46.9764 130.122 46.9012C130.167 46.8235 130.211 46.7457 130.257 46.6657C130.305 46.5828 130.352 46.4999 130.4 46.4145C130.502 46.2364 130.604 46.0583 130.706 45.8802C130.978 45.4054 131.248 44.9301 131.519 44.4548C131.6 44.3112 131.6 44.3112 131.684 44.1647C132.162 43.3246 132.632 42.4819 133.1 41.6379C133.775 40.4184 134.459 39.2019 135.146 37.9868C135.861 36.7243 136.573 35.4608 137.279 34.1953C137.986 32.9299 138.698 31.6664 139.412 30.4038C140.141 29.1161 140.865 27.8271 141.584 26.5357C141.623 26.4649 141.663 26.3941 141.703 26.3211C141.815 26.1214 141.926 25.9217 142.037 25.7219C142.099 25.6098 142.161 25.4977 142.225 25.3822C142.314 25.2202 142.314 25.2202 142.404 25.0549C142.476 24.9379 142.548 24.8209 142.623 24.7004C142.859 24.1567 142.737 23.756 142.463 23.2412C142.382 23.1019 142.299 22.9632 142.216 22.8248C142.171 22.7489 142.127 22.673 142.081 22.5948C141.984 22.4315 141.888 22.2685 141.791 22.1056C141.53 21.6687 141.274 21.2302 141.017 20.7919C140.938 20.6586 140.938 20.6586 140.858 20.5226C140.38 19.7068 139.921 18.8842 139.467 18.0591C138.797 16.8437 138.106 15.6371 137.404 14.4336C136.7 13.2258 136.007 12.0148 135.334 10.7953C134.676 9.60453 134.003 8.42043 133.318 7.24C132.521 5.86622 131.733 4.48963 130.957 3.10762C130.766 2.76824 130.574 2.42936 130.382 2.09053C130.254 1.86447 130.126 1.63841 129.998 1.41234C129.938 1.30731 129.878 1.20229 129.817 1.09409C129.762 0.99795 129.708 0.901813 129.652 0.802763C129.604 0.718047 129.556 0.633331 129.507 0.546048C129.404 0.339997 129.404 0.339997 129.404 0.135742Z" fill="#FAF5ED"/>
<path d="M98.2246 17.1464C99.8001 18.3473 100.767 20.0727 101.154 21.7868C101.192 21.9466 101.192 21.9466 101.231 22.1096C101.407 22.9824 101.43 23.8462 101.436 24.7294C101.437 24.8483 101.438 24.9672 101.439 25.0897C101.439 25.201 101.438 25.3124 101.437 25.4271C101.437 25.5275 101.437 25.628 101.437 25.7314C101.404 25.9741 101.404 25.9741 101.154 26.1783C100.778 26.1976 100.413 26.204 100.036 26.2015C99.92 26.2015 99.8041 26.2016 99.6847 26.2016C99.3005 26.2014 98.9164 26.1999 98.5322 26.1983C98.2663 26.1979 98.0004 26.1976 97.7346 26.1974C97.0338 26.1966 96.3331 26.1946 95.6323 26.1923C94.9176 26.1902 94.203 26.1893 93.4883 26.1883C92.0853 26.1861 90.6823 26.1826 89.2793 26.1783C89.3325 26.3743 89.3875 26.57 89.4433 26.7655C89.4738 26.8746 89.5043 26.9836 89.5356 27.0959C89.652 27.3979 89.7898 27.569 90.0293 27.8124C90.0293 27.8798 90.0293 27.9472 90.0293 28.0166C90.1946 28.0868 90.3618 28.1542 90.5293 28.2209C90.6476 28.2727 90.7658 28.3246 90.8877 28.378C91.5578 28.6094 92.2578 28.5857 92.9746 28.5847C93.1225 28.5849 93.2705 28.5851 93.4229 28.5853C94.775 28.5658 95.9872 28.3318 97.2594 27.9707C97.5811 27.9037 97.824 27.8774 98.1543 27.9145C98.545 28.2179 98.6918 28.6302 98.8667 29.0375C98.9117 29.1402 98.9117 29.1402 98.9576 29.245C99.0205 29.3893 99.083 29.5338 99.145 29.6784C99.2399 29.8989 99.3368 30.1188 99.4338 30.3386C99.4949 30.4793 99.5559 30.6201 99.6167 30.7609C99.6456 30.8262 99.6745 30.8916 99.7043 30.9589C99.8556 31.3156 99.9564 31.6216 99.9043 31.9996C98.7891 32.9533 95.6656 33.2786 94.1067 33.3453C93.6934 33.351 93.2801 33.3555 92.8667 33.3574C92.6906 33.3586 92.5146 33.3606 92.3385 33.3637C90.6559 33.3927 89.1143 33.1859 87.6074 32.5294C87.4823 32.4763 87.4823 32.4763 87.3547 32.4222C86.6866 32.1315 86.0907 31.8036 85.5293 31.3868C85.4361 31.3201 85.343 31.2533 85.2471 31.1846C83.5466 29.8918 82.821 28.2044 82.4043 26.3826C82.3809 26.3054 82.3576 26.2283 82.3335 26.1488C81.7986 23.4165 82.7362 20.4764 84.6387 18.2187C85.9027 16.8817 87.8243 15.7899 89.9033 15.5253C92.9153 15.2191 95.8166 15.529 98.2246 17.1464Z" fill="#606B2F"/>
<path d="M48.2638 15.6195C48.388 15.6185 48.5121 15.6176 48.64 15.6166C48.8421 15.6175 48.8421 15.6175 49.0483 15.6185C49.2587 15.618 49.2587 15.618 49.4734 15.6176C49.7721 15.6174 50.0707 15.6179 50.3694 15.6192C50.8171 15.6208 51.2647 15.6192 51.7124 15.6173C53.0651 15.6162 54.3991 15.6409 55.7402 15.7948C55.8944 15.8124 55.8944 15.8124 56.0517 15.8304C57.8207 16.0605 59.2909 16.704 60.4072 17.8613C61.9954 19.7407 61.9614 22.1257 61.9502 24.3133C61.9501 24.5644 61.9502 24.8154 61.9504 25.0665C61.9503 25.5892 61.9491 26.1118 61.9468 26.6345C61.9439 27.305 61.9439 27.9756 61.9447 28.6462C61.9451 29.163 61.9443 29.6798 61.9431 30.1966C61.9426 30.4441 61.9425 30.6915 61.9426 30.939C61.9427 31.2831 61.9411 31.6272 61.9391 31.9714C61.9394 32.0737 61.9397 32.176 61.94 32.2815C61.9391 32.3749 61.9383 32.4684 61.9373 32.5646C61.9371 32.6458 61.9368 32.727 61.9366 32.8107C61.9048 33.0208 61.9048 33.0208 61.6548 33.3272C61.2956 33.3583 60.9639 33.3701 60.6045 33.3679C60.4482 33.3684 60.4482 33.3684 60.2887 33.3688C60.0682 33.369 59.8476 33.3684 59.6271 33.3672C59.2893 33.3655 58.9517 33.3672 58.614 33.3691C58.3999 33.3689 58.1858 33.3685 57.9716 33.3679C57.8705 33.3685 57.7693 33.3692 57.665 33.3698C56.9579 33.3626 56.9579 33.3626 56.6984 33.1902C56.4548 32.9456 56.336 32.681 56.1938 32.3889C56.1392 32.278 56.0846 32.167 56.0283 32.0526C55.9875 31.9677 55.9468 31.8828 55.9048 31.7953C55.4859 31.9945 55.0973 32.2094 54.7094 32.4464C52.8469 33.5191 50.637 33.77 48.4209 33.4649C46.8657 33.1095 45.6186 32.403 44.7954 31.2679C44.0435 30.1135 43.7518 29.0448 43.7329 27.7421C43.7311 27.6536 43.7294 27.565 43.7275 27.4738C43.7381 26.3258 44.208 25.238 45.1548 24.3783C47.2026 22.8143 50.1269 22.7739 52.7563 22.7953C52.9778 22.7963 53.1992 22.7973 53.4206 22.7981C53.957 22.8003 54.4934 22.8038 55.0298 22.8081C54.9936 22.5944 54.9562 22.3809 54.9184 22.1674C54.8978 22.0485 54.8771 21.9295 54.8558 21.807C54.7561 21.3786 54.6454 21.183 54.2798 20.8677C53.4494 20.449 52.6545 20.444 51.7085 20.4376C51.4729 20.4347 51.2374 20.4318 51.0019 20.4288C50.6319 20.4246 50.2618 20.4208 49.8918 20.4182C49.5337 20.4153 49.1758 20.4107 48.8178 20.4057C48.7069 20.4054 48.596 20.405 48.4817 20.4047C48.3271 20.4021 48.3271 20.4021 48.1693 20.3996C48.0335 20.3983 48.0335 20.3983 47.895 20.3971C47.5797 20.3445 47.4693 20.2611 47.2798 20.0506C47.2424 19.7393 47.2272 19.4492 47.2299 19.1379C47.2296 19.0484 47.2292 18.9588 47.2289 18.8666C47.2286 18.6774 47.2293 18.4882 47.2309 18.299C47.2329 18.0092 47.2309 17.7195 47.2285 17.4296C47.2287 17.2458 47.2292 17.0621 47.2299 16.8783C47.2292 16.7915 47.2284 16.7047 47.2276 16.6152C47.2364 16.0156 47.2364 16.0156 47.4322 15.7895C47.7245 15.6183 47.9056 15.6203 48.2638 15.6195Z" fill="#606B2F"/>
<path d="M63.0581 15.631C63.1945 15.6301 63.3309 15.6291 63.4714 15.6281C63.6194 15.6282 63.7673 15.6283 63.9197 15.6284C64.071 15.6279 64.2224 15.6275 64.3783 15.627C64.6989 15.6265 65.0195 15.6264 65.3401 15.6269C65.8318 15.6272 66.3233 15.6248 66.8149 15.6222C67.1259 15.622 67.4368 15.6219 67.7478 15.622C67.8955 15.6211 68.0431 15.6201 68.1953 15.6191C68.4005 15.6201 68.4005 15.6201 68.6098 15.6211C68.7304 15.621 68.8509 15.6209 68.9751 15.6209C69.3332 15.6658 69.4415 15.7302 69.6545 15.9655C69.7516 16.234 69.7516 16.234 69.8254 16.5699C69.8703 16.7668 69.8703 16.7668 69.9161 16.9678C69.9319 17.0399 69.9477 17.1121 69.9639 17.1864C70.0534 17.5944 70.148 18.0016 70.2419 18.409C70.2632 18.5015 70.2844 18.594 70.3063 18.6893C70.5047 19.5483 70.7164 20.4049 70.9304 21.2613C70.9481 21.3323 70.9659 21.4033 70.9841 21.4765C71.1464 22.1259 71.3091 22.7752 71.4722 23.4245C71.8898 25.0881 72.2949 26.7524 72.6545 28.425C72.8169 27.8364 72.9719 27.247 73.1169 26.6554C73.1364 26.5763 73.1558 26.4972 73.1759 26.4158C73.2393 26.1579 73.3024 25.9 73.3655 25.6421C73.3874 25.5525 73.4093 25.4629 73.4319 25.3707C73.728 24.1607 74.0172 22.9499 74.2965 21.7373C74.3497 21.5064 74.4031 21.2755 74.4565 21.0447C74.6246 20.3174 74.7915 19.5899 74.9558 18.862C75.0335 18.5192 75.1124 18.1765 75.1916 17.8339C75.2291 17.6705 75.266 17.507 75.3024 17.3434C75.3527 17.1177 75.4048 16.8922 75.4573 16.6668C75.4864 16.5384 75.5155 16.4101 75.5455 16.2778C75.6584 15.9545 75.7096 15.8564 76.0295 15.6591C76.3206 15.6216 76.3206 15.6216 76.6668 15.6227C76.7965 15.6224 76.9262 15.6221 77.0598 15.6218C77.1997 15.623 77.3395 15.6243 77.4836 15.6256C77.6988 15.6259 77.6988 15.6259 77.9183 15.6262C78.2216 15.6268 78.5248 15.6283 78.8281 15.6304C79.2942 15.6336 79.7602 15.6346 80.2263 15.6352C80.5204 15.6361 80.8145 15.6372 81.1086 15.6383C81.249 15.6388 81.3894 15.6392 81.534 15.6397C81.7273 15.6411 81.7273 15.6411 81.9246 15.6426C82.0387 15.6433 82.1527 15.644 82.2703 15.6447C82.5295 15.6591 82.5295 15.6591 82.6545 15.7612C82.5913 16.4754 82.3628 17.1472 82.1311 17.8357C82.092 17.9533 82.0528 18.0709 82.0125 18.192C81.7554 18.9563 81.4786 19.7135 81.1799 20.4675C80.8398 21.328 80.5427 22.198 80.2418 23.068C80.114 23.4352 79.9823 23.8015 79.8498 24.1676C79.7991 24.3083 79.7483 24.449 79.6975 24.5897C79.6709 24.6633 79.6443 24.7369 79.6169 24.8128C79.5881 24.8927 79.5592 24.9725 79.5295 25.0548C79.48 25.192 79.48 25.192 79.4294 25.332C79.0356 26.4241 78.6477 27.5167 78.2873 28.6165C77.899 29.7998 77.4546 30.9683 77.0059 32.1371C76.9199 32.367 76.8412 32.5973 76.7659 32.8297C76.6545 33.1229 76.6545 33.1229 76.4045 33.3272C76.0733 33.3552 76.0733 33.3552 75.6477 33.3585C75.4093 33.3609 75.4093 33.3609 75.1661 33.3634C74.9918 33.3641 74.8176 33.3646 74.6433 33.3651C74.4652 33.366 74.2871 33.3669 74.109 33.3679C73.7354 33.3695 73.3619 33.3703 72.9883 33.3706C72.5093 33.3712 72.0305 33.375 71.5516 33.3797C71.1837 33.3827 70.8158 33.3835 70.4478 33.3836C70.2713 33.384 70.0947 33.3853 69.9181 33.3874C69.6713 33.3901 69.4244 33.3893 69.1775 33.3884C68.9667 33.3892 68.9667 33.3892 68.7517 33.3899C68.4045 33.3272 68.4045 33.3272 68.1757 33.0829C68.039 32.8338 67.9239 32.5932 67.8279 32.3318C67.7935 32.2391 67.7591 32.1463 67.7236 32.0508C67.6879 31.9517 67.6522 31.8526 67.6155 31.7506C67.5583 31.5946 67.5583 31.5946 67.5 31.4354C67.2149 30.651 66.9482 29.8629 66.688 29.0727C66.2262 27.6728 65.7242 26.2822 65.201 24.8968C64.8007 23.8364 64.4321 22.7718 64.0901 21.6978C63.888 21.0693 63.6567 20.4552 63.4003 19.8402C63.2089 19.3643 63.0528 18.8816 62.8967 18.3974C62.6968 17.779 62.4881 17.1689 62.2275 16.5655C62.1344 16.321 62.1075 16.1168 62.1545 15.8633C62.4779 15.5991 62.6082 15.6328 63.0581 15.631Z" fill="#606B2F"/>
<path d="M24.6547 9.22511C24.7797 9.32724 24.7797 9.32724 24.7947 9.57991C24.7945 9.69217 24.7942 9.80442 24.7939 9.92008C24.7939 10.0468 24.7939 10.1736 24.7939 10.3042C24.7932 10.4436 24.7926 10.583 24.7919 10.7223C24.7917 10.8641 24.7915 11.006 24.7914 11.1478C24.7909 11.5217 24.7897 11.8956 24.7883 12.2695C24.787 12.6508 24.7864 13.0321 24.7858 13.4133C24.7845 14.162 24.7823 14.9106 24.7797 15.6592C25.0153 15.6576 25.0153 15.6576 25.2557 15.6559C25.8378 15.6522 26.42 15.6499 27.0022 15.6479C27.2542 15.6469 27.5063 15.6455 27.7584 15.6437C28.1205 15.6413 28.4825 15.6401 28.8446 15.6392C28.9576 15.6382 29.0705 15.6371 29.1868 15.636C29.2919 15.636 29.3969 15.636 29.5052 15.636C29.5976 15.6355 29.6901 15.6351 29.7853 15.6346C30.0297 15.6592 30.0297 15.6592 30.4047 15.8634C30.4515 16.0494 30.4515 16.0494 30.4512 16.2771C30.4524 16.4049 30.4524 16.4049 30.4536 16.5353C30.4525 16.6274 30.4513 16.7196 30.4501 16.8145C30.4502 16.9561 30.4502 16.9561 30.4503 17.1006C30.45 17.3005 30.4488 17.5004 30.4467 17.7002C30.4438 18.0069 30.4442 18.3134 30.445 18.6201C30.4443 18.8139 30.4434 19.0078 30.4423 19.2017C30.4424 19.2938 30.4425 19.386 30.4427 19.4809C30.4415 19.5661 30.4403 19.6513 30.439 19.7391C30.4382 19.8518 30.4382 19.8518 30.4373 19.9667C30.4047 20.1528 30.4047 20.1528 30.1547 20.357C29.9206 20.3816 29.9206 20.3816 29.6329 20.3802C29.5253 20.3802 29.4177 20.3802 29.3069 20.3802C29.1325 20.3786 29.1325 20.3786 28.9545 20.377C28.8356 20.3767 28.7166 20.3764 28.5941 20.3761C28.2132 20.375 27.8324 20.3724 27.4516 20.3698C27.1938 20.3688 26.936 20.3678 26.6781 20.367C26.0453 20.3647 25.4125 20.3612 24.7797 20.357C24.7845 21.22 24.7919 22.083 24.8027 22.9459C24.8076 23.3467 24.8116 23.7475 24.8136 24.1483C24.8155 24.5357 24.8198 24.9231 24.8257 25.3104C24.8276 25.4576 24.8286 25.6048 24.8287 25.752C24.8273 26.9427 24.8273 26.9427 25.4047 28.0166C26.0459 28.4443 26.5386 28.539 27.3505 28.5524C27.5117 28.5557 27.6729 28.5591 27.839 28.5625C28.0952 28.5674 28.3514 28.5719 28.6077 28.5759C28.8553 28.58 29.1029 28.5853 29.3505 28.5907C29.4987 28.5932 29.6469 28.5958 29.7995 28.5984C30.1547 28.6294 30.1547 28.6294 30.4047 28.8336C30.4373 29.0197 30.4373 29.0197 30.439 29.2473C30.4402 29.3325 30.4414 29.4177 30.4427 29.5055C30.4425 29.5976 30.4424 29.6898 30.4423 29.7847C30.4428 29.8791 30.4434 29.9736 30.4439 30.0709C30.4446 30.2707 30.4447 30.4706 30.4442 30.6704C30.4438 30.9771 30.4467 31.2836 30.4499 31.5903C30.4502 31.7842 30.4502 31.978 30.4501 32.1719C30.4513 32.2641 30.4524 32.3562 30.4536 32.4511C30.4528 32.5363 30.452 32.6215 30.4512 32.7093C30.4513 32.7844 30.4514 32.8596 30.4515 32.937C30.4047 33.123 30.4047 33.123 30.0297 33.3272C29.6858 33.3473 29.355 33.3558 29.0112 33.3544C28.9101 33.3546 28.8091 33.3548 28.705 33.355C28.4904 33.3551 28.2758 33.3547 28.0613 33.3539C27.7384 33.3528 27.4156 33.3539 27.0927 33.3552C25.4058 33.3564 23.8506 33.2593 22.2797 32.7145C22.1927 32.6853 22.1057 32.656 22.016 32.6259C20.4125 32.0337 19.2084 30.9359 18.5331 29.6243C18.1506 28.7901 17.8898 28.004 17.8872 27.1094C17.8868 27.0399 17.8864 26.9705 17.886 26.8989C17.8849 26.667 17.8848 26.435 17.8846 26.203C17.884 26.0364 17.8834 25.8698 17.8827 25.7032C17.881 25.2512 17.8802 24.7993 17.8797 24.3473C17.8793 24.0651 17.8788 23.7828 17.8782 23.5005C17.8765 22.6177 17.8753 21.7348 17.8748 20.8519C17.8743 19.8321 17.8721 18.8124 17.8685 17.7926C17.8658 17.0045 17.8645 16.2163 17.8643 15.4282C17.8642 14.9573 17.8635 14.4865 17.8612 14.0156C17.8592 13.5732 17.8589 13.1308 17.86 12.6883C17.8601 12.5257 17.8596 12.3631 17.8583 12.2006C17.8567 11.9791 17.8575 11.7577 17.8588 11.5362C17.8586 11.4121 17.8584 11.288 17.8582 11.1602C17.9047 10.8592 17.9047 10.8592 18.0719 10.6707C18.3927 10.4886 18.7276 10.4223 19.1025 10.3362C19.2245 10.3077 19.2245 10.3077 19.3489 10.2786C19.6094 10.218 19.8703 10.1587 20.1313 10.0996C20.3015 10.0602 20.4716 10.0208 20.6418 9.9813C20.9796 9.90293 21.3177 9.82548 21.656 9.74857C21.9868 9.67303 22.3163 9.59462 22.6451 9.51349C22.7983 9.47612 22.9515 9.43875 23.1093 9.40025C23.2448 9.36654 23.3802 9.33283 23.5198 9.29809C23.9139 9.22338 24.2517 9.20414 24.6547 9.22511Z" fill="#606B2F"/>
<path d="M109.654 8.91874C109.84 9.22204 109.795 9.49501 109.796 9.83357C109.797 9.90755 109.797 9.98152 109.797 10.0577C109.798 10.3069 109.799 10.5561 109.799 10.8052C109.799 10.9833 109.8 11.1615 109.801 11.3396C109.802 11.7239 109.803 12.1082 109.804 12.4925C109.805 13.1001 109.808 13.7078 109.811 14.3154C109.818 16.0436 109.825 17.7718 109.829 19.4999C109.831 20.4539 109.835 21.4078 109.84 22.3617C109.843 22.8667 109.845 23.3716 109.845 23.8766C109.845 24.3517 109.847 24.8268 109.851 25.3019C109.851 25.4762 109.852 25.6505 109.851 25.8248C109.851 26.063 109.853 26.3011 109.855 26.5393C109.855 26.6725 109.856 26.8057 109.856 26.943C109.925 27.4588 110.118 27.793 110.584 28.1443C111.089 28.4262 111.428 28.5517 112.046 28.5624C112.167 28.5654 112.288 28.5684 112.413 28.5715C112.668 28.5761 112.924 28.5806 113.179 28.5851C113.3 28.5881 113.421 28.5912 113.546 28.5943C113.656 28.5962 113.767 28.5981 113.881 28.6001C114.154 28.6294 114.154 28.6294 114.404 28.8336C114.437 29.0197 114.437 29.0197 114.438 29.2473C114.44 29.3325 114.441 29.4177 114.442 29.5055C114.442 29.5977 114.442 29.6898 114.442 29.7847C114.442 29.8791 114.443 29.9736 114.443 30.0709C114.444 30.2707 114.444 30.4706 114.443 30.6704C114.443 30.9771 114.446 31.2836 114.449 31.5903C114.449 31.7842 114.45 31.9781 114.449 32.1719C114.451 32.2641 114.452 32.3562 114.453 32.4511C114.452 32.5363 114.451 32.6215 114.451 32.7093C114.451 32.7844 114.451 32.8596 114.451 32.937C114.404 33.123 114.404 33.123 114.029 33.3273C113.419 33.3739 112.805 33.3618 112.193 33.3592C112.105 33.359 112.017 33.3588 111.926 33.3586C109.557 33.3501 107.481 33.0842 105.529 31.8975C105.336 31.7837 105.336 31.7837 105.138 31.6677C103.502 30.3886 102.768 28.474 102.715 26.6563C102.71 26.3572 102.711 26.0583 102.712 25.7591C102.711 25.5925 102.71 25.4259 102.709 25.2593C102.706 24.8128 102.707 24.3665 102.708 23.9201C102.708 23.5461 102.707 23.1722 102.707 22.7983C102.704 21.9169 102.705 21.0356 102.707 20.1543C102.709 19.2458 102.707 18.3374 102.703 17.4289C102.7 16.6465 102.699 15.864 102.7 15.0816C102.7 14.6152 102.7 14.1489 102.698 13.6826C102.695 13.2454 102.696 12.8083 102.699 12.3711C102.7 12.2107 102.699 12.0503 102.698 11.8899C102.696 11.6711 102.698 11.4526 102.7 11.2338C102.701 11.1114 102.701 10.9891 102.701 10.863C102.779 10.5528 102.779 10.5528 103.08 10.3119C103.373 10.1603 103.61 10.0632 103.941 9.9854C104.043 9.96089 104.145 9.93639 104.25 9.91114C104.358 9.88644 104.467 9.86174 104.578 9.8363C104.692 9.80967 104.805 9.78305 104.922 9.75562C105.161 9.69977 105.4 9.64453 105.639 9.58985C106.004 9.50642 106.367 9.42058 106.73 9.33443C106.964 9.2803 107.197 9.2263 107.43 9.17247C107.591 9.13418 107.591 9.13418 107.756 9.09512C108.411 8.94765 108.975 8.89333 109.654 8.91874Z" fill="#606B2F"/>
<path d="M33.6893 15.6221C33.7905 15.622 33.8918 15.622 33.9961 15.6219C34.21 15.6222 34.4239 15.6232 34.6378 15.6249C34.9654 15.6273 35.2929 15.627 35.6204 15.6263C35.8283 15.6268 36.0361 15.6276 36.244 15.6285C36.342 15.6284 36.4401 15.6283 36.5411 15.6282C37.0189 15.6333 37.2472 15.6418 37.6541 15.8634C37.8 16.0929 37.8 16.0929 37.9369 16.3749C37.9864 16.4756 38.036 16.5763 38.087 16.6801C38.1375 16.7855 38.188 16.891 38.2401 16.9996C38.292 17.1059 38.344 17.2121 38.3975 17.3216C38.5258 17.5841 38.6529 17.847 38.7791 18.1102C38.8728 18.0332 38.9664 17.9562 39.0628 17.8769C40.7477 16.5082 42.5731 15.7117 44.9718 15.7173C45.619 15.7326 45.619 15.7326 45.9041 15.9656C45.9307 16.2697 45.9421 16.5641 45.9417 16.8684C45.9423 16.958 45.9428 17.0477 45.9434 17.1401C45.9441 17.3299 45.9441 17.5197 45.9436 17.7095C45.9432 18.0002 45.9461 18.2909 45.9493 18.5816C45.9496 18.7658 45.9497 18.9501 45.9496 19.1343C45.9507 19.2215 45.9519 19.3086 45.953 19.3984C45.9472 20.0067 45.9472 20.0067 45.7327 20.2258C45.4486 20.4089 45.2246 20.4119 44.8661 20.436C44.7345 20.4462 44.603 20.4564 44.4674 20.4669C44.328 20.477 44.1885 20.4871 44.0448 20.4975C42.5236 20.6276 41.3928 20.8931 40.0477 21.4976C39.9264 21.552 39.8052 21.6064 39.6802 21.6625C39.5436 21.724 39.5436 21.724 39.4041 21.7868C39.4038 21.8445 39.4035 21.9021 39.4032 21.9614C39.3958 23.3627 39.3864 24.7639 39.3747 26.1652C39.3691 26.8428 39.3642 27.5204 39.3608 28.1981C39.3576 28.8517 39.3525 29.5052 39.3462 30.1588C39.3442 30.4085 39.3427 30.6583 39.3419 30.908C39.3407 31.257 39.3372 31.6059 39.3332 31.9548C39.3334 32.0588 39.3335 32.1627 39.3337 32.2698C39.3322 32.3648 39.3306 32.4597 39.329 32.5576C39.3281 32.6814 39.3281 32.6814 39.3272 32.8077C39.2673 33.0734 39.1636 33.1645 38.9041 33.3273C38.6243 33.3662 38.6243 33.3662 38.2938 33.3669C38.1699 33.3679 38.046 33.3688 37.9184 33.3698C37.7848 33.3692 37.6512 33.3686 37.5135 33.368C37.3076 33.3684 37.3076 33.3684 37.0974 33.3688C36.807 33.3691 36.5166 33.3685 36.2262 33.3672C35.7809 33.3656 35.3357 33.3672 34.8905 33.3692C34.6086 33.3689 34.3267 33.3686 34.0448 33.368C33.9112 33.3686 33.7776 33.3692 33.6399 33.3698C33.4541 33.3684 33.4541 33.3684 33.2645 33.3669C33.1554 33.3667 33.0464 33.3664 32.934 33.3662C32.5781 33.3167 32.4917 33.2585 32.2791 33.0209C32.232 32.7177 32.232 32.7177 32.2315 32.3386C32.2309 32.2689 32.2304 32.1992 32.2297 32.1274C32.2283 31.8934 32.2294 31.6594 32.2306 31.4253C32.2301 31.2578 32.2294 31.0902 32.2286 30.9226C32.2269 30.467 32.2276 30.0115 32.2288 29.5559C32.2297 29.0797 32.2288 28.6035 32.2282 28.1272C32.2276 27.3274 32.2285 26.5276 32.2303 25.7278C32.2323 24.8024 32.2316 23.8771 32.2296 22.9517C32.2279 22.1579 32.2276 21.3642 32.2286 20.5704C32.2292 20.096 32.2293 19.6216 32.228 19.1472C32.2269 18.7012 32.2277 18.2553 32.2299 17.8093C32.2304 17.6454 32.2302 17.4815 32.2294 17.3176C32.2284 17.0943 32.2296 16.8711 32.2315 16.6478C32.2317 16.5227 32.2318 16.3977 32.232 16.2688C32.2791 15.9656 32.2791 15.9656 32.4408 15.7721C32.8171 15.5729 33.2553 15.6179 33.6893 15.6221Z" fill="#606B2F"/>
<path d="M97.0293 35.9825C97.483 35.9825 97.9368 35.9825 98.4043 35.9825C99.2376 37.174 100.071 38.3655 100.904 39.557C100.946 38.3774 100.987 37.1979 101.029 35.9825C101.483 35.9825 101.937 35.9825 102.404 35.9825C102.404 37.971 102.404 39.9594 102.404 42.0081C101.951 42.0081 101.497 42.0081 101.029 42.0081C100.98 41.933 100.931 41.8579 100.881 41.7805C100.695 41.4968 100.509 41.2132 100.323 40.9297C100.204 40.7487 100.086 40.5675 99.9673 40.3864C99.8907 40.2699 99.8142 40.1534 99.7354 40.0333C99.6313 39.8745 99.6313 39.8745 99.5251 39.7124C99.2063 39.246 98.8657 38.7896 98.5293 38.3315C98.488 39.5448 98.4468 40.758 98.4043 42.0081C97.9505 42.0081 97.4968 42.0081 97.0293 42.0081C97.0293 40.0197 97.0293 38.0312 97.0293 35.9825Z" fill="#606B2F"/>
<path d="M89.7797 35.9826C90.0012 35.974 90.2228 35.9679 90.4444 35.9629C90.5678 35.9592 90.6912 35.9555 90.8184 35.9518C91.1547 35.9826 91.1547 35.9826 91.3723 36.1283C91.5404 36.3232 91.6641 36.5197 91.7875 36.7358C91.8368 36.8126 91.8861 36.8894 91.9368 36.9685C92.0416 37.1319 92.1442 37.2962 92.245 37.4613C92.4586 37.8056 92.6898 38.141 92.9223 38.477C93.1693 38.8357 93.4115 39.1966 93.6547 39.557C93.6959 38.3775 93.7372 37.1979 93.7797 35.9826C94.2334 35.9826 94.6872 35.9826 95.1547 35.9826C95.1547 37.971 95.1547 39.9594 95.1547 42.0081C94.7422 42.0081 94.3297 42.0081 93.9047 42.0081C93.6124 41.7248 93.4689 41.5195 93.2797 41.1911C93.1254 40.9652 92.9696 40.74 92.8129 40.5153C92.6448 40.2685 92.478 40.0212 92.3109 39.774C92.2245 39.6466 92.1381 39.5193 92.0517 39.3919C91.4295 38.4742 91.4295 38.4742 91.2797 38.2294C91.2384 39.4763 91.1972 40.7233 91.1547 42.0081C90.7422 42.0081 90.3297 42.0081 89.9047 42.0081C89.7797 41.906 89.7797 41.906 89.7646 41.6688C89.7649 41.5638 89.7652 41.4588 89.7655 41.3506C89.7655 41.232 89.7655 41.1135 89.7655 40.9913C89.7662 40.8622 89.7668 40.7332 89.7675 40.6002C89.7677 40.4689 89.7678 40.3376 89.768 40.2023C89.7685 39.8525 89.7697 39.5028 89.7711 39.1531C89.7724 38.7964 89.7729 38.4398 89.7736 38.0832C89.7749 37.383 89.7771 36.6828 89.7797 35.9826Z" fill="#606B2F"/>
<path d="M84.7793 35.9825C85.3155 35.9825 85.8518 35.9825 86.4043 35.9825C86.6917 36.7156 86.9789 37.4487 87.2658 38.1819C87.355 38.4098 87.4442 38.6377 87.5335 38.8657C87.652 39.1684 87.7704 39.4712 87.8887 39.774C87.9422 39.9107 87.9422 39.9107 87.9969 40.0501C88.092 40.294 88.1859 40.5382 88.2793 40.7825C88.3533 40.9749 88.3533 40.9749 88.4287 41.1711C88.5293 41.4974 88.5293 41.4974 88.5293 42.0081C88.1168 42.0081 87.7043 42.0081 87.2793 42.0081C87.0866 41.5973 86.91 41.2098 86.7793 40.7825C85.9543 40.7825 85.1293 40.7825 84.2793 40.7825C84.22 40.9658 84.1607 41.1491 84.0996 41.3379C83.9199 41.8932 83.9199 41.8932 83.7793 42.0081C83.5685 42.0154 83.3574 42.0166 83.1465 42.0145C83.0316 42.0135 82.9167 42.0126 82.7983 42.0117C82.7096 42.0105 82.6208 42.0093 82.5293 42.0081C82.6968 41.3564 82.9031 40.725 83.146 40.0896C83.1808 39.9976 83.2156 39.9057 83.2515 39.8109C83.3247 39.6178 83.3982 39.4248 83.4718 39.2319C83.5838 38.9385 83.6949 38.6449 83.8059 38.3512C83.8776 38.1626 83.9493 37.974 84.021 37.7853C84.0538 37.6986 84.0866 37.6119 84.1205 37.5225C84.3197 37.0019 84.5393 36.4916 84.7793 35.9825Z" fill="#606B2F"/>
<path d="M76.1543 35.9825C76.5668 35.9825 76.9793 35.9825 77.4043 35.9825C77.4455 36.7914 77.4868 37.6002 77.5293 38.4336C78.3955 38.4673 79.2618 38.501 80.1543 38.5357C80.1543 37.6932 80.1543 36.8506 80.1543 35.9825C80.608 35.9825 81.0618 35.9825 81.5293 35.9825C81.5321 36.7531 81.5344 37.5236 81.5358 38.2942C81.5364 38.652 81.5373 39.0097 81.5387 39.3675C81.5403 39.7784 81.541 40.1893 81.5415 40.6002C81.5421 40.7293 81.5428 40.8583 81.5435 40.9913C81.5435 41.1098 81.5435 41.2284 81.5435 41.3506C81.5438 41.4556 81.544 41.5606 81.5443 41.6688C81.5293 41.9059 81.5293 41.9059 81.4043 42.0081C80.9918 42.0081 80.5793 42.0081 80.1543 42.0081C80.1543 41.1655 80.1543 40.323 80.1543 39.4549C79.2468 39.4549 78.3393 39.4549 77.4043 39.4549C77.4043 40.2974 77.4043 41.14 77.4043 42.0081C76.9918 42.0081 76.5793 42.0081 76.1543 42.0081C76.1543 40.0197 76.1543 38.0312 76.1543 35.9825Z" fill="#606B2F"/>
<path d="M104.279 35.9825C105.723 35.9825 107.167 35.9825 108.654 35.9825C108.654 36.2859 108.654 36.5892 108.654 36.9017C107.623 36.9017 106.592 36.9017 105.529 36.9017C105.529 37.4409 105.529 37.9802 105.529 38.5357C106.354 38.5357 107.179 38.5357 108.029 38.5357C108.029 38.8391 108.029 39.1424 108.029 39.4549C107.204 39.4549 106.379 39.4549 105.529 39.4549C105.529 39.9941 105.529 40.5334 105.529 41.0889C106.561 41.0889 107.592 41.0889 108.654 41.0889C108.654 41.3922 108.654 41.6956 108.654 42.0081C107.211 42.0081 105.767 42.0081 104.279 42.0081C104.279 40.0197 104.279 38.0312 104.279 35.9825Z" fill="#606B2F"/>
<path d="M92.8105 19.6485C93.7067 20.1644 94.0536 20.7119 94.2793 21.5826C94.2793 21.987 94.2793 22.3914 94.2793 22.8081C92.6293 22.8081 90.9793 22.8081 89.2793 22.8081C89.2793 21.5605 89.4049 20.8205 90.4316 19.9035C91.1195 19.4117 91.97 19.424 92.8105 19.6485Z" fill="#FAF5ED"/>
<path d="M74.4441 36.0799C74.6541 36.1868 74.6541 36.1868 74.7581 36.3815C74.7904 36.7107 74.599 36.9277 74.4041 37.2081C74.2597 37.1744 74.1153 37.1407 73.9666 37.1059C73.3036 36.9727 72.7004 36.9016 72.0525 37.1251C71.5505 37.465 71.3797 37.8171 71.2791 38.3315C71.1686 39.5275 71.1686 39.5275 71.7791 40.5783C72.0706 40.8055 72.2257 40.8796 72.6297 40.9182C72.7563 40.9155 72.883 40.9129 73.0134 40.9102C73.1453 40.9076 73.2771 40.9049 73.4129 40.9022C73.7922 40.884 74.1579 40.8499 74.5291 40.7825C74.7163 41.1268 74.7791 41.3141 74.7791 41.7017C74.1477 41.9539 73.6206 42.0645 72.9119 42.0591C72.824 42.0586 72.7361 42.0581 72.6456 42.0576C71.7799 42.0338 71.3181 41.8313 70.7195 41.3486C69.7829 40.5006 69.7103 39.56 69.7366 38.4727C69.7867 37.6896 70.1131 36.9747 70.8259 36.4357C71.9743 35.7532 73.1248 35.7347 74.4441 36.0799Z" fill="#606B2F"/>
<path d="M55.0296 26.2804C55.0296 27.0892 55.0296 27.8981 55.0296 28.7315C52.9487 29.5815 52.9487 29.5815 51.6546 29.4464C51.2794 29.2624 51.0982 29.1498 50.9046 28.8336C50.8224 28.2945 50.7626 27.7522 51.0516 27.251C52.0698 26.2007 53.5367 26.2356 55.0296 26.2804Z" fill="#FAF5ED"/>
<path d="M110.154 35.9825C110.608 35.9825 111.062 35.9825 111.529 35.9825C111.529 37.6677 111.529 39.3528 111.529 41.0889C112.478 41.0889 113.427 41.0889 114.404 41.0889C114.404 41.3922 114.404 41.6956 114.404 42.0081C113.002 42.0081 111.599 42.0081 110.154 42.0081C110.154 40.0197 110.154 38.0312 110.154 35.9825Z" fill="#606B2F"/>
<path d="M85.4043 37.3102C85.4868 37.3102 85.5693 37.3102 85.6543 37.3102C85.7798 37.6803 85.9046 38.0505 86.0293 38.4208C86.0651 38.5263 86.1008 38.6317 86.1377 38.7404C86.1715 38.8411 86.2054 38.9418 86.2402 39.0456C86.2874 39.1851 86.2874 39.1851 86.3354 39.3276C86.4043 39.557 86.4043 39.557 86.4043 39.7612C85.8268 39.7612 85.2493 39.7612 84.6543 39.7612C84.8399 38.9271 85.1091 38.1227 85.4043 37.3102Z" fill="#FAF5ED"/>
</g>
<defs>
<clipPath id="clip0_695_25478">
<rect width="150" height="48" fill="white" transform="translate(0.529297 0.135742)"/>
</clipPath>
</defs>
</svg>
