<svg width="20" height="21" viewBox="0 0 20 21" fill="none" xmlns="http://www.w3.org/2000/svg">
<g clip-path="url(#clip0_12_1063)">
<path d="M6.66667 9.60275H6.18334C5.52376 9.57891 4.86632 9.69089 4.25181 9.93172C3.63731 10.1725 3.07886 10.5371 2.61112 11.0028L2.47778 11.1583V15.7583H4.74445V13.1472L5.05001 12.8028L5.18889 12.6416C5.91219 11.8986 6.81266 11.3518 7.80556 11.0528C7.30845 10.6745 6.91639 10.1753 6.66667 9.60275Z" fill="#322E2C"/>
<path d="M17.4112 10.9859C16.9435 10.5203 16.385 10.1557 15.7705 9.91487C15.156 9.67404 14.4986 9.56207 13.839 9.58591C13.6367 9.58648 13.4346 9.59761 13.2334 9.61924C12.979 10.1564 12.5977 10.6236 12.1223 10.9804C13.1823 11.2736 14.1425 11.8497 14.9001 12.647L15.039 12.8026L15.339 13.147V15.7637H17.5279V11.1415L17.4112 10.9859Z" fill="#322E2C"/>
<path d="M6.16668 8.51929H6.3389C6.25888 7.8322 6.37944 7.13664 6.68603 6.51656C6.99262 5.89649 7.47213 5.3784 8.06668 5.02485C7.85116 4.6956 7.55382 4.42796 7.20379 4.24815C6.85376 4.06834 6.46303 3.98252 6.06986 3.99909C5.6767 4.01565 5.29457 4.13405 4.96091 4.34267C4.62725 4.55129 4.35348 4.84299 4.16643 5.18921C3.97938 5.53542 3.88544 5.92428 3.89383 6.31771C3.90221 6.71114 4.01263 7.09564 4.21426 7.43357C4.4159 7.7715 4.70184 8.05127 5.04409 8.24549C5.38634 8.43971 5.77316 8.54171 6.16668 8.54151V8.51929Z" fill="#322E2C"/>
<path d="M13.5722 8.10277C13.5789 8.23045 13.5789 8.35841 13.5722 8.4861C13.6788 8.503 13.7865 8.51228 13.8944 8.51388H14C14.3917 8.49299 14.7714 8.37101 15.1021 8.15981C15.4327 7.94862 15.7031 7.6554 15.8868 7.30872C16.0705 6.96204 16.1613 6.5737 16.1503 6.18151C16.1394 5.78932 16.0271 5.40664 15.8243 5.07074C15.6216 4.73484 15.3353 4.45716 14.9934 4.26473C14.6515 4.0723 14.2656 3.97168 13.8733 3.97266C13.4809 3.97365 13.0955 4.07621 12.7546 4.27036C12.4136 4.46451 12.1288 4.74363 11.9277 5.08054C12.4306 5.40884 12.844 5.85682 13.131 6.3843C13.418 6.91178 13.5696 7.50226 13.5722 8.10277Z" fill="#322E2C"/>
<path d="M9.92767 10.5914C11.2992 10.5914 12.411 9.4796 12.411 8.10809C12.411 6.73658 11.2992 5.62476 9.92767 5.62476C8.55616 5.62476 7.44434 6.73658 7.44434 8.10809C7.44434 9.4796 8.55616 10.5914 9.92767 10.5914Z" fill="#322E2C"/>
<path d="M10.0611 11.9137C9.33553 11.8844 8.61157 12.0022 7.93274 12.2599C7.25392 12.5177 6.63426 12.9102 6.11106 13.4137L5.97217 13.5692V17.0859C5.97434 17.2004 5.99905 17.3134 6.0449 17.4184C6.09075 17.5234 6.15683 17.6184 6.23938 17.6978C6.32192 17.7773 6.41931 17.8397 6.52598 17.8815C6.63265 17.9233 6.74651 17.9437 6.86106 17.9414H13.2444C13.3589 17.9437 13.4728 17.9233 13.5795 17.8815C13.6861 17.8397 13.7835 17.7773 13.8661 17.6978C13.9486 17.6184 14.0147 17.5234 14.0605 17.4184C14.1064 17.3134 14.1311 17.2004 14.1333 17.0859V13.5803L13.9999 13.4137C13.4801 12.9086 12.8626 12.5151 12.1853 12.2571C11.508 11.9992 10.7851 11.8823 10.0611 11.9137Z" fill="#322E2C"/>
</g>
<defs>
<clipPath id="clip0_12_1063">
<rect width="20" height="20" fill="white" transform="translate(0 0.635986)"/>
</clipPath>
</defs>
</svg>
