<svg width="20" height="21" viewBox="0 0 20 21" fill="none" xmlns="http://www.w3.org/2000/svg">
<path d="M10 0.136719C8.02219 0.136719 6.08879 0.723208 4.4443 1.82202C2.79981 2.92084 1.51809 4.48262 0.761209 6.30988C0.00433286 8.13714 -0.1937 10.1478 0.192152 12.0876C0.578004 14.0274 1.53041 15.8093 2.92894 17.2078C4.32746 18.6063 6.10929 19.5587 8.0491 19.9446C9.98891 20.3304 11.9996 20.1324 13.8268 19.3755C15.6541 18.6186 17.2159 17.3369 18.3147 15.6924C19.4135 14.0479 20 12.1145 20 10.1367C19.9971 7.48546 18.9425 4.94362 17.0678 3.0689C15.1931 1.19417 12.6513 0.13966 10 0.136719ZM10 17.9145C8.4617 17.9145 6.95795 17.4583 5.6789 16.6037C4.39985 15.7491 3.40296 14.5343 2.81427 13.1131C2.22559 11.6919 2.07157 10.1281 2.37167 8.61935C2.67178 7.11061 3.41254 5.72474 4.50028 4.637C5.58803 3.54926 6.97389 2.8085 8.48263 2.50839C9.99137 2.20828 11.5552 2.36231 12.9764 2.95099C14.3976 3.53967 15.6124 4.53657 16.467 5.81562C17.3216 7.09466 17.7778 8.59842 17.7778 10.1367C17.7756 12.1988 16.9554 14.1759 15.4973 15.634C14.0391 17.0921 12.0621 17.9123 10 17.9145ZM16.2963 10.1367C16.2963 10.4314 16.1792 10.714 15.9709 10.9224C15.7625 11.1308 15.4799 11.2478 15.1852 11.2478H10C9.70532 11.2478 9.4227 11.1308 9.21433 10.9224C9.00595 10.714 8.88889 10.4314 8.88889 10.1367V4.95153C8.88889 4.65685 9.00595 4.37423 9.21433 4.16586C9.4227 3.95748 9.70532 3.84042 10 3.84042C10.2947 3.84042 10.5773 3.95748 10.7857 4.16586C10.994 4.37423 11.1111 4.65685 11.1111 4.95153V9.02561H15.1852C15.4799 9.02561 15.7625 9.14267 15.9709 9.35104C16.1792 9.55942 16.2963 9.84203 16.2963 10.1367Z" fill="#C65427"/>
</svg>
