<svg width="20" height="21" viewBox="0 0 20 21" fill="none" xmlns="http://www.w3.org/2000/svg">
<path d="M19.9851 4.44464C19.9851 4.42179 20.0008 4.39955 19.9998 4.37695L13.8965 10.2578L19.9925 15.9508C19.9961 15.9102 19.9851 15.8692 19.9851 15.8276V4.44464Z" fill="#FEFEFE"/>
<path d="M12.9653 11.1641L10.4737 13.5612C10.3477 13.6825 10.1848 13.7434 10.0219 13.7434C9.86236 13.7434 9.70283 13.6852 9.57762 13.5685L7.09284 11.253L0.957031 17.1673C1.10623 17.2209 1.26637 17.2625 1.43407 17.2625H18.6098C18.8588 17.2625 19.0924 17.1867 19.2955 17.0735L12.9653 11.1641Z" fill="#FEFEFE"/>
<path d="M10.015 12.1938L19.3295 3.22122C19.1186 3.09583 18.8731 3.01172 18.61 3.01172H1.43428C1.09166 3.01172 0.777718 3.14475 0.533203 3.34764L10.015 12.1938Z" fill="#FEFEFE"/>
<path d="M0 4.66406V15.8283C0 15.9565 0.0294565 16.0801 0.0614329 16.1981L6.12113 10.3628L0 4.66406Z" fill="#FEFEFE"/>
</svg>
