<svg width="18" height="19" viewBox="0 0 18 19" fill="none" xmlns="http://www.w3.org/2000/svg">
<g clip-path="url(#clip0_12_1050)">
<path fill-rule="evenodd" clip-rule="evenodd" d="M12.8534 0.918939C12.9884 0.783563 13.1605 0.691362 13.348 0.654047C13.5355 0.616732 13.7299 0.635987 13.9064 0.709367L16.6411 1.84337C16.8769 1.94075 17.0646 2.12763 17.1629 2.36307C17.2612 2.59851 17.2622 2.86333 17.1657 3.09951L16.0484 5.83422C15.9762 6.01082 15.8533 6.16203 15.6951 6.26873C15.537 6.37543 15.3507 6.43282 15.16 6.43365C14.9692 6.43447 14.7825 6.37869 14.6234 6.27337C14.4643 6.16804 14.3401 6.0179 14.2664 5.84194L13.8254 4.78765L2.71939 9.53322C2.60289 9.58303 2.47772 9.60941 2.35102 9.61084C2.22433 9.61228 2.09859 9.58874 1.981 9.54158C1.8634 9.49442 1.75624 9.42456 1.66564 9.33599C1.57504 9.24742 1.50277 9.14187 1.45296 9.02537C1.40315 8.90887 1.37678 8.7837 1.37535 8.657C1.37391 8.53031 1.39745 8.40457 1.4446 8.28697C1.49176 8.16937 1.56162 8.06221 1.6502 7.97161C1.73877 7.88101 1.84432 7.80875 1.96082 7.75894L13.081 3.00822L12.6477 1.97322C12.5735 1.7969 12.5535 1.60252 12.5901 1.41479C12.6268 1.22705 12.7184 1.05445 12.8534 0.918939ZM16.393 7.6818C16.734 7.6818 17.061 7.81726 17.3021 8.05837C17.5432 8.29949 17.6787 8.62652 17.6787 8.96751V17.9675C17.6787 18.138 17.6109 18.3015 17.4904 18.4221C17.3698 18.5426 17.2063 18.6104 17.0358 18.6104H13.8215C13.651 18.6104 13.4875 18.5426 13.367 18.4221C13.2464 18.3015 13.1787 18.138 13.1787 17.9675V8.96751C13.1787 8.62652 13.3141 8.29949 13.5553 8.05837C13.7964 7.81726 14.1234 7.6818 14.4644 7.6818H16.393ZM10.8734 9.9858C10.6321 9.74513 10.3052 9.6101 9.96439 9.61037H8.03582C7.69483 9.61037 7.3678 9.74583 7.12668 9.98694C6.88556 10.2281 6.7501 10.5551 6.7501 10.8961V17.9675C6.7501 18.138 6.81783 18.3015 6.93839 18.4221C7.05895 18.5426 7.22247 18.6104 7.39296 18.6104H10.6072C10.7777 18.6104 10.9413 18.5426 11.0618 18.4221C11.1824 18.3015 11.2501 18.138 11.2501 17.9675V10.8961C11.2502 10.727 11.217 10.5596 11.1524 10.4034C11.0878 10.2472 10.9929 10.1053 10.8734 9.9858ZM3.53582 11.5389C3.87681 11.5389 4.20384 11.6744 4.44496 11.9155C4.68607 12.1566 4.82153 12.4837 4.82153 12.8247V17.9675C4.82153 18.138 4.7538 18.3015 4.63324 18.4221C4.51269 18.5426 4.34917 18.6104 4.17868 18.6104H0.96439C0.793894 18.6104 0.630381 18.5426 0.509822 18.4221C0.389263 18.3015 0.321533 18.138 0.321533 17.9675V12.8247C0.321533 12.4837 0.456992 12.1566 0.69811 11.9155C0.939228 11.6744 1.26625 11.5389 1.60725 11.5389H3.53582Z" fill="#322E2C"/>
</g>
<defs>
<clipPath id="clip0_12_1050">
<rect width="18" height="18" fill="white" transform="translate(0 0.635986)"/>
</clipPath>
</defs>
</svg>
