<svg width="41" height="38" viewBox="0 0 41 38" fill="none" xmlns="http://www.w3.org/2000/svg">
<path fill-rule="evenodd" clip-rule="evenodd" d="M30.5132 37.9861C36.4839 34.5262 40.5 28.0668 40.5 20.6694C40.5 9.62374 31.5457 0.669434 20.5 0.669434C9.4543 0.669434 0.5 9.62374 0.5 20.6694C0.5 26.7766 3.2373 32.2444 7.55194 35.9129C9.80182 34.867 12.3492 34.1806 15.0966 33.9055C16.1864 33.7887 18.7031 33.8179 19.8791 33.9493C24.0251 34.4279 27.6678 35.8205 30.5132 37.9861ZM12.6498 9.44628C12.6728 9.41565 13.6684 9.00974 14.8632 8.53491C16.0503 8.06008 17.0612 7.66949 17.0995 7.66949C17.1914 7.66183 21.5645 9.37736 21.6334 9.45394C21.6564 9.47692 19.6345 9.49989 17.1378 9.49989C14.6411 9.49989 12.6192 9.47692 12.6498 9.44628ZM5.11416 11.8357V13.0994H17.1382H29.1622V11.8357V10.5721H17.1382H5.11416V11.8357ZM6.65334 34.3903C6.56144 34.3903 6.5308 14.3171 6.62271 14.2252C6.64568 14.1946 11.3864 14.1716 17.1533 14.1716H27.6302V16.4998V18.8204L27.186 18.8663C26.627 18.9276 25.8228 19.1727 25.6314 19.3488C25.4552 19.5097 25.4399 19.8926 25.616 20.0841C25.7692 20.2526 26.0985 20.2602 26.558 20.0994C26.7418 20.0381 27.0635 19.9615 27.2626 19.9386L27.6302 19.8926V20.7044V21.5239L27.3086 21.6847C26.1981 22.2438 25.4858 23.1858 25.1489 24.5337C25.0799 24.8171 25.011 25.2153 25.0033 25.4374C24.988 25.7667 25.0187 25.851 25.1718 25.9735C25.5624 26.2952 25.9836 26.0501 26.0602 25.4527C26.1981 24.4418 26.6117 23.5304 27.1554 23.0479C27.3469 22.8871 27.5307 22.7493 27.5613 22.7493C27.5996 22.7493 27.6302 25.3762 27.6302 28.5775V34.4056L27.4618 34.3597C27.3622 34.3291 26.7801 34.1912 26.1521 34.0457C20.7988 32.8203 14.1435 32.7744 8.59862 33.9385C8.00891 34.061 7.35027 34.2142 7.12817 34.2755C6.91373 34.3367 6.69929 34.3903 6.65334 34.3903ZM14.9017 17.3959C14.9246 15.4966 14.9017 15.2285 14.6796 15.0064C14.5417 14.8686 14.4115 14.8609 12.5888 14.8609C10.789 14.8609 10.6282 14.8686 10.4673 15.0064C10.2836 15.1519 10.2835 15.1596 10.2606 17.0943L10.2605 17.0972C10.2376 18.9812 10.2452 19.0502 10.3984 19.2493L10.5592 19.4561H12.5734C14.5187 19.4561 14.5953 19.4484 14.7332 19.2952C14.8634 19.1497 14.8787 18.9812 14.9017 17.3959ZM23.7244 15.2362L23.5329 15.0524L23.3491 14.8609H21.4038C19.5581 14.8609 19.4585 14.8686 19.2977 15.0141C19.1292 15.1672 19.1292 15.2132 19.1292 17.1891C19.1292 19.0425 19.1369 19.211 19.2671 19.3259C19.3896 19.4407 19.65 19.4561 21.3961 19.4561C22.4837 19.4561 23.418 19.4254 23.464 19.3948C23.6937 19.2416 23.7244 18.9736 23.7244 17.1202V15.2362ZM14.9017 23.339C14.9323 21.3937 14.8863 21.0644 14.5723 20.9265C14.3349 20.8193 10.8349 20.804 10.5669 20.9112C10.475 20.9495 10.3601 21.072 10.3218 21.1792C10.2069 21.4703 10.2222 24.9166 10.3371 25.1617C10.475 25.4757 10.8043 25.5217 12.7496 25.491C14.4804 25.4681 14.534 25.4604 14.7025 25.2919C14.871 25.1234 14.8787 25.0698 14.9017 23.339ZM23.7244 23.1781C23.7244 21.3784 23.7167 21.2175 23.5788 21.0567C23.4334 20.873 23.4257 20.8729 21.4909 20.85L21.488 20.8499C19.604 20.827 19.5351 20.8346 19.336 20.9878L19.1292 21.1486V23.1628C19.1292 25.1081 19.1369 25.1847 19.29 25.3225C19.4355 25.4527 19.604 25.4681 21.1894 25.491C23.0887 25.514 23.3567 25.491 23.5788 25.2689C23.7167 25.1311 23.7244 25.0009 23.7244 23.1781ZM14.9017 30.1858C14.9246 28.2864 14.9017 28.0184 14.6796 27.7963C14.5417 27.6584 14.4115 27.6508 12.5888 27.6508C10.789 27.6508 10.6282 27.6584 10.4673 27.7963C10.2836 27.9417 10.2835 27.9494 10.2606 29.8842L10.2605 29.8871C10.2376 31.7711 10.2452 31.84 10.3984 32.0391L10.5592 32.2459H12.5734C14.5187 32.2459 14.5953 32.2383 14.7332 32.0851C14.8634 31.9396 14.8787 31.7711 14.9017 30.1858ZM23.7244 28.026L23.5329 27.8422L23.3491 27.6508H21.4498C19.5887 27.6584 19.3436 27.6814 19.1905 27.9112C19.1598 27.9571 19.1292 28.8915 19.1292 29.9943C19.1292 31.8324 19.1369 32.0008 19.2671 32.1157C19.3896 32.2306 19.6576 32.2459 21.4115 32.2459C23.3185 32.2459 23.4257 32.2383 23.5712 32.0928C23.7167 31.9472 23.7244 31.84 23.7244 29.9866V28.026ZM11.3174 17.1585V18.3839H12.5811H13.8524L13.8294 17.1739L13.8064 15.9715L12.5657 15.9485L11.3174 15.9332V17.1585ZM20.2012 18.3838V17.1584V15.9331H21.4266H22.652V17.1584V18.3838H21.4266H20.2012ZM11.3559 22.0064C11.3329 22.06 11.3253 22.6191 11.3329 23.2471L11.3559 24.3959H12.5813H13.8067V23.1705V21.9451L12.5966 21.9221C11.6546 21.9068 11.3789 21.9221 11.3559 22.0064ZM20.2012 24.4418V23.1704V21.9068H21.4266H22.652L22.6367 23.1475L22.6137 24.3958L21.4113 24.4188L20.2012 24.4418ZM11.3174 29.9483V31.1737H12.5811H13.8524L13.8294 29.9636L13.8064 28.7612L12.5657 28.7383L11.3174 28.723V29.9483ZM20.2012 31.1737V29.9483V28.723H21.4266H22.652V29.9483V31.1737H21.4266H20.2012ZM31.1147 17.327C31.0304 17.3729 30.9385 17.4495 30.9079 17.4954C30.8773 17.5414 30.8466 18.1464 30.8466 18.8357V20.0994L30.6016 19.8619C30.0119 19.3029 29.1311 18.9199 28.1891 18.8051L27.7832 18.7591V19.2952V19.8237L28.1891 19.8773C29.1081 20.0075 29.9046 20.5053 30.3029 21.2175C30.4637 21.5085 30.4714 21.5392 30.3412 21.4932C29.6979 21.2941 28.7941 21.2405 28.1661 21.3783L27.7832 21.4626V22.037C27.7832 22.5348 27.7985 22.6037 27.9057 22.5654C28.304 22.4123 28.7788 22.351 29.2613 22.3893C29.8127 22.4276 30.6782 22.6956 30.793 22.8565C30.9156 23.0326 30.6475 26.6168 30.3871 28.3477C30.0042 30.852 29.3609 32.8433 28.5184 34.0763C28.3653 34.2984 28.2427 34.5052 28.2427 34.5435C28.2427 34.5741 28.4725 34.6584 28.7482 34.7349L29.2613 34.8728L29.4068 34.689C29.6749 34.3444 30.3795 32.828 30.6475 32.0161C31.1836 30.3619 31.5359 28.3707 31.7274 25.8893C31.7963 25.0703 31.8728 24.0755 31.9035 23.6767L31.9035 23.6759L31.9571 22.9484L32.2252 22.8794C32.3707 22.8411 32.8226 22.8258 33.2208 22.8411C33.8335 22.8641 34.0173 22.9101 34.3926 23.0939C35.0589 23.4232 35.595 24.0818 35.84 24.8554C35.8783 24.9779 35.9396 25.4604 35.9702 25.9199C36.0162 26.6628 36.0468 26.77 36.2 26.8925C36.4298 27.0763 36.5983 27.0763 36.851 26.8772C37.0424 26.7317 37.0501 26.6858 37.0501 26.0195C37.0501 24.7022 36.6595 23.6683 35.863 22.8565C35.1048 22.0906 34.2317 21.7536 32.9681 21.7536H32.2175L32.3937 21.4396C32.6694 20.9418 33.2514 20.3904 33.7339 20.1606C34.1245 19.9768 34.27 19.9538 34.9057 19.9615C35.7099 19.9615 36.1081 20.084 36.9046 20.5742C37.3871 20.8652 37.5479 20.8882 37.8007 20.7121C38.0381 20.5512 38.0304 20.1223 37.7853 19.8926C37.4637 19.5939 36.5446 19.1497 35.932 18.9965C34.5534 18.6442 33.2974 18.9429 32.3248 19.8543L31.9188 20.2449V19.0578C31.9188 17.7635 31.8576 17.4571 31.5666 17.3193C31.3368 17.2197 31.3062 17.2197 31.1147 17.327Z" fill="#FEFEFE"/>
</svg>
