<svg width="29" height="29" viewBox="0 0 29 29" fill="none" xmlns="http://www.w3.org/2000/svg">
<mask id="mask0_695_25708" style="mask-type:luminance" maskUnits="userSpaceOnUse" x="0" y="0" width="29" height="29">
<path d="M25.0669 5.87845C24.8127 5.22561 24.5092 4.75812 24.0204 4.26931C23.53 3.77886 23.0641 3.4754 22.4096 3.2228C21.9159 3.03088 21.1745 2.80288 19.8098 2.74055C18.3335 2.67329 17.8906 2.65853 14.1523 2.65853C10.4141 2.65853 9.97121 2.67329 8.49493 2.74055C7.1302 2.80288 6.38878 3.03088 5.89505 3.2228C5.24221 3.47704 4.77472 3.7805 4.28591 4.26931C3.79546 4.75976 3.492 5.22561 3.2394 5.87845C3.04748 6.37218 2.81948 7.1136 2.75715 8.47833C2.6899 9.95461 2.67513 10.3975 2.67513 14.1357C2.67513 17.874 2.6899 18.3169 2.75715 19.7932C2.81948 21.1579 3.04748 21.8993 3.2394 22.393C3.49364 23.0459 3.7971 23.5134 4.28591 24.0022C4.77636 24.4926 5.24221 24.7944 5.89505 25.0487C6.38878 25.2406 7.1302 25.4686 8.49493 25.5309C9.97121 25.5982 10.4141 25.613 14.1523 25.613C17.8906 25.613 18.3335 25.5982 19.8098 25.5309C21.1745 25.4686 21.9159 25.2406 22.4096 25.0487C23.0641 24.7944 23.53 24.491 24.0204 24.0022C24.5092 23.5117 24.8127 23.0459 25.0669 22.393C25.2588 21.8993 25.4869 21.1579 25.5492 19.7932C25.6164 18.3169 25.6312 17.874 25.6312 14.1357C25.6312 10.3975 25.6164 9.95461 25.5492 8.47833C25.4869 7.1136 25.2588 6.37218 25.0669 5.87845ZM14.154 21.3252C10.1828 21.3252 6.96453 18.1069 6.96453 14.1357C6.96453 10.1646 10.1828 6.94629 14.154 6.94629C18.1252 6.94629 21.3434 10.1646 21.3434 14.1357C21.3434 18.1069 18.1252 21.3252 14.154 21.3252ZM21.6272 8.34219C20.6988 8.34219 19.9475 7.58929 19.9475 6.66251C19.9475 5.73574 20.7004 4.98284 21.6272 4.98284C22.554 4.98284 23.3069 5.7341 23.3069 6.66251C23.3069 7.59093 22.554 8.34219 21.6272 8.34219ZM14.154 9.46908C11.5771 9.46908 9.48732 11.5588 9.48732 14.1357C9.48732 16.7127 11.5771 18.8024 14.154 18.8024C16.7309 18.8024 18.8207 16.7127 18.8207 14.1357C18.8207 11.5588 16.7309 9.46908 14.154 9.46908ZM28.0703 19.908C28.0014 21.3974 27.7652 22.416 27.4191 23.3067C27.0615 24.2269 26.5826 25.0077 25.8034 25.7868C25.0243 26.5643 24.2451 27.0433 23.3233 27.4009C22.4326 27.747 21.4156 27.9832 19.9246 28.0521C18.4319 28.1193 17.9546 28.1357 14.1523 28.1357C10.3501 28.1357 9.87443 28.1193 8.38011 28.0521C6.89072 27.9832 5.87209 27.747 4.9814 27.4009C4.06119 27.0433 3.28041 26.5643 2.50126 25.7868C1.72212 25.0077 1.24479 24.2269 0.8872 23.3067C0.541096 22.416 0.304892 21.399 0.235999 19.908C0.168747 18.4153 0.152344 17.938 0.152344 14.1357C0.152344 10.3335 0.168747 9.85619 0.235999 8.36351C0.303252 6.87411 0.541096 5.85548 0.8872 4.9648C1.24479 4.04459 1.72376 3.2638 2.50126 2.48466C3.28041 1.70715 4.05955 1.22819 4.9814 0.870599C5.87209 0.524494 6.88908 0.288291 8.38011 0.219398C9.87279 0.150505 10.3501 0.135742 14.1523 0.135742C17.9546 0.135742 18.4319 0.152145 19.9246 0.219398C21.414 0.28665 22.4326 0.524494 23.3233 0.870599C24.2435 1.22819 25.0243 1.70715 25.8034 2.48466C26.5809 3.2638 27.0599 4.04459 27.4191 4.9648C27.7652 5.85548 28.0014 6.87247 28.0703 8.36351C28.1392 9.85619 28.154 10.3335 28.154 14.1357C28.154 17.938 28.1376 18.4153 28.0703 19.908Z" fill="white"/>
</mask>
<g mask="url(#mask0_695_25708)">
<rect x="-0.214844" y="-0.262939" width="28.7053" height="28.7053" fill="#FEFEFE"/>
</g>
</svg>
