<svg width="26" height="26" viewBox="0 0 26 26" fill="none" xmlns="http://www.w3.org/2000/svg">
<path d="M6.09427 8.46582H0.681641V25.1358H6.09427V8.46582Z" fill="#FEFEFE"/>
<path d="M3.38897 0.135742C1.64361 0.135742 0.503574 1.38675 0.538885 3.05308C0.503574 4.64543 1.64192 5.93343 3.35197 5.93343C5.06202 5.93343 6.27268 4.64543 6.27268 3.05308C6.23736 1.38675 5.13433 0.135742 3.38897 0.135742Z" fill="#FEFEFE"/>
<path d="M19.5549 8.07397C17.1975 8.07397 15.5783 9.19215 14.6753 10.2027V8.46576H9.2627V25.1358H14.6753V15.8373C14.6753 15.3379 14.7459 14.8049 14.8889 14.4837C15.2453 13.4866 16.1348 12.4542 17.6313 12.4542C19.5902 12.4542 20.3738 13.986 20.3738 16.2291V25.1358H25.7864V15.5531C25.7864 10.4247 23.1163 8.07566 19.5549 8.07566V8.07397Z" fill="#FEFEFE"/>
</svg>
