<svg width="14" height="21" viewBox="0 0 14 21" fill="none" xmlns="http://www.w3.org/2000/svg">
<path d="M7 9.63672C6.33696 9.63672 5.70107 9.37333 5.23223 8.90449C4.76339 8.43565 4.5 7.79976 4.5 7.13672C4.5 6.47368 4.76339 5.83779 5.23223 5.36895C5.70107 4.90011 6.33696 4.63672 7 4.63672C7.66304 4.63672 8.29893 4.90011 8.76777 5.36895C9.23661 5.83779 9.5 6.47368 9.5 7.13672C9.5 7.46502 9.43534 7.79011 9.3097 8.09343C9.18406 8.39674 8.99991 8.67234 8.76777 8.90449C8.53562 9.13663 8.26002 9.32078 7.95671 9.44642C7.65339 9.57205 7.3283 9.63672 7 9.63672ZM7 0.136719C5.14348 0.136719 3.36301 0.874217 2.05025 2.18697C0.737498 3.49973 0 5.2802 0 7.13672C0 12.3867 7 20.1367 7 20.1367C7 20.1367 14 12.3867 14 7.13672C14 5.2802 13.2625 3.49973 11.9497 2.18697C10.637 0.874217 8.85652 0.136719 7 0.136719Z" fill="#C65427"/>
</svg>
