<svg width="160" height="162" viewBox="0 0 160 162" fill="none" xmlns="http://www.w3.org/2000/svg">
<g clip-path="url(#clip0_1723_6755)">
<path d="M121.145 136.044H38.2881C38.2881 123.304 38.2881 53.0403 38.2881 42.8571C38.2881 32.4103 43.5994 22.6667 51.3797 15.5238C59.1452 8.37363 69.3137 3.94139 78.5079 3.95604H80.9254C90.1196 3.94139 100.288 8.37363 108.054 15.5238C115.827 22.6667 121.153 32.4103 121.145 42.8571V136.044ZM125.101 42.8571C125.094 31.033 119.138 20.337 110.728 12.6081C102.303 4.88645 91.3723 0.014652 80.9254 0H78.5079C68.061 0.014652 57.1306 4.88645 48.7057 12.6081C40.2954 20.337 34.3394 31.033 34.332 42.8571V140H125.101V138.022C125.101 138.022 125.101 54.0659 125.101 42.8571Z" fill="#231F20"/>
<path d="M110.545 67.3042C110.545 67.3042 110.816 70.5496 110.816 76.9159C110.816 83.2822 110.596 87.6265 110.596 87.6265H114.003C114.003 87.6265 113.783 81.9709 113.783 76.4178C113.783 70.8646 114.003 67.2969 114.003 67.2969H110.545V67.3042Z" fill="#231F20"/>
<path d="M97.629 99.8314C98.8378 101.04 99.5484 102.198 99.5484 102.908C99.5484 103.619 99.2187 104.278 98.2297 105.436C97.2407 106.593 95.3286 108.029 94.7645 108.447V105.714C94.7645 105.714 93.6656 105.824 92.1272 105.824H87.922C87.8634 103.795 87.7975 100.872 87.7902 97.912H91.248C91.7462 97.912 93.2773 98.1831 93.2773 98.1831V95.1062C93.2773 95.1062 92.1198 95.2747 91.248 95.2747H87.7975C87.8195 93.4065 87.8561 91.8388 87.9 90.6593H92.2957C93.2407 90.6593 94.2077 90.7399 94.6839 90.7911C93.8414 91.7435 93.2847 92.7985 93.2847 93.8461C93.2847 96.5347 95.8414 98.0439 97.629 99.8314ZM89.7609 118.022C90.4348 116.029 90.9623 114.418 91.3506 113.187C91.7389 114.425 92.2663 116.029 92.9403 118.022H89.7609ZM62.2077 106.044C58.8085 106.044 56.0466 102.513 56.0466 98.1538C56.0466 93.7948 58.8011 90.2637 62.2077 90.2637C65.6143 90.2637 68.3689 93.7948 68.3689 98.1538C68.3689 102.513 65.6143 106.044 62.2077 106.044ZM53.4092 94.9084C53.0209 94.945 52.5447 94.9816 52.1345 94.9816H48.6839C48.7059 93.2453 48.7425 91.7728 48.7792 90.6519H53.1748C53.8048 90.6519 54.7718 90.6812 55.607 90.7179C54.6107 91.8827 53.8488 93.3113 53.4019 94.9084M65.0795 75.4358C65.7535 73.5018 66.281 71.934 66.6693 70.7325C67.0576 71.934 67.585 73.4944 68.259 75.4358H65.0795ZM58.596 85.1721C58.5447 83.4798 58.4788 80.9377 58.4568 78.2344H61.4312C60.3396 81.1867 59.314 83.5897 58.596 85.1721ZM115.255 88.4029H100.86V89.3919L99.7022 87.3626C98.1491 87.9706 96.3396 89.0768 95.0429 90.3955L95.3652 88.1318L87.2407 88.1904H85.4898C86.259 86.0952 90.5008 74.5494 91.248 72.2051C92.0685 69.619 93.6143 67.1501 93.6143 67.1501H89.7096L85.314 79.8974L83.4971 75.1867L86.4715 67.3699H83.6729L82.0759 71.5018L80.4788 67.3699H77.6803L80.5887 75.3626L78.8378 79.8974L74.4422 67.1501H70.5374C70.5374 67.1501 72.0759 69.6263 72.8964 72.2051C73.0869 72.8058 73.4971 73.9853 74.0099 75.4432H70.9184C69.0356 70.1684 67.1455 65.4651 66.7499 64.4908L66.6986 64.293C66.6986 64.293 66.6912 64.3149 66.6839 64.3223C66.6839 64.3149 66.6693 64.293 66.6693 64.293L66.6107 64.4908C66.2151 65.4725 64.3249 70.1684 62.4422 75.4432H58.4568C58.4715 70.2417 58.6766 66.9303 58.6766 66.9303H55.2187C55.2187 66.9303 55.4605 69.8021 55.4898 75.4432H48.574C48.5887 70.2417 48.7938 66.9303 48.7938 66.9303H45.3359C45.3359 66.9303 45.6143 70.1684 45.6143 76.5494C45.6143 82.9303 45.3945 87.26 45.3945 87.26H48.8011C48.8011 87.26 48.6326 83.0036 48.5887 78.249H55.4971C55.4605 83.6776 55.2847 87.26 55.2847 87.26H61.4971C61.4971 87.26 62.618 82.9377 64.1784 78.1904H69.2334C70.7865 82.9377 71.9147 87.26 71.9147 87.26H75.7608C75.7608 87.26 73.944 83.6556 71.9293 78.1904H73.4239L74.2224 75.9633C75.9367 80.8278 78.5887 88.1831 78.5887 88.1831L82.0099 79.1794L85.2847 88.1831H84.5814C84.5814 88.1831 84.8598 91.4212 84.8598 97.8021C84.8598 101.465 84.7865 104.454 84.7279 106.337L78.596 97.2527V96.9816C78.596 96.9816 81.8414 96.0439 81.8414 92.586C81.8414 89.1281 79.8048 88.1318 77.4458 88.1318H70.9623C70.9623 88.1318 71.292 88.63 71.292 89.89V96.2124C70.4861 91.2747 66.7352 87.5384 62.2297 87.5384C60.4129 87.5384 58.7279 88.1538 57.2993 89.1941L57.2847 87.9926L48.1711 88.1831H45.4751C45.4751 88.1831 45.7535 91.4212 45.7535 97.8021C45.7535 104.183 45.5337 108.513 45.5337 108.513H48.9403C48.9403 108.513 48.7279 103.062 48.7206 97.619H52.1784C52.3616 97.619 52.6839 97.6556 53.0209 97.7069C53.0209 97.8681 52.9989 98.0292 52.9989 98.1904C52.9989 104.073 57.1308 108.842 62.2297 108.842C66.7425 108.842 70.4935 105.106 71.292 100.168V106.315C71.292 106.864 70.9623 107.963 70.9623 107.963H74.4788V90.5494H76.6253C77.8341 90.5494 78.7718 91.0988 78.7718 92.5787C78.7718 94.0585 78.0612 95.6043 74.9257 97.0256L82.237 108.952H90.3762C89.4165 111.165 87.922 114.681 86.574 118.63C86.0246 120.227 85.4532 121.736 84.8964 123.099L81.9074 118.403V118.11C81.9074 118.11 84.7645 117.722 84.7645 113.656C84.7645 109.993 81.2847 109.018 78.8891 109.018H73.9953C73.9953 109.018 74.0099 109.04 74.0246 109.077H62.6473C61.0795 109.077 58.9403 108.681 58.9403 108.681L58.6693 111.626H65.4092C65.3945 113.084 65.3726 115.831 65.3726 119.846C65.3726 126.117 65.1528 130.388 65.1528 130.388H68.5594C68.5594 130.388 68.3396 124.82 68.3396 119.355C68.3396 115.817 68.3176 113.099 68.303 111.626H74.3396V128.271C74.3396 128.85 74.0026 130.015 74.0026 130.015H77.5777V111.919H79.7535C80.9843 111.919 81.8048 112.425 81.8048 113.993C81.8048 115.187 81.3286 116.066 78.1491 117.575L83.5044 126.337C82.4275 128.703 81.6363 130.161 81.6363 130.161H85.1528C85.1528 130.161 85.2554 129.905 85.4239 129.48L85.8707 130.205H89.4385L86.7425 125.978C87.3579 124.286 88.0685 122.271 88.7132 120.271H93.7682C95.3213 125.15 97.0795 130.161 97.0795 130.161H103.343C103.343 130.161 103.123 124.344 103.123 118.637C103.123 112.93 103.343 109.253 103.343 109.253H99.8854C99.8854 109.253 100.156 112.586 100.156 119.143C100.156 122.996 100.083 126.117 100.017 128.044C99.2627 126.315 98.1491 123.656 97.0136 120.498H99.1088L99.7169 118.015H96.2004C94.9477 114.41 93.8195 111.077 93.0795 108.945H94.8304V108.74L96.8085 110.923C102.801 105.817 102.691 104.33 102.691 102.85C102.691 101.37 102.581 100.212 100.164 97.9633C97.7462 95.7069 96.6986 94.7179 96.6986 93.7875C96.6986 92.8571 97.1381 92.0805 98.6766 91.1501C99.7828 90.4761 100.574 90.0659 100.933 89.8827V90.8717H106.625C106.611 92.4029 106.596 94.7911 106.596 98.0366C106.596 104.132 106.376 108.286 106.376 108.286H109.783C109.783 108.286 109.563 102.872 109.563 97.5604C109.563 94.6959 109.548 92.3882 109.534 90.8644H115.336V88.3882L115.255 88.4029Z" fill="#231F20"/>
<path d="M104.076 84.1244C103.438 82.6445 102.662 80.7544 101.856 78.5639H103.351L104.171 76.2782C104.171 76.4907 104.171 76.6958 104.171 76.9156C104.171 79.8094 104.127 82.2782 104.076 84.1244ZM95.0428 75.8167C95.7168 73.8753 96.2443 72.3149 96.6326 71.1134C97.0209 72.3149 97.5483 73.8753 98.2223 75.8167H95.0428ZM107.358 67.2965H103.893C103.893 67.2965 104.134 70.1683 104.164 75.8167H100.867C98.9842 70.542 97.0941 65.8387 96.6985 64.8643L96.6399 64.6665C96.6399 64.6665 96.6326 64.6885 96.6253 64.6958C96.6253 64.6885 96.6106 64.6665 96.6106 64.6665L96.552 64.8643C96.1271 65.9119 93.9952 71.2086 91.9952 76.9156C89.7535 83.2892 87.5703 87.6262 87.5703 87.6262H91.4165C91.4165 87.6262 92.5373 83.3039 94.0978 78.5566H99.1527C100.706 83.3039 101.834 87.6262 101.834 87.6262H107.358C107.358 87.6262 107.138 81.9705 107.138 76.4174C107.138 70.8643 107.358 67.2965 107.358 67.2965Z" fill="#231F20"/>
<path d="M109.387 118.63C109.387 112.923 109.607 109.245 109.607 109.245H106.142C106.142 109.245 106.42 112.579 106.42 119.135C106.42 125.692 106.2 130.154 106.2 130.154H116.808L117.629 127.275H109.519C109.46 125.048 109.387 121.824 109.387 118.63Z" fill="#231F20"/>
<path d="M50.9767 127.092C47.6288 127.092 46.9108 124.843 46.9108 123.854C46.9108 122.938 47.343 121.245 48.6617 120.381C48.6617 120.381 48.6617 120.388 48.6691 120.396C50.0244 122.139 51.9438 124.169 53.7167 125.949C53.0061 126.637 52.0976 127.099 50.9767 127.099M63.2332 117.37H55.2625C55.2625 117.37 55.7606 118.96 55.7606 120.996C55.7606 121.597 55.6361 122.374 55.3724 123.172C48.7057 116.835 47.9072 113.678 47.9072 113.363C47.9072 112.982 48.1782 111.604 49.7167 111.604C51.2551 111.604 53.3431 114.63 53.3431 114.63L55.6507 112.703C55.6507 112.703 53.6727 108.747 49.8778 108.747C46.083 108.747 44.8742 112.264 44.8742 113.311C44.8742 114.125 45.2185 115.451 46.9035 117.971C46.2954 118.55 44.2148 120.747 44.2148 123.473C44.2148 126.659 46.4126 130.176 50.5885 130.176C52.442 130.176 54.3321 129.407 55.8266 128.007C57.3137 129.429 58.3907 130.396 58.3907 130.396C58.3907 130.396 59.8192 128.528 60.1489 128.198C60.4786 127.868 60.2588 127.487 60.2588 127.487C59.3577 126.747 58.5299 126.037 57.7533 125.355C58.4566 123.876 58.8229 122.095 58.6617 120.066H62.5079L63.2258 117.37H63.2332Z" fill="#231F20"/>
<path d="M80.9251 56.8717C80.427 57.0402 74.1119 59.7288 74.1119 59.7288C74.1119 59.7288 73.7603 59.8387 73.5918 60.227H78.405L84.4929 57.6482C84.4929 57.6482 85.3134 57.3699 84.9325 56.4395C84.6907 55.8534 84.427 55.194 84.2658 54.7911C83.6944 54.8058 81.9654 54.608 80.5735 54.4321L80.5369 56.0512C80.5369 56.0512 81.416 56.7105 80.9251 56.8717Z" fill="#231F20"/>
<path d="M108.061 27.2969H52.1924V60.2199H108.061V27.2969Z" fill="#E53A2C"/>
<path d="M81.1456 10.5493H78.0687C58.4497 10.5493 44.6621 30.5127 44.6621 42.6372V60.2196H70.2299L78.9478 56.3735C78.9478 56.3735 79.3288 55.6043 79.0577 55.3259C78.8746 55.1427 78.6621 54.5566 78.5669 54.1464C69.3141 52.1537 65.9222 47.6262 65.2116 45.6555C64.4936 43.6775 65.0431 42.4687 65.0431 42.4687C65.0431 42.4687 65.2116 41.8094 64.8233 41.2599C64.4423 40.7105 64.2738 39.5017 63.7244 37.0328C63.1749 34.5566 61.6877 33.3479 60.0394 33.3479C58.391 33.3479 56.2445 34.8863 55.7537 35.4358C55.2555 35.9852 54.6328 37.0841 54.6548 36.8057C54.9845 32.52 59.4313 31.7508 60.6401 31.7508C61.8489 31.7508 62.8965 32.0218 62.8965 32.0218C62.8965 32.0218 64.5962 30.8131 68.9405 31.0328C73.2848 31.2526 74.4936 34.9889 76.4716 35.9779C78.4497 36.9669 83.5046 39.8827 85.8123 40.8131C88.12 41.7435 89.109 42.6226 89.109 42.6226C88.3984 42.5127 87.5119 42.4614 87.5119 42.4614C91.1896 43.7801 97.4533 47.5163 97.4533 47.5163L97.5119 47.7361C94.7061 47.7361 90.3105 46.7471 89.7097 46.3076C89.109 45.868 88.8892 46.249 89.1603 46.3588C89.4387 46.4687 89.9295 46.7984 90.2592 47.1281C90.5888 47.4577 91.6365 47.8973 91.9075 48.0585C92.1859 48.227 92.1273 48.3881 92.1273 48.3881H91.3581L91.468 48.6592L92.1786 48.7178C92.8965 48.7764 93.2775 48.8863 94.5449 49.4358C95.8123 49.9852 95.6438 50.205 95.6438 50.205H95.424C95.2042 50.205 94.4863 50.5347 94.4863 50.5347H92.728C92.728 50.5347 91.9075 50.2563 91.468 49.9339C91.0284 49.6043 91.0797 49.9852 91.3581 50.2123C91.6291 50.4321 92.4057 50.8131 92.4057 50.8131H95.0431C98.5009 52.3515 105.314 56.4761 105.314 56.4761L104.215 56.9669C104.215 56.9669 96.1932 53.3918 95.8636 53.1794C95.5339 52.9596 95.0943 53.0109 94.8746 53.2306C94.6548 53.4504 93.9442 53.2306 93.3947 53.5603C92.8453 53.89 90.0394 53.9486 89.4387 53.5603C88.8306 53.1794 88.0614 53.2819 87.3508 53.5603C87.065 53.6702 86.6694 53.8753 86.2372 54.0878C86.2738 54.6592 86.3251 55.4211 86.3617 55.6555C86.413 56.0365 86.9625 56.9156 87.0724 57.3039C87.1823 57.6848 86.5742 58.183 86.2519 58.2343C85.9222 58.2929 85.5412 58.2929 85.5412 58.2929C85.5412 58.2929 82.7427 59.6116 82.076 59.8826C81.8489 59.9779 81.6731 60.0951 81.5193 60.2123H114.552V42.6299C114.552 30.5054 100.765 10.542 81.1456 10.542" fill="#231F20"/>
<path d="M66.6399 33.0771C66.1563 33.0771 65.7607 33.4728 65.7607 33.9563C65.7607 34.4398 66.1563 34.8354 66.6399 34.8354C67.1234 34.8354 67.519 34.4398 67.519 33.9563C67.519 33.4728 67.1234 33.0771 66.6399 33.0771Z" fill="#231F20"/>
</g>
<path d="M2.904 158.616V154.92L0.756 151.476C0.6 151.224 0.492 151.176 0.24 151.176H0V150.144H0.552C1.128 150.144 1.356 150.228 1.692 150.792L2.976 152.928C3.252 153.396 3.492 153.876 3.492 153.876H3.516C3.516 153.876 3.744 153.396 4.032 152.928L5.304 150.792C5.64 150.228 5.88 150.144 6.444 150.144H6.996V151.176H6.768C6.516 151.176 6.396 151.224 6.24 151.476L4.104 154.92V158.616H2.904Z" fill="#231F20"/>
<path d="M6.69872 155.568C6.69872 153.732 8.15072 152.4 9.96272 152.4C11.7747 152.4 13.2387 153.732 13.2387 155.568C13.2387 157.416 11.7747 158.76 9.96272 158.76C8.15072 158.76 6.69872 157.416 6.69872 155.568ZM7.88672 155.568C7.88672 156.84 8.82272 157.752 9.96272 157.752C11.1147 157.752 12.0507 156.84 12.0507 155.568C12.0507 154.308 11.1147 153.408 9.96272 153.408C8.82272 153.408 7.88672 154.308 7.88672 155.568Z" fill="#231F20"/>
<path d="M14.669 156.432V153.804C14.669 153.624 14.573 153.54 14.405 153.54H13.913V152.544H15.053C15.605 152.544 15.833 152.772 15.833 153.288V156.168C15.833 157.008 16.001 157.68 16.961 157.68C18.209 157.68 18.941 156.588 18.941 155.388V152.544H20.105V157.356C20.105 157.536 20.201 157.62 20.369 157.62H20.861V158.616H19.745C19.229 158.616 18.977 158.376 18.977 157.944V157.716C18.977 157.524 18.989 157.368 18.989 157.368H18.965C18.713 157.968 17.933 158.76 16.733 158.76C15.365 158.76 14.669 158.04 14.669 156.432Z" fill="#231F20"/>
<path d="M22.1461 158.616V153.804C22.1461 153.624 22.0501 153.54 21.8821 153.54H21.3901V152.544H22.4941C23.0221 152.544 23.2741 152.76 23.2741 153.252V153.636C23.2741 153.876 23.2501 154.056 23.2501 154.056H23.2741C23.5621 153.168 24.2581 152.472 25.1941 152.472C25.3501 152.472 25.5061 152.496 25.5061 152.496V153.648C25.5061 153.648 25.3501 153.612 25.1581 153.612C24.4141 153.612 23.7301 154.14 23.4541 155.04C23.3461 155.388 23.3101 155.76 23.3101 156.132V158.616H22.1461Z" fill="#231F20"/>
<path d="M29.4094 154.344C29.4094 151.908 31.2574 150 33.6814 150C35.7094 150 36.7054 151.044 36.7054 151.044L36.0214 151.92C36.0214 151.92 35.1094 151.104 33.7054 151.104C32.0134 151.104 30.6574 152.46 30.6574 154.344C30.6574 156.312 32.0134 157.632 33.7294 157.632C35.2414 157.632 36.1414 156.576 36.1414 156.576V155.724C36.1414 155.556 36.0454 155.46 35.8774 155.46H35.3614V154.428H36.4774C37.0174 154.428 37.2454 154.656 37.2454 155.196V158.616H36.1894V158.088C36.1894 157.908 36.2014 157.728 36.2014 157.728H36.1774C36.1774 157.728 35.2294 158.76 33.5374 158.76C31.2814 158.76 29.4094 156.984 29.4094 154.344Z" fill="#231F20"/>
<path d="M38.9268 156.432V153.804C38.9268 153.624 38.8308 153.54 38.6628 153.54H38.1708V152.544H39.3108C39.8628 152.544 40.0908 152.772 40.0908 153.288V156.168C40.0908 157.008 40.2588 157.68 41.2188 157.68C42.4668 157.68 43.1988 156.588 43.1988 155.388V152.544H44.3628V157.356C44.3628 157.536 44.4588 157.62 44.6268 157.62H45.1188V158.616H44.0028C43.4868 158.616 43.2348 158.376 43.2348 157.944V157.716C43.2348 157.524 43.2468 157.368 43.2468 157.368H43.2228C42.9708 157.968 42.1908 158.76 40.9908 158.76C39.6228 158.76 38.9268 158.04 38.9268 156.432Z" fill="#231F20"/>
<path d="M46.4879 151.356V150.144H47.5319V151.356H46.4879ZM46.4639 157.848V153.804C46.4639 153.624 46.3679 153.54 46.1999 153.54H45.7079V152.544H46.8479C47.3879 152.544 47.6159 152.772 47.6159 153.312V157.356C47.6159 157.536 47.7119 157.62 47.8799 157.62H48.3719V158.616H47.2319C46.6919 158.616 46.4639 158.388 46.4639 157.848Z" fill="#231F20"/>
<path d="M49.1326 155.58C49.1326 153.648 50.2726 152.4 51.8806 152.4C53.2846 152.4 53.7526 153.336 53.7526 153.336H53.7766C53.7766 153.336 53.7526 153.156 53.7526 152.928V151.404C53.7526 151.224 53.6566 151.14 53.4886 151.14H52.9966V150.144H54.1486C54.6886 150.144 54.9166 150.372 54.9166 150.912V157.356C54.9166 157.536 55.0126 157.62 55.1806 157.62H55.6726V158.616H54.5566C54.0286 158.616 53.8126 158.376 53.8126 157.968C53.8126 157.788 53.8246 157.656 53.8246 157.656H53.8006C53.8006 157.656 53.2966 158.76 51.8086 158.76C50.1646 158.76 49.1326 157.464 49.1326 155.58ZM52.0366 157.752C52.9366 157.752 53.7886 157.116 53.7886 155.568C53.7886 154.488 53.2246 153.408 52.0606 153.408C51.1126 153.408 50.3206 154.2 50.3206 155.58C50.3206 156.9 51.0286 157.752 52.0366 157.752Z" fill="#231F20"/>
<path d="M56.3862 155.58C56.3862 153.648 57.7062 152.4 59.4342 152.4C61.1382 152.4 62.0502 153.672 62.0502 155.244C62.0502 155.4 62.0142 155.724 62.0142 155.724H57.5862C57.6582 157.02 58.5942 157.752 59.6742 157.752C60.7182 157.752 61.4502 157.044 61.4502 157.044L61.9542 157.872C61.9542 157.872 61.0542 158.76 59.6142 158.76C57.6942 158.76 56.3862 157.38 56.3862 155.58ZM57.6342 154.872H60.8502C60.8142 153.864 60.1782 153.324 59.4222 153.324C58.5342 153.324 57.8142 153.864 57.6342 154.872Z" fill="#231F20"/>
<path d="M66.866 156.396V153.48H66.074V152.544H66.89V150.876H68.03V152.544H69.482V153.48H68.03V156.264C68.03 157.476 68.87 157.632 69.314 157.632C69.482 157.632 69.59 157.608 69.59 157.608V158.64C69.59 158.64 69.434 158.664 69.182 158.664C68.414 158.664 66.866 158.424 66.866 156.396Z" fill="#231F20"/>
<path d="M70.3432 155.568C70.3432 153.732 71.7953 152.4 73.6073 152.4C75.4193 152.4 76.8832 153.732 76.8832 155.568C76.8832 157.416 75.4193 158.76 73.6073 158.76C71.7953 158.76 70.3432 157.416 70.3432 155.568ZM71.5312 155.568C71.5312 156.84 72.4673 157.752 73.6073 157.752C74.7593 157.752 75.6953 156.84 75.6953 155.568C75.6953 154.308 74.7593 153.408 73.6073 153.408C72.4673 153.408 71.5312 154.308 71.5312 155.568Z" fill="#231F20"/>
<path d="M81.7642 157.848V151.176H80.9842V150.144H84.6082C86.0362 150.144 87.0682 150.936 87.0682 152.304C87.0682 153.228 86.5762 153.852 86.0122 154.128V154.152C86.9122 154.416 87.4042 155.256 87.4042 156.204C87.4042 157.8 86.1802 158.616 84.6802 158.616H82.5322C81.9922 158.616 81.7642 158.388 81.7642 157.848ZM82.9642 153.708H84.6202C85.3642 153.708 85.8442 153.168 85.8442 152.424C85.8442 151.68 85.3882 151.176 84.5962 151.176H82.9642V153.708ZM82.9642 157.32C82.9642 157.488 83.0602 157.584 83.2282 157.584H84.7402C85.6402 157.584 86.1682 157.008 86.1682 156.144C86.1682 155.28 85.6042 154.692 84.7402 154.692H82.9642V157.32Z" fill="#231F20"/>
<path d="M89.0504 151.356V150.144H90.0944V151.356H89.0504ZM89.0264 157.848V153.804C89.0264 153.624 88.9304 153.54 88.7624 153.54H88.2704V152.544H89.4104C89.9504 152.544 90.1784 152.772 90.1784 153.312V157.356C90.1784 157.536 90.2744 157.62 90.4424 157.62H90.9344V158.616H89.7944C89.2544 158.616 89.0264 158.388 89.0264 157.848Z" fill="#231F20"/>
<path d="M91.6951 155.436C91.6951 153.696 92.6671 152.4 94.3591 152.4C95.8711 152.4 96.3031 153.348 96.3031 153.348H96.3271C96.3271 153.348 96.3271 153.252 96.3271 153.156C96.3271 152.796 96.5191 152.544 96.9991 152.544H98.1271V153.54H97.6471C97.4911 153.54 97.3831 153.624 97.3831 153.78V158.364C97.3831 160.368 95.8591 161.136 94.3231 161.136C93.5911 161.136 92.8471 160.932 92.2471 160.632L92.6431 159.696C92.6431 159.696 93.3871 160.104 94.2991 160.104C95.3551 160.104 96.2191 159.636 96.2191 158.412V158.004C96.2191 157.812 96.2431 157.62 96.2431 157.62H96.2191C95.8591 158.208 95.2951 158.544 94.4071 158.544C92.7271 158.544 91.6951 157.188 91.6951 155.436ZM94.6351 157.536C95.4751 157.536 96.2551 157.032 96.2551 155.448C96.2551 153.864 95.4751 153.408 94.5391 153.408C93.4831 153.408 92.8831 154.176 92.8831 155.412C92.8831 156.672 93.5431 157.536 94.6351 157.536Z" fill="#231F20"/>
<path d="M101.754 158.616V157.584H101.922C102.138 157.584 102.246 157.536 102.318 157.32L104.97 150.144H106.23L108.882 157.32C108.954 157.536 109.074 157.584 109.278 157.584H109.458V158.616H108.786C108.186 158.616 107.994 158.472 107.802 157.92L107.166 156.18H104.046L103.41 157.92C103.206 158.472 103.014 158.616 102.414 158.616H101.754ZM104.334 155.172H106.866L105.942 152.592C105.786 152.148 105.606 151.404 105.606 151.404H105.582C105.582 151.404 105.414 152.148 105.258 152.592L104.334 155.172Z" fill="#231F20"/>
<path d="M110.035 155.58C110.035 153.648 111.175 152.4 112.783 152.4C114.187 152.4 114.655 153.336 114.655 153.336H114.679C114.679 153.336 114.655 153.156 114.655 152.928V151.404C114.655 151.224 114.559 151.14 114.391 151.14H113.899V150.144H115.051C115.591 150.144 115.819 150.372 115.819 150.912V157.356C115.819 157.536 115.915 157.62 116.083 157.62H116.575V158.616H115.459C114.931 158.616 114.715 158.376 114.715 157.968C114.715 157.788 114.727 157.656 114.727 157.656H114.703C114.703 157.656 114.199 158.76 112.711 158.76C111.067 158.76 110.035 157.464 110.035 155.58ZM112.939 157.752C113.839 157.752 114.691 157.116 114.691 155.568C114.691 154.488 114.127 153.408 112.963 153.408C112.015 153.408 111.223 154.2 111.223 155.58C111.223 156.9 111.931 157.752 112.939 157.752Z" fill="#231F20"/>
<path d="M119.377 158.616L117.505 153.78C117.433 153.6 117.325 153.54 117.133 153.54H117.013V152.544H117.613C118.153 152.544 118.357 152.676 118.537 153.156L119.845 156.648C119.965 156.984 120.061 157.44 120.061 157.44H120.085C120.085 157.44 120.181 156.984 120.301 156.648L121.597 153.156C121.777 152.676 121.993 152.544 122.521 152.544H123.085V153.54H122.965C122.761 153.54 122.641 153.6 122.569 153.78L120.721 158.616H119.377Z" fill="#231F20"/>
<path d="M123.558 155.58C123.558 153.648 124.878 152.4 126.606 152.4C128.31 152.4 129.222 153.672 129.222 155.244C129.222 155.4 129.186 155.724 129.186 155.724H124.758C124.83 157.02 125.766 157.752 126.846 157.752C127.89 157.752 128.622 157.044 128.622 157.044L129.126 157.872C129.126 157.872 128.226 158.76 126.786 158.76C124.866 158.76 123.558 157.38 123.558 155.58ZM124.806 154.872H128.022C127.986 153.864 127.35 153.324 126.594 153.324C125.706 153.324 124.986 153.864 124.806 154.872Z" fill="#231F20"/>
<path d="M130.767 158.616V153.804C130.767 153.624 130.671 153.54 130.503 153.54H130.011V152.544H131.127C131.643 152.544 131.895 152.772 131.895 153.216V153.444C131.895 153.636 131.871 153.792 131.871 153.792H131.895C132.135 153.264 132.855 152.4 134.175 152.4C135.615 152.4 136.263 153.18 136.263 154.728V157.356C136.263 157.536 136.359 157.62 136.527 157.62H137.019V158.616H135.867C135.327 158.616 135.099 158.388 135.099 157.848V154.992C135.099 154.14 134.931 153.468 133.959 153.468C133.023 153.468 132.279 154.08 132.039 154.956C131.955 155.196 131.931 155.472 131.931 155.772V158.616H130.767Z" fill="#231F20"/>
<path d="M138.327 156.396V153.48H137.535V152.544H138.351V150.876H139.491V152.544H140.943V153.48H139.491V156.264C139.491 157.476 140.331 157.632 140.775 157.632C140.943 157.632 141.051 157.608 141.051 157.608V158.64C141.051 158.64 140.895 158.664 140.643 158.664C139.875 158.664 138.327 158.424 138.327 156.396Z" fill="#231F20"/>
<path d="M142.474 156.432V153.804C142.474 153.624 142.378 153.54 142.21 153.54H141.718V152.544H142.858C143.41 152.544 143.638 152.772 143.638 153.288V156.168C143.638 157.008 143.806 157.68 144.766 157.68C146.014 157.68 146.746 156.588 146.746 155.388V152.544H147.91V157.356C147.91 157.536 148.006 157.62 148.174 157.62H148.666V158.616H147.55C147.034 158.616 146.782 158.376 146.782 157.944V157.716C146.782 157.524 146.794 157.368 146.794 157.368H146.77C146.518 157.968 145.738 158.76 144.538 158.76C143.17 158.76 142.474 158.04 142.474 156.432Z" fill="#231F20"/>
<path d="M149.951 158.616V153.804C149.951 153.624 149.855 153.54 149.687 153.54H149.195V152.544H150.299C150.827 152.544 151.079 152.76 151.079 153.252V153.636C151.079 153.876 151.055 154.056 151.055 154.056H151.079C151.367 153.168 152.063 152.472 152.999 152.472C153.155 152.472 153.311 152.496 153.311 152.496V153.648C153.311 153.648 153.155 153.612 152.963 153.612C152.219 153.612 151.535 154.14 151.259 155.04C151.151 155.388 151.115 155.76 151.115 156.132V158.616H149.951Z" fill="#231F20"/>
<path d="M153.769 155.58C153.769 153.648 155.089 152.4 156.817 152.4C158.521 152.4 159.433 153.672 159.433 155.244C159.433 155.4 159.397 155.724 159.397 155.724H154.969C155.041 157.02 155.977 157.752 157.057 157.752C158.101 157.752 158.833 157.044 158.833 157.044L159.337 157.872C159.337 157.872 158.437 158.76 156.997 158.76C155.077 158.76 153.769 157.38 153.769 155.58ZM155.017 154.872H158.233C158.197 153.864 157.561 153.324 156.805 153.324C155.917 153.324 155.197 153.864 155.017 154.872Z" fill="#231F20"/>
<defs>
<clipPath id="clip0_1723_6755">
<rect width="90.7692" height="140" fill="white" transform="translate(34.332)"/>
</clipPath>
</defs>
</svg>
