<svg width="20" height="15" viewBox="0 0 20 15" fill="none" xmlns="http://www.w3.org/2000/svg">
<path d="M19.9851 1.44464C19.9851 1.42179 20.0008 1.39955 19.9998 1.37695L13.8965 7.25782L19.9925 12.9508C19.9961 12.9102 19.9851 12.8692 19.9851 12.8276V1.44464Z" fill="#C65427"/>
<path d="M12.9648 8.16406L10.4732 10.5612C10.3472 10.6825 10.1843 10.7434 10.0214 10.7434C9.86187 10.7434 9.70234 10.6852 9.57713 10.5685L7.09236 8.25304L0.956543 14.1673C1.10574 14.2209 1.26588 14.2625 1.43358 14.2625H18.6093C18.8584 14.2625 19.0919 14.1867 19.295 14.0735L12.9648 8.16406Z" fill="#C65427"/>
<path d="M10.0145 9.1938L19.329 0.221216C19.1181 0.0958304 18.8726 0.0117188 18.6095 0.0117188H1.43379C1.09117 0.0117188 0.77723 0.144751 0.532715 0.347644L10.0145 9.1938Z" fill="#C65427"/>
<path d="M0 1.66406V12.8283C0 12.9565 0.0294565 13.0801 0.0614329 13.1981L6.12113 7.36281L0 1.66406Z" fill="#C65427"/>
</svg>
