<svg width="69" height="69" viewBox="0 0 69 69" fill="none" xmlns="http://www.w3.org/2000/svg">
<g filter="url(#filter0_d_607_3066)">
<path d="M28.6945 10.7447C27.2274 10.8746 25.2103 11.3101 23.8808 11.7838C23.4835 11.929 21.6956 12.6778 21.5733 12.7619C21.5657 12.7619 21.7873 13.0064 22.07 13.3043C22.9639 14.2289 23.3612 15.3138 23.2772 16.5822C23.2314 17.3921 23.1015 17.8429 22.7423 18.4847C22.2915 19.2794 21.4969 19.967 20.58 20.3491C19.7701 20.6929 18.2878 20.7464 17.6536 20.456L17.3862 20.3338L17.6154 20.3109C17.8981 20.2727 18.8609 19.9594 19.1741 19.7989C19.9688 19.3863 20.794 18.5688 21.1378 17.8506C21.7261 16.6051 21.7261 15.0311 21.1302 13.8774C20.7787 13.1897 20.794 13.1974 20.282 13.4877C18.1121 14.7026 15.4531 17.2011 13.9708 19.4169C12.2593 21.9765 11.2431 24.5667 10.693 27.7376C10.4561 29.09 10.4332 32.154 10.6471 33.5064C11.1361 36.5626 12.0759 39.1223 13.5429 41.3916C13.7569 41.7201 13.9632 41.9875 14.0014 41.9875C14.1007 41.9875 15.3843 40.6351 15.7511 40.1538C15.9039 39.9551 16.3776 39.2063 16.8132 38.4881C17.241 37.7699 17.6536 37.1357 17.7224 37.0746C17.7912 37.0211 18.1579 36.8606 18.5323 36.7231C19.2429 36.4633 20.3584 36.0049 21.0843 35.6687C21.3135 35.5694 21.6497 35.4547 21.8331 35.4242C22.0165 35.386 22.1846 35.3401 22.2075 35.3172C22.2686 35.2561 22.2992 33.8731 22.2533 33.2695L22.2151 32.7652L21.7338 32.7194C20.9315 32.643 20.878 32.5818 20.8627 31.749C20.8322 30.2973 20.8627 30.2361 21.6879 30.1445C21.9936 30.1139 22.2533 30.0757 22.2686 30.0604C22.2763 30.0451 22.2763 29.8694 22.2533 29.6631L22.2228 29.304H21.8942C21.3288 29.304 21.092 29.2276 20.9773 28.9907C20.8245 28.7004 20.8322 28.5858 21.0385 28.3489C21.176 28.1884 21.2983 28.1426 21.7185 28.1044L22.2304 28.0585L22.2763 27.5543C22.4673 25.476 22.7423 24.391 23.4606 22.9087C24.1177 21.541 24.9811 20.3644 25.9896 19.4475C26.8378 18.6758 27.5942 18.0721 27.7241 18.0721C27.854 18.0721 27.8387 18.3014 27.6706 18.9737C27.5407 19.4857 27.2733 21.2507 27.1663 22.2745C27.1128 22.7712 27.2274 22.4732 27.5636 21.243C28.2666 18.6452 29.2446 16.5364 30.1003 15.757C30.6887 15.2298 31.5292 15.0235 33.1261 15.0235C35.3189 15.0159 36.1747 15.3673 36.3352 16.3224C36.3963 16.6815 36.4192 16.6968 37.1756 16.9566C39.6283 17.7971 41.8823 19.6156 43.25 21.8543C44.1592 23.3366 44.7934 25.4225 44.9004 27.241C44.931 27.7529 44.9844 28.0203 45.0761 28.1579C45.1525 28.2648 45.2289 28.4711 45.2595 28.624C45.2901 28.8608 45.2671 28.9372 45.1143 29.0824C44.9844 29.2046 44.931 29.3345 44.931 29.5408C44.931 29.8617 45.015 29.9458 45.3894 30.0451C45.7714 30.1445 45.8478 30.3508 45.8478 31.3364C45.8478 32.3221 45.7791 32.4749 45.2748 32.5742L44.9692 32.6353L44.9462 33.2389C44.9157 34.0259 44.9386 34.0412 46.0007 34.0412C47.2232 34.0412 48.5679 34.2628 49.9815 34.6907C50.1343 34.7442 50.2336 34.3316 50.4017 32.8875C50.5698 31.4357 50.5163 29.1588 50.2871 27.7376C49.9815 25.8809 49.5307 24.3604 48.7971 22.6871C45.3053 14.7714 37.275 10.0036 28.6945 10.7447Z" fill="#FEFEFE"/>
<path d="M31.4376 16.0093C31.2161 16.0399 30.9334 16.1316 30.7958 16.208C30.3068 16.4984 29.5046 18.0112 29.0155 19.5699C28.8322 20.1353 28.4272 22.0761 28.3202 22.886C28.2668 23.2298 28.2668 23.2298 28.389 23.0235C28.4501 22.9089 28.6106 22.5116 28.7405 22.1448C29.2448 20.7007 30.2381 19.0886 31.2543 18.0647C32.133 17.1784 32.8588 16.8116 34.0431 16.6359C35.2351 16.4678 35.1892 16.3532 34.6849 18.5308C34.2953 20.2347 34.1577 20.9223 34.1883 20.9605C34.2112 20.9758 34.2953 20.7389 34.387 20.4257C34.4787 20.12 34.7232 19.3101 34.9295 18.6378C35.5178 16.7276 35.5331 16.4067 35.0517 16.2004C34.5169 15.9788 32.4157 15.8642 31.4376 16.0093Z" fill="#FEFEFE"/>
<path d="M36.9464 17.9347C37.3743 18.4237 37.9321 19.524 38.0849 20.2117C38.4746 21.8621 37.9703 23.6805 36.786 24.9413C35.2349 26.5917 33.0573 27.4551 29.2828 27.9288C28.6028 28.0128 27.9915 28.0816 27.9228 28.0816C27.8616 28.0816 27.8311 28.1122 27.854 28.158C27.8769 28.1962 28.0985 28.2344 28.343 28.2344C28.939 28.2344 29.5884 28.3643 30.0622 28.5706C30.4748 28.754 30.895 29.1207 30.8262 29.2353C30.8033 29.2735 29.0842 29.3041 26.9906 29.3117H23.1932L23.7815 29.4875C24.1024 29.5868 24.515 29.7473 24.6984 29.8542C24.9887 30.03 25.1415 30.0529 26.0584 30.0911C27.449 30.1446 27.9228 30.328 28.6945 31.092C29.2293 31.6269 29.7871 32.5056 29.6878 32.666C29.6572 32.7119 28.4653 32.7424 26.3793 32.7501H23.1168L23.621 32.9258C24.6907 33.2926 25.4243 33.858 25.791 34.5686C25.9897 34.9735 26.1043 35.4549 26.0049 35.516C25.7528 35.6688 23.453 36.1043 22.6583 36.1502L21.7414 36.196L19.9535 36.9372L18.1656 37.6707L17.4168 38.9085C16.5458 40.3678 16.4311 40.5207 15.3385 41.6973L14.498 42.5989L14.796 43.0345C15.2774 43.7374 17.4321 45.8615 18.4177 46.595C21.0996 48.5892 23.6822 49.743 26.9371 50.3848C28.6257 50.721 29.5579 50.7974 31.1395 50.7516C34.6007 50.6446 38.1842 49.5673 41.1412 47.7335C43.6779 46.1671 46.1458 43.6839 47.6969 41.1472C48.5221 39.7948 49.3015 38.0527 49.7828 36.4482C50.035 35.6153 50.0503 35.5236 49.9356 35.4472C49.8134 35.3555 48.5756 35.0499 47.6969 34.8818C47.4753 34.8436 46.6272 34.7825 45.8097 34.7596C44.9921 34.729 44.2892 34.6832 44.2433 34.6526C44.1898 34.622 44.1593 33.4683 44.1363 31.0156C44.1134 27.2411 44.0676 26.6604 43.7008 25.2393C43.3799 23.9633 42.7992 22.6567 42.0963 21.6099C41.592 20.8688 40.5376 19.7685 39.7429 19.1725C39.1164 18.7064 37.8939 18.0417 36.9999 17.6902L36.5873 17.5374L36.9464 17.9347Z" fill="#FEFEFE"/>
</g>
<defs>
<filter id="filter0_d_607_3066" x="0.5" y="0.669189" width="68" height="68.0945" filterUnits="userSpaceOnUse" color-interpolation-filters="sRGB">
<feFlood flood-opacity="0" result="BackgroundImageFix"/>
<feColorMatrix in="SourceAlpha" type="matrix" values="0 0 0 0 0 0 0 0 0 0 0 0 0 0 0 0 0 0 127 0" result="hardAlpha"/>
<feOffset dx="4" dy="4"/>
<feGaussianBlur stdDeviation="7"/>
<feComposite in2="hardAlpha" operator="out"/>
<feColorMatrix type="matrix" values="0 0 0 0 0 0 0 0 0 0 0 0 0 0 0 0 0 0 0.11 0"/>
<feBlend mode="normal" in2="BackgroundImageFix" result="effect1_dropShadow_607_3066"/>
<feBlend mode="normal" in="SourceGraphic" in2="effect1_dropShadow_607_3066" result="shape"/>
</filter>
</defs>
</svg>
