<svg width="20" height="21" viewBox="0 0 20 21" fill="none" xmlns="http://www.w3.org/2000/svg">
<path d="M4.16675 5.63607C3.25008 5.63607 2.50008 6.38607 2.50008 7.30273C2.50008 8.2194 3.25008 8.9694 4.16675 8.9694C5.08341 8.9694 5.83341 8.22773 5.83341 7.30273C5.83341 6.37773 5.09175 5.63607 4.16675 5.63607ZM10.0001 3.9694C9.67044 3.9694 9.34821 4.06715 9.07413 4.25028C8.80005 4.43342 8.58643 4.69372 8.46028 4.99826C8.33414 5.3028 8.30113 5.63792 8.36544 5.96122C8.42975 6.28452 8.58848 6.58149 8.82157 6.81458C9.05466 7.04767 9.35163 7.2064 9.67493 7.27071C9.99823 7.33502 10.3333 7.30201 10.6379 7.17587C10.9424 7.04972 11.2027 6.8361 11.3859 6.56202C11.569 6.28794 11.6667 5.9657 11.6667 5.63607C11.6667 4.71107 10.9251 3.9694 10.0001 3.9694ZM15.8334 2.30273C14.9167 2.30273 14.1667 3.05273 14.1667 3.9694C14.1667 4.88607 14.9167 5.63607 15.8334 5.63607C16.7501 5.63607 17.5001 4.8944 17.5001 3.9694C17.5001 3.0444 16.7584 2.30273 15.8334 2.30273ZM2.91675 9.80273C2.22508 9.80273 1.66675 10.3611 1.66675 11.0527V14.8027H2.50008V18.9694H5.83341V14.8027H6.66675V11.0527C6.66675 10.3611 6.10841 9.80273 5.41675 9.80273H2.91675ZM8.75008 8.13607C8.05841 8.13607 7.50008 8.6944 7.50008 9.38607V13.1361H8.33341V17.3027H11.6667V13.1361H12.5001V9.38607C12.5001 8.6944 11.9417 8.13607 11.2501 8.13607H8.75008ZM14.5834 6.4694C13.8917 6.4694 13.3334 7.02773 13.3334 7.7194V11.4694H14.1667V15.6361H17.5001V11.4694H18.3334V7.7194C18.3334 7.02773 17.7751 6.4694 17.0834 6.4694H14.5834Z" fill="#322E2C"/>
</svg>
