<svg width="140" height="141" viewBox="0 0 140 141" fill="none" xmlns="http://www.w3.org/2000/svg">
<rect x="2" y="2.13599" width="136" height="136" rx="68" fill="#F68B32"/>
<rect x="2" y="2.13599" width="136" height="136" rx="68" stroke="#7E442E" stroke-width="4"/>
<circle opacity="0.28" cx="70" cy="70" r="60" fill="#FEFEFE"/>
<circle opacity="0.28" cx="70" cy="70" r="50" fill="#FEFEFE"/>
<circle opacity="0.28" cx="70" cy="70" r="40" fill="#FEFEFE"/>
<circle opacity="0.28" cx="70" cy="70" r="30" fill="#FEFEFE"/>
<circle opacity="0.28" cx="70" cy="70" r="20" fill="#FEFEFE"/>
<g clip-path="url(#clip0_380_8118)">
<path d="M52.2234 68.5055C52.3557 68.29 52.4384 68.0387 52.4384 67.7679C52.4384 66.9834 51.7935 66.3481 50.9998 66.3481C50.7958 66.3481 50.6002 66.3923 50.4266 66.4668C49.8037 65.0994 48.3927 64.0497 46.7667 64.7679C46.5628 62.8287 45.4439 61.8066 44.3222 61.2956C43.2033 60.7845 40.7588 60.7845 39.8411 62.5221C39.5352 60.9917 38.1104 60.3784 36.8868 61.3978C36.6829 59.7652 34.0923 57.0414 30.2671 58.3342C27.525 59.2624 26.8057 62.3149 27.0069 63.6436C25.3781 61.7044 22.2199 62.9282 22.3218 65.4806C19.8029 64.6077 16.0632 65.6934 15.9998 68.6574C15.9447 71.2735 18.8935 72 20.7179 72C22.5423 72 23.9533 71.4143 25.1852 70.8646C26.4171 71.605 29.027 71.7624 30.5344 70.8011C32.2045 71.4199 35.0514 71.8674 38.3364 70.3591C41.0234 70.9585 43.964 70.9585 47.1443 70.232C51.8596 70.6657 58.7577 70.9144 64.9998 70.4033C60.6207 69.7928 55.1529 69.2928 52.2206 68.5027L52.2234 68.5055Z" fill="white"/>
</g>
<g clip-path="url(#clip1_380_8118)">
<path d="M115.5 83.9959C112.431 83.9959 110.343 83.7572 109.657 83.3167C109.103 83.5206 107.536 84.0652 105.446 83.3513C102.639 84.0999 97.9373 83.7593 96.8266 83.3167C96.188 83.4227 95.0617 83.3432 94.1175 83.0454C92.9755 83.3167 90.6895 83.7939 87.7512 83.2493C85.6944 83.8959 83.9961 83.3513 83.9961 83.3513C83.9961 83.3513 81.8746 83.692 79.6533 83.6573C77.4339 83.6226 73.8786 83.1474 73.287 83.182C68.9344 83.4268 62 82.6191 62 82.6191C62.523 82.6191 71.6964 82.2112 73.5142 81.8889C74.429 81.7278 75.2948 81.7441 76.6699 81.1322C76.6386 81.018 76.621 80.8997 76.621 80.7773C76.621 80.0002 77.2831 79.3699 78.1019 79.3699C78.5171 79.3699 78.8913 79.5331 79.1616 79.7942C80.427 79.1476 80.8952 79.1027 80.8952 79.1027C80.047 75.772 81.5162 75.0234 82.5935 75.3293C82.3976 74.1056 82.8874 72.8308 83.998 72.3045C85.381 71.6478 86.903 71.9129 87.9491 73.0531C87.4594 70.9788 88.7973 69.9589 89.4829 70.1629C89.7434 69.2797 90.6249 68.9738 91.2791 69.245C91.8668 68.1232 92.7816 68.4292 93.1538 69.09C93.3203 67.8846 94.0744 66.7832 95.4261 66.2019C96.7777 65.6206 98.5171 66.3875 98.8168 67.5032C99.761 67.391 99.953 68.3068 99.953 68.3068C103.579 68.1946 104.607 71.3439 104.48 73.869C105.553 73.3325 106.862 74.0036 107.183 74.9642C107.44 74.4951 109.338 74.6563 109.595 75.1254C110.603 73.6283 112.024 72.6513 114.623 73.357C114.648 73.3631 114.672 73.3713 114.695 73.3774C114.96 73.1041 115.326 72.9348 115.728 72.9348C116.466 72.9348 117.075 73.5018 117.179 74.2402C117.896 74.3258 118.452 74.9398 118.452 75.6822C118.452 75.9841 118.36 76.2635 118.204 76.496C118.259 76.6572 118.306 76.8224 118.347 76.9896C118.509 76.9142 118.69 76.8693 118.88 76.8693C119.522 76.8693 120.055 77.3547 120.161 77.9931C120.609 77.9034 121.881 77.9666 122.727 78.4398C123.765 79.0191 124.21 80.2347 123.912 81.4402C123.224 84.2304 118.57 83.9979 115.502 83.9979L115.5 83.9959Z" fill="white"/>
</g>
<g clip-path="url(#clip2_380_8118)">
<path d="M61.0003 88.4296C61.0003 88.4296 58.4498 88.3974 56.4576 88.1695C55.3283 88.0405 54.9298 88.1283 53.8751 87.3411C53.221 86.8541 52.3431 86.7752 51.983 86.932C52.0746 86.6951 51.5291 86.505 51.1051 86.6006C51.2266 86.3004 50.9538 86.1103 50.6193 86.1103C50.8004 85.7623 50.892 84.119 47.8046 84.0089C44.715 83.8988 44.6255 84.7672 44.6255 84.7672C44.6255 84.7672 43.884 84.6971 43.5047 84.9729C43.0764 85.2842 43.4323 85.6189 43.7178 85.7C43.021 85.6678 42.8399 85.9691 42.9294 86.1103C42.1112 86.0625 41.6574 86.4428 41.7192 86.6162C41.1737 86.4105 40.0231 86.4895 39.4776 86.7585C38.9321 87.0276 38.6338 87.8693 39.842 88.165C39.614 88.8243 40.9159 88.8922 41.4677 88.8788C42.2497 88.8599 42.7078 88.7732 43.4642 88.5353C44.1567 88.7143 45.0794 88.8588 46.23 88.8911C47.3806 88.9222 48.137 88.7176 48.137 88.7176C48.137 88.7176 48.4843 89.0289 50.4211 88.9967C52.3601 88.9656 53.1293 88.9322 53.6578 88.851C54.6187 88.7032 55.5648 88.6931 56.7069 88.7054C58.4583 88.7243 60.3036 88.5553 61.0003 88.4296Z" fill="white"/>
</g>
<g clip-path="url(#clip3_380_8118)">
<path d="M90.3969 95.2229C90.3969 95.2229 91.8915 95.2956 91.9918 94.8445C92.0875 94.4132 91.1766 94.3561 90.7257 94.5008C90.5621 94.2657 89.8642 94.085 89.33 94.1937C89.2481 93.8507 88.7957 93.67 88.3449 93.5796C87.894 93.4892 86.9074 93.4892 86.5384 93.7963C86.4149 93.5253 85.8405 93.4172 85.348 93.5979C85.2661 93.3092 83.9105 92.8391 82.6799 93.0558C81.3845 93.2841 81.2841 93.7603 81.366 93.9954C80.7098 93.6523 79.436 93.869 79.4777 94.3208C78.2455 94.2304 76.6861 94.4471 77.0551 95.0253C77.3392 95.4709 78.9851 95.441 79.6012 95.3507C79.5595 95.7297 80.1756 95.9104 80.8734 95.9104C81.5713 95.9104 82.3109 95.8017 82.5147 95.477C82.8436 95.8384 84.1159 96.0008 85.0191 96.0008C85.9223 96.0008 87.3598 95.8928 87.5235 95.405C88.0824 95.619 88.8668 95.6917 89.5353 95.6217C90.068 95.566 90.4802 95.4234 90.3969 95.2243V95.2229Z" fill="white"/>
</g>
<g clip-path="url(#clip4_380_8118)">
<path fill-rule="evenodd" clip-rule="evenodd" d="M58.2599 40.2993V26.7551C59.5276 26.8118 64.4385 27.1299 65.733 28.6962C66.8425 27.6913 67.9862 26.9985 67.9862 25.7158C67.9862 24.6617 66.1317 23.7867 64.9745 22.9894C64.9387 22.964 64.9656 22.9087 65.0074 22.9192C66.5289 23.3432 68.685 24.2944 68.8164 25.7502C68.8881 26.543 68.1922 27.6554 67.1874 28.4871C64.7073 30.5402 61.2551 33.9027 63.8069 36.9637C63.8487 37.0129 63.9293 36.989 63.9383 36.9263C64.2145 34.9091 65.6509 34.4432 68.0877 32.2304C70.7216 29.8384 70.4663 25.6949 68.7701 24.1555C65.5598 21.2454 59.114 21.2096 59.114 21.2096C59.114 21.2096 58.6615 23.3253 58.3226 24.9424C58.3151 24.9797 58.2599 24.9738 58.2599 24.9349V20.3152C58.2599 20.2166 58.1793 20.136 58.0807 20.136H57.6537C57.5551 20.136 57.4745 20.2166 57.4745 20.3152V49.0417C57.1251 49.1193 56.722 49.2223 56.4024 49.3388C56.1128 49.4448 55.9201 49.7181 55.9067 50.0256C55.8798 50.6752 55.835 51.8921 55.8529 52.6984C55.8604 53.0418 56.0381 53.3598 56.3263 53.548C56.6428 53.754 57.0654 54.0108 57.476 54.2542V97.4851C57.3341 97.6732 57.1878 97.8748 57.037 98.0958C56.2516 97.9106 54.4494 99.1589 53.8492 99.3425C53.2489 99.5277 52.8323 99.4814 52.2784 99.3425C51.8633 99.9428 50.1088 100.674 49.8789 101.599C50.3866 101.275 51.5393 101.606 51.7707 101.93C52.0021 102.254 52.4172 103.362 52.6487 103.918C52.8801 104.473 54.7286 105.396 55.4677 105.627C56.2068 105.859 57.1535 106.749 57.3849 107.488C57.6059 108.194 58.8616 109.735 58.4868 111.404C58.4749 111.458 58.4002 111.459 58.3898 111.406C58.1165 110.035 56.6533 108.195 56.392 107.846C56.1142 107.476 53.8044 106.136 53.0653 105.951C52.3262 105.766 50.7554 103.871 50.1551 103.317C49.5549 102.763 48.8621 103.456 48.4455 103.456C48.0289 103.456 46.8284 102.902 46.2282 103.271C45.6279 103.641 42.3923 107.291 41.7921 107.661C41.1918 108.03 41.5606 108.861 41.4233 109.6C41.2844 110.34 40.8678 111.449 41.1918 112.003C41.5158 112.557 41.5158 113.527 41.4695 114.035C41.4233 114.543 42.5327 115.837 42.8089 116.53C43.0866 117.223 42.67 118.055 42.0235 120.134H46.7881C47.1823 119.766 47.5451 119.442 47.5451 119.442C47.5451 119.442 49.2085 119.719 49.8326 119.234C50.4567 118.749 51.496 118.541 52.1201 117.987C52.7442 117.432 53.9223 116.116 54.5465 115.561C55.9321 116.323 57.6656 116.532 58.2883 116.739C58.9124 116.947 59.8128 117.501 60.2293 117.848C60.6459 118.195 61.5463 118.819 62.4466 118.749C63.347 118.68 63.8323 118.819 64.11 119.442C64.1981 119.64 64.4206 119.888 64.6834 120.134H77.1645C77.4632 119.942 77.8125 119.807 78.1799 119.857C79.2191 119.996 80.0508 119.442 80.8138 119.025C81.5768 118.608 82.3382 118.886 82.616 119.371C82.7548 119.615 83.2058 119.909 83.7687 120.134H98.8568C99.0883 119.672 98.8106 118.656 98.4403 118.564C98.07 118.471 96.8232 117.317 96.8232 117.317C96.8232 117.317 96.8098 116.437 96.423 115.739C96.2887 116.549 95.6123 117.848 94.5954 118.385C94.5715 118.398 94.5447 118.371 94.5581 118.347C95.2016 117.148 95.4405 114.535 95.5301 114.129C95.6033 113.799 95.5899 112.802 95.5809 112.403C95.5794 112.307 95.5048 112.23 95.4092 112.221L94.4207 112.142L92.5483 110.867C92.7051 110.728 92.8066 110.526 92.8081 110.302C92.8171 109.175 92.8052 107.729 92.3871 106.783C92.7574 105.951 91.9705 105.351 91.5554 105.581C91.2314 103.595 91.8794 94.2151 89.1992 91.95C87.824 90.7883 86.6848 90.4464 85.9009 88.2828C85.8845 88.2366 85.9427 88.2007 85.9755 88.2366C86.316 88.6039 87.1268 89.3967 88.0271 89.5774C87.4657 88.913 87.1671 87.3048 86.8968 85.3369C87.6956 84.8083 88.4243 83.9333 88.923 82.6179C90.2967 78.9821 90.3191 75.409 90.1757 73.4052C90.6371 73.3589 91.0612 73.2619 91.3717 73.1006C92.4349 72.5452 96.2229 63.4893 94.8836 58.5455C93.5741 53.7152 90.3251 52.9865 88.3228 52.9985C88.2794 52.9985 88.2615 52.9417 88.2974 52.9179C90.2907 51.5352 93.5532 52.8716 94.9135 55.501C94.9135 48.8938 90.437 46.2002 87.5359 45.8852C85.4111 45.6537 82.8235 46.4287 81.1766 47.9532C81.1766 47.9532 81.7903 49.1059 81.4618 50.1317C81.4379 50.2063 81.3378 50.2168 81.3035 50.1481C81.1019 49.7524 80.5883 48.7908 80.1881 48.428C80.1881 48.428 80.1209 47.5545 79.8626 46.6541C79.7596 46.2943 79.343 46.1211 79.016 46.3032C78.9503 46.3406 78.8861 46.3794 78.8264 46.4227C78.6323 45.3073 78.6562 42.7391 78.9473 41.237C78.7129 41.1265 78.365 40.9877 78.15 40.9011C78.0813 40.8742 78.0888 40.7756 78.1604 40.7562C78.6427 40.6293 79.1429 40.704 79.1429 40.704C78.7114 40.2501 78.032 40.0813 77.7409 40.2038C77.378 39.7917 75.2891 39.3467 74.8531 38.8629C74.78 39.2273 74.877 39.4692 75.0234 39.7349C74.4649 39.711 72.2118 40.3158 71.6056 40.05C71.5817 40.4128 71.8236 40.801 71.8236 40.801C71.4264 41.6641 71.2099 42.8168 71.086 43.6156C71.0755 43.6798 71.0919 43.744 71.1307 43.7963C71.292 44.0173 71.4831 44.1696 71.4831 44.1696C71.3801 44.8878 71.1561 45.8673 71.0904 46.1495C71.08 46.1972 71.0979 46.248 71.1412 46.2734C71.404 46.4242 71.8475 46.5451 71.8475 46.5451C71.8191 46.7437 71.7997 46.893 71.7877 46.9811C71.7803 47.0379 71.8116 47.0901 71.8639 47.1095C72.0371 47.1752 72.1625 47.2469 72.1625 47.2469V47.5082C72.1625 47.5948 72.2163 47.6695 72.2954 47.7023C72.4253 47.7531 72.5746 47.8277 72.5746 47.8277C72.6015 48.1025 72.6687 48.5444 72.7269 48.8953C72.7822 49.2283 73.0778 49.4896 73.4138 49.4493C73.7602 49.4075 75.9431 47.8367 76.9167 47.6232C76.9644 47.6127 76.9898 47.6754 76.9495 47.7023C76.073 48.2876 74.7008 49.4762 73.9856 50.3198C73.7855 50.5557 73.7975 50.9051 74.011 51.1306C74.2604 51.3934 74.565 51.7831 74.6919 52.2146C73.1763 52.8387 67.919 57.1181 66.2228 57.2121C66.1735 57.2151 66.1526 57.1479 66.1944 57.121C66.4154 56.9837 66.8484 56.6806 67.1948 56.2356C66.1213 55.6115 62.5407 53.0015 62.1241 52.446C61.7075 51.8921 61.1999 52.1235 60.8759 52.3072C60.0636 51.8831 59.656 51.026 59.7784 50.378C59.8426 50.0406 59.6724 49.7016 59.3633 49.5523C59.0274 49.3896 58.6347 49.1805 58.354 48.9745C58.3271 48.9551 58.2957 48.9446 58.2659 48.9327V40.2993H58.2599ZM86.7863 84.5276C86.6489 83.4003 86.5325 82.2103 86.422 81.0785C87.3209 80.8276 88.1645 80.2737 88.7319 79.2912C89.1365 78.5894 89.4307 77.8757 89.6412 77.1814C89.1977 80.4573 88.2929 83.1987 86.7848 84.5276H86.7863ZM86.3503 80.3468C86.1711 78.5521 85.9905 76.9783 85.7292 76.1481C86.8654 72.8781 86.0353 68.9377 85.3051 64.2836C85.2991 64.2418 85.3559 64.2209 85.3738 64.2582C86.4728 66.5517 87.4343 70.3562 87.4343 72.9528C87.8569 73.2858 88.8513 73.4844 89.9115 73.4231C89.6457 76.5826 88.5796 79.3927 86.3503 80.3468ZM86.4578 116.01C86.0412 115.837 85.6948 115.144 85.9039 114.798C86.1114 114.452 86.8042 114.071 87.2552 114.313C87.5598 114.477 87.6016 114.867 87.5672 115.179C87.5329 115.491 88.1899 115.698 87.9136 116.079C87.6359 116.46 86.8729 116.184 86.4578 116.01ZM67.0545 114.477C66.9933 114.462 66.9903 114.375 67.05 114.358C67.6487 114.19 68.3162 113.696 68.6447 113.203C69.015 112.648 69.1912 112.349 69.9273 111.771C70.7933 111.089 72.4104 111.182 72.8732 110.674C73.3346 110.166 74.0573 110.241 74.7322 109.83C75.8521 109.149 77.505 109.645 78.2441 109.323C78.9832 108.999 79.6999 108.976 80.878 109.23L80.6928 107.706C80.6928 107.706 80.0463 107.198 79.3072 106.735C78.5681 106.272 77.0436 104.286 76.627 104.101C76.2119 103.916 74.8711 103.638 74.3634 103.131C73.8557 102.623 73.2092 101.975 72.376 101.514C73.2077 101.56 73.8079 101.745 74.2708 102.021C74.7337 102.299 75.2414 102.575 75.9342 102.575C75.6117 101.836 75.0562 99.8487 75.0562 99.8487L72.046 97.8539C72.2043 97.7374 72.3178 97.5612 72.3477 97.3552C72.5134 96.192 72.5014 94.7228 72.4238 93.9807C72.9315 93.4252 72.6552 92.9176 72.0072 92.6876C71.2218 89.8223 72.0998 85.3877 70.8515 82.1983C70.1602 81.1606 69.1643 80.6902 68.2251 80.2542C68.1654 80.2274 68.1788 80.1378 68.2445 80.1288C69.2509 79.9944 70.0512 80.4289 71.174 80.9053C72.1446 80.4424 75.8028 80.4558 76.6807 79.8541C76.4613 78.4087 76.5389 76.0316 76.8883 74.4952C76.8973 74.4504 76.9615 74.4564 76.9659 74.5027C77.4109 80.7783 80.8496 88.1261 82.2173 89.0832C82.2173 89.0832 82.7429 91.0705 83.1834 92.174C83.2655 92.3785 83.3879 92.5622 83.5387 92.7234C85.9561 95.3275 86.6982 99.4112 86.6982 100.265C86.6982 101.119 86.6056 102.529 86.8834 103.268C87.0685 103.762 87.3462 104.331 87.6225 105.441C87.6225 105.441 88.5557 105.968 88.6736 106.681C88.6796 106.722 88.6288 106.743 88.605 106.711C88.2585 106.266 87.7091 106.121 87.2477 106.136C87.0148 106.144 86.8729 106.389 86.973 106.598C87.2029 107.078 87.3925 107.833 87.1163 108.352C86.7908 108.963 84.6033 109.715 83.3909 109.666C83.1132 109.654 82.8877 109.869 82.8877 110.151V110.168C82.8877 110.499 83.0908 110.814 83.3775 110.979C83.1177 111.077 82.8235 111.123 82.5876 110.986C82.0336 110.662 80.7854 110.201 79.9537 110.432C79.122 110.664 76.9047 110.895 76.2104 110.617C75.5176 110.339 75.0099 110.525 74.5008 110.941C73.9916 111.358 72.7911 111.958 72.0983 111.912C71.4055 111.865 69.9721 112.466 69.6958 113.021C69.4345 113.545 68.2968 114.789 67.053 114.48L67.0545 114.477ZM69.3031 106.516C69.6496 107.001 69.5809 107.555 69.0598 107.486C68.5402 107.417 68.1937 107.764 67.8473 107.833C67.5009 107.901 67.5009 107.071 67.4666 106.62C67.4322 106.169 67.4666 105.684 67.8473 105.512C68.2281 105.339 68.3326 105.615 68.5745 105.72C68.9 105.859 68.9552 106.032 69.3017 106.517L69.3031 106.516ZM61.4373 115.561C60.952 115.664 60.086 115.873 60.086 115.18C60.086 114.487 60.1905 114.071 60.6758 114.037C61.1611 114.002 61.1954 114.105 61.4388 114.314C61.8867 114.698 61.9241 115.458 61.4388 115.562L61.4373 115.561ZM59.3573 101.388C59.1498 100.903 59.5992 100.869 59.5992 100.869C60.0502 101.146 60.4309 101.597 60.0502 101.7C59.6694 101.805 59.5649 101.873 59.3573 101.388ZM59.6933 98.4795C59.3081 97.8509 58.9796 97.5134 59.1632 97.2641C59.3469 97.0147 59.7276 97.2551 59.8874 97.3522C60.3309 97.6239 61.0476 97.9718 60.7266 98.4093C60.4055 98.8468 60.08 99.1081 59.6948 98.4795H59.6933ZM61.609 97.7255C60.9625 97.4477 59.438 96.1084 58.9751 96.1547C58.7765 96.1741 58.5331 96.3294 58.2584 96.5832V54.6365C58.5496 53.8033 59.1453 53.3807 59.6201 53.2239C59.6515 53.2135 59.6724 53.2538 59.65 53.2747C59.3872 53.5076 58.7467 54.2886 58.7855 55.0605C58.8586 56.4969 64.7252 60.4716 67.5621 61.4168C67.7368 61.475 67.922 61.493 68.1042 61.4601C72.7553 60.6374 76.1895 57.9154 78.7189 56.3147C78.7487 56.2953 78.7831 56.3312 78.7637 56.361C78.4725 56.8 77.4721 58.3006 75.5579 59.6444C76.3672 61.8155 76.0835 65.7932 75.1637 68.3241C75.0144 68.7347 75.098 69.1946 75.3817 69.526C76.9107 71.3044 79.1459 72.7169 81.747 73.9801C81.7992 74.0055 81.7768 74.0861 81.7186 74.0771C79.5043 73.7471 76.6882 72.366 74.7471 70.9102C71.1054 72.3929 67.3053 76.2855 65.0477 77.577C64.6879 77.7816 64.44 78.1355 64.3922 78.5461C64.322 79.1374 64.2205 79.9989 64.1429 80.6649C64.0906 81.1143 64.2474 81.5607 64.5609 81.8862C65.9749 83.3525 67.2053 85.8774 67.6607 88.0693C67.9354 89.3937 68.1221 91.072 68.5387 91.9963C68.5387 91.9963 69.654 92.501 70.0109 93.2222C70.0437 93.2879 69.9601 93.3476 69.9049 93.2998C69.5077 92.9444 68.9523 92.8011 68.5163 92.7936C68.2759 92.7891 68.131 93.0534 68.252 93.2595C68.464 93.6223 68.682 94.1778 68.3998 94.6302C67.9877 95.2887 65.0074 96.3518 63.8412 96.4115C63.6322 96.422 63.4426 96.5489 63.3784 96.7475C63.1962 97.3059 63.5635 97.8912 64.1473 97.9763C63.4052 98.1794 62.2555 98.0032 61.609 97.727V97.7255ZM48.3021 108.213C47.678 108.352 47.1584 108.109 47.1584 107.555C47.1584 107.001 47.4018 106.653 47.8169 106.757C48.2335 106.862 47.9901 106.999 48.3365 107.243C48.8875 107.629 48.9263 108.074 48.3021 108.213ZM94.4252 110.121C94.2102 109.908 94.1684 109.518 94.3177 109.426C94.4297 109.357 94.5312 109.479 94.7985 109.639C95.233 109.901 94.6387 110.335 94.4237 110.121H94.4252ZM98.0087 113.545C97.2308 113.935 96.9919 113.813 96.7784 113.224C96.5649 112.636 96.5111 111.886 96.9382 111.673C97.3667 111.459 98.061 111.619 98.4358 111.994C98.8106 112.369 98.4358 113.332 98.0073 113.545H98.0087ZM76.2358 99.9039C75.861 99.6367 75.434 99.2082 75.755 98.9946C76.076 98.7811 76.5568 99.5292 76.5568 99.5292C76.8241 99.7964 76.6106 100.171 76.2358 99.9039ZM78.2157 103.328C77.7872 102.632 77.8947 102.097 78.1619 101.936C78.4292 101.776 79.2325 102.15 79.2325 102.15C80.0343 102.578 79.7133 103.005 79.446 103.434C79.1788 103.862 78.6427 104.022 78.2157 103.326V103.328Z" fill="#7E442E"/>
</g>
<path d="M37.5 108.136H42L53 112.136L59 116.136C61.8333 116.803 67.7 117.936 68.5 117.136C69.3 116.336 76.8333 116.803 80.5 117.136L95.5 118.136L98.5 117.136L102 116.136L106.5 117.136L117 119.136L114.5 121.636L104 128.136L92.5 133.136L77.5 136.636L70 138.636C65.6667 138.136 56.9 137.136 56.5 137.136C56 137.136 45.5 133.636 45 133.136C44.6 132.736 37.5 129.303 34 127.636L22.5 119.636L17 112.136H20.5L24.5 111.136L27 109.636L30.5 107.136L35 105.636L37.5 108.136Z" fill="#7E442E"/>
<defs>
<clipPath id="clip0_380_8118">
<rect width="49" height="14" fill="white" transform="translate(16 58)"/>
</clipPath>
<clipPath id="clip1_380_8118">
<rect width="62" height="18" fill="white" transform="translate(62 66)"/>
</clipPath>
<clipPath id="clip2_380_8118">
<rect width="22" height="5" fill="white" transform="translate(39 84)"/>
</clipPath>
<clipPath id="clip3_380_8118">
<rect width="15" height="3" fill="white" transform="translate(77 93)"/>
</clipPath>
<clipPath id="clip4_380_8118">
<rect width="57.8681" height="100" fill="white" transform="translate(41.0664 20.136)"/>
</clipPath>
</defs>
</svg>
