<svg width="140" height="141" viewBox="0 0 140 141" fill="none" xmlns="http://www.w3.org/2000/svg">
<rect x="2" y="2.13599" width="136" height="136" rx="68" fill="#CFFACB"/>
<rect x="2" y="2.13599" width="136" height="136" rx="68" stroke="#7E442E" stroke-width="4"/>
<circle opacity="0.4" cx="70" cy="70" r="60" fill="#FEFEFE"/>
<circle opacity="0.4" cx="70" cy="70" r="50" fill="#FEFEFE"/>
<circle cx="70" cy="70" r="40" fill="#FEFEFE"/>
<g clip-path="url(#clip0_380_8073)">
<path fill-rule="evenodd" clip-rule="evenodd" d="M91.9798 87.866H56.8184C57.0266 87.5621 57.2086 87.1637 57.3488 86.6191C56.5392 87.3895 55.7641 87.3778 55.0005 87.064C55.4335 86.8615 55.8237 86.546 56.1113 85.9715C55.7243 86.2256 55.3394 86.297 54.9597 86.0861C55.3938 85.8736 55.7923 85.4087 56.1344 84.5354C55.9513 84.6914 55.7651 84.7512 55.5758 84.7396C55.9555 84.3162 56.2536 83.7002 56.5141 82.9979C56.2306 83.2137 55.8938 83.33 55.5643 83.227C56.0852 82.8883 56.5203 82.2059 56.854 81.4339C56.694 81.4986 56.559 81.5335 56.3268 81.5235C56.5057 81.3143 56.8048 80.8727 56.9345 80.4426C56.7222 80.7299 56.3906 80.8544 56.1427 80.8112C56.4848 80.5423 56.9147 80.006 57.1239 79.5145C56.991 79.6523 56.8592 79.7287 56.7264 79.7553C56.9712 79.3883 57.1532 78.9019 57.2902 78.3307C57.0161 78.8985 56.7285 79.2655 56.4157 79.2389C56.8143 78.7076 57.1239 77.9289 57.354 76.931C57.1144 77.4457 56.8624 77.7429 56.5998 77.8841C56.9 77.2847 57.1824 76.6056 57.4052 75.6841C57.2944 75.8419 57.1804 75.9282 57.0653 75.9631C57.2285 75.6277 57.3644 75.201 57.4743 74.678C57.309 74.9619 57.1448 75.1777 56.9795 75.3006C57.3038 74.414 57.5632 73.3646 57.6877 71.97C57.8121 73.3646 58.0715 74.4156 58.3958 75.3006C58.2305 75.1777 58.0663 74.9619 57.901 74.678C58.0109 75.1993 58.1469 75.6277 58.31 75.9631C58.195 75.9265 58.082 75.8419 57.9701 75.6841C58.1939 76.6056 58.4753 77.2847 58.7755 77.8841C58.513 77.7429 58.2609 77.4457 58.0213 76.931C58.2504 77.9289 58.5611 78.7076 58.9596 79.2389C58.6469 79.2655 58.3592 78.8969 58.0851 78.3307C58.2222 78.9019 58.4042 79.3867 58.6489 79.7553C58.5171 79.727 58.3843 79.6523 58.2515 79.5145C58.4617 80.006 58.8906 80.5423 59.2326 80.8112C58.9847 80.8544 58.6531 80.7299 58.4408 80.4426C58.5705 80.8727 58.8696 81.3143 59.0485 81.5235C58.8163 81.5335 58.6824 81.4986 58.5224 81.4339C58.8257 82.1345 59.2127 82.7638 59.6719 83.1257C60.0098 82.611 60.2964 81.9751 60.5568 81.2745C60.173 81.5667 59.7159 81.7228 59.2713 81.5833C59.9763 81.125 60.5663 80.2002 61.0171 79.1559C60.8006 79.2422 60.6186 79.2887 60.3048 79.2771C60.5464 78.9932 60.9522 78.3955 61.1269 77.8143C60.8403 78.2045 60.3905 78.3705 60.0558 78.3141C60.5192 77.9505 61.1008 77.2233 61.3842 76.5575C61.2054 76.7451 61.0255 76.848 60.8466 76.8846C61.1782 76.3865 61.424 75.729 61.6102 74.9569C61.2388 75.724 60.8497 76.2221 60.425 76.1872C60.9648 75.4666 61.3842 74.414 61.6959 73.0625C61.3717 73.7598 61.0296 74.1616 60.675 74.3525C61.0819 73.5406 61.4637 72.6225 61.766 71.3756C61.6154 71.5898 61.4616 71.706 61.3068 71.7541C61.5275 71.3009 61.7116 70.7214 61.8602 70.0158C61.6363 70.401 61.4135 70.6932 61.1897 70.8592C61.629 69.6604 61.9794 68.2375 62.1489 66.3497C62.3173 68.2375 62.6687 69.6604 63.107 70.8592C62.8842 70.6932 62.6604 70.401 62.4365 70.0158C62.585 70.7214 62.7691 71.3009 62.9898 71.7541C62.834 71.706 62.6813 71.5898 62.5307 71.3756C62.834 72.6241 63.2147 73.5423 63.6216 74.3525C63.267 74.1616 62.925 73.7581 62.6007 73.0625C62.9114 74.414 63.3319 75.4666 63.8706 76.1872C63.447 76.2221 63.0578 75.724 62.6855 74.9569C62.8717 75.729 63.1185 76.3865 63.449 76.8846C63.2702 76.8464 63.0903 76.7434 62.9114 76.5575C63.1949 77.2216 63.7775 77.9505 64.2398 78.3141C63.9051 78.3705 63.4553 78.2062 63.1687 77.8143C63.335 78.3672 63.7095 78.9351 63.9543 79.2339C64.6802 78.5698 65.2973 77.5404 65.79 76.3997C65.5044 76.5126 65.2649 76.5757 64.8507 76.5575C65.1697 76.1839 65.7032 75.3969 65.9333 74.6315C65.5557 75.1445 64.9637 75.3637 64.5222 75.289C65.1321 74.8108 65.8977 73.8528 66.2712 72.9778C66.0358 73.2235 65.7994 73.3597 65.5641 73.4095C66.0002 72.7536 66.3245 71.8886 66.5693 70.8708C66.0797 71.882 65.5672 72.5378 65.0097 72.4913C65.7199 71.5433 66.2722 70.1569 66.6822 68.3787C66.2555 69.2952 65.8057 69.8265 65.3381 70.0788C65.8737 69.0096 66.3758 67.8009 66.7743 66.1588C66.5766 66.4411 66.3737 66.5938 66.1687 66.6569C66.4594 66.0592 66.7021 65.2971 66.8967 64.3673C66.6027 64.8737 66.3088 65.2589 66.0138 65.4781C66.5912 63.8991 67.0536 62.0262 67.2764 59.5407C67.4981 62.0262 67.9605 63.8991 68.5389 65.4781C68.245 65.2589 67.951 64.8737 67.6571 64.3673C67.8517 65.2971 68.0943 66.0592 68.3851 66.6569C68.1801 66.5922 67.9782 66.4411 67.7795 66.1588C68.178 67.8009 68.6801 69.0113 69.2157 70.0788C68.7481 69.8265 68.2983 69.2968 67.8715 68.3787C68.2805 70.1585 68.8328 71.5433 69.5441 72.4913C68.9866 72.5378 68.474 71.882 67.9845 70.8708C68.2293 71.8886 68.5535 72.7536 68.9897 73.4095C68.7533 73.3597 68.518 73.2252 68.2816 72.9778C68.655 73.8528 69.4217 74.8108 70.0315 75.289C69.5901 75.3637 68.9981 75.1462 68.6205 74.6315C68.8506 75.3986 69.3841 76.1839 69.7031 76.5575C69.2889 76.5741 69.0493 76.5126 68.7648 76.3997C69.3046 77.6483 69.996 78.769 70.815 79.4149C71.4175 78.4967 71.929 77.3627 72.3913 76.1142C71.7072 76.6355 70.8934 76.9144 70.0995 76.667C71.3558 75.8502 72.407 74.2015 73.2114 72.3419C72.8244 72.4963 72.5011 72.581 71.9405 72.5561C72.3725 72.0513 73.0953 70.9854 73.4059 69.9477C72.8944 70.6434 72.0932 70.9389 71.4959 70.8376C72.3212 70.1901 73.3589 68.8934 73.8641 67.7079C73.5451 68.04 73.225 68.2243 72.906 68.2907C73.4969 67.4041 73.9363 66.2319 74.2678 64.8538C73.6047 66.2236 72.9112 67.1102 72.156 67.0471C73.1183 65.7636 73.8662 63.8858 74.4206 61.4783C73.8432 62.7219 73.2334 63.4375 72.6005 63.7796C73.3254 62.3334 74.0053 60.6963 74.545 58.4715C74.2762 58.855 74.0032 59.0609 73.726 59.1456C74.1193 58.337 74.4488 57.3043 74.7124 56.0474C74.3139 56.7331 73.9164 57.2544 73.5179 57.5516C74.3003 55.4131 74.9258 52.8778 75.226 49.5123C75.5272 52.8778 76.1527 55.4131 76.9352 57.5516C76.5366 57.2544 76.1391 56.7348 75.7406 56.0474C76.0042 57.3059 76.3337 58.3386 76.727 59.1456C76.4498 59.0592 76.1758 58.8533 75.908 58.4715C76.4477 60.6963 77.1276 62.3334 77.8525 63.7796C77.2197 63.4375 76.6098 62.7203 76.0325 61.4783C76.5868 63.8875 77.3347 65.7636 78.2971 67.0471C77.5418 67.1102 76.8483 66.2219 76.1852 64.8538C76.5168 66.2319 76.9561 67.4041 77.5471 68.2907C77.228 68.2226 76.908 68.04 76.5889 67.7079C77.0952 68.8934 78.1318 70.1901 78.9571 70.8376C78.3598 70.9389 77.5586 70.6434 77.0471 69.9477C77.3588 70.9854 78.0805 72.0497 78.5125 72.5561C77.9519 72.5793 77.6276 72.4963 77.2416 72.3419C77.8943 73.8528 78.7102 75.2226 79.6663 76.1225C80.0481 75.5297 80.3932 74.8589 80.6976 74.1533C80.3556 74.2895 80.07 74.3642 79.5753 74.3426C79.9571 73.896 80.5941 72.9562 80.8702 72.0397C80.4183 72.654 79.7102 72.9147 79.183 72.825C79.9121 72.2539 80.8284 71.1083 81.275 70.0606C80.9926 70.3545 80.7102 70.5172 80.4288 70.5753C80.9497 69.7916 81.3378 68.7572 81.6307 67.5402C81.0449 68.7489 80.433 69.5326 79.7656 69.4778C80.615 68.3438 81.2761 66.6868 81.7656 64.5599C81.2551 65.6574 80.7175 66.29 80.1589 66.5922C80.7991 65.3137 81.3995 63.8692 81.8765 61.9034C81.6401 62.2421 81.3974 62.4231 81.1526 62.4994C81.4999 61.7855 81.7907 60.8723 82.024 59.7615C81.6725 60.3676 81.321 60.8275 80.9685 61.0898C81.6599 59.202 82.2122 56.9606 82.4779 53.9886C82.7436 56.9606 83.2959 59.2004 83.9873 61.0898C83.6358 60.8275 83.2844 60.3676 82.9319 59.7615C83.1651 60.8723 83.4549 61.7855 83.8032 62.4994C83.5584 62.4231 83.3168 62.2421 83.0794 61.9034C83.5564 63.8675 84.1568 65.3137 84.7969 66.5922C84.2383 66.29 83.6996 65.6574 83.1902 64.5599C83.6798 66.6885 84.3398 68.3455 85.1902 69.4778C84.5229 69.5326 83.9099 68.7506 83.3252 67.5402C83.6181 68.7572 84.0051 69.7916 84.527 70.5753C84.2446 70.5155 83.9632 70.3545 83.6808 70.0606C84.1275 71.1066 85.0438 72.2522 85.7728 72.825C85.2456 72.9147 84.5375 72.654 84.0856 72.0397C84.3607 72.9562 84.9988 73.896 85.3795 74.3426C84.8848 74.3642 84.5982 74.2895 84.2572 74.1533C84.9026 75.6476 85.7289 76.9875 86.708 77.7612C87.4286 76.6621 88.0406 75.3056 88.5939 73.8129C87.7749 74.4356 86.8021 74.7709 85.8534 74.4737C87.3565 73.4958 88.6138 71.525 89.574 69.3002C89.1117 69.4845 88.7246 69.5857 88.0542 69.5575C88.5709 68.9515 89.4349 67.6797 89.8073 66.4377C89.1954 67.2696 88.2372 67.6232 87.5228 67.502C88.5102 66.7266 89.7497 65.1759 90.3554 63.7596C89.9736 64.1564 89.5918 64.3773 89.2089 64.457C89.915 63.3977 90.4401 61.9947 90.8365 60.3476C90.0437 61.9847 89.2142 63.0457 88.3115 62.971C89.4621 61.4352 90.3554 59.1921 91.0185 56.3114C90.3282 57.7974 89.5991 58.6541 88.8428 59.0625C89.71 57.3325 90.5227 55.375 91.1681 52.7151C90.848 53.1734 90.5196 53.4191 90.188 53.522C90.6587 52.5557 91.052 51.3204 91.3669 49.8162C90.8909 50.6364 90.415 51.259 89.938 51.6143C90.8742 49.0574 91.6221 46.0256 91.9809 42.001C92.3407 46.0256 93.0886 49.0574 94.0237 51.6143C93.5478 51.259 93.0718 50.6364 92.5949 49.8162C92.9108 51.3204 93.3041 52.5557 93.7737 53.522C93.4421 53.4191 93.1147 53.1734 92.7936 52.7151C93.439 55.375 94.2517 57.3325 95.1189 59.0625C94.3626 58.6541 93.6335 57.7957 92.9432 56.3114C93.6063 59.1921 94.5007 61.4352 95.6513 62.971C94.7486 63.0457 93.9191 61.9847 93.1262 60.3476C93.5227 61.9947 94.0478 63.396 94.7538 64.457C94.372 64.3773 93.9902 64.1581 93.6074 63.7596C94.213 65.1759 95.4525 66.7266 96.44 67.502C95.7255 67.6232 94.7674 67.2696 94.1555 66.4377C94.5279 67.6797 95.3919 68.9515 95.9086 69.5575C95.2381 69.5857 94.8511 69.4861 94.3888 69.3002C95.35 71.525 96.6073 73.4958 98.1094 74.4737C97.1607 74.7709 96.1868 74.4356 95.3689 73.8129C95.9222 75.3056 96.5341 76.6621 97.2548 77.7612C98.2339 76.9875 99.0602 75.6493 99.7056 74.1533C99.3646 74.2895 99.078 74.3642 98.5832 74.3426C98.965 73.896 99.602 72.9562 99.8771 72.0397C99.4253 72.654 98.7182 72.9147 98.1899 72.825C98.919 72.2539 99.8353 71.1083 100.282 70.0606C99.9995 70.3545 99.7171 70.5172 99.4357 70.5753C99.9577 69.7916 100.346 68.7572 100.638 67.5402C100.053 68.7489 99.4399 69.5326 98.7725 69.4778C99.6219 68.3438 100.283 66.6868 100.773 64.5599C100.262 65.6574 99.7244 66.29 99.1648 66.5922C99.805 65.3137 100.406 63.8692 100.882 61.9034C100.645 62.2421 100.404 62.4231 100.159 62.4994C100.506 61.7855 100.797 60.8723 101.03 59.7615C100.678 60.3676 100.327 60.8275 99.9744 61.0898C100.666 59.202 101.218 56.9606 101.484 53.9886C101.749 56.9606 102.302 59.2004 102.993 61.0898C102.642 60.8275 102.289 60.3676 101.938 59.7615C102.171 60.8723 102.461 61.7855 102.809 62.4994C102.564 62.4231 102.322 62.2421 102.085 61.9034C102.562 63.8675 103.163 65.3137 103.803 66.5922C103.244 66.29 102.706 65.6574 102.196 64.5599C102.686 66.6885 103.347 68.3455 104.196 69.4778C103.53 69.5326 102.917 68.7506 102.331 67.5402C102.624 68.7572 103.012 69.7916 103.533 70.5753C103.25 70.5155 102.968 70.3545 102.687 70.0606C103.133 71.1066 104.05 72.2522 104.779 72.825C104.252 72.9147 103.543 72.654 103.091 72.0397C103.367 72.9562 104.005 73.896 104.386 74.3426C103.891 74.3642 103.605 74.2895 103.264 74.1533C103.568 74.8589 103.914 75.5297 104.295 76.1225C105.251 75.2226 106.067 73.8511 106.72 72.3419C106.334 72.4963 106.01 72.581 105.449 72.5561C105.881 72.0513 106.603 70.9854 106.915 69.9477C106.403 70.6434 105.602 70.9389 105.005 70.8376C105.83 70.1901 106.868 68.8934 107.373 67.7079C107.054 68.04 106.734 68.2243 106.415 68.2907C107.005 67.4041 107.445 66.2319 107.775 64.8538C107.113 66.2236 106.419 67.1102 105.664 67.0471C106.626 65.7636 107.374 63.8858 107.928 61.4783C107.351 62.7219 106.742 63.4375 106.108 63.7796C106.833 62.3334 107.513 60.6963 108.053 58.4715C107.785 58.855 107.511 59.0609 107.234 59.1456C107.627 58.337 107.956 57.3043 108.22 56.0474C107.822 56.7331 107.424 57.2544 107.026 57.5516C107.808 55.4131 108.433 52.8778 108.735 49.5123C109.035 52.8778 109.66 55.4131 110.443 57.5516C110.044 57.2544 109.647 56.7348 109.248 56.0474C109.512 57.3059 109.841 58.3386 110.235 59.1456C109.957 59.0592 109.683 58.8533 109.416 58.4715C109.955 60.6963 110.635 62.3334 111.36 63.7796C110.727 63.4375 110.117 62.7203 109.54 61.4783C110.094 63.8875 110.842 65.7636 111.805 67.0471C111.049 67.1102 110.356 66.2219 109.693 64.8538C110.024 66.2319 110.464 67.4041 111.055 68.2907C110.736 68.2226 110.416 68.04 110.096 67.7079C110.602 68.8934 111.638 70.1901 112.464 70.8376C111.866 70.9389 111.065 70.6434 110.554 69.9477C110.865 70.9854 111.587 72.0497 112.019 72.5561C111.458 72.5793 111.134 72.4963 110.748 72.3419C111.552 74.2031 112.603 75.8502 113.86 76.667C113.066 76.9161 112.252 76.6355 111.568 76.1142C112.031 77.3611 112.542 78.4967 113.145 79.4149C113.964 78.769 114.655 77.6483 115.195 76.3997C114.909 76.5126 114.67 76.5757 114.257 76.5575C114.576 76.1839 115.109 75.3969 115.339 74.6315C114.962 75.1445 114.369 75.3637 113.928 75.289C114.538 74.8108 115.304 73.8528 115.677 72.9778C115.441 73.2235 115.205 73.3597 114.969 73.4095C115.405 72.7536 115.729 71.8886 115.974 70.8708C115.485 71.882 114.973 72.5378 114.414 72.4913C115.125 71.5433 115.678 70.1569 116.087 68.3787C115.66 69.2952 115.21 69.8265 114.743 70.0788C115.278 69.0096 115.781 67.8009 116.179 66.1588C115.981 66.4411 115.778 66.5938 115.574 66.6569C115.865 66.0592 116.108 65.2971 116.303 64.3673C116.009 64.8737 115.715 65.2589 115.42 65.4781C115.997 63.8991 116.459 62.0262 116.682 59.5407C116.904 62.0262 117.366 63.8991 117.944 65.4781C117.65 65.2589 117.356 64.8737 117.062 64.3673C117.256 65.2971 117.499 66.0592 117.791 66.6569C117.586 66.5922 117.384 66.4411 117.185 66.1588C117.584 67.8009 118.086 69.0113 118.621 70.0788C118.154 69.8265 117.704 69.2968 117.277 68.3787C117.687 70.1585 118.239 71.5433 118.95 72.4913C118.392 72.5378 117.88 71.882 117.39 70.8708C117.635 71.8886 117.959 72.7536 118.396 73.4095C118.159 73.3597 117.924 73.2252 117.687 72.9778C118.061 73.8528 118.827 74.8108 119.436 75.289C118.995 75.3637 118.403 75.1462 118.025 74.6315C118.255 75.3986 118.789 76.1839 119.108 76.5575C118.694 76.5741 118.454 76.5126 118.169 76.3997C118.661 77.5387 119.278 78.5698 120.004 79.2339C120.249 78.9351 120.624 78.3689 120.79 77.8143C120.503 78.2045 120.053 78.3705 119.719 78.3141C120.182 77.9505 120.764 77.2233 121.047 76.5575C120.868 76.7451 120.688 76.848 120.51 76.8846C120.84 76.3865 121.087 75.729 121.273 74.9569C120.902 75.724 120.512 76.2221 120.088 76.1872C120.628 75.4666 121.047 74.414 121.359 73.0625C121.035 73.7598 120.693 74.1616 120.338 74.3525C120.745 73.5406 121.126 72.6225 121.429 71.3756C121.278 71.5898 121.125 71.706 120.97 71.7541C121.19 71.3009 121.375 70.7214 121.523 70.0158C121.3 70.401 121.076 70.6932 120.853 70.8592C121.291 69.6604 121.642 68.2375 121.812 66.3497C121.98 68.2375 122.332 69.6604 122.771 70.8592C122.547 70.6932 122.324 70.401 122.1 70.0158C122.248 70.7214 122.433 71.3009 122.654 71.7541C122.498 71.706 122.344 71.5898 122.194 71.3756C122.497 72.6241 122.878 73.5423 123.285 74.3525C122.93 74.1616 122.588 73.7581 122.264 73.0625C122.574 74.414 122.994 75.4666 123.534 76.1872C123.11 76.2221 122.721 75.724 122.349 74.9569C122.535 75.729 122.781 76.3865 123.113 76.8846C122.934 76.8464 122.754 76.7434 122.575 76.5575C122.859 77.2216 123.44 77.9505 123.904 78.3141C123.569 78.3705 123.119 78.2062 122.833 77.8143C123.007 78.3971 123.412 78.9932 123.655 79.2771C123.34 79.2904 123.159 79.2439 122.941 79.1559C123.392 80.2002 123.982 81.125 124.687 81.5833C124.242 81.7228 123.786 81.5667 123.402 81.2745C123.661 81.9751 123.948 82.611 124.287 83.1257C124.746 82.7638 125.134 82.1345 125.436 81.4339C125.276 81.4986 125.142 81.5335 124.91 81.5235C125.089 81.3143 125.388 80.8727 125.518 80.4426C125.305 80.7299 124.974 80.8544 124.726 80.8112C125.068 80.5423 125.498 80.006 125.707 79.5145C125.575 79.6523 125.442 79.7287 125.31 79.7553C125.554 79.3883 125.736 78.9019 125.873 78.3307C125.599 78.8985 125.312 79.2655 124.999 79.2389C125.397 78.7076 125.707 77.9289 125.937 76.931C125.698 77.4457 125.446 77.7429 125.183 77.8841C125.483 77.2847 125.766 76.6056 125.988 75.6841C125.878 75.8419 125.764 75.9282 125.65 75.9631C125.813 75.6277 125.949 75.201 126.059 74.678C125.893 74.9619 125.729 75.1777 125.564 75.3006C125.888 74.414 126.147 73.3646 126.272 71.97C126.396 73.3646 126.656 74.4156 126.98 75.3006C126.816 75.1777 126.651 74.9619 126.485 74.678C126.594 75.1993 126.731 75.6277 126.894 75.9631C126.779 75.9265 126.666 75.8419 126.555 75.6841C126.779 76.6056 127.061 77.2847 127.361 77.8841C127.098 77.7429 126.846 77.4457 126.607 76.931C126.837 77.9289 127.146 78.7076 127.545 79.2389C127.232 79.2655 126.945 78.8969 126.67 78.3307C126.808 78.9019 126.99 79.3867 127.234 79.7553C127.101 79.727 126.97 79.6523 126.837 79.5145C127.046 80.006 127.476 80.5423 127.818 80.8112C127.57 80.8544 127.238 80.7299 127.026 80.4426C127.155 80.8727 127.454 81.3143 127.634 81.5235C127.402 81.5335 127.267 81.4986 127.107 81.4339C127.44 82.2043 127.875 82.8883 128.396 83.227C128.068 83.33 127.73 83.2137 127.447 82.9979C127.707 83.7002 128.005 84.3162 128.385 84.7396C128.197 84.7529 128.009 84.6931 127.826 84.5354C128.168 85.4087 128.567 85.8736 129.001 86.0861C128.621 86.297 128.237 86.2256 127.849 85.9715C128.137 86.5477 128.527 86.8615 128.96 87.064C128.198 87.3778 127.422 87.3911 126.612 86.6191C126.752 87.1637 126.934 87.5605 127.142 87.866H91.9809H91.9798Z" fill="#B2D234"/>
</g>
<g clip-path="url(#clip1_380_8073)">
<path fill-rule="evenodd" clip-rule="evenodd" d="M49.0198 87.866H13.8585C14.0666 87.5621 14.2486 87.1637 14.3888 86.6191C13.5792 87.3895 12.8041 87.3778 12.0405 87.064C12.4736 86.8615 12.8637 86.546 13.1514 85.9715C12.7644 86.2256 12.3794 86.297 11.9997 86.0861C12.4338 85.8736 12.8323 85.4087 13.1744 84.5354C12.9913 84.6914 12.8051 84.7512 12.6158 84.7396C12.9955 84.3162 13.2936 83.7002 13.5541 82.9979C13.2706 83.2137 12.9338 83.33 12.6043 83.227C13.1252 82.8883 13.5604 82.2059 13.894 81.4339C13.734 81.4986 13.5991 81.5335 13.3669 81.5235C13.5457 81.3143 13.8449 80.8727 13.9746 80.4426C13.7622 80.7299 13.4307 80.8544 13.1828 80.8112C13.5248 80.5423 13.9547 80.006 14.1639 79.5145C14.0311 79.6523 13.8993 79.7287 13.7664 79.7553C14.0112 79.3883 14.1932 78.9019 14.3302 78.3307C14.0562 78.8985 13.7685 79.2655 13.4558 79.2389C13.8543 78.7076 14.1639 77.9289 14.394 76.931C14.1545 77.4457 13.9024 77.7429 13.6399 77.8841C13.9401 77.2847 14.2225 76.6056 14.4453 75.6841C14.3344 75.8419 14.2204 75.9282 14.1053 75.9631C14.2685 75.6277 14.4045 75.201 14.5143 74.678C14.3491 74.9619 14.1848 75.1777 14.0196 75.3006C14.3438 74.414 14.6032 73.3646 14.7277 71.97C14.8522 73.3646 15.1116 74.4156 15.4358 75.3006C15.2706 75.1777 15.1064 74.9619 14.9411 74.678C15.0509 75.1993 15.1869 75.6277 15.3501 75.9631C15.235 75.9265 15.122 75.8419 15.0101 75.6841C15.234 76.6056 15.5153 77.2847 15.8155 77.8841C15.553 77.7429 15.3009 77.4457 15.0614 76.931C15.2905 77.9289 15.6011 78.7076 15.9996 79.2389C15.6869 79.2655 15.3992 78.8969 15.1252 78.3307C15.2622 78.9019 15.4442 79.3867 15.689 79.7553C15.5572 79.727 15.4243 79.6523 15.2915 79.5145C15.5017 80.006 15.9306 80.5423 16.2727 80.8112C16.0247 80.8544 15.6932 80.7299 15.4808 80.4426C15.6105 80.8727 15.9097 81.3143 16.0886 81.5235C15.8563 81.5335 15.7225 81.4986 15.5624 81.4339C15.8657 82.1345 16.2528 82.7638 16.712 83.1257C17.0498 82.611 17.3364 81.9751 17.5969 81.2745C17.213 81.5667 16.7559 81.7228 16.3113 81.5833C17.0164 81.125 17.6063 80.2002 18.0571 79.1559C17.8406 79.2422 17.6586 79.2887 17.3448 79.2771C17.5864 78.9932 17.9923 78.3955 18.167 77.8143C17.8804 78.2045 17.4306 78.3705 17.0958 78.3141C17.5592 77.9505 18.1408 77.2233 18.4243 76.5575C18.2454 76.7451 18.0655 76.848 17.8866 76.8846C18.2182 76.3865 18.464 75.729 18.6502 74.9569C18.2789 75.724 17.8898 76.2221 17.4651 76.1872C18.0048 75.4666 18.4243 74.414 18.736 73.0625C18.4117 73.7598 18.0697 74.1616 17.7151 74.3525C18.122 73.5406 18.5038 72.6225 18.8061 71.3756C18.6554 71.5898 18.5017 71.706 18.3469 71.7541C18.5676 71.3009 18.7517 70.7214 18.9002 70.0158C18.6764 70.401 18.4536 70.6932 18.2297 70.8592C18.669 69.6604 19.0195 68.2375 19.1889 66.3497C19.3573 68.2375 19.7088 69.6604 20.147 70.8592C19.9242 70.6932 19.7004 70.401 19.4766 70.0158C19.6251 70.7214 19.8092 71.3009 20.0299 71.7541C19.874 71.706 19.7213 71.5898 19.5707 71.3756C19.874 72.6241 20.2548 73.5423 20.6617 74.3525C20.3071 74.1616 19.965 73.7581 19.6408 73.0625C19.9514 74.414 20.3719 75.4666 20.9106 76.1872C20.487 76.2221 20.0979 75.724 19.7255 74.9569C19.9117 75.729 20.1585 76.3865 20.4891 76.8846C20.3102 76.8464 20.1303 76.7434 19.9514 76.5575C20.2349 77.2216 20.8175 77.9505 21.2799 78.3141C20.9451 78.3705 20.4954 78.2062 20.2088 77.8143C20.3751 78.3672 20.7495 78.9351 20.9943 79.2339C21.7202 78.5698 22.3374 77.5404 22.83 76.3997C22.5445 76.5126 22.3049 76.5757 21.8907 76.5575C22.2098 76.1839 22.7432 75.3969 22.9733 74.6315C22.5957 75.1445 22.0037 75.3637 21.5623 75.289C22.1721 74.8108 22.9378 73.8528 23.3112 72.9778C23.0758 73.2235 22.8394 73.3597 22.6041 73.4095C23.0403 72.7536 23.3645 71.8886 23.6093 70.8708C23.1198 71.882 22.6072 72.5378 22.0497 72.4913C22.76 71.5433 23.3122 70.1569 23.7223 68.3787C23.2955 69.2952 22.8457 69.8265 22.3782 70.0788C22.9137 69.0096 23.4158 67.8009 23.8143 66.1588C23.6166 66.4411 23.4137 66.5938 23.2087 66.6569C23.4995 66.0592 23.7422 65.2971 23.9367 64.3673C23.6428 64.8737 23.3489 65.2589 23.0539 65.4781C23.6313 63.8991 24.0936 62.0262 24.3164 59.5407C24.5382 62.0262 25.0005 63.8991 25.5789 65.4781C25.285 65.2589 24.9911 64.8737 24.6972 64.3673C24.8917 65.2971 25.1344 66.0592 25.4252 66.6569C25.2202 66.5922 25.0183 66.4411 24.8195 66.1588C25.2181 67.8009 25.7201 69.0113 26.2557 70.0788C25.7881 69.8265 25.3383 69.2968 24.9116 68.3787C25.3206 70.1585 25.8729 71.5433 26.5841 72.4913C26.0266 72.5378 25.5141 71.882 25.0246 70.8708C25.2693 71.8886 25.5936 72.7536 26.0298 73.4095C25.7934 73.3597 25.558 73.2252 25.3216 72.9778C25.695 73.8528 26.4618 74.8108 27.0716 75.289C26.6302 75.3637 26.0381 75.1462 25.6605 74.6315C25.8906 75.3986 26.4241 76.1839 26.7431 76.5575C26.3289 76.5741 26.0894 76.5126 25.8049 76.3997C26.3446 77.6483 27.036 78.769 27.855 79.4149C28.4575 78.4967 28.969 77.3627 29.4314 76.1142C28.7473 76.6355 27.9335 76.9144 27.1396 76.667C28.3958 75.8502 29.4471 74.2015 30.2514 72.3419C29.8644 72.4963 29.5412 72.581 28.9805 72.5561C29.4125 72.0513 30.1353 70.9854 30.446 69.9477C29.9345 70.6434 29.1332 70.9389 28.536 70.8376C29.3613 70.1901 30.3989 68.8934 30.9041 67.7079C30.5851 68.04 30.265 68.2243 29.946 68.2907C30.537 67.4041 30.9763 66.2319 31.3079 64.8538C30.6447 66.2236 29.9512 67.1102 29.196 67.0471C30.1583 65.7636 30.9062 63.8858 31.4606 61.4783C30.8832 62.7219 30.2734 63.4375 29.6406 63.7796C30.3654 62.3334 31.0453 60.6963 31.5851 58.4715C31.3163 58.855 31.0433 59.0609 30.7661 59.1456C31.1594 58.337 31.4888 57.3043 31.7524 56.0474C31.3539 56.7331 30.9564 57.2544 30.5579 57.5516C31.3403 55.4131 31.9658 52.8778 32.266 49.5123C32.5673 52.8778 33.1928 55.4131 33.9752 57.5516C33.5767 57.2544 33.1792 56.7348 32.7807 56.0474C33.0443 57.3059 33.3737 58.3386 33.767 59.1456C33.4898 59.0592 33.2158 58.8533 32.948 58.4715C33.4878 60.6963 34.1677 62.3334 34.8925 63.7796C34.2597 63.4375 33.6499 62.7203 33.0725 61.4783C33.6269 63.8875 34.3748 65.7636 35.3371 67.0471C34.5819 67.1102 33.8884 66.2219 33.2252 64.8538C33.5568 66.2319 33.9961 67.4041 34.5871 68.2907C34.2681 68.2226 33.948 68.04 33.629 67.7079C34.1352 68.8934 35.1718 70.1901 35.9971 70.8376C35.3998 70.9389 34.5986 70.6434 34.0871 69.9477C34.3988 70.9854 35.1206 72.0497 35.5526 72.5561C34.9919 72.5793 34.6676 72.4963 34.2817 72.3419C34.9344 73.8528 35.7503 75.2226 36.7063 76.1225C37.0881 75.5297 37.4333 74.8589 37.7377 74.1533C37.3956 74.2895 37.1101 74.3642 36.6153 74.3426C36.9971 73.896 37.6341 72.9562 37.9103 72.0397C37.4584 72.654 36.7502 72.9147 36.2231 72.825C36.9521 72.2539 37.8684 71.1083 38.3151 70.0606C38.0326 70.3545 37.7502 70.5172 37.4688 70.5753C37.9897 69.7916 38.3778 68.7572 38.6707 67.5402C38.0849 68.7489 37.473 69.5326 36.8057 69.4778C37.655 68.3438 38.3161 66.6868 38.8056 64.5599C38.2952 65.6574 37.7575 66.29 37.199 66.5922C37.8391 65.3137 38.4395 63.8692 38.9165 61.9034C38.6801 62.2421 38.4374 62.4231 38.1927 62.4994C38.54 61.7855 38.8307 60.8723 39.064 59.7615C38.7125 60.3676 38.3611 60.8275 38.0086 61.0898C38.7 59.202 39.2523 56.9606 39.518 53.9886C39.7836 56.9606 40.3359 59.2004 41.0273 61.0898C40.6759 60.8275 40.3244 60.3676 39.9719 59.7615C40.2052 60.8723 40.4949 61.7855 40.8432 62.4994C40.5985 62.4231 40.3569 62.2421 40.1194 61.9034C40.5964 63.8675 41.1968 65.3137 41.8369 66.5922C41.2784 66.29 40.7397 65.6574 40.2303 64.5599C40.7198 66.6885 41.3798 68.3455 42.2302 69.4778C41.5629 69.5326 40.9499 68.7506 40.3652 67.5402C40.6581 68.7572 41.0451 69.7916 41.5671 70.5753C41.2847 70.5155 41.0033 70.3545 40.7209 70.0606C41.1675 71.1066 42.0838 72.2522 42.8129 72.825C42.2857 72.9147 41.5775 72.654 41.1257 72.0397C41.4008 72.9562 42.0388 73.896 42.4196 74.3426C41.9248 74.3642 41.6382 74.2895 41.2972 74.1533C41.9426 75.6476 42.7689 76.9875 43.748 77.7612C44.4687 76.6621 45.0806 75.3056 45.6339 73.8129C44.8149 74.4356 43.8421 74.7709 42.8934 74.4737C44.3965 73.4958 45.6538 71.525 46.614 69.3002C46.1517 69.4845 45.7647 69.5857 45.0942 69.5575C45.6109 68.9515 46.4749 67.6797 46.8473 66.4377C46.2354 67.2696 45.2773 67.6232 44.5628 67.502C45.5503 66.7266 46.7898 65.1759 47.3954 63.7596C47.0136 64.1564 46.6318 64.3773 46.249 64.457C46.955 63.3977 47.4801 61.9947 47.8766 60.3476C47.0837 61.9847 46.2542 63.0457 45.3515 62.971C46.5021 61.4352 47.3954 59.1921 48.0586 56.3114C47.3682 57.7974 46.6391 58.6541 45.8829 59.0625C46.75 57.3325 47.5628 55.375 48.2081 52.7151C47.8881 53.1734 47.5596 53.4191 47.228 53.522C47.6987 52.5557 48.092 51.3204 48.4069 49.8162C47.931 50.6364 47.455 51.259 46.9781 51.6143C47.9142 49.0574 48.6621 46.0256 49.0209 42.001C49.3807 46.0256 50.1286 49.0574 51.0637 51.6143C50.5878 51.259 50.1119 50.6364 49.6349 49.8162C49.9508 51.3204 50.3441 52.5557 50.8137 53.522C50.4822 53.4191 50.1548 53.1734 49.8336 52.7151C50.479 55.375 51.2918 57.3325 52.1589 59.0625C51.4026 58.6541 50.6736 57.7957 49.9832 56.3114C50.6464 59.1921 51.5407 61.4352 52.6913 62.971C51.7886 63.0457 50.9591 61.9847 50.1663 60.3476C50.5627 61.9947 51.0878 63.396 51.7938 64.457C51.4121 64.3773 51.0303 64.1581 50.6474 63.7596C51.2531 65.1759 52.4926 66.7266 53.48 67.502C52.7656 67.6232 51.8074 67.2696 51.1955 66.4377C51.5679 67.6797 52.4319 68.9515 52.9486 69.5575C52.2781 69.5857 51.8911 69.4861 51.4288 69.3002C52.3901 71.525 53.6474 73.4958 55.1494 74.4737C54.2007 74.7709 53.2269 74.4356 52.4089 73.8129C52.9622 75.3056 53.5741 76.6621 54.2948 77.7612C55.2739 76.9875 56.1002 75.6493 56.7456 74.1533C56.4046 74.2895 56.118 74.3642 55.6233 74.3426C56.0051 73.896 56.6421 72.9562 56.9172 72.0397C56.4653 72.654 55.7582 72.9147 55.23 72.825C55.959 72.2539 56.8753 71.1083 57.322 70.0606C57.0396 70.3545 56.7571 70.5172 56.4758 70.5753C56.9977 69.7916 57.3858 68.7572 57.6776 67.5402C57.0929 68.7489 56.4799 69.5326 55.8126 69.4778C56.6619 68.3438 57.323 66.6868 57.8125 64.5599C57.3021 65.6574 56.7645 66.29 56.2048 66.5922C56.845 65.3137 57.4464 63.8692 57.9224 61.9034C57.6849 62.2421 57.4444 62.4231 57.1985 62.4994C57.5458 61.7855 57.8366 60.8723 58.0699 59.7615C57.7184 60.3676 57.3669 60.8275 57.0144 61.0898C57.7059 59.202 58.2581 56.9606 58.5238 53.9886C58.7895 56.9606 59.3418 59.2004 60.0332 61.0898C59.6818 60.8275 59.3292 60.3676 58.9778 59.7615C59.2111 60.8723 59.5008 61.7855 59.8491 62.4994C59.6043 62.4231 59.3617 62.2421 59.1253 61.9034C59.6023 63.8675 60.2027 65.3137 60.8428 66.5922C60.2843 66.29 59.7456 65.6574 59.2362 64.5599C59.7257 66.6885 60.3868 68.3455 61.2361 69.4778C60.5698 69.5326 59.9569 68.7506 59.3711 67.5402C59.664 68.7572 60.052 69.7916 60.5729 70.5753C60.2905 70.5155 60.0081 70.3545 59.7267 70.0606C60.1734 71.1066 61.0897 72.2522 61.8187 72.825C61.2916 72.9147 60.5834 72.654 60.1315 72.0397C60.4066 72.9562 61.0447 73.896 61.4265 74.3426C60.9307 74.3642 60.6451 74.2895 60.3041 74.1533C60.6085 74.8589 60.9537 75.5297 61.3355 76.1225C62.2915 75.2226 63.1074 73.8511 63.7601 72.3419C63.3741 72.4963 63.0499 72.581 62.4892 72.5561C62.9212 72.0513 63.643 70.9854 63.9547 69.9477C63.4432 70.6434 62.6419 70.9389 62.0447 70.8376C62.87 70.1901 63.9076 68.8934 64.4128 67.7079C64.0938 68.04 63.7737 68.2243 63.4547 68.2907C64.0446 67.4041 64.485 66.2319 64.8155 64.8538C64.1534 66.2236 63.4589 67.1102 62.7037 67.0471C63.666 65.7636 64.4139 63.8858 64.9683 61.4783C64.3909 62.7219 63.7821 63.4375 63.1482 63.7796C63.8731 62.3334 64.553 60.6963 65.0927 58.4715C64.8249 58.855 64.5509 59.0609 64.2737 59.1456C64.667 58.337 64.9965 57.3043 65.2601 56.0474C64.8616 56.7331 64.4641 57.2544 64.0655 57.5516C64.848 55.4131 65.4735 52.8778 65.7747 49.5123C66.0749 52.8778 66.7004 55.4131 67.4828 57.5516C67.0843 57.2544 66.6868 56.7348 66.2883 56.0474C66.5519 57.3059 66.8814 58.3386 67.2747 59.1456C66.9975 59.0592 66.7234 58.8533 66.4557 58.4715C66.9954 60.6963 67.6753 62.3334 68.4002 63.7796C67.7674 63.4375 67.1575 62.7203 66.5801 61.4783C67.1345 63.8875 67.8824 65.7636 68.8447 67.0471C68.0895 67.1102 67.396 66.2219 66.7329 64.8538C67.0644 66.2319 67.5038 67.4041 68.0948 68.2907C67.7757 68.2226 67.4556 68.04 67.1356 67.7079C67.6418 68.8934 68.6784 70.1901 69.5037 70.8376C68.9065 70.9389 68.1052 70.6434 67.5937 69.9477C67.9054 70.9854 68.6272 72.0497 69.0592 72.5561C68.4985 72.5793 68.1742 72.4963 67.7883 72.3419C68.5916 74.2031 69.6428 75.8502 70.9001 76.667C70.1062 76.9161 69.2924 76.6355 68.6083 76.1142C69.0707 77.3611 69.5822 78.4967 70.1847 79.4149C71.0037 78.769 71.6951 77.6483 72.2348 76.3997C71.9493 76.5126 71.7097 76.5757 71.2966 76.5575C71.6156 76.1839 72.1491 75.3969 72.3792 74.6315C72.0016 75.1445 71.4095 75.3637 70.9681 75.289C71.5779 74.8108 72.3436 73.8528 72.717 72.9778C72.4806 73.2235 72.2453 73.3597 72.0089 73.4095C72.4451 72.7536 72.7693 71.8886 73.0141 70.8708C72.5246 71.882 72.0131 72.5378 71.4545 72.4913C72.1647 71.5433 72.7181 70.1569 73.1271 68.3787C72.7003 69.2952 72.2505 69.8265 71.783 70.0788C72.3185 69.0096 72.8206 67.8009 73.2191 66.1588C73.0214 66.4411 72.8185 66.5938 72.6145 66.6569C72.9053 66.0592 73.148 65.2971 73.3425 64.3673C73.0486 64.8737 72.7547 65.2589 72.4597 65.4781C73.0371 63.8991 73.4994 62.0262 73.7222 59.5407C73.944 62.0262 74.4063 63.8991 74.9837 65.4781C74.6898 65.2589 74.3959 64.8737 74.1019 64.3673C74.2965 65.2971 74.5392 66.0592 74.831 66.6569C74.626 66.5922 74.4241 66.4411 74.2254 66.1588C74.6239 67.8009 75.126 69.0113 75.6615 70.0788C75.194 69.8265 74.7442 69.2968 74.3174 68.3787C74.7275 70.1585 75.2787 71.5433 75.99 72.4913C75.4325 72.5378 74.9199 71.882 74.4304 70.8708C74.6752 71.8886 74.9994 72.7536 75.4356 73.4095C75.1992 73.3597 74.9638 73.2252 74.7275 72.9778C75.1009 73.8528 75.8665 74.8108 76.4764 75.289C76.035 75.3637 75.4429 75.1462 75.0653 74.6315C75.2954 75.3986 75.8289 76.1839 76.1479 76.5575C75.7337 76.5741 75.4942 76.5126 75.2086 76.3997C75.7013 77.5387 76.3184 78.5698 77.0443 79.2339C77.2891 78.9351 77.6636 78.3689 77.8299 77.8143C77.5433 78.2045 77.0935 78.3705 76.7588 78.3141C77.2222 77.9505 77.8037 77.2233 78.0872 76.5575C77.9083 76.7451 77.7284 76.848 77.5496 76.8846C77.8801 76.3865 78.127 75.729 78.3131 74.9569C77.9418 75.724 77.5517 76.2221 77.128 76.1872C77.6678 75.4666 78.0872 74.414 78.3989 73.0625C78.0747 73.7598 77.7326 74.1616 77.378 74.3525C77.7849 73.5406 78.1657 72.6225 78.469 71.3756C78.3184 71.5898 78.1646 71.706 78.0098 71.7541C78.2305 71.3009 78.4146 70.7214 78.5631 70.0158C78.3403 70.401 78.1165 70.6932 77.8927 70.8592C78.3309 69.6604 78.6824 68.2375 78.8518 66.3497C79.0202 68.2375 79.3717 69.6604 79.811 70.8592C79.5872 70.6932 79.3644 70.401 79.1405 70.0158C79.288 70.7214 79.4732 71.3009 79.6939 71.7541C79.538 71.706 79.3843 71.5898 79.2336 71.3756C79.537 72.6241 79.9177 73.5423 80.3246 74.3525C79.97 74.1616 79.628 73.7581 79.3037 73.0625C79.6144 74.414 80.0338 75.4666 80.5736 76.1872C80.1499 76.2221 79.7608 75.724 79.3895 74.9569C79.5746 75.729 79.8215 76.3865 80.1531 76.8846C79.9742 76.8464 79.7943 76.7434 79.6154 76.5575C79.8989 77.2216 80.4805 77.9505 80.9438 78.3141C80.6091 78.3705 80.1593 78.2062 79.8727 77.8143C80.0474 78.3971 80.4522 78.9932 80.6949 79.2771C80.3801 79.2904 80.1991 79.2439 79.9815 79.1559C80.4324 80.2002 81.0223 81.125 81.7273 81.5833C81.2817 81.7228 80.8256 81.5667 80.4418 81.2745C80.7012 81.9751 80.9878 82.611 81.3267 83.1257C81.7859 82.7638 82.1739 82.1345 82.4762 81.4339C82.3162 81.4986 82.1823 81.5335 81.9501 81.5235C82.129 81.3143 82.4281 80.8727 82.5578 80.4426C82.3455 80.7299 82.0139 80.8544 81.766 80.8112C82.108 80.5423 82.538 80.006 82.7472 79.5145C82.6154 79.6523 82.4825 79.7287 82.3497 79.7553C82.5944 79.3883 82.7764 78.9019 82.9135 78.3307C82.6394 78.8985 82.3518 79.2655 82.039 79.2389C82.4375 78.7076 82.7472 77.9289 82.9773 76.931C82.7377 77.4457 82.4857 77.7429 82.2231 77.8841C82.5233 77.2847 82.8057 76.6056 83.0285 75.6841C82.9177 75.8419 82.8036 75.9282 82.6896 75.9631C82.8528 75.6277 82.9888 75.201 83.0986 74.678C82.9333 74.9619 82.7691 75.1777 82.6039 75.3006C82.9281 74.414 83.1875 73.3646 83.312 71.97C83.4365 73.3646 83.6959 74.4156 84.0201 75.3006C83.8559 75.1777 83.6906 74.9619 83.5254 74.678C83.6342 75.1993 83.7712 75.6277 83.9344 75.9631C83.8193 75.9265 83.7063 75.8419 83.5955 75.6841C83.8193 76.6056 84.1007 77.2847 84.4009 77.8841C84.1383 77.7429 83.8863 77.4457 83.6467 76.931C83.8768 77.9289 84.1865 78.7076 84.585 79.2389C84.2722 79.2655 83.9846 78.8969 83.7105 78.3307C83.8475 78.9019 84.0296 79.3867 84.2743 79.7553C84.1415 79.727 84.0097 79.6523 83.8768 79.5145C84.086 80.006 84.5159 80.5423 84.858 80.8112C84.6101 80.8544 84.2785 80.7299 84.0662 80.4426C84.1948 80.8727 84.494 81.3143 84.6739 81.5235C84.4417 81.5335 84.3067 81.4986 84.1467 81.4339C84.4804 82.2043 84.9155 82.8883 85.4364 83.227C85.108 83.33 84.7701 83.2137 84.4867 82.9979C84.7471 83.7002 85.0452 84.3162 85.4249 84.7396C85.2366 84.7529 85.0494 84.6931 84.8664 84.5354C85.2084 85.4087 85.6069 85.8736 86.041 86.0861C85.6613 86.297 85.2774 86.2256 84.8894 85.9715C85.177 86.5477 85.5672 86.8615 86.0002 87.064C85.2377 87.3778 84.4616 87.3911 83.6519 86.6191C83.7921 87.1637 83.9741 87.5605 84.1823 87.866H49.0209H49.0198Z" fill="#B2D234"/>
</g>
<g clip-path="url(#clip2_380_8073)">
<path fill-rule="evenodd" clip-rule="evenodd" d="M46.5007 89.9998H84.9678C84.7401 89.7313 84.541 89.3791 84.3876 88.8978C85.2734 89.5787 86.1213 89.5684 86.9567 89.2911C86.4829 89.1121 86.0561 88.8333 85.7414 88.3256C86.1648 88.5501 86.5859 88.6132 87.0013 88.4268C86.5264 88.239 86.0904 87.8282 85.7162 87.0564C85.9165 87.1943 86.1202 87.2472 86.3273 87.2369C85.9119 86.8627 85.5858 86.3184 85.3008 85.6977C85.6109 85.8885 85.9794 85.9912 86.3399 85.9002C85.77 85.6009 85.2939 84.9978 84.9289 84.3156C85.104 84.3728 85.2516 84.4036 85.5057 84.3948C85.31 84.2099 84.9827 83.8196 84.8408 83.4396C85.0731 83.6934 85.4359 83.8035 85.7071 83.7653C85.3329 83.5276 84.8625 83.0537 84.6337 82.6194C84.779 82.7412 84.9232 82.8087 85.0685 82.8321C84.8007 82.5079 84.6016 82.078 84.4517 81.5732C84.7515 82.075 85.0662 82.3993 85.4084 82.3758C84.9724 81.9063 84.6337 81.2182 84.3819 80.3363C84.644 80.7912 84.9197 81.0538 85.207 81.1785C84.8785 80.6489 84.5696 80.0487 84.3258 79.2344C84.4471 79.3738 84.5719 79.4501 84.6977 79.4809C84.5192 79.1845 84.3705 78.8074 84.2503 78.3452C84.4311 78.5961 84.6108 78.7869 84.7916 78.8955C84.4368 78.1119 84.153 77.1846 84.0169 75.9521C83.8807 77.1846 83.5969 78.1134 83.2421 78.8955C83.423 78.7869 83.6026 78.5961 83.7834 78.3452C83.6633 78.806 83.5145 79.1845 83.336 79.4809C83.4619 79.4486 83.5854 79.3738 83.7079 79.2344C83.463 80.0487 83.1552 80.6489 82.8267 81.1785C83.114 81.0538 83.3898 80.7912 83.6518 80.3363C83.4012 81.2182 83.0613 81.9063 82.6253 82.3758C82.9675 82.3993 83.2822 82.0736 83.582 81.5732C83.4321 82.078 83.233 82.5064 82.9652 82.8321C83.1094 82.8072 83.2547 82.7412 83.4001 82.6194C83.1701 83.0537 82.7009 83.5276 82.3267 83.7653C82.5979 83.8035 82.9606 83.6934 83.1929 83.4396C83.051 83.8196 82.7238 84.2099 82.5281 84.3948C82.7821 84.4036 82.9286 84.3728 83.1037 84.3156C82.7718 84.9347 82.3484 85.4908 81.846 85.8107C81.4764 85.3559 81.1629 84.7939 80.8779 84.1747C81.2979 84.4329 81.798 84.5709 82.2843 84.4476C81.513 84.0426 80.8676 83.2254 80.3744 82.3025C80.6113 82.3788 80.8104 82.4198 81.1537 82.4096C80.8894 82.1587 80.4454 81.6305 80.2543 81.1169C80.5678 81.4617 81.0599 81.6084 81.4261 81.5586C80.9191 81.2372 80.2829 80.5946 79.9728 80.0062C80.1684 80.172 80.3653 80.263 80.561 80.2952C80.1982 79.8551 79.9293 79.274 79.7256 78.5917C80.1318 79.2696 80.5575 79.7098 81.0221 79.679C80.4316 79.0422 79.9728 78.1119 79.6317 76.9176C79.9865 77.5338 80.3607 77.8889 80.7486 78.0577C80.3035 77.3402 79.8858 76.5288 79.5551 75.4268C79.7199 75.6161 79.8881 75.7188 80.0574 75.7614C79.816 75.3608 79.6146 74.8487 79.4521 74.2251C79.697 74.5656 79.9407 74.8238 80.1856 74.9705C79.705 73.9111 79.3216 72.6537 79.1362 70.9854C78.952 72.6537 78.5675 73.9111 78.088 74.9705C78.3318 74.8238 78.5767 74.5656 78.8215 74.2251C78.659 74.8487 78.4576 75.3608 78.2162 75.7614C78.3867 75.7188 78.5538 75.6161 78.7186 75.4268C78.3867 76.5302 77.9702 77.3416 77.525 78.0577C77.9129 77.8889 78.2871 77.5324 78.6419 76.9176C78.302 78.1119 77.842 79.0422 77.2527 79.679C77.7161 79.7098 78.1418 79.2696 78.5492 78.5917C78.3455 79.274 78.0754 79.8551 77.7138 80.2952C77.9095 80.2615 78.1063 80.1705 78.302 80.0062C77.9919 80.5931 77.3545 81.2372 76.8487 81.5586C77.2149 81.6084 77.707 81.4632 78.0205 81.1169C77.8386 81.6055 77.4289 82.1073 77.1611 82.3714C76.3669 81.7845 75.6918 80.8748 75.1528 79.8668C75.4652 79.9666 75.7272 80.0223 76.1804 80.0062C75.8314 79.6761 75.2478 78.9806 74.996 78.3042C75.4091 78.7575 76.0568 78.9512 76.5397 78.8852C75.8726 78.4626 75.0349 77.616 74.6264 76.8428C74.8839 77.0599 75.1425 77.1802 75.4 77.2242C74.9228 76.6447 74.568 75.8802 74.3002 74.9808C74.8358 75.8744 75.3965 76.4539 76.0065 76.4128C75.2295 75.575 74.6252 74.3499 74.1767 72.7784C74.6436 73.5884 75.1356 74.0579 75.6471 74.2809C75.0612 73.336 74.512 72.2678 74.076 70.8167C74.2922 71.0661 74.5142 71.2011 74.7385 71.2569C74.4204 70.7286 74.1549 70.0552 73.9421 69.2335C74.2636 69.681 74.5852 70.0214 74.9079 70.2151C74.2762 68.8197 73.7704 67.1646 73.5267 64.9681C73.2841 67.1646 72.7783 68.8197 72.1455 70.2151C72.467 70.0214 72.7886 69.681 73.1101 69.2335C72.8973 70.0552 72.6318 70.7286 72.3137 71.2569C72.538 71.1996 72.7588 71.0661 72.9762 70.8167C72.5403 72.2678 71.991 73.3374 71.4051 74.2809C71.9166 74.0579 72.4087 73.5898 72.8755 72.7784C72.4281 74.3513 71.8239 75.575 71.0457 76.4128C71.6557 76.4539 72.2164 75.8744 72.752 74.9808C72.4842 75.8802 72.1294 76.6447 71.6522 77.2242C71.9109 77.1802 72.1683 77.0614 72.427 76.8428C72.0184 77.616 71.1796 78.4626 70.5125 78.8852C70.9954 78.9512 71.6431 78.759 72.0562 78.3042C71.8044 78.982 71.2208 79.6761 70.8718 80.0062C71.325 80.0209 71.587 79.9666 71.8983 79.8668C71.3078 80.9702 70.5514 81.9606 69.6554 82.5314C68.9962 81.72 68.4366 80.7178 67.9308 79.6144C68.6792 80.0752 69.5695 80.3217 70.4381 80.103C69.0637 79.3811 67.9137 77.9241 67.0337 76.2808C67.4571 76.4172 67.8107 76.4921 68.4241 76.4701C67.9514 76.024 67.1607 75.082 66.8208 74.165C67.3804 74.7798 68.257 75.0409 68.9104 74.9514C68.0075 74.3792 66.8723 73.2333 66.3196 72.1856C66.6686 72.4791 67.0188 72.642 67.3678 72.7007C66.7213 71.9171 66.2406 70.8812 65.8779 69.6634C66.6034 70.8739 67.3621 71.6574 68.1883 71.6017C67.1355 70.4675 66.3173 68.808 65.7108 66.6804C66.3425 67.7794 67.0096 68.4118 67.702 68.7141C66.9089 67.4361 66.1651 65.9894 65.5746 64.0232C65.8687 64.3622 66.1674 64.5441 66.4707 64.6189C66.0404 63.9044 65.6799 62.9917 65.3915 61.881C65.8275 62.487 66.2624 62.9477 66.6984 63.2103C65.8424 61.3205 65.1581 59.08 64.8297 56.1058C64.5001 59.08 63.8158 61.3205 62.9598 63.2103C63.3958 62.9477 63.8307 62.4885 64.2667 61.881C63.9783 62.9932 63.6178 63.9058 63.1875 64.6189C63.4908 64.5426 63.7906 64.3607 64.0836 64.0232C63.4931 65.9894 62.7493 67.4361 61.9562 68.7141C62.6486 68.4118 63.3157 67.778 63.9474 66.6804C63.3409 68.8095 62.5227 70.4675 61.4699 71.6017C62.2961 71.6574 63.0548 70.8724 63.7803 69.6634C63.4176 70.8812 62.9369 71.9171 62.2904 72.7007C62.6394 72.6405 62.9896 72.4791 63.3386 72.1856C62.7847 73.2333 61.6507 74.3792 60.7478 74.9514C61.4012 75.0409 62.2778 74.7798 62.8374 74.165C62.4964 75.082 61.7068 76.0226 61.2341 76.4701C61.8475 76.4906 62.2023 76.4172 62.6245 76.2808C61.9105 77.616 61.0179 78.8265 59.9719 79.6218C59.5543 79.0979 59.1766 78.5052 58.8436 77.8816C59.2178 78.0019 59.5302 78.0679 60.0715 78.0489C59.6538 77.6542 58.9569 76.8237 58.6548 76.0137C59.1492 76.5566 59.9239 76.787 60.5006 76.7078C59.703 76.203 58.7006 75.1906 58.2119 74.2648C58.5209 74.5245 58.8299 74.6683 59.1377 74.7196C58.5678 74.0271 58.1433 73.113 57.8229 72.0374C58.4637 73.1056 59.1331 73.7982 59.8632 73.7498C58.934 72.7476 58.2108 71.2833 57.6752 69.4037C58.2337 70.3736 58.8219 70.9326 59.433 71.1996C58.7326 70.0698 58.0758 68.7933 57.5539 67.0561C57.8126 67.3554 58.0781 67.5153 58.3458 67.5828C57.9659 66.9519 57.6478 66.1449 57.3926 65.1633C57.7771 65.6988 58.1616 66.1053 58.5472 66.3371C57.7908 64.6688 57.1866 62.688 56.8959 60.0616C56.6053 62.688 56.0011 64.6673 55.2447 66.3371C55.6292 66.1053 56.0137 65.6988 56.3993 65.1633C56.1441 66.1449 55.8271 66.9519 55.4461 67.5828C55.7138 67.5153 55.9782 67.3554 56.2379 67.0561C55.7161 68.7918 55.0593 70.0698 54.3589 71.1996C54.97 70.9326 55.5594 70.3736 56.1166 69.4037C55.5811 71.2847 54.859 72.7491 53.9287 73.7498C54.6588 73.7982 55.3293 73.1071 55.969 72.0374C55.6486 73.113 55.2252 74.0271 54.6542 74.7196C54.9632 74.6668 55.271 74.5245 55.58 74.2648C55.0913 75.1891 54.0889 76.2016 53.2913 76.7078C53.868 76.787 54.6427 76.5566 55.1371 76.0137C54.8361 76.8237 54.1381 77.6542 53.7215 78.0489C54.2628 78.0679 54.5764 78.0019 54.9494 77.8816C54.2434 79.2021 53.3393 80.3862 52.2682 81.07C51.4798 80.0986 50.8103 78.8999 50.205 77.5808C51.101 78.131 52.1652 78.4274 53.2032 78.1648C51.5587 77.3005 50.1832 75.5589 49.1327 73.5928C49.6385 73.7556 50.0619 73.8451 50.7955 73.8202C50.2302 73.2846 49.2849 72.1607 48.8775 71.0632C49.547 71.7983 50.5952 72.1108 51.3768 72.0037C50.2965 71.3185 48.9405 69.9481 48.2779 68.6965C48.6956 69.0471 49.1133 69.2423 49.5321 69.3127C48.7597 68.3766 48.1852 67.1368 47.7515 65.6812C48.6189 67.128 49.5264 68.0655 50.5139 67.9995C49.2552 66.6423 48.2779 64.66 47.5524 62.1143C48.3077 63.4275 49.1053 64.1846 49.9326 64.5456C48.984 63.0167 48.0948 61.2868 47.3887 58.9362C47.7389 59.3412 48.0982 59.5583 48.461 59.6493C47.946 58.7953 47.5158 57.7037 47.1713 56.3743C47.692 57.0992 48.2127 57.6494 48.7345 57.9634C47.7103 55.7038 46.8921 53.0246 46.4996 49.4679C46.1059 53.0246 45.2877 55.7038 44.2647 57.9634C44.7854 57.6494 45.306 57.0992 45.8279 56.3743C45.4823 57.7037 45.052 58.7953 44.5382 59.6493C44.9009 59.5583 45.2591 59.3412 45.6104 58.9362C44.9044 61.2868 44.0152 63.0167 43.0666 64.5456C43.8939 64.1846 44.6915 63.426 45.4468 62.1143C44.7213 64.66 43.7429 66.6423 42.4841 67.9995C43.4717 68.0655 44.3791 67.128 45.2465 65.6812C44.8128 67.1368 44.2384 68.3751 43.4659 69.3127C43.8836 69.2423 44.3013 69.0486 44.7201 68.6965C44.0576 69.9481 42.7015 71.3185 41.6213 72.0037C42.4028 72.1108 43.4511 71.7983 44.1205 71.0632C43.7131 72.1607 42.7679 73.2846 42.2026 73.8202C42.9361 73.8451 43.3595 73.7571 43.8653 73.5928C42.8137 75.5589 41.4382 77.3005 39.7949 78.1648C40.8328 78.4274 41.8982 78.131 42.7931 77.5808C42.1877 78.8999 41.5183 80.0986 40.7298 81.07C39.6587 80.3862 38.7547 79.2036 38.0486 77.8816C38.4217 78.0019 38.7352 78.0679 39.2765 78.0489C38.8588 77.6542 38.1619 76.8237 37.861 76.0137C38.3553 76.5566 39.1289 76.787 39.7068 76.7078C38.9092 76.203 37.9067 75.1906 37.4181 74.2648C37.7271 74.5245 38.036 74.6683 38.3439 74.7196C37.7728 74.0271 37.3483 73.113 37.029 72.0374C37.6687 73.1056 38.3393 73.7982 39.0694 73.7498C38.1402 72.7476 37.4169 71.2833 36.8814 69.4037C37.4398 70.3736 38.028 70.9326 38.6403 71.1996C37.9399 70.0698 37.2819 68.7933 36.7612 67.0561C37.021 67.3554 37.2842 67.5153 37.5531 67.5828C37.1732 66.9519 36.8551 66.1449 36.5999 65.1633C36.9844 65.6988 37.3689 66.1053 37.7545 66.3371C36.9981 64.6688 36.3939 62.688 36.1032 60.0616C35.8126 62.688 35.2084 64.6673 34.452 66.3371C34.8365 66.1053 35.2221 65.6988 35.6066 65.1633C35.3514 66.1449 35.0344 66.9519 34.6534 67.5828C34.9211 67.5153 35.1866 67.3554 35.4452 67.0561C34.9234 68.7918 34.2666 70.0698 33.5662 71.1996C34.1773 70.9326 34.7667 70.3736 35.3239 69.4037C34.7884 71.2847 34.0652 72.7491 33.136 73.7498C33.8649 73.7982 34.5355 73.1071 35.1763 72.0374C34.8559 73.113 34.4314 74.0271 33.8615 74.7196C34.1704 74.6668 34.4794 74.5245 34.7872 74.2648C34.2986 75.1891 33.2962 76.2016 32.4986 76.7078C33.0753 76.787 33.85 76.5566 34.3444 76.0137C34.0434 76.8237 33.3454 77.6542 32.9277 78.0489C33.4701 78.0679 33.7825 78.0019 34.1556 77.8816C33.8226 78.5052 33.4449 79.0979 33.0272 79.6218C31.9813 78.8265 31.0887 77.6145 30.3747 76.2808C30.7969 76.4172 31.1517 76.4921 31.765 76.4701C31.2924 76.024 30.5028 75.082 30.1618 74.165C30.7214 74.7798 31.598 75.0409 32.2514 74.9514C31.3485 74.3792 30.2133 73.2333 29.6606 72.1856C30.0096 72.4791 30.3598 72.642 30.7088 72.7007C30.0634 71.9171 29.5816 70.8812 29.22 69.6634C29.9444 70.8739 30.7042 71.6574 31.5304 71.6017C30.4777 70.4675 29.6594 68.808 29.0529 66.6804C29.6846 67.7794 30.3506 68.4118 31.0441 68.7141C30.2511 67.4361 29.5072 65.9894 28.9168 64.0232C29.2097 64.3622 29.5095 64.5441 29.8128 64.6189C29.3825 63.9044 29.0221 62.9917 28.7337 61.881C29.1697 62.487 29.6045 62.9477 30.0405 63.2103C29.1845 61.3205 28.5002 59.08 28.1707 56.1058C27.8422 59.08 27.1579 61.3205 26.3019 63.2103C26.7379 62.9477 27.1728 62.4885 27.6088 61.881C27.3204 62.9932 26.9599 63.9058 26.5297 64.6189C26.8329 64.5426 27.1327 64.3607 27.4257 64.0232C26.8352 65.9894 26.0914 67.4361 25.2984 68.7141C25.9907 68.4118 26.6578 67.778 27.2895 66.6804C26.683 68.8095 25.8648 70.4675 24.812 71.6017C25.6382 71.6574 26.3969 70.8724 27.1224 69.6634C26.7597 70.8812 26.2791 71.9171 25.6325 72.7007C25.9815 72.6405 26.3317 72.4791 26.6819 72.1856C26.128 73.2333 24.994 74.3792 24.0911 74.9514C24.7445 75.0409 25.6211 74.7798 26.1806 74.165C25.8396 75.082 25.05 76.0226 24.5774 76.4701C25.1908 76.4906 25.5455 76.4172 25.9678 76.2808C25.0889 77.9256 23.9389 79.3811 22.5634 80.103C23.4319 80.3231 24.3222 80.0752 25.0706 79.6144C24.5648 80.7163 24.0053 81.72 23.3461 82.5314C22.4501 81.9606 21.6937 80.9702 21.1032 79.8668C21.4156 79.9666 21.6777 80.0223 22.1297 80.0062C21.7807 79.6761 21.197 78.9806 20.9453 78.3042C21.3584 78.7575 22.0061 78.9512 22.489 78.8852C21.8218 78.4626 20.9842 77.616 20.5757 76.8428C20.8343 77.0599 21.0918 77.1802 21.3504 77.2242C20.8732 76.6447 20.5184 75.8802 20.2507 74.9808C20.7862 75.8744 21.3458 76.4539 21.9569 76.4128C21.1799 75.575 20.5745 74.3499 20.1271 72.7784C20.594 73.5884 21.086 74.0579 21.5976 74.2809C21.0117 73.336 20.4624 72.2678 20.0264 70.8167C20.2427 71.0661 20.4647 71.2011 20.6878 71.2569C20.3697 70.7286 20.1042 70.0552 19.8913 69.2335C20.2129 69.681 20.5345 70.0214 20.8572 70.2151C20.2255 68.8197 19.7197 67.1646 19.4759 64.9681C19.2333 67.1646 18.7275 68.8197 18.0959 70.2151C18.4174 70.0214 18.739 69.681 19.0605 69.2335C18.8477 70.0552 18.5822 70.7286 18.2629 71.2569C18.4872 71.1996 18.7081 71.0661 18.9255 70.8167C18.4895 72.2678 17.9402 73.3374 17.3543 74.2809C17.8659 74.0579 18.3579 73.5898 18.8248 72.7784C18.3762 74.3513 17.7732 75.575 16.995 76.4128C17.6049 76.4539 18.1657 75.8744 18.7012 74.9808C18.4334 75.8802 18.0787 76.6447 17.6015 77.2242C17.8601 77.1802 18.1176 77.0614 18.3762 76.8428C17.9677 77.616 17.13 78.4626 16.4629 78.8852C16.9458 78.9512 17.5935 78.759 18.0066 78.3042C17.7549 78.982 17.1712 79.6761 16.8222 80.0062C17.2754 80.0209 17.5374 79.9666 17.8498 79.8668C17.3108 80.8733 16.6357 81.7845 15.8415 82.3714C15.5737 82.1073 15.1641 81.607 14.9821 81.1169C15.2957 81.4617 15.7877 81.6084 16.1539 81.5586C15.647 81.2372 15.0107 80.5946 14.7006 80.0062C14.8963 80.172 15.0931 80.263 15.2888 80.2952C14.9272 79.8551 14.6571 79.274 14.4534 78.5917C14.8597 79.2696 15.2865 79.7098 15.75 79.679C15.1595 79.0422 14.7006 78.1119 14.3596 76.9176C14.7143 77.5338 15.0885 77.8889 15.4765 78.0577C15.0313 77.3402 14.6148 76.5288 14.2829 75.4268C14.4477 75.6161 14.6159 75.7188 14.7853 75.7614C14.5438 75.3608 14.3424 74.8487 14.1799 74.2251C14.4237 74.5656 14.6686 74.8238 14.9135 74.9705C14.434 73.9111 14.0495 72.6537 13.8641 70.9854C13.6799 72.6537 13.2954 73.9111 12.8147 74.9705C13.0596 74.8238 13.3034 74.5656 13.5483 74.2251C13.3869 74.8487 13.1843 75.3608 12.9429 75.7614C13.1134 75.7188 13.2816 75.6161 13.4464 75.4268C13.1145 76.5302 12.698 77.3416 12.2529 78.0577C12.6408 77.8889 13.015 77.5324 13.3697 76.9176C13.0299 78.1119 12.571 79.0422 11.9805 79.679C12.444 79.7098 12.8697 79.2696 13.2759 78.5917C13.0733 79.274 12.8033 79.8551 12.4405 80.2952C12.6362 80.2615 12.833 80.1705 13.0287 80.0062C12.7186 80.5931 12.0823 81.2372 11.5754 81.5586C11.9416 81.6084 12.4337 81.4632 12.7472 81.1169C12.5561 81.6319 12.1132 82.1587 11.8478 82.4096C12.1922 82.4213 12.3902 82.3802 12.6282 82.3025C12.135 83.2254 11.4896 84.0426 10.7183 84.4476C11.2058 84.5709 11.7047 84.4329 12.1247 84.1747C11.8409 84.7939 11.5273 85.3559 11.1566 85.8107C10.6542 85.4908 10.2297 84.9347 9.89894 84.3156C10.074 84.3728 10.2205 84.4036 10.4745 84.3948C10.2789 84.2099 9.95158 83.8196 9.80968 83.4396C10.042 83.6934 10.4047 83.8035 10.676 83.7653C10.3018 83.5276 9.83143 83.0537 9.60256 82.6194C9.74675 82.7412 9.89208 82.8087 10.0374 82.8321C9.76963 82.5079 9.57052 82.078 9.42061 81.5732C9.72043 82.075 10.0351 82.3993 10.3773 82.3758C9.94128 81.9063 9.60256 81.2182 9.3508 80.3363C9.61286 80.7912 9.88864 81.0538 10.1759 81.1785C9.84745 80.6489 9.53848 80.0487 9.29473 79.2344C9.41603 79.3738 9.54076 79.4501 9.6655 79.4809C9.48698 79.1845 9.33821 78.8074 9.21806 78.3452C9.39887 78.5961 9.57853 78.7869 9.75933 78.8955C9.40459 78.1119 9.12079 77.1846 8.98461 75.9521C8.84844 77.1846 8.56464 78.1134 8.20989 78.8955C8.38955 78.7869 8.57036 78.5961 8.75117 78.3452C8.63216 78.806 8.48225 79.1845 8.30373 79.4809C8.42961 79.4486 8.5532 79.3738 8.6745 79.2344C8.42961 80.0487 8.12178 80.6489 7.79335 81.1785C8.08058 81.0538 8.35637 80.7912 8.61842 80.3363C8.36667 81.2182 8.02794 81.9063 7.59195 82.3758C7.93411 82.3993 8.2488 82.0736 8.54862 81.5732C8.39871 82.078 8.19959 82.5064 7.93182 82.8321C8.07715 82.8072 8.22134 82.7412 8.36667 82.6194C8.1378 83.0537 7.66747 83.5276 7.29327 83.7653C7.56448 83.8035 7.92724 83.6934 8.15954 83.4396C8.01879 83.8196 7.69151 84.2099 7.49468 84.3948C7.74872 84.4036 7.89634 84.3728 8.07143 84.3156C7.70638 84.9964 7.23034 85.6009 6.66045 85.9002C7.01978 85.9912 7.3894 85.8885 7.69952 85.6977C7.41458 86.3184 7.08844 86.8627 6.67304 87.2369C6.87902 87.2486 7.08386 87.1958 7.28412 87.0564C6.90992 87.8282 6.47393 88.239 5.99902 88.4268C6.41442 88.6132 6.83439 88.5501 7.25894 88.3256C6.94425 88.8348 6.51741 89.1121 6.04365 89.2911C6.87788 89.5684 7.72698 89.5801 8.6127 88.8978C8.45936 89.3791 8.26024 89.7298 8.03252 89.9998H46.4996H46.5007Z" fill="#3E7739"/>
</g>
<g clip-path="url(#clip3_380_8073)">
<path fill-rule="evenodd" clip-rule="evenodd" d="M93.5007 89.9998H131.968C131.74 89.7313 131.541 89.3791 131.388 88.8978C132.273 89.5787 133.121 89.5684 133.957 89.2911C133.483 89.1121 133.056 88.8333 132.741 88.3256C133.165 88.5501 133.586 88.6132 134.001 88.4268C133.526 88.239 133.09 87.8282 132.716 87.0564C132.916 87.1943 133.12 87.2472 133.327 87.2369C132.912 86.8627 132.586 86.3184 132.301 85.6977C132.611 85.8885 132.979 85.9912 133.34 85.9002C132.77 85.6009 132.294 84.9978 131.929 84.3156C132.104 84.3728 132.252 84.4036 132.506 84.3948C132.31 84.2099 131.983 83.8196 131.841 83.4396C132.073 83.6934 132.436 83.8035 132.707 83.7653C132.333 83.5276 131.863 83.0537 131.634 82.6194C131.779 82.7412 131.923 82.8087 132.069 82.8321C131.801 82.5079 131.602 82.078 131.452 81.5732C131.752 82.075 132.066 82.3993 132.408 82.3758C131.972 81.9063 131.634 81.2182 131.382 80.3363C131.644 80.7912 131.92 81.0538 132.207 81.1785C131.879 80.6489 131.57 80.0487 131.326 79.2344C131.447 79.3738 131.572 79.4501 131.698 79.4809C131.519 79.1845 131.37 78.8074 131.25 78.3452C131.431 78.5961 131.611 78.7869 131.792 78.8955C131.437 78.1119 131.153 77.1846 131.017 75.9521C130.881 77.1846 130.597 78.1134 130.242 78.8955C130.423 78.7869 130.603 78.5961 130.783 78.3452C130.663 78.806 130.514 79.1845 130.336 79.4809C130.462 79.4486 130.585 79.3738 130.708 79.2344C130.463 80.0487 130.155 80.6489 129.827 81.1785C130.114 81.0538 130.39 80.7912 130.652 80.3363C130.401 81.2182 130.061 81.9063 129.625 82.3758C129.967 82.3993 130.282 82.0736 130.582 81.5732C130.432 82.078 130.233 82.5064 129.965 82.8321C130.109 82.8072 130.255 82.7412 130.4 82.6194C130.17 83.0537 129.701 83.5276 129.327 83.7653C129.598 83.8035 129.961 83.6934 130.193 83.4396C130.051 83.8196 129.724 84.2099 129.528 84.3948C129.782 84.4036 129.929 84.3728 130.104 84.3156C129.772 84.9347 129.348 85.4908 128.846 85.8107C128.476 85.3559 128.163 84.7939 127.878 84.1747C128.298 84.4329 128.798 84.5709 129.284 84.4476C128.513 84.0426 127.868 83.2254 127.374 82.3025C127.611 82.3788 127.81 82.4198 128.154 82.4096C127.889 82.1587 127.445 81.6305 127.254 81.1169C127.568 81.4617 128.06 81.6084 128.426 81.5586C127.919 81.2372 127.283 80.5946 126.973 80.0062C127.168 80.172 127.365 80.263 127.561 80.2952C127.198 79.8551 126.929 79.274 126.726 78.5917C127.132 79.2696 127.558 79.7098 128.022 79.679C127.432 79.0422 126.973 78.1119 126.632 76.9176C126.986 77.5338 127.361 77.8889 127.749 78.0577C127.303 77.3402 126.886 76.5288 126.555 75.4268C126.72 75.6161 126.888 75.7188 127.057 75.7614C126.816 75.3608 126.615 74.8487 126.452 74.2251C126.697 74.5656 126.941 74.8238 127.186 74.9705C126.705 73.9111 126.322 72.6537 126.136 70.9854C125.952 72.6537 125.568 73.9111 125.088 74.9705C125.332 74.8238 125.577 74.5656 125.822 74.2251C125.659 74.8487 125.458 75.3608 125.216 75.7614C125.387 75.7188 125.554 75.6161 125.719 75.4268C125.387 76.5302 124.97 77.3416 124.525 78.0577C124.913 77.8889 125.287 77.5324 125.642 76.9176C125.302 78.1119 124.842 79.0422 124.253 79.679C124.716 79.7098 125.142 79.2696 125.549 78.5917C125.345 79.274 125.075 79.8551 124.714 80.2952C124.91 80.2615 125.106 80.1705 125.302 80.0062C124.992 80.5931 124.354 81.2372 123.849 81.5586C124.215 81.6084 124.707 81.4632 125.021 81.1169C124.839 81.6055 124.429 82.1073 124.161 82.3714C123.367 81.7845 122.692 80.8748 122.153 79.8668C122.465 79.9666 122.727 80.0223 123.18 80.0062C122.831 79.6761 122.248 78.9806 121.996 78.3042C122.409 78.7575 123.057 78.9512 123.54 78.8852C122.873 78.4626 122.035 77.616 121.626 76.8428C121.884 77.0599 122.142 77.1802 122.4 77.2242C121.923 76.6447 121.568 75.8802 121.3 74.9808C121.836 75.8744 122.397 76.4539 123.006 76.4128C122.229 75.575 121.625 74.3499 121.177 72.7784C121.644 73.5884 122.136 74.0579 122.647 74.2809C122.061 73.336 121.512 72.2678 121.076 70.8167C121.292 71.0661 121.514 71.2011 121.739 71.2569C121.42 70.7286 121.155 70.0552 120.942 69.2335C121.264 69.681 121.585 70.0214 121.908 70.2151C121.276 68.8197 120.77 67.1646 120.527 64.9681C120.284 67.1646 119.778 68.8197 119.145 70.2151C119.467 70.0214 119.789 69.681 120.11 69.2335C119.897 70.0552 119.632 70.7286 119.314 71.2569C119.538 71.1996 119.759 71.0661 119.976 70.8167C119.54 72.2678 118.991 73.3374 118.405 74.2809C118.917 74.0579 119.409 73.5898 119.876 72.7784C119.428 74.3513 118.824 75.575 118.046 76.4128C118.656 76.4539 119.216 75.8744 119.752 74.9808C119.484 75.8802 119.129 76.6447 118.652 77.2242C118.911 77.1802 119.168 77.0614 119.427 76.8428C119.018 77.616 118.18 78.4626 117.512 78.8852C117.995 78.9512 118.643 78.759 119.056 78.3042C118.804 78.982 118.221 79.6761 117.872 80.0062C118.325 80.0209 118.587 79.9666 118.898 79.8668C118.308 80.9702 117.551 81.9606 116.655 82.5314C115.996 81.72 115.437 80.7178 114.931 79.6144C115.679 80.0752 116.57 80.3217 117.438 80.103C116.064 79.3811 114.914 77.9241 114.034 76.2808C114.457 76.4172 114.811 76.4921 115.424 76.4701C114.951 76.024 114.161 75.082 113.821 74.165C114.38 74.7798 115.257 75.0409 115.91 74.9514C115.008 74.3792 113.872 73.2333 113.32 72.1856C113.669 72.4791 114.019 72.642 114.368 72.7007C113.721 71.9171 113.241 70.8812 112.878 69.6634C113.603 70.8739 114.362 71.6574 115.188 71.6017C114.136 70.4675 113.317 68.808 112.711 66.6804C113.342 67.7794 114.01 68.4118 114.702 68.7141C113.909 67.4361 113.165 65.9894 112.575 64.0232C112.869 64.3622 113.167 64.5441 113.471 64.6189C113.04 63.9044 112.68 62.9917 112.392 61.881C112.828 62.487 113.262 62.9477 113.698 63.2103C112.842 61.3205 112.158 59.08 111.83 56.1058C111.5 59.08 110.816 61.3205 109.96 63.2103C110.396 62.9477 110.831 62.4885 111.267 61.881C110.978 62.9932 110.618 63.9058 110.188 64.6189C110.491 64.5426 110.791 64.3607 111.084 64.0232C110.493 65.9894 109.749 67.4361 108.956 68.7141C109.649 68.4118 110.316 67.778 110.947 66.6804C110.341 68.8095 109.523 70.4675 108.47 71.6017C109.296 71.6574 110.055 70.8724 110.78 69.6634C110.418 70.8812 109.937 71.9171 109.29 72.7007C109.639 72.6405 109.99 72.4791 110.339 72.1856C109.785 73.2333 108.651 74.3792 107.748 74.9514C108.401 75.0409 109.278 74.7798 109.837 74.165C109.496 75.082 108.707 76.0226 108.234 76.4701C108.848 76.4906 109.202 76.4172 109.625 76.2808C108.91 77.616 108.018 78.8265 106.972 79.6218C106.554 79.0979 106.177 78.5052 105.844 77.8816C106.218 78.0019 106.53 78.0679 107.071 78.0489C106.654 77.6542 105.957 76.8237 105.655 76.0137C106.149 76.5566 106.924 76.787 107.501 76.7078C106.703 76.203 105.701 75.1906 105.212 74.2648C105.521 74.5245 105.83 74.6683 106.138 74.7196C105.568 74.0271 105.143 73.113 104.823 72.0374C105.464 73.1056 106.133 73.7982 106.863 73.7498C105.934 72.7476 105.211 71.2833 104.675 69.4037C105.234 70.3736 105.822 70.9326 106.433 71.1996C105.733 70.0698 105.076 68.7933 104.554 67.0561C104.813 67.3554 105.078 67.5153 105.346 67.5828C104.966 66.9519 104.648 66.1449 104.393 65.1633C104.777 65.6988 105.162 66.1053 105.547 66.3371C104.791 64.6688 104.187 62.688 103.896 60.0616C103.605 62.688 103.001 64.6673 102.245 66.3371C102.629 66.1053 103.014 65.6988 103.399 65.1633C103.144 66.1449 102.827 66.9519 102.446 67.5828C102.714 67.5153 102.978 67.3554 103.238 67.0561C102.716 68.7918 102.059 70.0698 101.359 71.1996C101.97 70.9326 102.559 70.3736 103.117 69.4037C102.581 71.2847 101.859 72.7491 100.929 73.7498C101.659 73.7982 102.329 73.1071 102.969 72.0374C102.649 73.113 102.225 74.0271 101.654 74.7196C101.963 74.6668 102.271 74.5245 102.58 74.2648C102.091 75.1891 101.089 76.2016 100.291 76.7078C100.868 76.787 101.643 76.5566 102.137 76.0137C101.836 76.8237 101.138 77.6542 100.722 78.0489C101.263 78.0679 101.576 78.0019 101.949 77.8816C101.243 79.2021 100.339 80.3862 99.2682 81.07C98.4798 80.0986 97.8103 78.8999 97.205 77.5808C98.101 78.131 99.1652 78.4274 100.203 78.1648C98.5587 77.3005 97.1832 75.5589 96.1327 73.5928C96.6385 73.7556 97.0619 73.8451 97.7955 73.8202C97.2302 73.2846 96.2849 72.1607 95.8775 71.0632C96.547 71.7983 97.5952 72.1108 98.3768 72.0037C97.2965 71.3185 95.9405 69.9481 95.2779 68.6965C95.6956 69.0471 96.1133 69.2423 96.5321 69.3127C95.7597 68.3766 95.1852 67.1368 94.7515 65.6812C95.6189 67.128 96.5264 68.0655 97.5139 67.9995C96.2552 66.6423 95.2779 64.66 94.5524 62.1143C95.3077 63.4275 96.1053 64.1846 96.9326 64.5456C95.984 63.0167 95.0948 61.2868 94.3887 58.9362C94.7389 59.3412 95.0982 59.5583 95.461 59.6493C94.946 58.7953 94.5158 57.7037 94.1713 56.3743C94.692 57.0992 95.2127 57.6494 95.7345 57.9634C94.7103 55.7038 93.8921 53.0246 93.4996 49.4679C93.1059 53.0246 92.2877 55.7038 91.2647 57.9634C91.7854 57.6494 92.306 57.0992 92.8279 56.3743C92.4823 57.7037 92.052 58.7953 91.5382 59.6493C91.9009 59.5583 92.2591 59.3412 92.6104 58.9362C91.9044 61.2868 91.0152 63.0167 90.0666 64.5456C90.8939 64.1846 91.6915 63.426 92.4468 62.1143C91.7213 64.66 90.7429 66.6423 89.4841 67.9995C90.4717 68.0655 91.3791 67.128 92.2465 65.6812C91.8128 67.1368 91.2384 68.3751 90.4659 69.3127C90.8836 69.2423 91.3013 69.0486 91.7201 68.6965C91.0576 69.9481 89.7015 71.3185 88.6213 72.0037C89.4028 72.1108 90.4511 71.7983 91.1205 71.0632C90.7131 72.1607 89.7679 73.2846 89.2026 73.8202C89.9361 73.8451 90.3595 73.7571 90.8653 73.5928C89.8137 75.5589 88.4382 77.3005 86.7949 78.1648C87.8328 78.4274 88.8982 78.131 89.7931 77.5808C89.1877 78.8999 88.5183 80.0986 87.7298 81.07C86.6587 80.3862 85.7547 79.2036 85.0486 77.8816C85.4217 78.0019 85.7352 78.0679 86.2765 78.0489C85.8588 77.6542 85.1619 76.8237 84.861 76.0137C85.3553 76.5566 86.1289 76.787 86.7068 76.7078C85.9092 76.203 84.9067 75.1906 84.4181 74.2648C84.7271 74.5245 85.036 74.6683 85.3439 74.7196C84.7728 74.0271 84.3483 73.113 84.029 72.0374C84.6687 73.1056 85.3393 73.7982 86.0694 73.7498C85.1402 72.7476 84.4169 71.2833 83.8814 69.4037C84.4398 70.3736 85.028 70.9326 85.6403 71.1996C84.9399 70.0698 84.2819 68.7933 83.7612 67.0561C84.021 67.3554 84.2842 67.5153 84.5531 67.5828C84.1732 66.9519 83.8551 66.1449 83.5999 65.1633C83.9844 65.6988 84.3689 66.1053 84.7545 66.3371C83.9981 64.6688 83.3939 62.688 83.1032 60.0616C82.8126 62.688 82.2084 64.6673 81.452 66.3371C81.8365 66.1053 82.2221 65.6988 82.6066 65.1633C82.3514 66.1449 82.0344 66.9519 81.6534 67.5828C81.9211 67.5153 82.1866 67.3554 82.4452 67.0561C81.9234 68.7918 81.2666 70.0698 80.5662 71.1996C81.1773 70.9326 81.7667 70.3736 82.3239 69.4037C81.7884 71.2847 81.0652 72.7491 80.136 73.7498C80.8649 73.7982 81.5355 73.1071 82.1763 72.0374C81.8559 73.113 81.4314 74.0271 80.8615 74.7196C81.1704 74.6668 81.4794 74.5245 81.7872 74.2648C81.2986 75.1891 80.2962 76.2016 79.4986 76.7078C80.0753 76.787 80.85 76.5566 81.3444 76.0137C81.0434 76.8237 80.3454 77.6542 79.9277 78.0489C80.4701 78.0679 80.7825 78.0019 81.1556 77.8816C80.8226 78.5052 80.4449 79.0979 80.0272 79.6218C78.9813 78.8265 78.0887 77.6145 77.3747 76.2808C77.7969 76.4172 78.1517 76.4921 78.765 76.4701C78.2924 76.024 77.5028 75.082 77.1618 74.165C77.7214 74.7798 78.598 75.0409 79.2514 74.9514C78.3485 74.3792 77.2133 73.2333 76.6606 72.1856C77.0096 72.4791 77.3598 72.642 77.7088 72.7007C77.0634 71.9171 76.5816 70.8812 76.22 69.6634C76.9444 70.8739 77.7042 71.6574 78.5304 71.6017C77.4777 70.4675 76.6594 68.808 76.0529 66.6804C76.6846 67.7794 77.3506 68.4118 78.0441 68.7141C77.2511 67.4361 76.5072 65.9894 75.9168 64.0232C76.2097 64.3622 76.5095 64.5441 76.8128 64.6189C76.3825 63.9044 76.0221 62.9917 75.7337 61.881C76.1697 62.487 76.6045 62.9477 77.0405 63.2103C76.1845 61.3205 75.5002 59.08 75.1707 56.1058C74.8422 59.08 74.1579 61.3205 73.3019 63.2103C73.7379 62.9477 74.1728 62.4885 74.6088 61.881C74.3204 62.9932 73.9599 63.9058 73.5297 64.6189C73.8329 64.5426 74.1327 64.3607 74.4257 64.0232C73.8352 65.9894 73.0914 67.4361 72.2984 68.7141C72.9907 68.4118 73.6578 67.778 74.2895 66.6804C73.683 68.8095 72.8648 70.4675 71.812 71.6017C72.6382 71.6574 73.3969 70.8724 74.1224 69.6634C73.7597 70.8812 73.2791 71.9171 72.6325 72.7007C72.9815 72.6405 73.3317 72.4791 73.6819 72.1856C73.128 73.2333 71.994 74.3792 71.0911 74.9514C71.7445 75.0409 72.6211 74.7798 73.1806 74.165C72.8396 75.082 72.05 76.0226 71.5774 76.4701C72.1908 76.4906 72.5455 76.4172 72.9678 76.2808C72.0889 77.9256 70.9389 79.3811 69.5634 80.103C70.4319 80.3231 71.3222 80.0752 72.0706 79.6144C71.5648 80.7163 71.0053 81.72 70.3461 82.5314C69.4501 81.9606 68.6937 80.9702 68.1032 79.8668C68.4156 79.9666 68.6777 80.0223 69.1297 80.0062C68.7807 79.6761 68.197 78.9806 67.9453 78.3042C68.3584 78.7575 69.0061 78.9512 69.489 78.8852C68.8218 78.4626 67.9842 77.616 67.5757 76.8428C67.8343 77.0599 68.0918 77.1802 68.3504 77.2242C67.8732 76.6447 67.5184 75.8802 67.2507 74.9808C67.7862 75.8744 68.3458 76.4539 68.9569 76.4128C68.1799 75.575 67.5745 74.3499 67.1271 72.7784C67.594 73.5884 68.086 74.0579 68.5976 74.2809C68.0117 73.336 67.4624 72.2678 67.0264 70.8167C67.2427 71.0661 67.4647 71.2011 67.6878 71.2569C67.3697 70.7286 67.1042 70.0552 66.8913 69.2335C67.2129 69.681 67.5345 70.0214 67.8572 70.2151C67.2255 68.8197 66.7197 67.1646 66.4759 64.9681C66.2333 67.1646 65.7275 68.8197 65.0959 70.2151C65.4174 70.0214 65.739 69.681 66.0605 69.2335C65.8477 70.0552 65.5822 70.7286 65.2629 71.2569C65.4872 71.1996 65.7081 71.0661 65.9255 70.8167C65.4895 72.2678 64.9402 73.3374 64.3543 74.2809C64.8659 74.0579 65.3579 73.5898 65.8248 72.7784C65.3762 74.3513 64.7732 75.575 63.995 76.4128C64.6049 76.4539 65.1657 75.8744 65.7012 74.9808C65.4334 75.8802 65.0787 76.6447 64.6015 77.2242C64.8601 77.1802 65.1176 77.0614 65.3762 76.8428C64.9677 77.616 64.13 78.4626 63.4629 78.8852C63.9458 78.9512 64.5935 78.759 65.0066 78.3042C64.7549 78.982 64.1712 79.6761 63.8222 80.0062C64.2754 80.0209 64.5374 79.9666 64.8498 79.8668C64.3108 80.8733 63.6357 81.7845 62.8415 82.3714C62.5737 82.1073 62.1641 81.607 61.9821 81.1169C62.2957 81.4617 62.7877 81.6084 63.1539 81.5586C62.647 81.2372 62.0107 80.5946 61.7006 80.0062C61.8963 80.172 62.0931 80.263 62.2888 80.2952C61.9272 79.8551 61.6571 79.274 61.4534 78.5917C61.8597 79.2696 62.2865 79.7098 62.75 79.679C62.1595 79.0422 61.7006 78.1119 61.3596 76.9176C61.7143 77.5338 62.0885 77.8889 62.4765 78.0577C62.0313 77.3402 61.6148 76.5288 61.2829 75.4268C61.4477 75.6161 61.6159 75.7188 61.7853 75.7614C61.5438 75.3608 61.3424 74.8487 61.1799 74.2251C61.4237 74.5656 61.6686 74.8238 61.9135 74.9705C61.434 73.9111 61.0495 72.6537 60.8641 70.9854C60.6799 72.6537 60.2954 73.9111 59.8147 74.9705C60.0596 74.8238 60.3034 74.5656 60.5483 74.2251C60.3869 74.8487 60.1843 75.3608 59.9429 75.7614C60.1134 75.7188 60.2816 75.6161 60.4464 75.4268C60.1145 76.5302 59.698 77.3416 59.2529 78.0577C59.6408 77.8889 60.015 77.5324 60.3697 76.9176C60.0299 78.1119 59.571 79.0422 58.9805 79.679C59.444 79.7098 59.8697 79.2696 60.2759 78.5917C60.0733 79.274 59.8033 79.8551 59.4405 80.2952C59.6362 80.2615 59.833 80.1705 60.0287 80.0062C59.7186 80.5931 59.0823 81.2372 58.5754 81.5586C58.9416 81.6084 59.4337 81.4632 59.7472 81.1169C59.5561 81.6319 59.1132 82.1587 58.8478 82.4096C59.1922 82.4213 59.3902 82.3802 59.6282 82.3025C59.135 83.2254 58.4896 84.0426 57.7183 84.4476C58.2058 84.5709 58.7047 84.4329 59.1247 84.1747C58.8409 84.7939 58.5273 85.3559 58.1566 85.8107C57.6542 85.4908 57.2297 84.9347 56.8989 84.3156C57.074 84.3728 57.2205 84.4036 57.4745 84.3948C57.2789 84.2099 56.9516 83.8196 56.8097 83.4396C57.042 83.6934 57.4047 83.8035 57.676 83.7653C57.3018 83.5276 56.8314 83.0537 56.6026 82.6194C56.7467 82.7412 56.8921 82.8087 57.0374 82.8321C56.7696 82.5079 56.5705 82.078 56.4206 81.5732C56.7204 82.075 57.0351 82.3993 57.3773 82.3758C56.9413 81.9063 56.6026 81.2182 56.3508 80.3363C56.6129 80.7912 56.8886 81.0538 57.1759 81.1785C56.8474 80.6489 56.5385 80.0487 56.2947 79.2344C56.416 79.3738 56.5408 79.4501 56.6655 79.4809C56.487 79.1845 56.3382 78.8074 56.2181 78.3452C56.3989 78.5961 56.5785 78.7869 56.7593 78.8955C56.4046 78.1119 56.1208 77.1846 55.9846 75.9521C55.8484 77.1846 55.5646 78.1134 55.2099 78.8955C55.3896 78.7869 55.5704 78.5961 55.7512 78.3452C55.6322 78.806 55.4822 79.1845 55.3037 79.4809C55.4296 79.4486 55.5532 79.3738 55.6745 79.2344C55.4296 80.0487 55.1218 80.6489 54.7934 81.1785C55.0806 81.0538 55.3564 80.7912 55.6184 80.3363C55.3667 81.2182 55.0279 81.9063 54.5919 82.3758C54.9341 82.3993 55.2488 82.0736 55.5486 81.5732C55.3987 82.078 55.1996 82.5064 54.9318 82.8321C55.0771 82.8072 55.2213 82.7412 55.3667 82.6194C55.1378 83.0537 54.6675 83.5276 54.2933 83.7653C54.5645 83.8035 54.9272 83.6934 55.1595 83.4396C55.0188 83.8196 54.6915 84.2099 54.4947 84.3948C54.7487 84.4036 54.8963 84.3728 55.0714 84.3156C54.7064 84.9964 54.2303 85.6009 53.6605 85.9002C54.0198 85.9912 54.3894 85.8885 54.6995 85.6977C54.4146 86.3184 54.0884 86.8627 53.673 87.2369C53.879 87.2486 54.0839 87.1958 54.2841 87.0564C53.9099 87.8282 53.4739 88.239 52.999 88.4268C53.4144 88.6132 53.8344 88.5501 54.2589 88.3256C53.9443 88.8348 53.5174 89.1121 53.0437 89.2911C53.8779 89.5684 54.727 89.5801 55.6127 88.8978C55.4594 89.3791 55.2602 89.7298 55.0325 89.9998H93.4996H93.5007Z" fill="#3E7739"/>
</g>
<path d="M134.048 89.6691C129.834 103.39 121.326 115.395 109.775 123.916C98.225 132.437 84.2436 137.023 69.8904 137C55.5371 136.976 41.5708 132.344 30.0485 123.785C18.5261 115.227 10.0569 103.194 5.88813 89.4594L70 70L134.048 89.6691Z" fill="#7E442E"/>
<g clip-path="url(#clip4_380_8073)">
<path d="M36.5 76.5001L30.5 83.5001L28.5 86.0001L39.5 90.5001L58 92.5001H69.5L83.5 91.5001L97.5 92.5001L106 88.5001L112 84.5001L106 78.0001L89.5 67.0001L78 50.5001L70 42.5001L59.5 58.5001L50 64.5001L45.5 69.0001L36.5 76.5001Z" fill="#F68B32"/>
<path fill-rule="evenodd" clip-rule="evenodd" d="M136.866 89.6898L131.19 85.4934C131.151 85.4652 131.107 85.4452 131.06 85.4346L125.709 84.191C125.643 84.1757 125.573 84.1792 125.51 84.2016L123.976 84.7364L122.668 82.925C122.651 82.9027 122.632 82.8815 122.611 82.8639L121.314 81.7766C121.234 81.7096 121.125 81.6826 121.021 81.7002L116.96 82.449L99.1033 68.8818L91.672 61.1426L80.9683 48.8637C80.9483 48.8402 80.9259 48.8214 80.9013 48.805L70.1975 41.6558C70.1188 41.6029 70.0224 41.5853 69.9284 41.6029C69.8343 41.6217 69.7544 41.6782 69.705 41.7557L59.6913 57.6973L43.8661 67.2914C43.8202 67.3196 43.7814 67.3572 43.7532 67.4031L42.1711 69.982L23.0546 82.4513L18.9781 81.7002C18.8735 81.6814 18.7665 81.7084 18.6854 81.7766L17.3877 82.8639C17.3665 82.8815 17.3477 82.9027 17.3313 82.925L16.023 84.7364L14.489 84.2016C14.4255 84.1792 14.3562 84.1757 14.2903 84.191L8.93848 85.4346C8.89146 85.4452 8.84797 85.4652 8.80918 85.4934L3.13407 89.6898C3.02005 89.7744 2.97303 89.9166 3.01534 90.0483C3.05649 90.18 3.17873 90.2728 3.32214 90.281L14.7288 90.991L13.5428 91.6904C13.4111 91.768 13.35 91.9196 13.3911 92.0619C13.4334 92.2041 13.5686 92.3028 13.7226 92.3028H26.0167L32.1479 93.3854C32.1879 93.3925 32.229 93.3925 32.269 93.3854L38.6823 92.3099L42.8752 93.3513L43.9378 94.662C44.0013 94.7396 44.0976 94.7866 44.1999 94.7889L49.6446 94.9417L52.8254 96.3135C52.8913 96.3417 52.9641 96.3499 53.0347 96.337L60.2684 94.95L63.3552 95.4719L59.9029 95.8398C59.7348 95.8574 59.6055 95.9891 59.5961 96.1501C59.5867 96.3111 59.7007 96.4546 59.8641 96.491L69.919 98.6668C69.9436 98.6726 69.9695 98.675 69.9942 98.675C70.0106 98.675 70.0271 98.6738 70.0436 98.6715L87.0724 96.3405C87.1042 96.337 87.1359 96.3276 87.1653 96.3147L90.4084 94.9159C90.5436 94.8571 90.6247 94.7231 90.6106 94.5832C90.5965 94.4422 90.4895 94.3258 90.3461 94.2929L88.6946 93.9203L91.3922 92.9505L95.6427 94.7607C95.7873 94.823 95.9577 94.7819 96.0553 94.662L97.1179 93.3513L101.311 92.3099L107.725 93.3854C107.764 93.3913 107.804 93.3913 107.843 93.3854L113.492 92.458L126.276 92.3028C126.429 92.3017 126.563 92.2017 126.604 92.0595C126.645 91.9185 126.583 91.7668 126.453 91.6904L125.267 90.991L136.673 90.281C136.817 90.2728 136.939 90.18 136.98 90.0483C137.022 89.9166 136.974 89.7744 136.861 89.6898H136.866ZM68.4438 68.1189L65.1384 76.6175L65.8636 84.4919C65.8671 84.5366 65.8577 84.5824 65.8354 84.6224L63.3223 89.1303C63.2882 89.1914 63.2271 89.2349 63.1565 89.249L54.4805 90.9593C54.464 90.9616 54.4476 90.964 54.4311 90.964C54.397 90.964 54.3641 90.9569 54.3324 90.944L52.193 90.033L48.5174 90.1094C48.4175 90.0977 48.3175 90.0483 48.2823 89.9531C48.247 89.8579 48.2811 89.7521 48.3646 89.691L57.6366 82.9003L56.4059 83.0367C56.3024 83.0461 56.2049 82.9967 56.159 82.9074C56.1132 82.8192 56.132 82.7123 56.2037 82.6417L62.7216 76.2414L63.6808 71.6465C63.6914 71.5971 63.7184 71.5513 63.7572 71.5172L68.0547 67.865C68.1381 67.7933 68.2616 67.7863 68.3544 67.8474C68.4461 67.9074 68.4837 68.0214 68.4449 68.1213L68.4438 68.1189ZM69.0103 61.9807C68.9868 62.0136 68.9621 62.0453 68.9374 62.0783L53.151 74.611L58.0292 73.6365C58.1432 73.6142 58.2584 73.673 58.3042 73.7752C58.3489 73.8787 58.3101 73.9986 58.2126 74.0597L42.0759 84.1616C42.0347 84.1875 41.9889 84.1992 41.943 84.1992C41.876 84.1992 41.809 84.1722 41.7608 84.1216C41.6809 84.0358 41.6786 83.9065 41.755 83.8172L48.6772 75.8429C48.7195 75.7935 48.6584 75.7242 48.6008 75.7571L42.4708 79.1941C42.3709 79.2494 42.2439 79.2317 42.1664 79.1483C42.0888 79.066 42.0829 78.9426 42.1523 78.8544L43.0186 77.7307L38.3402 79.5362L38.861 79.9852C38.9197 80.0357 38.9491 80.1121 38.9397 80.1874C38.9291 80.2626 38.8821 80.3296 38.8116 80.3649L33.1353 83.24C33.033 83.2918 32.9073 83.2671 32.8344 83.1824C32.7603 83.0966 32.7603 82.9744 32.832 82.8886L35.5086 79.7019L39.4275 76.333C39.4405 76.3236 39.4534 76.3154 39.4663 76.306L49.5435 70.7567H48.7924L44.4515 72.1437C44.3363 72.1801 44.2105 72.1296 44.1564 72.0262C44.1023 71.9215 44.1376 71.7946 44.2387 71.7299L52.1954 66.5556C52.3376 66.4627 52.2694 66.25 52.0978 66.25H49.9702C49.8633 66.25 49.7704 66.1841 49.7375 66.0877C49.7058 65.9902 49.7434 65.8844 49.8304 65.8268L59.2364 59.665C59.3516 59.5898 59.5091 59.658 59.5267 59.7896L59.7007 61.0826L68.854 45.7887C68.8775 45.7629 68.8987 45.7382 68.9222 45.7135L70.502 43.995C70.5608 43.9527 70.6372 43.9386 70.7089 43.9562C70.7806 43.9738 70.8393 44.0208 70.8699 44.0855L73.6275 49.9134C73.6534 49.9698 73.6557 50.0333 73.6334 50.0909L69.0103 61.9807ZM74.5091 86.4925L72.7248 89.5229C72.6813 89.5957 72.6014 89.6416 72.5132 89.6416C72.425 89.6416 72.3439 89.5957 72.3016 89.5229L70.4362 86.3374C70.3927 86.2633 70.395 86.1728 70.442 86.1011C70.4879 86.0294 70.5702 85.9883 70.6595 85.9906L74.3081 86.1458C74.3928 86.1493 74.4692 86.1951 74.5103 86.2657C74.5514 86.3374 74.5514 86.4232 74.5103 86.4937L74.5091 86.4925ZM84.303 85.8848L80.2489 87.9054C80.2136 87.9231 80.1748 87.9313 80.136 87.9313C80.0761 87.9313 80.0162 87.9101 79.9703 87.869L75.5106 83.9053C75.4413 83.8442 75.4154 83.7502 75.4436 83.6656C75.4718 83.5798 75.5482 83.5174 75.6411 83.5045L78.9653 83.0379C78.997 83.0332 79.0288 83.0355 79.0593 83.0426L81.3303 83.5868C81.3573 83.5939 81.3832 83.6044 81.4067 83.6197L84.3254 85.484C84.3971 85.5298 84.4382 85.6086 84.4335 85.6909C84.4288 85.7732 84.3795 85.8472 84.303 85.8848ZM101.343 85.5722L99.2796 88.6142L99.3548 89.5452C99.3642 89.658 99.2866 89.7615 99.1714 89.7897L96.2528 90.4891C96.2328 90.4938 96.2128 90.4962 96.194 90.4962C96.1576 90.4962 96.1223 90.4891 96.0882 90.4738L89.8442 87.5986C89.7678 87.5634 89.716 87.494 89.7078 87.4129C89.6996 87.3318 89.7337 87.2542 89.8007 87.2037L94.8281 83.474C94.874 83.4399 94.9339 83.4246 94.9903 83.4258L96.402 83.501L99.1949 82.583C99.2431 82.5677 99.2949 82.5665 99.343 82.5806L100.965 83.0473C101.059 83.0743 101.127 83.1531 101.138 83.2459L101.381 85.4217C101.387 85.4758 101.374 85.5287 101.344 85.5733L101.343 85.5722ZM105.261 80.7798C105.227 80.8762 105.133 80.9373 105.031 80.9373C105.01 80.9373 104.989 80.935 104.966 80.9291L97.8784 79.0636L97.8138 80.2497C97.8091 80.3355 97.755 80.4119 97.6739 80.4483C97.5928 80.4836 97.4964 80.4754 97.4247 80.4236L89.9641 75.0612C89.8665 74.9907 89.8383 74.8614 89.8982 74.7603C89.9582 74.658 90.0898 74.6145 90.2027 74.6592L105.123 80.4871C105.242 80.5341 105.303 80.6611 105.261 80.7786V80.7798Z" fill="#7E442E"/>
</g>
<g clip-path="url(#clip5_380_8073)">
<path fill-rule="evenodd" clip-rule="evenodd" d="M74.1187 25.3542C77.0099 26.5896 79.193 28.8413 80.815 31.8926C80.8484 31.9579 80.9205 31.9975 81.0003 31.9975C81.0801 31.9975 81.1496 31.9579 81.1857 31.8926C82.8076 28.8413 84.9908 26.5896 87.8819 25.3542C87.972 25.3145 88.0183 25.226 87.9926 25.1374C87.9669 25.0488 87.8767 24.9929 87.7763 24.9999C85.3924 25.177 83.1037 25.8623 81.0003 27.508C78.897 25.8623 76.6083 25.177 74.2243 24.9999C74.1239 24.9929 74.0338 25.0511 74.008 25.1374C73.9823 25.226 74.0286 25.3145 74.1187 25.3542Z" fill="#7E442E"/>
</g>
<g clip-path="url(#clip6_380_8073)">
<path fill-rule="evenodd" clip-rule="evenodd" d="M99.0336 27.1009C99.8597 27.4539 100.483 28.0972 100.947 28.969C100.956 28.9877 100.977 28.999 101 28.999C101.023 28.999 101.042 28.9877 101.053 28.969C101.516 28.0972 102.14 27.4539 102.966 27.1009C102.992 27.0896 103.005 27.0643 102.998 27.039C102.99 27.0137 102.965 26.9977 102.936 26.9997C102.255 27.0503 101.601 27.2461 101 27.7163C100.399 27.2461 99.7449 27.0503 99.0638 26.9997C99.0351 26.9977 99.0094 27.0143 99.002 27.039C98.9947 27.0643 99.0079 27.0896 99.0336 27.1009Z" fill="#7E442E"/>
</g>
<g clip-path="url(#clip7_380_8073)">
<path fill-rule="evenodd" clip-rule="evenodd" d="M82.0505 19.1516C83.2895 19.6811 84.2252 20.6461 84.9203 21.9538C84.9346 21.9818 84.9655 21.9988 84.9997 21.9988C85.0339 21.9988 85.0637 21.9818 85.0792 21.9538C85.7743 20.6461 86.7099 19.6811 87.949 19.1516C87.9876 19.1346 88.0074 19.0967 87.9964 19.0587C87.9854 19.0207 87.9468 18.9968 87.9037 18.9998C86.882 19.0757 85.9012 19.3694 84.9997 20.0747C84.0983 19.3694 83.1174 19.0757 82.0957 18.9998C82.0527 18.9968 82.0141 19.0217 82.003 19.0587C81.992 19.0967 82.0119 19.1346 82.0505 19.1516Z" fill="#7E442E"/>
</g>
<g clip-path="url(#clip8_380_8073)">
<path fill-rule="evenodd" clip-rule="evenodd" d="M94.0336 24.1009C94.8597 24.4539 95.4834 25.0972 95.9469 25.969C95.9564 25.9877 95.977 25.999 95.9998 25.999C96.0226 25.999 96.0425 25.9877 96.0528 25.969C96.5162 25.0972 97.1399 24.4539 97.966 24.1009C97.9917 24.0896 98.005 24.0643 97.9976 24.039C97.9902 24.0137 97.9645 23.9977 97.9358 23.9997C97.2547 24.0503 96.6008 24.2461 95.9998 24.7163C95.3989 24.2461 94.7449 24.0503 94.0638 23.9997C94.0351 23.9977 94.0094 24.0143 94.002 24.039C93.9947 24.0643 94.0079 24.0896 94.0336 24.1009Z" fill="#7E442E"/>
</g>
<path d="M17.8177 92.9999L30.61 87.0366C30.6261 87.0291 30.6431 87.0238 30.6606 87.0208L38.9203 85.5999C39.1086 85.5675 39.2308 85.7923 39.1012 85.9327L34.253 91.1829L30.6644 94.6048C30.6446 94.6236 30.6289 94.6463 30.6182 94.6714L29.0767 98.3071C29.0662 98.3319 29.0508 98.3543 29.0315 98.3729L26.0256 101.274C26.009 101.29 25.9899 101.303 25.9689 101.313L20.2449 103.893C20.1895 103.918 20.1258 103.917 20.0717 103.889L15.0556 101.327C15.0196 101.308 14.99 101.28 14.9707 101.244L10.7516 93.4629C10.6639 93.3012 10.8227 93.1168 10.9956 93.1796L14.9125 94.6015C14.9682 94.6217 15.0299 94.6162 15.0811 94.5865L17.8177 92.9999Z" fill="#F68B32"/>
<path d="M106.541 84.7768L121.86 97.3102C121.939 97.3753 122.055 97.3695 122.128 97.2968L128.159 91.2662C128.285 91.1402 128.195 90.9248 128.017 90.9248H122.092C122.034 90.9248 121.978 90.8993 121.94 90.855L119.06 87.4946C119.022 87.4503 118.966 87.4248 118.908 87.4248H114.04C114.013 87.4248 113.988 87.4197 113.963 87.4097L106.744 84.4371C106.532 84.3496 106.363 84.6312 106.541 84.7768Z" fill="#F68B32"/>
<path d="M44.3173 92.1372L52.1519 87.7302C52.2128 87.696 52.2872 87.696 52.3481 87.7302L59.848 91.9489C60.0005 92.0347 59.9771 92.2612 59.8102 92.3139L50.7966 95.1603C50.766 95.17 50.7381 95.1869 50.7154 95.2096L49.8005 96.1246C49.7678 96.1572 49.7475 96.2001 49.7429 96.2461L48.75 106.175L46.8643 115.132C46.8257 115.315 46.5789 115.35 46.4916 115.184L41.773 106.219C41.7579 106.19 41.75 106.158 41.75 106.126V99.7075C41.75 99.686 41.7535 99.6647 41.7603 99.6443L44.2256 92.2483C44.2413 92.2012 44.274 92.1616 44.3173 92.1372Z" fill="#F68B32"/>
<path d="M28.4452 85.6824L15.603 91.6449C15.4232 91.7283 15.2445 91.5275 15.3484 91.3586L18.9703 85.473C18.9897 85.4415 19 85.4052 19 85.3682V83.6688C19 83.5426 19.1155 83.4479 19.2392 83.4726L28.4002 85.3049C28.5899 85.3428 28.6206 85.6009 28.4452 85.6824Z" fill="#F68B32"/>
<path d="M86.5103 88.4673L88.2287 82.993C88.2425 82.949 88.2407 82.9017 88.2236 82.8589L76.5 53.5L93.7401 84.4073C93.7467 84.4191 93.7521 84.4316 93.7561 84.4445L96.7313 93.866C96.7435 93.9044 96.767 93.9384 96.7988 93.9632L108.173 102.865C108.222 102.903 108.25 102.961 108.25 103.022V112.915C108.25 112.969 108.228 113.021 108.189 113.059L100.045 120.957C100.016 120.985 99.9787 121.004 99.9389 121.01L88.5188 122.954C88.3856 122.977 88.2687 122.864 88.2871 122.73L90.2425 108.48C90.2474 108.444 90.2426 108.408 90.2285 108.374L83.5449 92.606C83.5171 92.5404 83.5263 92.4649 83.5691 92.4079L86.4794 88.5274C86.493 88.5093 86.5035 88.4889 86.5103 88.4673Z" fill="#F68B32"/>
<path d="M80.2986 97.7175L81.1161 92.8646C81.1558 92.6292 81.5002 92.6487 81.513 92.8871L81.631 95.08C81.6321 95.0996 81.636 95.1189 81.6427 95.1373L85.3882 105.493C85.4704 105.721 85.1536 105.872 85.0288 105.665L80.3245 97.8539C80.2999 97.813 80.2907 97.7646 80.2986 97.7175Z" fill="#F68B32"/>
<defs>
<clipPath id="clip0_380_8073">
<rect width="74.0392" height="45.8667" fill="white" transform="matrix(-1 0 0 1 129 42)"/>
</clipPath>
<clipPath id="clip1_380_8073">
<rect width="74.0392" height="45.8667" fill="white" transform="matrix(-1 0 0 1 86.04 42)"/>
</clipPath>
<clipPath id="clip2_380_8073">
<rect width="81" height="40.5333" fill="white" transform="translate(6 49.4667)"/>
</clipPath>
<clipPath id="clip3_380_8073">
<rect width="81" height="40.5333" fill="white" transform="translate(53 49.4667)"/>
</clipPath>
<clipPath id="clip4_380_8073">
<rect width="134" height="57.0779" fill="white" transform="translate(3 41.597)"/>
</clipPath>
<clipPath id="clip5_380_8073">
<rect width="14" height="7" fill="white" transform="translate(74 25)"/>
</clipPath>
<clipPath id="clip6_380_8073">
<rect width="4" height="2" fill="white" transform="translate(99 27)"/>
</clipPath>
<clipPath id="clip7_380_8073">
<rect width="6" height="3" fill="white" transform="translate(82 19)"/>
</clipPath>
<clipPath id="clip8_380_8073">
<rect width="4" height="2" fill="white" transform="translate(94 24)"/>
</clipPath>
</defs>
</svg>
