<svg width="70" height="70" viewBox="0 0 70 70" fill="none" xmlns="http://www.w3.org/2000/svg">
<g filter="url(#filter0_d_607_3126)">
<path d="M50.2817 30.8986C50.2817 41.6079 41.6001 50.2895 30.8909 50.2895C20.1816 50.2895 11.5 41.6079 11.5 30.8986C11.5 20.1894 20.1816 11.5078 30.8909 11.5078C41.6001 11.5078 50.2817 20.1894 50.2817 30.8986Z" stroke="#FEFEFE" stroke-width="2"/>
<mask id="mask0_607_3126" style="mask-type:alpha" maskUnits="userSpaceOnUse" x="10" y="8" width="42" height="42">
<path d="M50.7817 29.0603C50.7817 40.0457 41.8763 48.9511 30.8909 48.9511C19.9054 48.9511 11 40.0457 11 29.0603C11 18.0749 19.9054 9.16943 30.8909 9.16943C41.8763 9.16943 50.7817 18.0749 50.7817 29.0603Z" fill="#D9D9D9" stroke="#FEFEFE"/>
</mask>
<g mask="url(#mask0_607_3126)">
<path d="M40.4347 18.8602L40.4368 18.8598C40.5421 18.8412 40.817 18.8405 41.0511 18.8606L41.0518 18.8606C42.5393 18.9725 43.7577 20.085 44.0212 21.5672L44.0213 21.5678C44.0995 21.9846 44.0816 22.2361 43.9208 23.1007C43.9207 23.1012 43.9206 23.1016 43.9205 23.102L43.9861 23.1142M40.4347 18.8602L44.369 23.477C43.9928 23.3023 43.9525 23.262 43.9861 23.1142M40.4347 18.8602C39.7437 18.9589 39.0514 19.3082 38.5576 19.8021C38.0045 20.3552 37.7014 20.9929 37.5957 21.8259L37.5957 21.826C37.5856 21.9049 37.5765 21.9692 37.5659 22.0213C37.5553 22.0729 37.5424 22.1171 37.5226 22.1535C37.5016 22.1919 37.4738 22.22 37.4373 22.2404C37.4031 22.2595 37.3636 22.2704 37.3218 22.2791M40.4347 18.8602L37.3218 22.2791M43.9861 23.1142C44.1473 22.2475 44.1675 21.9855 44.0869 21.5555C43.8181 20.0438 42.5752 18.9084 41.0568 18.7942C40.8216 18.774 40.5394 18.774 40.4252 18.7942C39.7198 18.8949 39.0143 19.251 38.5104 19.7549C37.9461 20.3193 37.637 20.971 37.5295 21.8175C37.4892 22.1333 37.4691 22.1803 37.3078 22.2139M43.9861 23.1142L38.9471 34.173M38.9471 34.173C38.329 34.3409 37.3347 34.2737 36.7166 34.0252C35.7088 33.6288 34.916 32.836 34.5196 31.8282C34.3651 31.4452 34.3181 31.2034 34.2912 30.6726M38.9471 34.173C39.1621 34.1192 39.3503 34.0789 39.3637 34.0856L38.9471 34.173ZM34.2912 30.6726C34.2442 29.6312 34.5062 28.8115 35.131 28.0389M34.2912 30.6726L34.3578 30.6696C34.3578 30.6695 34.3578 30.6694 34.3578 30.6693C34.3115 29.6437 34.5687 28.8404 35.1826 28.0812L35.1823 28.0815L35.131 28.0389M34.2912 30.6726L37.3218 22.2791M35.131 28.0389L35.4266 27.6828L35.1915 27.3738C34.5129 26.4869 34.4054 25.1499 34.916 24.0682M35.131 28.0389L35.1828 28.0808L35.4779 27.7254L35.5118 27.6846L35.4797 27.6425L35.2445 27.3334L35.2444 27.3333C34.5825 26.4681 34.4753 25.1581 34.9763 24.0967L34.916 24.0682M34.916 24.0682C35.3662 23.1142 36.2127 22.4558 37.3078 22.2139M34.916 24.0682L34.9763 24.0967C35.417 23.1626 36.2457 22.5169 37.3218 22.2791M37.3078 22.2139L37.3222 22.279C37.3221 22.279 37.3219 22.2791 37.3218 22.2791M37.3078 22.2139L37.3214 22.2792C37.3215 22.2792 37.3217 22.2791 37.3218 22.2791M38.666 38.2289C38.666 38.2289 38.6659 38.2289 38.6659 38.2289C34.7681 39.0943 30.6409 40.5504 26.2304 42.6248C23.6766 43.8262 21.0102 45.3129 18.8853 46.6694C17.8228 47.3477 16.8965 47.9928 16.1879 48.5529C15.4763 49.1153 14.9924 49.5857 14.8047 49.914C14.707 50.0851 14.7091 50.2462 14.7796 50.3704C14.8509 50.4958 14.9993 50.5962 15.2189 50.6278C15.2196 50.6278 15.2219 50.628 15.2266 50.6283L15.2481 50.6292C15.2661 50.6298 15.2909 50.6304 15.3224 50.631C15.3854 50.6322 15.4743 50.6333 15.588 50.6345C15.8152 50.6367 16.1408 50.6389 16.5538 50.6408C17.3799 50.6447 18.5556 50.6478 19.9942 50.6499C22.8713 50.6541 26.7999 50.6541 31.0863 50.6474L31.0863 50.6474L46.6571 50.6273L46.9242 50.4873C46.9243 50.4873 46.9243 50.4873 46.9244 50.4872C47.1002 50.393 47.2528 50.2412 47.3683 50.0423L47.3684 50.0422L47.5474 49.7353V43.9754V38.2164L47.403 37.984L47.4029 37.9839C47.2962 37.8114 47.1634 37.6952 46.9498 37.6148C46.7324 37.5329 46.4303 37.4879 45.9847 37.4645L45.9838 37.4644C45.5781 37.4378 44.661 37.451 43.9569 37.498L43.9563 37.498C43.6032 37.5182 43.2786 37.5333 43.0414 37.5426C42.9228 37.5472 42.8258 37.5504 42.7579 37.552C42.7241 37.5528 42.697 37.5532 42.678 37.5532C42.6687 37.5531 42.6605 37.553 42.6542 37.5528C42.6512 37.5526 42.6474 37.5524 42.6436 37.552C42.6431 37.5519 42.6424 37.5518 42.6417 37.5517C42.6398 37.5515 42.6373 37.5511 42.6345 37.5504C42.6325 37.5499 42.6289 37.549 42.6247 37.5473C42.6218 37.5462 42.6116 37.542 42.6019 37.5324L38.666 38.2289Z" fill="#FEFEFE" stroke="#FEFEFE" stroke-width="0.133333"/>
<path d="M19.3169 33.7555C20.0157 33.8563 20.6002 33.9302 20.6136 33.91C20.6338 33.8966 20.6674 33.3591 20.6875 32.7209C20.7278 31.5921 20.7278 31.5585 20.6002 31.6056L19.3169 33.7555ZM19.3169 33.7555C18.2487 33.5943 17.8254 33.5674 16.5758 33.5674L19.3169 33.7555ZM20.7541 32.7231C20.7742 32.1616 20.7846 31.8657 20.7733 31.7173C20.7705 31.6796 20.766 31.6478 20.7587 31.622C20.7516 31.5971 20.7397 31.5694 20.7156 31.5497C20.6887 31.5277 20.6583 31.5248 20.6347 31.5275C20.6136 31.5299 20.5926 31.5373 20.5771 31.543L20.5702 31.5456L20.5704 31.5459C20.5616 31.5503 20.5402 31.5573 20.5033 31.5655C20.4683 31.5732 20.4242 31.5809 20.3738 31.5883C20.2731 31.6032 20.1503 31.6165 20.0303 31.6265C19.2246 31.6919 18.3837 31.3707 17.7921 30.7793C16.8135 29.7874 16.6902 28.1517 17.5155 27.0776L17.5157 27.0773L17.7508 26.7683L17.7762 26.7348L17.7571 26.6975L17.495 26.1868L17.495 26.1868C17.3702 25.9438 17.3107 25.8188 17.2801 25.6751C17.2491 25.5298 17.2471 25.3631 17.2471 25.0348C17.2471 24.7386 17.2523 24.5624 17.2756 24.4199C17.2985 24.28 17.3394 24.1704 17.4154 24.0084C17.7295 23.3409 18.2654 22.8825 19.0085 22.6392L19.0088 22.6391L19.0118 22.6381C19.0949 22.6104 19.1615 22.5882 19.2131 22.5656C19.2659 22.5426 19.3099 22.5164 19.3434 22.4771C19.3771 22.4374 19.3949 22.3906 19.4071 22.3363C19.4188 22.2839 19.4267 22.2181 19.4365 22.1371L19.4368 22.1343C19.5477 21.2793 20.1289 20.5327 20.9886 20.1717C21.2529 20.0621 21.5973 20.0124 21.9484 20.0239C22.2993 20.0354 22.6512 20.108 22.9302 20.2377C23.6303 20.5648 24.1146 21.1596 24.3114 21.9338L24.3116 21.9346C24.3634 22.129 24.3883 22.3713 24.3858 22.6011C24.3833 22.8322 24.3533 23.0428 24.3006 23.1761L24.2999 23.1779L24.2999 23.1779C24.2886 23.2091 24.2868 23.2424 24.297 23.276C24.3069 23.3082 24.3265 23.3365 24.3511 23.3615C24.3989 23.4103 24.4762 23.4579 24.5812 23.5088C24.777 23.6117 24.9993 23.7941 25.1983 24.0063C25.3974 24.2187 25.5689 24.4563 25.6658 24.6662C25.7894 24.9395 25.8484 25.1864 25.8681 25.569C25.8814 25.8331 25.8895 25.9812 25.9412 26.1052C25.9909 26.2245 26.0798 26.3188 26.2282 26.4761C26.235 26.4833 26.2419 26.4907 26.249 26.4982L26.2975 26.4524M20.7541 32.7231L23.4085 34.5416M20.7541 32.7231C20.7441 33.0427 20.7306 33.3373 20.7171 33.5539C20.7104 33.6621 20.7036 33.7515 20.6972 33.815C20.694 33.8466 20.6908 33.8729 20.6875 33.8923C20.6859 33.9017 20.684 33.9113 20.6817 33.9195C20.6806 33.9235 20.6789 33.9291 20.6762 33.935L20.676 33.9353C20.6749 33.9379 20.6705 33.9475 20.6611 33.9569C20.6549 33.9632 20.6488 33.9671 20.6448 33.9693C20.6387 33.9727 20.6331 33.9745 20.6295 33.9756C20.6224 33.9777 20.6158 33.9786 20.6114 33.979C20.6023 33.98 20.5919 33.9801 20.5817 33.98C20.5607 33.9797 20.5323 33.9779 20.498 33.975C20.4292 33.9692 20.332 33.9586 20.2142 33.9443C19.9784 33.9157 19.657 33.8719 19.3074 33.8215L19.307 33.8214C18.2426 33.6608 17.8227 33.6341 16.5758 33.6341L16.5755 33.6341C14.8944 33.6273 14.3769 33.7161 13.8383 34.0795L13.8378 34.0798C13.7992 34.1054 13.7633 34.1272 13.7307 34.1469L13.7241 34.1509C13.6939 34.1691 13.6672 34.1852 13.6425 34.2016C13.5905 34.2361 13.5508 34.2696 13.5176 34.3174C13.4494 34.4155 13.4001 34.5861 13.3694 34.9768C13.3175 35.6382 13.3206 36.8873 13.3269 39.3713C13.328 39.8072 13.3292 40.2811 13.3302 40.7964L13.3502 46.8635L13.4788 46.9979C13.5449 47.0623 13.6045 47.102 13.6651 47.1214C13.7248 47.1404 13.7915 47.1416 13.8756 47.1183C14.0493 47.0702 14.283 46.9225 14.6472 46.6426C15.6365 45.8822 16.0948 45.5587 17.3793 44.7248L17.3793 44.7247C20.8903 42.4513 25.1068 40.2927 29.2491 38.6385L29.2494 38.6384C29.5812 38.5077 29.8961 38.3753 30.1353 38.2691C30.255 38.2159 30.3553 38.1695 30.4292 38.1332C30.4662 38.115 30.496 38.0996 30.5181 38.0874C30.5292 38.0812 30.5378 38.0762 30.5442 38.0721C30.5512 38.0677 30.5534 38.0658 30.5531 38.066L30.5532 38.0659C30.6261 38.0015 30.6741 37.8999 30.6893 37.7901C30.7044 37.6803 30.6854 37.5714 30.6356 37.4937M20.7541 32.7231L30.6356 37.4937M26.2975 26.4524L26.2488 26.498C27.2854 27.6066 27.2466 29.3662 26.1632 30.4497C25.4661 31.1402 24.4142 31.4544 23.5311 31.2517C23.5311 31.2517 23.531 31.2517 23.531 31.2517L23.2761 31.1913L23.1916 31.1713L23.1941 31.2581L23.2411 32.8836C23.2411 32.8837 23.2411 32.8838 23.2411 32.8839C23.2512 33.3278 23.268 33.7384 23.2866 34.0409C23.2958 34.1921 23.3056 34.3169 23.3152 34.4057C23.32 34.4498 23.3249 34.4864 23.3299 34.5131C23.3323 34.5263 23.3352 34.539 23.3386 34.5498C23.3403 34.555 23.3428 34.5618 23.3464 34.5686C23.3487 34.5731 23.3562 34.5871 23.3721 34.5974M26.2975 26.4524C27.3591 27.5879 27.3188 29.3884 26.2102 30.497L25.7264 24.6384C25.8541 24.9206 25.9146 25.1759 25.9347 25.5656C25.9612 26.0956 25.9681 26.103 26.2841 26.4382L26.2975 26.4524ZM23.3721 34.5974C23.3728 34.5979 23.3735 34.5983 23.3742 34.5988L23.4085 34.5416M23.3721 34.5974C23.3719 34.5973 23.3717 34.5972 23.3716 34.5971L23.4085 34.5416M23.3721 34.5974C23.3846 34.6056 23.4029 34.6129 23.4181 34.6186C23.4362 34.6254 23.4596 34.6335 23.4872 34.6425C23.5426 34.6607 23.6175 34.6836 23.7064 34.7097C23.8842 34.7619 24.1199 34.8276 24.3721 34.8949M23.4085 34.5416C23.4489 34.5685 23.8856 34.6961 24.3895 34.8305M24.3721 34.8949C24.3721 34.8948 24.372 34.8948 24.372 34.8948L24.3895 34.8305M24.3721 34.8949C25.6791 35.2501 27.1661 35.7748 28.3689 36.276C28.9704 36.5267 29.4997 36.771 29.8992 36.9848C30.0991 37.0918 30.2655 37.1905 30.3918 37.2781C30.52 37.367 30.6002 37.4398 30.6356 37.4937M24.3721 34.8949C24.3722 34.8949 24.3722 34.8949 24.3723 34.8949L24.3895 34.8305M24.3895 34.8305L30.6356 37.4937M23.2607 31.2562L23.2454 31.3211L23.2627 31.3252L23.2607 31.2562ZM23.2607 31.2562L23.3274 31.2543L23.3279 31.2721L23.2607 31.2562ZM19.3707 22.1257C19.351 22.2894 19.341 22.3733 19.2962 22.4296C19.249 22.4887 19.1634 22.5173 18.9877 22.5758C18.2285 22.8244 17.6776 23.2947 17.3551 23.98L19.3707 22.1257Z" fill="#FEFEFE" stroke="#FEFEFE" stroke-width="0.133333"/>
</g>
</g>
<defs>
<filter id="filter0_d_607_3126" x="0.5" y="0.507812" width="68.7817" height="68.7817" filterUnits="userSpaceOnUse" color-interpolation-filters="sRGB">
<feFlood flood-opacity="0" result="BackgroundImageFix"/>
<feColorMatrix in="SourceAlpha" type="matrix" values="0 0 0 0 0 0 0 0 0 0 0 0 0 0 0 0 0 0 127 0" result="hardAlpha"/>
<feOffset dx="4" dy="4"/>
<feGaussianBlur stdDeviation="7"/>
<feComposite in2="hardAlpha" operator="out"/>
<feColorMatrix type="matrix" values="0 0 0 0 0 0 0 0 0 0 0 0 0 0 0 0 0 0 0.11 0"/>
<feBlend mode="normal" in2="BackgroundImageFix" result="effect1_dropShadow_607_3126"/>
<feBlend mode="normal" in="SourceGraphic" in2="effect1_dropShadow_607_3126" result="shape"/>
</filter>
</defs>
</svg>
