<svg width="20" height="21" viewBox="0 0 20 21" fill="none" xmlns="http://www.w3.org/2000/svg">
<path d="M18.4211 13.3052C17.1873 13.3052 15.979 13.1125 14.8337 12.7346C14.2747 12.542 13.64 12.6904 13.2726 13.0651L11.0021 14.7799C8.39685 13.3894 6.72948 11.723 5.35792 9.13673L7.02632 6.91988C7.44632 6.49988 7.59686 5.88513 7.41686 5.30935C7.0358 4.15672 6.84213 2.94725 6.84213 1.71567C6.84213 0.845124 6.13372 0.136719 5.26318 0.136719H1.57895C0.708405 0.136719 0 0.845124 0 1.71567C0 11.8725 8.26422 20.1367 18.4211 20.1367C19.2916 20.1367 20 19.4283 20 18.5578V14.8841C20 14.0136 19.2916 13.3052 18.4211 13.3052Z" fill="#C65427"/>
</svg>
