<svg width="18" height="19" viewBox="0 0 18 19" fill="none" xmlns="http://www.w3.org/2000/svg">
<path d="M7.40375 0.953488C7.48646 0.99449 7.55907 1.05331 7.61634 1.12571C7.67362 1.19811 7.71414 1.28231 7.735 1.37224C7.7575 1.47099 8.375 4.11349 8.375 5.88599C8.375 7.07349 7.8225 8.13224 6.9625 8.81849C6.65 9.06849 6.5 9.34099 6.5 9.56849V10.176C6.5 10.2052 6.50167 10.2327 6.505 10.2585C6.5475 10.5685 6.70125 11.7197 6.845 12.9135C6.98625 14.0847 7.125 15.3622 7.125 15.886C7.125 16.549 6.86161 17.1849 6.39277 17.6538C5.92393 18.1226 5.28804 18.386 4.625 18.386C3.96196 18.386 3.32607 18.1226 2.85723 17.6538C2.38839 17.1849 2.125 16.549 2.125 15.886C2.125 15.361 2.26375 14.086 2.405 12.9135C2.54875 11.7197 2.7025 10.5685 2.745 10.2585L2.75 10.176V9.56849C2.75 9.34099 2.6 9.06849 2.2875 8.81849C1.84685 8.46723 1.49104 8.02117 1.24649 7.51348C1.00195 7.00579 0.874975 6.44951 0.875 5.88599C0.875 4.11974 1.4875 1.49099 1.515 1.37349C1.5475 1.23454 1.62611 1.1107 1.73803 1.02216C1.84994 0.933632 1.98855 0.88563 2.13125 0.885988C2.48125 0.885988 2.765 1.16974 2.765 1.51974V5.26724C2.76007 5.35165 2.7725 5.43618 2.80151 5.5156C2.83052 5.59502 2.87551 5.66766 2.93368 5.72902C2.99186 5.79038 3.062 5.83916 3.13976 5.87236C3.21753 5.90556 3.30127 5.92247 3.38583 5.92204C3.47038 5.92161 3.55395 5.90386 3.63138 5.86987C3.70881 5.83589 3.77845 5.7864 3.836 5.72445C3.89355 5.66251 3.9378 5.58942 3.96601 5.50971C3.99421 5.42999 4.00578 5.34535 4 5.26099V1.51099C4 1.34523 4.06585 1.18626 4.18306 1.06905C4.30027 0.951836 4.45924 0.885988 4.625 0.885988C4.79076 0.885988 4.94973 0.951836 5.06694 1.06905C5.18415 1.18626 5.25 1.34523 5.25 1.51099V5.29349C5.25348 5.45759 5.32201 5.61359 5.44051 5.72717C5.55901 5.84074 5.71777 5.90259 5.88188 5.89911C6.04598 5.89563 6.20198 5.8271 6.31555 5.7086C6.42913 5.59011 6.49098 5.43134 6.4875 5.26724V1.51724C6.4875 1.16849 6.77 0.885988 7.12 0.885988C7.1475 0.885988 7.27 0.885988 7.40375 0.953488ZM10.25 6.51099C10.25 5.01915 10.8426 3.5884 11.8975 2.53351C12.9524 1.47862 14.3832 0.885988 15.875 0.885988C16.0408 0.885988 16.1997 0.951836 16.3169 1.06905C16.4342 1.18626 16.5 1.34523 16.5 1.51099V8.97724L16.5238 9.19849C16.6232 10.1314 16.7186 11.0647 16.81 11.9985C16.9638 13.5685 17.125 15.3285 17.125 15.886C17.125 16.549 16.8616 17.1849 16.3928 17.6538C15.9239 18.1226 15.288 18.386 14.625 18.386C13.962 18.386 13.3261 18.1226 12.8572 17.6538C12.3884 17.1849 12.125 16.549 12.125 15.886C12.125 15.3285 12.2863 13.5685 12.44 11.9985C12.5188 11.2022 12.5975 10.4397 12.6562 9.87474L12.6812 9.63599H11.5C11.1685 9.63599 10.8505 9.50429 10.6161 9.26987C10.3817 9.03545 10.25 8.71751 10.25 8.38599V6.51099Z" fill="#322E2C"/>
</svg>
