<svg width="13" height="13" viewBox="0 0 13 13" fill="none" xmlns="http://www.w3.org/2000/svg">
<g clip-path="url(#clip0_693_21689)">
<path d="M12.7187 4.73922C12.6402 4.49623 12.4246 4.32365 12.1697 4.30067L8.70614 3.98618L7.33656 0.780558C7.23558 0.545628 7.00559 0.393555 6.75006 0.393555C6.49453 0.393555 6.26454 0.545628 6.16356 0.781107L4.79399 3.98618L1.32991 4.30067C1.07539 4.3242 0.860414 4.49623 0.781402 4.73922C0.70239 4.9822 0.775359 5.24872 0.9679 5.41672L3.58592 7.71274L2.81392 11.1134C2.75744 11.3634 2.85448 11.6219 3.06195 11.7718C3.17346 11.8524 3.30393 11.8934 3.43549 11.8934C3.54893 11.8934 3.66145 11.8628 3.76244 11.8024L6.75006 10.0168L9.73659 11.8024C9.95513 11.9339 10.2306 11.9219 10.4376 11.7718C10.6452 11.6214 10.7421 11.3629 10.6856 11.1134L9.91366 7.71274L12.5317 5.41718C12.7242 5.24872 12.7977 4.98266 12.7187 4.73922Z" fill="#FAF5ED"/>
</g>
<defs>
<clipPath id="clip0_693_21689">
<rect width="12" height="12" fill="white" transform="translate(0.75 0.135986)"/>
</clipPath>
</defs>
</svg>
