<svg width="25" height="29" viewBox="0 0 25 29" fill="none" xmlns="http://www.w3.org/2000/svg">
<g clip-path="url(#clip0_695_25719)">
<path d="M21.1679 5.82978C19.5833 4.84257 18.4422 3.21116 18.1075 1.30199C18.0758 1.11961 18.0507 0.935551 18.0339 0.751495V0.135742H13.2116V19.2776C13.2033 21.5097 11.3912 23.3151 9.15738 23.3151C8.50147 23.3151 7.88238 23.1595 7.33355 22.8834C6.01002 22.2158 5.10312 20.8454 5.10312 19.2642C5.10312 17.0271 6.91859 15.2116 9.15738 15.2116C9.58573 15.2116 10.0007 15.2786 10.3889 15.4007V10.5015C9.98564 10.4462 9.57904 10.4178 9.17244 10.4178C4.27654 10.4195 0.307617 14.3867 0.307617 19.2776C0.307617 22.3447 1.86708 25.0469 4.23638 26.6365C5.64693 27.5836 7.34526 28.1341 9.17077 28.1341C14.065 28.1341 18.0339 24.1685 18.0339 19.2759V9.49585C19.918 10.8411 22.2254 11.6326 24.7168 11.6326V6.84042C23.4619 6.84209 22.2338 6.49071 21.1679 5.8281V5.82978Z" fill="#FEFEFE"/>
</g>
<defs>
<clipPath id="clip0_695_25719">
<rect width="24.4092" height="28" fill="white" transform="translate(0.307617 0.135742)"/>
</clipPath>
</defs>
</svg>
