<svg width="140" height="141" viewBox="0 0 140 141" fill="none" xmlns="http://www.w3.org/2000/svg">
<rect x="2" y="2.13599" width="136" height="136" rx="68" fill="#B2D234"/>
<rect x="2" y="2.13599" width="136" height="136" rx="68" stroke="#7E442E" stroke-width="4"/>
<circle opacity="0.28" cx="70" cy="70" r="60" fill="#FEFEFE"/>
<circle opacity="0.28" cx="70" cy="70" r="50" fill="#FEFEFE"/>
<circle opacity="0.28" cx="70" cy="70" r="40" fill="#FEFEFE"/>
<circle opacity="0.28" cx="70" cy="70" r="30" fill="#FEFEFE"/>
<circle opacity="0.28" cx="70" cy="70" r="20" fill="#FEFEFE"/>
<g clip-path="url(#clip0_380_8140)">
<path d="M23.8648 83.1033H56.2485L53.4461 73.5966L42.4958 69.9166H22.9307L23.8648 83.1033Z" fill="#7E442E"/>
<path d="M30.4039 50.2899L26.356 69.9166L40.0568 67.7699H51.2665L50.021 54.8899L42.313 49.0632L30.4039 50.2899Z" fill="#C65427"/>
<path d="M25.1103 48.1433L20.751 51.5166L25.1103 57.3433L26.6672 54.2766L29.781 51.5166L29.1583 49.9833L25.1103 48.1433Z" fill="#7E442E"/>
<path d="M50.9551 48.1433L55.3145 51.5166L50.9551 57.3433L49.3982 54.2766L46.2844 51.5166L46.9071 49.9833L50.9551 48.1433Z" fill="#7E442E"/>
<path d="M16.0802 73.9033L16.3916 74.8233L15.4575 75.13L14.8347 75.4366L13.9005 73.29L15.1461 72.6766L16.0802 73.9033Z" fill="#FEFEFE"/>
<path d="M25.385 58.6478L26.0444 61.1194L24.0662 61.9433H23.4068C21.8784 60.2624 21.2774 59.1988 20.7693 57L20.4396 50.9033L25.385 58.6478Z" fill="#5D4639"/>
<path d="M51.6145 58.6478L50.9551 61.1194L52.9333 61.9433H53.5927C55.1212 60.2624 55.7221 59.1988 56.2302 57L56.5599 50.9033L51.6145 58.6478Z" fill="#5D4639"/>
<path d="M60.9193 73.9033L60.6079 74.8233L61.5421 75.13L62.1648 75.4366L63.099 73.29L61.8534 72.6766L60.9193 73.9033Z" fill="#FEFEFE"/>
<path d="M26.0444 86.7833L33.5176 88.93L32.2721 85.5566L30.0924 82.7966H26.0444V86.7833Z" fill="#B2D234"/>
<path d="M27.29 82.0606L35.386 84.6366L34.0366 80.5886L31.6753 77.2766H27.29V82.0606Z" fill="#3E7739"/>
<path fill-rule="evenodd" clip-rule="evenodd" d="M63.5701 72.4226L63.4297 72.3723L63.4809 72.2341C63.5642 72.0138 63.4487 71.7691 63.2251 71.6871L62.639 71.474C62.6083 71.3531 62.5265 71.2451 62.3993 71.1991L60.5811 70.5384C60.5387 70.5225 60.4963 70.5153 60.4539 70.5153C60.3691 70.5153 60.2858 70.5441 60.2171 70.5931L59.631 70.38C59.5813 70.3627 59.5316 70.3541 59.4805 70.3541C59.3051 70.3541 59.1399 70.4606 59.0756 70.6319L59.0245 70.7701L58.8841 70.7197C58.8096 70.6924 58.7321 70.6794 58.6576 70.6794C58.3901 70.6794 58.1402 70.8407 58.0422 71.1026L57.5511 72.414C57.4167 72.3435 57.2822 72.2729 57.158 72.2053C56.8496 70.3771 54.7872 64.0895 52.9529 58.487C53.8401 56.7395 54.9933 54.8322 55.7709 53.9858C55.7709 53.9858 56.0398 55.7045 55.6364 58.6123C57.0454 56.1004 57.3144 54.052 57.4488 52.6644C57.5833 51.2767 54.8983 49.3593 53.2204 47.8392C51.7032 46.4645 49.3091 47.4707 47.1781 49.3363C44.572 48.0407 41.2045 47 38.499 47C35.7936 47 32.426 48.0407 29.8215 49.3348C27.6904 47.4693 25.2963 46.4631 23.7792 47.8378C22.1012 49.3579 19.4177 51.2738 19.5507 52.6629C19.6852 54.0506 19.9527 56.1004 21.3617 58.6108C20.9597 55.7031 21.2272 53.9844 21.2272 53.9844C22.0062 54.8322 23.158 56.7381 24.0452 58.4856C22.2108 64.0866 20.1485 70.3757 19.8401 72.2038C19.7144 72.2729 19.5814 72.342 19.4469 72.4126L18.9558 71.1012C18.8579 70.8407 18.6065 70.678 18.3405 70.678C18.2645 70.678 18.1885 70.691 18.114 70.7183L17.9736 70.7687L17.9225 70.6305C17.8582 70.4578 17.693 70.3527 17.5162 70.3527C17.4665 70.3527 17.4153 70.3613 17.3656 70.3786L16.7795 70.5916C16.7108 70.5427 16.629 70.5139 16.5427 70.5139C16.5003 70.5139 16.4579 70.5211 16.4156 70.5369L14.5973 71.1976C14.4702 71.2437 14.3868 71.3517 14.3576 71.4726L13.7715 71.6856C13.5479 71.7677 13.4339 72.0124 13.5157 72.2326L13.5669 72.3708L13.4266 72.4212C13.0875 72.545 12.9121 72.9164 13.0378 73.2518L14.0477 75.9451C13.7613 76.4042 13.659 76.8879 13.846 77.4018C14.6514 79.6056 16.8891 85.7738 18.1403 87.7128C19.3929 89.6518 24.3141 88.7708 24.3141 88.7708C25.8356 91.4137 29.9954 93 38.4961 93C46.9968 93 51.1581 91.4137 52.6781 88.7708C52.6781 88.7708 57.5994 89.6518 58.852 87.7128C60.1046 85.7738 62.3423 79.6056 63.1462 77.4018C63.3347 76.8879 63.231 76.4042 62.9445 75.9451L63.953 73.2518C64.0787 72.9164 63.9048 72.545 63.5642 72.4212L63.5701 72.4226ZM15.0343 73.0373L15.6204 74.4854C15.3647 74.6553 15.1308 74.8309 14.9145 75.0094L14.2787 73.3137L15.0343 73.0387V73.0373ZM30.3579 54.6451C31.096 52.5305 34.0046 50.4807 38.5005 50.4807C42.9964 50.4807 45.905 52.529 46.6431 54.6451C47.3257 56.5999 48.4555 61.782 48.8063 65.5678C48.8443 65.9767 48.4453 66.2948 48.0317 66.243C47.4938 66.1767 46.6928 66.0832 45.7179 65.9896C45.4607 64.9302 45.6302 63.387 46.0468 62.7868C46.1067 62.7004 46.0775 62.5881 45.9869 62.5349C43.8588 61.2854 39.9607 57.7731 38.7738 55.7405C38.651 55.5304 38.3514 55.5304 38.2286 55.7405C37.0418 57.7731 33.1437 61.2854 31.0156 62.5349C30.925 62.5881 30.8943 62.7004 30.9542 62.7868C31.3708 63.387 31.5388 64.9316 31.2831 65.9896C30.3082 66.0832 29.5057 66.1753 28.9693 66.243C28.5557 66.2948 28.1581 65.9752 28.1961 65.5678C28.5469 61.782 29.6768 56.5999 30.3593 54.6451H30.3579ZM22.4389 51.7373C23.5131 50.5483 24.9894 48.962 26.3984 49.3579C26.9684 49.5191 27.5691 49.9063 28.0865 50.3108C27.2753 50.829 26.6147 51.3544 26.1981 51.8482C25.8897 52.8371 25.5112 54.0131 25.0946 55.2928C24.2396 53.8159 23.2954 52.5809 22.4403 51.7373H22.4389ZM28.3891 86.4806C27.5487 86.4806 26.8675 85.8098 26.8675 84.9821C26.8675 84.1544 27.5487 83.4836 28.3891 83.4836C29.2295 83.4836 29.9106 84.1544 29.9106 84.9821C29.9106 85.8098 29.2295 86.4806 28.3891 86.4806ZM30.1766 82.5264C28.8685 82.5264 27.8074 81.4784 27.8074 80.1858C27.8074 78.8931 28.8685 77.8452 30.1766 77.8452C31.4848 77.8452 32.5459 78.8931 32.5459 80.1858C32.5459 81.4784 31.4848 82.5264 30.1766 82.5264ZM52.2104 82.1291C52.1987 82.1938 52.1081 82.1909 52.0979 82.1276C51.7924 80.0994 51.0411 77.8754 50.0648 77.052C49.5956 76.6547 46.7542 73.4173 38.499 73.4173C30.2439 73.4173 27.404 76.6562 26.9348 77.052C25.9584 77.8754 25.2072 80.0994 24.9017 82.1276C24.8914 82.1924 24.8008 82.1938 24.7891 82.1291C24.6444 81.2726 24.3609 78.9579 25.0551 76.8534C26.1572 73.5123 32.7944 70.7068 38.499 70.7068C44.2037 70.7068 50.8409 73.5123 51.9429 76.8534C52.6372 78.9593 52.3537 81.274 52.209 82.1291H52.2104ZM51.9064 55.2928C51.4898 54.0131 51.1113 52.8356 50.8029 51.8482C50.3863 51.3559 49.7257 50.829 48.9145 50.3108C49.4304 49.9063 50.0312 49.5191 50.6012 49.3579C52.0102 48.962 53.4864 50.5483 54.5607 51.7373C53.7056 52.5794 52.7614 53.8159 51.9064 55.2928ZM61.9637 73.0373L62.7194 73.3122L62.0836 75.0079C61.8673 74.8295 61.6334 74.6538 61.3776 74.484L61.9637 73.0359V73.0373Z" fill="#5D4639"/>
</g>
<g clip-path="url(#clip1_380_8140)">
<path d="M87.8111 83.1033H120.195L117.392 73.5966L106.442 69.9166H86.877L87.8111 83.1033Z" fill="#7E442E"/>
<path d="M94.3502 50.2899L90.3022 69.9166L104.003 67.7699H115.213L113.967 54.8899L106.259 49.0632L94.3502 50.2899Z" fill="#C65427"/>
<path d="M89.0566 48.1433L84.6973 51.5166L89.0566 57.3433L90.6135 54.2766L93.7273 51.5166L93.1046 49.9833L89.0566 48.1433Z" fill="#7E442E"/>
<path d="M114.901 48.1433L119.261 51.5166L114.901 57.3433L113.344 54.2766L110.231 51.5166L110.853 49.9833L114.901 48.1433Z" fill="#7E442E"/>
<path d="M80.0265 73.9033L80.3379 74.8233L79.4037 75.13L78.781 75.4366L77.8468 73.29L79.0924 72.6766L80.0265 73.9033Z" fill="#FEFEFE"/>
<path d="M89.3313 58.6478L89.9907 61.1194L88.0125 61.9433H87.3531C85.8246 60.2624 85.2237 59.1988 84.7156 57L84.3859 50.9033L89.3313 58.6478Z" fill="#5D4639"/>
<path d="M115.561 58.6478L114.901 61.1194L116.88 61.9433H117.539C119.067 60.2624 119.668 59.1988 120.177 57L120.506 50.9033L115.561 58.6478Z" fill="#5D4639"/>
<path d="M124.866 73.9033L124.554 74.8233L125.488 75.13L126.111 75.4366L127.045 73.29L125.8 72.6766L124.866 73.9033Z" fill="#FEFEFE"/>
<path d="M89.9907 86.7833L97.4639 88.93L96.2184 85.5566L94.0387 82.7966H89.9907V86.7833Z" fill="#B2D234"/>
<path d="M91.2363 82.0606L99.3323 84.6366L97.9829 80.5886L95.6216 77.2766H91.2363V82.0606Z" fill="#3E7739"/>
<path fill-rule="evenodd" clip-rule="evenodd" d="M127.516 72.4226L127.376 72.3723L127.427 72.2341C127.511 72.0138 127.395 71.7691 127.171 71.6871L126.585 71.474C126.555 71.3531 126.473 71.2451 126.346 71.1991L124.527 70.5384C124.485 70.5225 124.443 70.5153 124.4 70.5153C124.315 70.5153 124.232 70.5441 124.163 70.5931L123.577 70.38C123.528 70.3627 123.478 70.3541 123.427 70.3541C123.251 70.3541 123.086 70.4606 123.022 70.6319L122.971 70.7701L122.83 70.7197C122.756 70.6924 122.678 70.6794 122.604 70.6794C122.336 70.6794 122.086 70.8407 121.989 71.1026L121.497 72.414C121.363 72.3435 121.228 72.2729 121.104 72.2053C120.796 70.3771 118.734 64.0895 116.899 58.487C117.786 56.7395 118.94 54.8322 119.717 53.9858C119.717 53.9858 119.986 55.7045 119.583 58.6123C120.992 56.1004 121.261 54.052 121.395 52.6644C121.53 51.2767 118.845 49.3593 117.167 47.8392C115.65 46.4645 113.255 47.4707 111.124 49.3363C108.518 48.0407 105.151 47 102.445 47C99.7399 47 96.3723 48.0407 93.7677 49.3348C91.6367 47.4693 89.2426 46.4631 87.7254 47.8378C86.0475 49.3579 83.364 51.2738 83.497 52.6629C83.6315 54.0506 83.8989 56.1004 85.3079 58.6108C84.906 55.7031 85.1735 53.9844 85.1735 53.9844C85.9525 54.8322 87.1043 56.7381 87.9915 58.4856C86.1571 64.0866 84.0948 70.3757 83.7864 72.2038C83.6607 72.2729 83.5277 72.342 83.3932 72.4126L82.9021 71.1012C82.8042 70.8407 82.5528 70.678 82.2868 70.678C82.2108 70.678 82.1348 70.691 82.0602 70.7183L81.9199 70.7687L81.8688 70.6305C81.8045 70.4578 81.6393 70.3527 81.4624 70.3527C81.4127 70.3527 81.3616 70.3613 81.3119 70.3786L80.7258 70.5916C80.6571 70.5427 80.5752 70.5139 80.489 70.5139C80.4466 70.5139 80.4042 70.5211 80.3618 70.5369L78.5436 71.1976C78.4164 71.2437 78.3331 71.3517 78.3039 71.4726L77.7178 71.6856C77.4942 71.7677 77.3802 72.0124 77.462 72.2326L77.5132 72.3708L77.3729 72.4212C77.0338 72.545 76.8584 72.9164 76.9841 73.2518L77.994 75.9451C77.7076 76.4042 77.6052 76.8879 77.7923 77.4018C78.5977 79.6056 80.8354 85.7738 82.0865 87.7128C83.3392 89.6518 88.2604 88.7708 88.2604 88.7708C89.7819 91.4137 93.9417 93 102.442 93C110.943 93 115.104 91.4137 116.624 88.7708C116.624 88.7708 121.546 89.6518 122.798 87.7128C124.051 85.7738 126.289 79.6056 127.092 77.4018C127.281 76.8879 127.177 76.4042 126.891 75.9451L127.899 73.2518C128.025 72.9164 127.851 72.545 127.511 72.4212L127.516 72.4226ZM78.9806 73.0373L79.5667 74.4854C79.3109 74.6553 79.0771 74.8309 78.8608 75.0094L78.225 73.3137L78.9806 73.0387V73.0373ZM94.3042 54.6451C95.0423 52.5305 97.9509 50.4807 102.447 50.4807C106.943 50.4807 109.851 52.529 110.589 54.6451C111.272 56.5999 112.402 61.782 112.753 65.5678C112.791 65.9767 112.392 66.2948 111.978 66.243C111.44 66.1767 110.639 66.0832 109.664 65.9896C109.407 64.9302 109.577 63.387 109.993 62.7868C110.053 62.7004 110.024 62.5881 109.933 62.5349C107.805 61.2854 103.907 57.7731 102.72 55.7405C102.597 55.5304 102.298 55.5304 102.175 55.7405C100.988 57.7731 97.09 61.2854 94.9619 62.5349C94.8713 62.5881 94.8406 62.7004 94.9005 62.7868C95.3171 63.387 95.4851 64.9316 95.2294 65.9896C94.2545 66.0832 93.452 66.1753 92.9156 66.243C92.502 66.2948 92.1044 65.9752 92.1424 65.5678C92.4932 61.782 93.623 56.5999 94.3056 54.6451H94.3042ZM86.3851 51.7373C87.4594 50.5483 88.9357 48.962 90.3447 49.3579C90.9147 49.5191 91.5154 49.9063 92.0328 50.3108C91.2216 50.829 90.561 51.3544 90.1444 51.8482C89.836 52.8371 89.4575 54.0131 89.0409 55.2928C88.1859 53.8159 87.2417 52.5809 86.3866 51.7373H86.3851ZM92.3354 86.4806C91.4949 86.4806 90.8138 85.8098 90.8138 84.9821C90.8138 84.1544 91.4949 83.4836 92.3354 83.4836C93.1758 83.4836 93.8569 84.1544 93.8569 84.9821C93.8569 85.8098 93.1758 86.4806 92.3354 86.4806ZM94.1229 82.5264C92.8148 82.5264 91.7536 81.4784 91.7536 80.1858C91.7536 78.8931 92.8148 77.8452 94.1229 77.8452C95.4311 77.8452 96.4922 78.8931 96.4922 80.1858C96.4922 81.4784 95.4311 82.5264 94.1229 82.5264ZM116.157 82.1291C116.145 82.1938 116.054 82.1909 116.044 82.1276C115.739 80.0994 114.987 77.8754 114.011 77.052C113.542 76.6547 110.701 73.4173 102.445 73.4173C94.1902 73.4173 91.3502 76.6562 90.8811 77.052C89.9047 77.8754 89.1534 80.0994 88.848 82.1276C88.8377 82.1924 88.7471 82.1938 88.7354 82.1291C88.5907 81.2726 88.3072 78.9579 89.0014 76.8534C90.1035 73.5123 96.7407 70.7068 102.445 70.7068C108.15 70.7068 114.787 73.5123 115.889 76.8534C116.583 78.9593 116.3 81.274 116.155 82.1291H116.157ZM115.853 55.2928C115.436 54.0131 115.058 52.8356 114.749 51.8482C114.333 51.3559 113.672 50.829 112.861 50.3108C113.377 49.9063 113.977 49.5191 114.547 49.3579C115.956 48.962 117.433 50.5483 118.507 51.7373C117.652 52.5794 116.708 53.8159 115.853 55.2928ZM125.91 73.0373L126.666 73.3122L126.03 75.0079C125.814 74.8295 125.58 74.6538 125.324 74.484L125.91 73.0359V73.0373Z" fill="#5D4639"/>
</g>
<mask id="path-29-outside-1_380_8140" maskUnits="userSpaceOnUse" x="27.0562" y="31.636" width="85" height="77" fill="black">
<rect fill="white" x="27.0562" y="31.636" width="85" height="77"/>
<path d="M46.5068 91.5H98.5068L94.0068 76L76.4235 70H45.0068L46.5068 91.5Z"/>
<path d="M57.007 38L50.507 70L72.507 66.5H90.507L88.507 45.5L76.1299 36L57.007 38Z"/>
<path d="M48.5068 34.5L41.5068 40L48.5068 49.5L51.0068 44.5L56.0068 40L55.0068 37.5L48.5068 34.5Z"/>
<path d="M90.0068 34.5L97.0068 40L90.0068 49.5L87.5068 44.5L82.5068 40L83.5068 37.5L90.0068 34.5Z"/>
<path d="M34.0068 76.5L34.5068 78L33.0068 78.5L32.0068 79L30.5068 75.5L32.5068 74.5L34.0068 76.5Z"/>
<path d="M48.948 51.6269L50.0068 55.6567L46.8304 57H45.7715C43.3172 54.2594 42.3521 52.5252 41.5362 48.9403L41.0068 39L48.948 51.6269Z"/>
<path d="M91.0657 51.6269L90.0068 55.6567L93.1833 57H94.2421C96.6965 54.2594 97.6615 52.5252 98.4774 48.9403L99.0068 39L91.0657 51.6269Z"/>
<path d="M106.007 76.5L105.507 78L107.007 78.5L108.007 79L109.507 75.5L107.507 74.5L106.007 76.5Z"/>
<path d="M50.0068 97.5L62.0068 101L60.0068 95.5L56.5068 91H50.0068V97.5Z"/>
<path d="M52.0068 89.8L65.0068 94L62.8402 87.4L59.0485 82H52.0068V89.8Z"/>
<path fill-rule="evenodd" clip-rule="evenodd" d="M110.264 74.0859L110.038 74.0038L110.12 73.7785C110.254 73.4194 110.069 73.0204 109.71 72.8866L108.769 72.5393C108.719 72.3421 108.588 72.1661 108.384 72.091L105.464 71.0138C105.396 70.9879 105.328 70.9762 105.26 70.9762C105.124 70.9762 104.99 71.0231 104.88 71.1029L103.938 70.7556C103.859 70.7274 103.779 70.7133 103.697 70.7133C103.415 70.7133 103.15 70.887 103.047 71.1663L102.964 71.3916L102.739 71.3095C102.619 71.2649 102.495 71.2438 102.375 71.2438C101.946 71.2438 101.545 71.5066 101.387 71.9338L100.599 74.0719C100.383 73.9569 100.167 73.8419 99.9674 73.7316C99.4722 70.7509 96.1606 60.4993 93.2151 51.3649C94.6397 48.5156 96.4915 45.4059 97.7401 44.0259C97.7401 44.0259 98.1719 46.8282 97.5242 51.569C99.7866 47.4736 100.218 44.1338 100.434 41.8713C100.65 39.6089 96.3389 36.4827 93.6446 34.0043C91.2084 31.7629 87.3641 33.4034 83.9422 36.4451C79.7575 34.3329 74.3501 32.636 70.0059 32.636C65.6616 32.636 60.2542 34.3329 56.0718 36.4428C52.65 33.4011 48.8056 31.7606 46.3694 34.0019C43.6751 36.4803 39.3661 39.6042 39.5796 41.869C39.7956 44.1315 40.2251 47.4736 42.4875 51.5667C41.8421 46.8258 42.2716 44.0235 42.2716 44.0235C43.5226 45.4059 45.372 48.5133 46.7966 51.3625C43.8511 60.4946 40.5396 70.7486 40.0443 73.7292C39.8425 73.8419 39.6289 73.9545 39.413 74.0695L38.6244 71.9314C38.4672 71.5066 38.0635 71.2414 37.6363 71.2414C37.5143 71.2414 37.3923 71.2625 37.2726 71.3071L37.0473 71.3893L36.9651 71.164C36.8618 70.8823 36.5966 70.711 36.3127 70.711C36.2329 70.711 36.1507 70.7251 36.0709 70.7532L35.1298 71.1006C35.0195 71.0208 34.888 70.9739 34.7496 70.9739C34.6815 70.9739 34.6134 70.9856 34.5454 71.0114L31.6257 72.0887C31.4216 72.1638 31.2878 72.3398 31.2408 72.5369L30.2997 72.8843C29.9406 73.0181 29.7575 73.4171 29.889 73.7761L29.9711 74.0015L29.7458 74.0836C29.2013 74.2854 28.9197 74.891 29.1215 75.4378L30.7433 79.829C30.2833 80.5777 30.119 81.3663 30.4194 82.2041C31.7126 85.7974 35.3058 95.8542 37.3148 99.0155C39.3262 102.177 47.2284 100.741 47.2284 100.741C49.6716 105.05 56.3511 107.636 70.0012 107.636C83.6512 107.636 90.333 105.05 92.7739 100.741C92.7739 100.741 100.676 102.177 102.688 99.0155C104.699 95.8542 108.292 85.7974 109.583 82.2041C109.886 81.3663 109.719 80.5777 109.259 79.829L110.878 75.4378C111.08 74.891 110.801 74.2854 110.254 74.0836L110.264 74.0859ZM32.3275 75.0881L33.2686 77.4492C32.8579 77.7261 32.4824 78.0124 32.135 78.3035L31.1141 75.5387L32.3275 75.0905V75.0881ZM56.9332 45.1008C58.1184 41.6531 62.7889 38.311 70.0082 38.311C77.2275 38.311 81.898 41.6507 83.0832 45.1008C84.1792 48.288 85.9935 56.7371 86.5567 62.9096C86.6178 63.5762 85.977 64.0949 85.3128 64.0104C84.4491 63.9024 83.163 63.7499 81.5976 63.5973C81.1845 61.8699 81.4568 59.354 82.1256 58.3753C82.2219 58.2345 82.1749 58.0514 82.0294 57.9646C78.6122 55.9274 72.3528 50.2008 70.4471 46.8868C70.2499 46.5442 69.7688 46.5442 69.5717 46.8868C67.6659 50.2008 61.4065 55.9274 57.9893 57.9646C57.8438 58.0514 57.7945 58.2345 57.8908 58.3753C58.5596 59.354 58.8295 61.8723 58.4188 63.5973C56.8534 63.7499 55.5649 63.9001 54.7036 64.0104C54.0394 64.0949 53.401 63.5738 53.462 62.9096C54.0253 56.7371 55.8395 48.288 56.9355 45.1008H56.9332ZM44.2173 40.3599C45.9423 38.4213 48.3127 35.8349 50.5752 36.4803C51.4906 36.7432 52.4552 37.3745 53.286 38.034C51.9834 38.8789 50.9226 39.7356 50.2537 40.5406C49.7585 42.153 49.1506 44.0705 48.4817 46.1569C47.1087 43.7489 45.5926 41.7352 44.2196 40.3599H44.2173ZM53.7718 97.0065C52.4223 97.0065 51.3286 95.9128 51.3286 94.5633C51.3286 93.2138 52.4223 92.1201 53.7718 92.1201C55.1213 92.1201 56.215 93.2138 56.215 94.5633C56.215 95.9128 55.1213 97.0065 53.7718 97.0065ZM56.6422 90.5594C54.5416 90.5594 52.8377 88.8508 52.8377 86.7432C52.8377 84.6356 54.5416 82.927 56.6422 82.927C58.7427 82.927 60.4466 84.6356 60.4466 86.7432C60.4466 88.8508 58.7427 90.5594 56.6422 90.5594ZM92.0228 89.9116C92.0041 90.0172 91.8586 90.0125 91.8421 89.9093C91.3516 86.6024 90.1453 82.9763 88.5775 81.6338C87.8241 80.9861 83.2616 75.7077 70.0059 75.7077C56.7501 75.7077 52.19 80.9884 51.4366 81.6338C49.8688 82.9763 48.6624 86.6024 48.1719 89.9093C48.1555 90.0149 48.01 90.0172 47.9912 89.9116C47.7589 88.5152 47.3035 84.7412 48.4184 81.3099C50.188 75.8626 60.8456 71.2884 70.0059 71.2884C79.1661 71.2884 89.8237 75.8626 91.5933 81.3099C92.7082 84.7436 92.2528 88.5175 92.0205 89.9116H92.0228ZM91.5347 46.1569C90.8658 44.0705 90.2579 42.1506 89.7627 40.5406C89.0938 39.7379 88.033 38.8789 86.7304 38.034C87.5589 37.3745 88.5235 36.7432 89.4388 36.4803C91.7013 35.8349 94.0718 38.4213 95.7968 40.3599C94.4238 41.7329 92.9077 43.7489 91.5347 46.1569ZM107.684 75.0881L108.898 75.5364L107.877 78.3011C107.529 78.0101 107.154 77.7238 106.743 77.4468L107.684 75.0858V75.0881Z"/>
</mask>
<path d="M46.5068 91.5H98.5068L94.0068 76L76.4235 70H45.0068L46.5068 91.5Z" fill="#C65427"/>
<path d="M57.007 38L50.507 70L72.507 66.5H90.507L88.507 45.5L76.1299 36L57.007 38Z" fill="#F68B32"/>
<path d="M48.5068 34.5L41.5068 40L48.5068 49.5L51.0068 44.5L56.0068 40L55.0068 37.5L48.5068 34.5Z" fill="#C65427"/>
<path d="M90.0068 34.5L97.0068 40L90.0068 49.5L87.5068 44.5L82.5068 40L83.5068 37.5L90.0068 34.5Z" fill="#C65427"/>
<path d="M34.0068 76.5L34.5068 78L33.0068 78.5L32.0068 79L30.5068 75.5L32.5068 74.5L34.0068 76.5Z" fill="#FEFEFE"/>
<path d="M48.948 51.6269L50.0068 55.6567L46.8304 57H45.7715C43.3172 54.2594 42.3521 52.5252 41.5362 48.9403L41.0068 39L48.948 51.6269Z" fill="#7E442E"/>
<path d="M91.0657 51.6269L90.0068 55.6567L93.1833 57H94.2421C96.6965 54.2594 97.6615 52.5252 98.4774 48.9403L99.0068 39L91.0657 51.6269Z" fill="#7E442E"/>
<path d="M106.007 76.5L105.507 78L107.007 78.5L108.007 79L109.507 75.5L107.507 74.5L106.007 76.5Z" fill="#FEFEFE"/>
<path d="M50.0068 97.5L62.0068 101L60.0068 95.5L56.5068 91H50.0068V97.5Z" fill="#CFFACB"/>
<path d="M52.0068 89.8L65.0068 94L62.8402 87.4L59.0485 82H52.0068V89.8Z" fill="#B2D234"/>
<path fill-rule="evenodd" clip-rule="evenodd" d="M110.264 74.0859L110.038 74.0038L110.12 73.7785C110.254 73.4194 110.069 73.0204 109.71 72.8866L108.769 72.5393C108.719 72.3421 108.588 72.1661 108.384 72.091L105.464 71.0138C105.396 70.9879 105.328 70.9762 105.26 70.9762C105.124 70.9762 104.99 71.0231 104.88 71.1029L103.938 70.7556C103.859 70.7274 103.779 70.7133 103.697 70.7133C103.415 70.7133 103.15 70.887 103.047 71.1663L102.964 71.3916L102.739 71.3095C102.619 71.2649 102.495 71.2438 102.375 71.2438C101.946 71.2438 101.545 71.5066 101.387 71.9338L100.599 74.0719C100.383 73.9569 100.167 73.8419 99.9674 73.7316C99.4722 70.7509 96.1606 60.4993 93.2151 51.3649C94.6397 48.5156 96.4915 45.4059 97.7401 44.0259C97.7401 44.0259 98.1719 46.8282 97.5242 51.569C99.7866 47.4736 100.218 44.1338 100.434 41.8713C100.65 39.6089 96.3389 36.4827 93.6446 34.0043C91.2084 31.7629 87.3641 33.4034 83.9422 36.4451C79.7575 34.3329 74.3501 32.636 70.0059 32.636C65.6616 32.636 60.2542 34.3329 56.0718 36.4428C52.65 33.4011 48.8056 31.7606 46.3694 34.0019C43.6751 36.4803 39.3661 39.6042 39.5796 41.869C39.7956 44.1315 40.2251 47.4736 42.4875 51.5667C41.8421 46.8258 42.2716 44.0235 42.2716 44.0235C43.5226 45.4059 45.372 48.5133 46.7966 51.3625C43.8511 60.4946 40.5396 70.7486 40.0443 73.7292C39.8425 73.8419 39.6289 73.9545 39.413 74.0695L38.6244 71.9314C38.4672 71.5066 38.0635 71.2414 37.6363 71.2414C37.5143 71.2414 37.3923 71.2625 37.2726 71.3071L37.0473 71.3893L36.9651 71.164C36.8618 70.8823 36.5966 70.711 36.3127 70.711C36.2329 70.711 36.1507 70.7251 36.0709 70.7532L35.1298 71.1006C35.0195 71.0208 34.888 70.9739 34.7496 70.9739C34.6815 70.9739 34.6134 70.9856 34.5454 71.0114L31.6257 72.0887C31.4216 72.1638 31.2878 72.3398 31.2408 72.5369L30.2997 72.8843C29.9406 73.0181 29.7575 73.4171 29.889 73.7761L29.9711 74.0015L29.7458 74.0836C29.2013 74.2854 28.9197 74.891 29.1215 75.4378L30.7433 79.829C30.2833 80.5777 30.119 81.3663 30.4194 82.2041C31.7126 85.7974 35.3058 95.8542 37.3148 99.0155C39.3262 102.177 47.2284 100.741 47.2284 100.741C49.6716 105.05 56.3511 107.636 70.0012 107.636C83.6512 107.636 90.333 105.05 92.7739 100.741C92.7739 100.741 100.676 102.177 102.688 99.0155C104.699 95.8542 108.292 85.7974 109.583 82.2041C109.886 81.3663 109.719 80.5777 109.259 79.829L110.878 75.4378C111.08 74.891 110.801 74.2854 110.254 74.0836L110.264 74.0859ZM32.3275 75.0881L33.2686 77.4492C32.8579 77.7261 32.4824 78.0124 32.135 78.3035L31.1141 75.5387L32.3275 75.0905V75.0881ZM56.9332 45.1008C58.1184 41.6531 62.7889 38.311 70.0082 38.311C77.2275 38.311 81.898 41.6507 83.0832 45.1008C84.1792 48.288 85.9935 56.7371 86.5567 62.9096C86.6178 63.5762 85.977 64.0949 85.3128 64.0104C84.4491 63.9024 83.163 63.7499 81.5976 63.5973C81.1845 61.8699 81.4568 59.354 82.1256 58.3753C82.2219 58.2345 82.1749 58.0514 82.0294 57.9646C78.6122 55.9274 72.3528 50.2008 70.4471 46.8868C70.2499 46.5442 69.7688 46.5442 69.5717 46.8868C67.6659 50.2008 61.4065 55.9274 57.9893 57.9646C57.8438 58.0514 57.7945 58.2345 57.8908 58.3753C58.5596 59.354 58.8295 61.8723 58.4188 63.5973C56.8534 63.7499 55.5649 63.9001 54.7036 64.0104C54.0394 64.0949 53.401 63.5738 53.462 62.9096C54.0253 56.7371 55.8395 48.288 56.9355 45.1008H56.9332ZM44.2173 40.3599C45.9423 38.4213 48.3127 35.8349 50.5752 36.4803C51.4906 36.7432 52.4552 37.3745 53.286 38.034C51.9834 38.8789 50.9226 39.7356 50.2537 40.5406C49.7585 42.153 49.1506 44.0705 48.4817 46.1569C47.1087 43.7489 45.5926 41.7352 44.2196 40.3599H44.2173ZM53.7718 97.0065C52.4223 97.0065 51.3286 95.9128 51.3286 94.5633C51.3286 93.2138 52.4223 92.1201 53.7718 92.1201C55.1213 92.1201 56.215 93.2138 56.215 94.5633C56.215 95.9128 55.1213 97.0065 53.7718 97.0065ZM56.6422 90.5594C54.5416 90.5594 52.8377 88.8508 52.8377 86.7432C52.8377 84.6356 54.5416 82.927 56.6422 82.927C58.7427 82.927 60.4466 84.6356 60.4466 86.7432C60.4466 88.8508 58.7427 90.5594 56.6422 90.5594ZM92.0228 89.9116C92.0041 90.0172 91.8586 90.0125 91.8421 89.9093C91.3516 86.6024 90.1453 82.9763 88.5775 81.6338C87.8241 80.9861 83.2616 75.7077 70.0059 75.7077C56.7501 75.7077 52.19 80.9884 51.4366 81.6338C49.8688 82.9763 48.6624 86.6024 48.1719 89.9093C48.1555 90.0149 48.01 90.0172 47.9912 89.9116C47.7589 88.5152 47.3035 84.7412 48.4184 81.3099C50.188 75.8626 60.8456 71.2884 70.0059 71.2884C79.1661 71.2884 89.8237 75.8626 91.5933 81.3099C92.7082 84.7436 92.2528 88.5175 92.0205 89.9116H92.0228ZM91.5347 46.1569C90.8658 44.0705 90.2579 42.1506 89.7627 40.5406C89.0938 39.7379 88.033 38.8789 86.7304 38.034C87.5589 37.3745 88.5235 36.7432 89.4388 36.4803C91.7013 35.8349 94.0718 38.4213 95.7968 40.3599C94.4238 41.7329 92.9077 43.7489 91.5347 46.1569ZM107.684 75.0881L108.898 75.5364L107.877 78.3011C107.529 78.0101 107.154 77.7238 106.743 77.4468L107.684 75.0858V75.0881Z" fill="#7E442E"/>
<path d="M46.5068 91.5H98.5068L94.0068 76L76.4235 70H45.0068L46.5068 91.5Z" stroke="#E2EEB3" stroke-width="2" stroke-linejoin="round" mask="url(#path-29-outside-1_380_8140)"/>
<path d="M57.007 38L50.507 70L72.507 66.5H90.507L88.507 45.5L76.1299 36L57.007 38Z" stroke="#E2EEB3" stroke-width="2" stroke-linejoin="round" mask="url(#path-29-outside-1_380_8140)"/>
<path d="M48.5068 34.5L41.5068 40L48.5068 49.5L51.0068 44.5L56.0068 40L55.0068 37.5L48.5068 34.5Z" stroke="#E2EEB3" stroke-width="2" stroke-linejoin="round" mask="url(#path-29-outside-1_380_8140)"/>
<path d="M90.0068 34.5L97.0068 40L90.0068 49.5L87.5068 44.5L82.5068 40L83.5068 37.5L90.0068 34.5Z" stroke="#E2EEB3" stroke-width="2" stroke-linejoin="round" mask="url(#path-29-outside-1_380_8140)"/>
<path d="M34.0068 76.5L34.5068 78L33.0068 78.5L32.0068 79L30.5068 75.5L32.5068 74.5L34.0068 76.5Z" stroke="#E2EEB3" stroke-width="2" stroke-linejoin="round" mask="url(#path-29-outside-1_380_8140)"/>
<path d="M48.948 51.6269L50.0068 55.6567L46.8304 57H45.7715C43.3172 54.2594 42.3521 52.5252 41.5362 48.9403L41.0068 39L48.948 51.6269Z" stroke="#E2EEB3" stroke-width="2" stroke-linejoin="round" mask="url(#path-29-outside-1_380_8140)"/>
<path d="M91.0657 51.6269L90.0068 55.6567L93.1833 57H94.2421C96.6965 54.2594 97.6615 52.5252 98.4774 48.9403L99.0068 39L91.0657 51.6269Z" stroke="#E2EEB3" stroke-width="2" stroke-linejoin="round" mask="url(#path-29-outside-1_380_8140)"/>
<path d="M106.007 76.5L105.507 78L107.007 78.5L108.007 79L109.507 75.5L107.507 74.5L106.007 76.5Z" stroke="#E2EEB3" stroke-width="2" stroke-linejoin="round" mask="url(#path-29-outside-1_380_8140)"/>
<path d="M50.0068 97.5L62.0068 101L60.0068 95.5L56.5068 91H50.0068V97.5Z" stroke="#E2EEB3" stroke-width="2" stroke-linejoin="round" mask="url(#path-29-outside-1_380_8140)"/>
<path d="M52.0068 89.8L65.0068 94L62.8402 87.4L59.0485 82H52.0068V89.8Z" stroke="#E2EEB3" stroke-width="2" stroke-linejoin="round" mask="url(#path-29-outside-1_380_8140)"/>
<path fill-rule="evenodd" clip-rule="evenodd" d="M110.264 74.0859L110.038 74.0038L110.12 73.7785C110.254 73.4194 110.069 73.0204 109.71 72.8866L108.769 72.5393C108.719 72.3421 108.588 72.1661 108.384 72.091L105.464 71.0138C105.396 70.9879 105.328 70.9762 105.26 70.9762C105.124 70.9762 104.99 71.0231 104.88 71.1029L103.938 70.7556C103.859 70.7274 103.779 70.7133 103.697 70.7133C103.415 70.7133 103.15 70.887 103.047 71.1663L102.964 71.3916L102.739 71.3095C102.619 71.2649 102.495 71.2438 102.375 71.2438C101.946 71.2438 101.545 71.5066 101.387 71.9338L100.599 74.0719C100.383 73.9569 100.167 73.8419 99.9674 73.7316C99.4722 70.7509 96.1606 60.4993 93.2151 51.3649C94.6397 48.5156 96.4915 45.4059 97.7401 44.0259C97.7401 44.0259 98.1719 46.8282 97.5242 51.569C99.7866 47.4736 100.218 44.1338 100.434 41.8713C100.65 39.6089 96.3389 36.4827 93.6446 34.0043C91.2084 31.7629 87.3641 33.4034 83.9422 36.4451C79.7575 34.3329 74.3501 32.636 70.0059 32.636C65.6616 32.636 60.2542 34.3329 56.0718 36.4428C52.65 33.4011 48.8056 31.7606 46.3694 34.0019C43.6751 36.4803 39.3661 39.6042 39.5796 41.869C39.7956 44.1315 40.2251 47.4736 42.4875 51.5667C41.8421 46.8258 42.2716 44.0235 42.2716 44.0235C43.5226 45.4059 45.372 48.5133 46.7966 51.3625C43.8511 60.4946 40.5396 70.7486 40.0443 73.7292C39.8425 73.8419 39.6289 73.9545 39.413 74.0695L38.6244 71.9314C38.4672 71.5066 38.0635 71.2414 37.6363 71.2414C37.5143 71.2414 37.3923 71.2625 37.2726 71.3071L37.0473 71.3893L36.9651 71.164C36.8618 70.8823 36.5966 70.711 36.3127 70.711C36.2329 70.711 36.1507 70.7251 36.0709 70.7532L35.1298 71.1006C35.0195 71.0208 34.888 70.9739 34.7496 70.9739C34.6815 70.9739 34.6134 70.9856 34.5454 71.0114L31.6257 72.0887C31.4216 72.1638 31.2878 72.3398 31.2408 72.5369L30.2997 72.8843C29.9406 73.0181 29.7575 73.4171 29.889 73.7761L29.9711 74.0015L29.7458 74.0836C29.2013 74.2854 28.9197 74.891 29.1215 75.4378L30.7433 79.829C30.2833 80.5777 30.119 81.3663 30.4194 82.2041C31.7126 85.7974 35.3058 95.8542 37.3148 99.0155C39.3262 102.177 47.2284 100.741 47.2284 100.741C49.6716 105.05 56.3511 107.636 70.0012 107.636C83.6512 107.636 90.333 105.05 92.7739 100.741C92.7739 100.741 100.676 102.177 102.688 99.0155C104.699 95.8542 108.292 85.7974 109.583 82.2041C109.886 81.3663 109.719 80.5777 109.259 79.829L110.878 75.4378C111.08 74.891 110.801 74.2854 110.254 74.0836L110.264 74.0859ZM32.3275 75.0881L33.2686 77.4492C32.8579 77.7261 32.4824 78.0124 32.135 78.3035L31.1141 75.5387L32.3275 75.0905V75.0881ZM56.9332 45.1008C58.1184 41.6531 62.7889 38.311 70.0082 38.311C77.2275 38.311 81.898 41.6507 83.0832 45.1008C84.1792 48.288 85.9935 56.7371 86.5567 62.9096C86.6178 63.5762 85.977 64.0949 85.3128 64.0104C84.4491 63.9024 83.163 63.7499 81.5976 63.5973C81.1845 61.8699 81.4568 59.354 82.1256 58.3753C82.2219 58.2345 82.1749 58.0514 82.0294 57.9646C78.6122 55.9274 72.3528 50.2008 70.4471 46.8868C70.2499 46.5442 69.7688 46.5442 69.5717 46.8868C67.6659 50.2008 61.4065 55.9274 57.9893 57.9646C57.8438 58.0514 57.7945 58.2345 57.8908 58.3753C58.5596 59.354 58.8295 61.8723 58.4188 63.5973C56.8534 63.7499 55.5649 63.9001 54.7036 64.0104C54.0394 64.0949 53.401 63.5738 53.462 62.9096C54.0253 56.7371 55.8395 48.288 56.9355 45.1008H56.9332ZM44.2173 40.3599C45.9423 38.4213 48.3127 35.8349 50.5752 36.4803C51.4906 36.7432 52.4552 37.3745 53.286 38.034C51.9834 38.8789 50.9226 39.7356 50.2537 40.5406C49.7585 42.153 49.1506 44.0705 48.4817 46.1569C47.1087 43.7489 45.5926 41.7352 44.2196 40.3599H44.2173ZM53.7718 97.0065C52.4223 97.0065 51.3286 95.9128 51.3286 94.5633C51.3286 93.2138 52.4223 92.1201 53.7718 92.1201C55.1213 92.1201 56.215 93.2138 56.215 94.5633C56.215 95.9128 55.1213 97.0065 53.7718 97.0065ZM56.6422 90.5594C54.5416 90.5594 52.8377 88.8508 52.8377 86.7432C52.8377 84.6356 54.5416 82.927 56.6422 82.927C58.7427 82.927 60.4466 84.6356 60.4466 86.7432C60.4466 88.8508 58.7427 90.5594 56.6422 90.5594ZM92.0228 89.9116C92.0041 90.0172 91.8586 90.0125 91.8421 89.9093C91.3516 86.6024 90.1453 82.9763 88.5775 81.6338C87.8241 80.9861 83.2616 75.7077 70.0059 75.7077C56.7501 75.7077 52.19 80.9884 51.4366 81.6338C49.8688 82.9763 48.6624 86.6024 48.1719 89.9093C48.1555 90.0149 48.01 90.0172 47.9912 89.9116C47.7589 88.5152 47.3035 84.7412 48.4184 81.3099C50.188 75.8626 60.8456 71.2884 70.0059 71.2884C79.1661 71.2884 89.8237 75.8626 91.5933 81.3099C92.7082 84.7436 92.2528 88.5175 92.0205 89.9116H92.0228ZM91.5347 46.1569C90.8658 44.0705 90.2579 42.1506 89.7627 40.5406C89.0938 39.7379 88.033 38.8789 86.7304 38.034C87.5589 37.3745 88.5235 36.7432 89.4388 36.4803C91.7013 35.8349 94.0718 38.4213 95.7968 40.3599C94.4238 41.7329 92.9077 43.7489 91.5347 46.1569ZM107.684 75.0881L108.898 75.5364L107.877 78.3011C107.529 78.0101 107.154 77.7238 106.743 77.4468L107.684 75.0858V75.0881Z" stroke="#E2EEB3" stroke-width="2" stroke-linejoin="round" mask="url(#path-29-outside-1_380_8140)"/>
<defs>
<clipPath id="clip0_380_8140">
<rect width="51" height="46" fill="white" transform="translate(13 47)"/>
</clipPath>
<clipPath id="clip1_380_8140">
<rect width="51" height="46" fill="white" transform="translate(76.9463 47)"/>
</clipPath>
</defs>
</svg>
