<svg width="61" height="61" viewBox="0 0 61 61" fill="none" xmlns="http://www.w3.org/2000/svg">
<g clip-path="url(#clip0_484_2814)">
<path d="M30.515 10.8735C23.84 10.8735 17.17 12.8335 11.4025 16.756H0.5L5.4075 22.0935C3.17151 24.1307 1.60404 26.7966 0.911001 29.741C0.217959 32.6854 0.431764 35.7706 1.52433 38.5912C2.61689 41.4119 4.53711 43.8361 7.03273 45.5454C9.52835 47.2547 12.4826 48.1691 15.5075 48.1685C19.287 48.1718 22.9274 46.7425 25.695 44.1685L30.5 49.3985L35.305 44.1735C38.071 46.7448 41.7085 48.1723 45.485 48.1685C49.4624 48.1685 53.2769 46.5889 56.0898 43.7769C58.9027 40.9649 60.4837 37.1509 60.485 33.1735C60.4873 31.0876 60.0532 29.0243 59.2107 27.1161C58.3681 25.2079 57.1356 23.4971 55.5925 22.0935L60.5 16.756H49.625C43.9904 12.9203 37.3312 10.8705 30.515 10.8735ZM30.5 15.7735C34.3275 15.7735 38.1575 16.531 41.76 18.031C35.3575 20.481 30.5 26.211 30.5 32.886C30.5 26.2085 25.645 20.481 19.24 18.031C22.8078 16.544 26.6347 15.7751 30.5 15.7735ZM15.505 23.0285C16.8376 23.0285 18.1571 23.291 19.3883 23.801C20.6194 24.3109 21.7381 25.0584 22.6804 26.0007C23.6226 26.943 24.3701 28.0616 24.8801 29.2928C25.39 30.5239 25.6525 31.8434 25.6525 33.176C25.6525 34.5086 25.39 35.8282 24.8801 37.0593C24.3701 38.2905 23.6226 39.4091 22.6804 40.3514C21.7381 41.2937 20.6194 42.0411 19.3883 42.5511C18.1571 43.0611 16.8376 43.3235 15.505 43.3235C12.8137 43.3235 10.2327 42.2544 8.32963 40.3514C6.42661 38.4484 5.3575 35.8673 5.3575 33.176C5.3575 30.4848 6.42661 27.9037 8.32963 26.0007C10.2327 24.0976 12.8137 23.0285 15.505 23.0285ZM45.485 23.0335C46.8171 23.033 48.1362 23.2949 49.3671 23.8043C50.598 24.3136 51.7165 25.0603 52.6588 26.0019C53.6011 26.9435 54.3487 28.0615 54.8589 29.292C55.3691 30.5225 55.632 31.8414 55.6325 33.1735C55.633 34.5056 55.3711 35.8248 54.8618 37.0557C54.3525 38.2866 53.6057 39.4051 52.6641 40.3474C51.7225 41.2896 50.6046 42.0372 49.3741 42.5475C48.1436 43.0577 46.8246 43.3205 45.4925 43.321C42.8022 43.322 40.2217 42.2543 38.3187 40.3527C36.4157 38.451 35.346 35.8713 35.345 33.181C35.344 30.4907 36.4118 27.9102 38.3134 26.0072C40.215 24.1042 42.7947 23.0345 45.485 23.0335ZM15.505 27.8585C14.094 27.8585 12.7409 28.419 11.7432 29.4167C10.7455 30.4144 10.185 31.7676 10.185 33.1785C10.185 34.5895 10.7455 35.9427 11.7432 36.9403C12.7409 37.938 14.094 38.4985 15.505 38.4985C16.916 38.4985 18.2691 37.938 19.2668 36.9403C20.2645 35.9427 20.825 34.5895 20.825 33.1785C20.825 31.7676 20.2645 30.4144 19.2668 29.4167C18.2691 28.419 16.916 27.8585 15.505 27.8585ZM45.485 27.8585C44.074 27.8585 42.7209 28.419 41.7232 29.4167C40.7255 30.4144 40.165 31.7676 40.165 33.1785C40.165 34.5895 40.7255 35.9427 41.7232 36.9403C42.7209 37.938 44.074 38.4985 45.485 38.4985C46.896 38.4985 48.2491 37.938 49.2468 36.9403C50.2445 35.9427 50.805 34.5895 50.805 33.1785C50.805 31.7676 50.2445 30.4144 49.2468 29.4167C48.2491 28.419 46.896 27.8585 45.485 27.8585Z" fill="#FAF5ED"/>
</g>
<defs>
<clipPath id="clip0_484_2814">
<rect width="60" height="60" fill="white" transform="translate(0.5 0.135986)"/>
</clipPath>
</defs>
</svg>
