<svg width="28" height="23" viewBox="0 0 28 23" fill="none" xmlns="http://www.w3.org/2000/svg">
<path d="M27.8844 2.87975C26.8746 3.30928 25.7934 3.59617 24.6588 3.71288C25.8226 3.0386 26.7254 1.95586 27.1631 0.655924C26.0722 1.2832 24.8696 1.73056 23.5923 1.96072C22.589 0.860153 21.1448 0.159939 19.5353 0.135626C16.4475 0.0902418 13.9093 2.5572 13.8639 5.64495C13.8574 6.0842 13.8995 6.51049 13.9903 6.92219C9.34653 6.62233 5.25871 4.33691 2.55024 0.913641C2.0575 1.73218 1.76736 2.69011 1.75278 3.71288C1.72522 5.65305 2.68639 7.37927 4.17273 8.40366C3.25694 8.36152 2.39788 8.09732 1.65066 7.66779C1.65066 7.69048 1.65066 7.71479 1.64904 7.73748C1.61014 10.4476 3.50493 12.7346 6.05455 13.2841C5.5845 13.4056 5.09014 13.4656 4.57956 13.4575C4.21973 13.4527 3.87125 13.4121 3.52924 13.3424C4.20839 15.5744 6.25068 17.2212 8.69656 17.3006C6.76125 18.7723 4.33806 19.6314 1.71712 19.5941C1.26652 19.5876 0.820778 19.5536 0.384766 19.4969C2.83551 21.1193 5.76118 22.087 8.91862 22.1324C19.203 22.2815 24.9506 13.8449 25.0592 6.45538C25.0624 6.21225 25.0592 5.97074 25.0527 5.73247C26.1581 4.95932 27.1193 3.98842 27.886 2.87813L27.8844 2.87975Z" fill="#FEFEFE"/>
</svg>
