<svg width="69" height="69" viewBox="0 0 69 69" fill="none" xmlns="http://www.w3.org/2000/svg">
<g filter="url(#filter0_d_607_3044)">
<path d="M29.1233 10.7163C26.3214 10.9835 24.0005 11.6095 21.756 12.7166C19.7481 13.7014 18.2212 14.7855 16.618 16.343C14.8467 18.0684 13.7397 19.5724 12.6633 21.6948C10.6477 25.6953 10.037 29.9477 10.8462 34.3757C11.8082 39.6512 14.9231 44.354 19.4656 47.362C20.084 47.7743 20.3589 47.9346 21.4888 48.5454C22.1072 48.8813 23.6494 49.5074 24.5426 49.7822C26.4054 50.3548 28.0621 50.6449 29.9249 50.7212C33.078 50.8434 36.8647 49.9578 39.8117 48.4003C46.4003 44.9343 50.5 38.1548 50.5 30.7417C50.5 25.6953 48.6448 20.8779 45.2856 17.198C44.6825 16.5415 44.4687 16.404 44.4687 16.6941C44.4687 17.0988 43.9877 17.6256 43.4915 17.763C42.8349 17.9386 41.9417 17.8241 40.2316 17.3431C39.6895 17.1904 38.9948 17.0453 38.697 17.0224C38.1702 16.9766 38.1626 16.9843 37.9565 17.2209C37.6969 17.5263 37.6893 17.8622 37.903 19.0227C38.216 20.7481 37.7885 21.481 36.1853 21.9314C35.7195 22.0688 34.1316 22.2673 33.5284 22.2673C32.9864 22.2673 32.8108 22.3513 32.6657 22.6949C32.5436 22.985 32.5741 23.214 32.8032 23.6645C32.8871 23.8324 32.9406 23.9698 32.9253 23.9775C32.8948 24.008 31.9328 24.2218 31.3984 24.3287C31.1541 24.3745 30.9251 24.3974 30.8869 24.3745C30.78 24.3058 30.5739 23.6416 30.5739 23.3514C30.5739 23.2064 30.6426 22.9697 30.7342 22.8323C30.9251 22.5193 30.78 22.4658 30.5128 22.7407C30.2227 23.0613 30.1769 23.3056 30.3143 23.8248C30.5052 24.5424 30.5128 24.5195 30.0395 24.5424C29.6501 24.5653 29.5967 24.5424 29.3905 24.3287C29.2073 24.1378 29.1157 24.0996 28.8027 24.0996C28.337 24.0996 28.2911 24.0004 28.5126 23.4507C29.0775 22.0688 30.0166 21.5192 32.3451 21.2443C33.6201 21.084 34.7042 20.8321 35.1546 20.5801C35.3378 20.4809 35.5898 20.2671 35.7195 20.1068L35.9562 19.809L35.9639 18.2211V16.6331L36.2158 16.1292C36.651 15.2436 37.0327 15.0527 38.8955 14.7473C40.9874 14.4038 41.5905 14.1137 41.1248 13.6938C40.9187 13.5029 40.7354 13.5258 39.1016 13.9457C36.6357 14.5717 35.9257 14.9229 35.5134 15.7093C35.292 16.1216 35.292 16.1292 35.3378 17.1522C35.3607 17.7172 35.3989 18.5341 35.4294 18.9616L35.4829 19.748L35.147 20.0762C34.9027 20.3129 34.6813 20.4427 34.353 20.5419C34.101 20.6183 33.7956 20.7099 33.6735 20.7481C33.5513 20.7862 33.4368 20.8015 33.4216 20.7939C33.4139 20.7786 33.5742 20.6412 33.7804 20.4809C34.0858 20.2442 34.1774 20.122 34.269 19.7861C34.4293 19.2441 34.4217 19.0608 34.1926 17.6866C34.0476 16.7781 34.0018 16.3124 34.0247 15.6635C34.0705 14.2511 34.3453 13.8694 36.1318 12.7013C36.7731 12.2814 37.277 11.9149 37.2388 11.8844C37.1625 11.8157 36.1776 11.495 35.3836 11.2813C33.6811 10.8232 30.7495 10.556 29.1233 10.7163ZM33.0322 24.8631C33.2002 25.1379 33.5437 25.5807 33.8109 25.8556C34.0705 26.1304 34.4217 26.558 34.582 26.8099C35.4142 28.1154 37.6816 30.8028 38.6817 31.6731C39.6819 32.5434 39.4223 32.1312 37.5976 29.9401C36.796 28.9705 35.9715 27.9245 35.773 27.6115C35.1164 26.6038 34.9179 26.3595 34.3682 25.8937C33.7498 25.3593 33.3986 24.9165 33.3986 24.657C33.3986 24.5653 33.4139 24.4814 33.4368 24.4814C33.5895 24.4814 34.0247 24.9089 35.063 26.077C37.9565 29.3369 39.2772 30.6195 41.2317 32.0777C42.4074 32.9557 42.8655 33.429 42.8655 33.7649C42.8655 34.0016 42.6441 34.1314 41.9112 34.3375C41.5752 34.4292 41.0637 34.5971 40.766 34.7116C39.4299 35.2384 38.3993 35.2919 33.2841 35.1086C29.1615 34.9559 28.0621 35.1086 29.2989 35.6583C29.5203 35.7499 29.9402 35.9103 30.2303 36.0095C31.0778 36.2843 31.7649 36.6813 31.6351 36.8111C31.4137 37.0325 22.0385 37.1318 19.4275 36.9409C16.534 36.7271 15.0147 36.4599 14.6024 36.0935L14.381 35.895L14.7093 35.582C14.8925 35.4064 15.8621 34.7727 16.8699 34.1772C21.0383 31.6884 22.5423 30.4668 24.8327 27.726C26.2527 26.0235 27.4666 24.7486 27.5888 24.8249C27.7491 24.9242 27.6651 25.1837 27.3292 25.6571C26.9704 26.161 26.9246 26.2984 27.0696 26.4434C27.1307 26.5045 27.0544 26.7412 26.7719 27.3367C26.1993 28.5353 24.6266 31.2456 24.0311 32.0624C23.6646 32.5663 23.7562 32.5892 24.1685 32.1006C25.2908 30.7722 26.7184 28.6574 27.1841 27.6421C27.3368 27.2985 27.6193 26.8939 27.9323 26.5427C28.2072 26.2373 28.4438 25.9014 28.4667 25.7869C28.4896 25.68 28.5278 25.4433 28.5507 25.2677C28.6194 24.8096 28.8561 24.5348 29.1157 24.5959C29.2226 24.6264 29.3676 24.6951 29.4363 24.7562C29.5203 24.8326 29.7493 24.8631 30.215 24.8631C30.9709 24.8631 30.9861 24.8784 30.7495 25.4815C30.6426 25.7792 30.6273 26.161 30.6426 28.5658C30.6579 30.0775 30.6884 31.3448 30.7113 31.3906C30.8105 31.5433 30.864 30.6577 30.8716 28.7109C30.8793 26.8481 30.8945 26.6648 31.0625 26.0006C31.3831 24.7791 31.4289 24.6722 31.6503 24.6493C31.7878 24.6341 31.8641 24.6646 31.8946 24.7638C32.2458 25.9777 32.3756 26.3366 32.6428 26.871C32.8184 27.2145 33.1772 27.8406 33.4368 28.2605C33.6964 28.6804 34.0247 29.2224 34.1545 29.4591C34.4293 29.9401 34.6202 30.1462 34.6202 29.9553C34.6202 29.795 34.1087 28.833 33.6124 28.0467C33.0627 27.1916 32.7573 26.4434 32.513 25.3899C32.368 24.7257 32.3451 24.5195 32.4138 24.4356C32.5741 24.2447 32.7192 24.3516 33.0322 24.8631ZM44.4 33.3832C45.0795 33.8413 45.4688 34.1848 45.5986 34.4521C45.7055 34.6887 45.7055 34.7193 45.5757 34.8643C45.3467 35.1239 44.8504 35.3071 43.9343 35.4751C43.4533 35.5667 42.5372 35.7728 41.9035 35.9408C40.85 36.208 38.9413 36.4599 38.8268 36.3531C38.8115 36.3302 38.8573 36.3149 38.9261 36.3149C39.1933 36.3149 41.0179 35.8415 41.8348 35.5591C42.3005 35.3987 42.9876 35.2079 43.3617 35.1315C43.9419 35.0094 44.087 34.9483 44.3008 34.7345C44.5222 34.5208 44.5527 34.4521 44.5069 34.2383C44.4458 33.9634 44.1786 33.5054 43.9801 33.3451C43.8503 33.2305 43.8198 33.1084 43.9267 33.1084C43.9648 33.1084 44.1786 33.2305 44.4 33.3832ZM36.5593 37.5517C37.3152 37.88 37.8725 38.2846 37.8114 38.4678C37.7045 38.8037 36.1013 39.2923 34.6202 39.4527C33.7804 39.5367 33.4903 39.529 30.9403 39.2847C29.9249 39.1931 28.734 39.1397 27.6346 39.1397C25.7947 39.1397 22.7332 38.9335 20.9162 38.6816C20.0077 38.5594 19.9466 38.5442 20.4963 38.5747C20.8551 38.59 21.4353 38.6434 21.7942 38.6816C23.7181 38.8877 25.2755 38.9335 27.1383 38.8419C28.169 38.7885 30.1921 38.7579 31.6427 38.7732C34.414 38.7961 34.7958 38.7656 35.6661 38.4373C35.8875 38.3533 36.1318 38.2082 36.1929 38.109C36.2998 37.941 36.2998 37.9105 36.1394 37.6967C36.0478 37.5669 35.9028 37.4448 35.8264 37.4143C35.6966 37.3761 35.6279 37.231 35.7425 37.231C35.773 37.231 36.1394 37.3761 36.5593 37.5517Z" fill="#FEFEFE"/>
</g>
<defs>
<filter id="filter0_d_607_3044" x="0.5" y="0.669434" width="68" height="68.063" filterUnits="userSpaceOnUse" color-interpolation-filters="sRGB">
<feFlood flood-opacity="0" result="BackgroundImageFix"/>
<feColorMatrix in="SourceAlpha" type="matrix" values="0 0 0 0 0 0 0 0 0 0 0 0 0 0 0 0 0 0 127 0" result="hardAlpha"/>
<feOffset dx="4" dy="4"/>
<feGaussianBlur stdDeviation="7"/>
<feComposite in2="hardAlpha" operator="out"/>
<feColorMatrix type="matrix" values="0 0 0 0 0 0 0 0 0 0 0 0 0 0 0 0 0 0 0.11 0"/>
<feBlend mode="normal" in2="BackgroundImageFix" result="effect1_dropShadow_607_3044"/>
<feBlend mode="normal" in="SourceGraphic" in2="effect1_dropShadow_607_3044" result="shape"/>
</filter>
</defs>
</svg>
