<svg width="18" height="18" viewBox="0 0 18 18" fill="none" xmlns="http://www.w3.org/2000/svg">
<path d="M9 0.198486C7.33122 0.198486 5.69992 0.693337 4.31238 1.62046C2.92484 2.54759 1.84338 3.86534 1.20477 5.40709C0.566156 6.94885 0.399065 8.64535 0.724628 10.2821C1.05019 11.9188 1.85379 13.4222 3.03379 14.6022C4.2138 15.7822 5.71721 16.5858 7.35393 16.9114C8.99064 17.2369 10.6871 17.0698 12.2289 16.4312C13.7706 15.7926 15.0884 14.7112 16.0155 13.3236C16.9427 11.9361 17.4375 10.3048 17.4375 8.63599C17.435 6.39898 16.5453 4.25431 14.9635 2.67251C13.3817 1.09071 11.237 0.200968 9 0.198486ZM9 15.1985C7.70206 15.1985 6.43327 14.8136 5.35407 14.0925C4.27488 13.3714 3.43374 12.3465 2.93704 11.1473C2.44034 9.94821 2.31038 8.62871 2.5636 7.35571C2.81682 6.08271 3.44183 4.91338 4.35962 3.9956C5.2774 3.07782 6.44672 2.4528 7.71972 2.19958C8.99272 1.94637 10.3122 2.07633 11.5114 2.57303C12.7105 3.06973 13.7354 3.91086 14.4565 4.99006C15.1776 6.06925 15.5625 7.33805 15.5625 8.63599C15.5606 10.3759 14.8686 12.044 13.6383 13.2743C12.408 14.5046 10.7399 15.1966 9 15.1985ZM14.3125 8.63599C14.3125 8.88463 14.2137 9.12308 14.0379 9.2989C13.8621 9.47471 13.6236 9.57349 13.375 9.57349H9C8.75136 9.57349 8.51291 9.47471 8.33709 9.2989C8.16128 9.12308 8.0625 8.88463 8.0625 8.63599V4.26099C8.0625 4.01235 8.16128 3.77389 8.33709 3.59807C8.51291 3.42226 8.75136 3.32349 9 3.32349C9.24864 3.32349 9.4871 3.42226 9.66292 3.59807C9.83873 3.77389 9.9375 4.01235 9.9375 4.26099V7.69849H13.375C13.6236 7.69849 13.8621 7.79726 14.0379 7.97307C14.2137 8.14889 14.3125 8.38735 14.3125 8.63599Z" fill="#322E2C"/>
</svg>
