<svg width="69" height="69" viewBox="0 0 69 69" fill="none" xmlns="http://www.w3.org/2000/svg">
<g filter="url(#filter0_d_607_3072)">
<path d="M28.6264 10.7215C21.6938 11.4239 15.7461 15.5086 12.631 21.7007C9.01966 28.8623 10.0657 37.5739 15.2575 43.5903C18.2428 47.0566 21.9534 49.2783 26.3359 50.2251C30.2985 51.0802 34.5206 50.6756 38.3534 49.0722C40.9569 47.9804 43.7285 45.9724 45.5685 43.8498C50.0884 38.6199 51.6078 31.672 49.6838 24.9913C49.1875 23.2506 48.7065 22.1664 47.5918 20.2958C45.6219 16.9898 42.8657 14.4779 39.2391 12.699C37.2845 11.7369 35.475 11.172 33.2456 10.8284C32.2912 10.6833 29.6189 10.6146 28.6264 10.7215ZM32.4821 12.5081C35.078 12.8135 37.399 13.5541 39.4834 14.7528C40.5447 15.3636 41.5067 16.0431 41.4685 16.1576C41.4532 16.2111 41.186 16.3409 40.873 16.4554C40.392 16.631 40.2316 16.7379 39.8117 17.1807C39.5368 17.4632 39.1398 17.7915 38.9337 17.906C38.7199 18.0206 38.4298 18.2191 38.2847 18.3412L38.0175 18.5703L36.9486 18.3794C35.9407 18.2038 35.8568 18.1962 35.4597 18.3031C35.2307 18.3718 34.6122 18.4558 34.0854 18.4939C33.0776 18.5779 32.2378 18.7917 30.9932 19.3033C30.6573 19.4407 30.1916 19.5934 29.9625 19.6468C29.3823 19.7766 29.3212 19.7995 29.367 19.8377C29.3899 19.8606 29.5808 19.8377 29.7945 19.7843C30.016 19.7385 30.2068 19.7155 30.2297 19.7385C30.2526 19.7614 30.1305 20.0744 29.9625 20.4332C29.6724 21.0746 29.5121 21.2502 29.2143 21.2502C29.0234 21.2502 28.7867 21.5174 28.5806 21.9755C28.3286 22.5405 28.3592 23.0368 28.7027 23.9606C28.8631 24.3805 29.0081 24.8386 29.0234 24.9684C29.0463 25.1059 28.9929 25.7243 28.9012 26.3427C28.6951 27.8163 28.6111 28.8776 28.5958 30.3664C28.5806 31.3208 28.5271 31.8858 28.3439 32.9623C28.1454 34.1686 28.1072 34.6267 28.0538 36.5584C28.0156 37.7724 27.9545 38.91 27.9087 39.078C27.7942 39.5361 27.4735 41.8571 27.2903 43.5444C27.2063 44.3614 27.1147 45.1402 27.0917 45.27C27.0612 45.4532 27.0917 45.5601 27.2521 45.7433C27.3666 45.8808 27.4811 46.0793 27.5117 46.1938C27.5728 46.4305 27.7713 46.5068 27.9392 46.3694C28.0767 46.2549 28.1072 45.9189 28.2446 42.9718C28.3668 40.2538 28.405 39.9789 29.031 37.3219C29.5655 35.0848 29.6037 34.7794 29.6113 33.2372C29.6189 32.4584 29.6037 31.359 29.5808 30.794L29.5426 29.7632L30.1381 27.969C30.726 26.2282 30.7413 26.1442 30.8482 24.9913C30.9093 24.3424 30.9856 23.4491 31.0314 23.0062C31.0849 22.3649 31.1994 21.8992 31.5811 20.6928L32.0621 19.1887L32.4668 19.0666C32.9249 18.9291 33.0929 18.9597 33.0471 19.1658C33.0318 19.2422 32.9325 20.3187 32.8333 21.5632C32.6653 23.5789 32.6195 23.8919 32.4134 24.5409C32.2836 24.9303 32.0011 25.8617 31.7797 26.5947C31.4361 27.7705 31.3903 28.0301 31.3597 28.8089C31.3368 29.3433 31.2834 29.7327 31.2299 29.8014C31.0314 30.0381 30.5733 31.5651 30.5733 31.9774C30.5733 32.4202 30.8634 33.3212 31.1536 33.7869L31.4361 34.2526L31.3063 35.4437C31.1154 37.2456 31.1307 37.5739 31.4819 39.5513C31.8407 41.5441 31.8484 41.0173 31.4437 44.2163C31.2605 45.6899 31.2605 45.7815 31.3826 45.9189C31.543 46.0945 31.6651 46.1022 31.8026 45.9342C31.8636 45.8655 32.0851 45.7357 32.2988 45.6364L32.6959 45.4608L32.7417 40.9714C32.7646 38.5053 32.818 35.9629 32.8486 35.3215C32.8791 34.6878 32.8791 33.8098 32.8486 33.3746C32.6959 31.0383 32.6882 30.229 32.8104 29.4578C33.0318 28.0988 33.1692 26.671 33.2456 24.8386C33.3601 22.2885 33.696 19.1887 33.8869 18.9826C33.9785 18.8833 35.1467 18.7001 35.2154 18.7688C35.2383 18.7917 35.1925 18.9444 35.1162 19.12C34.9482 19.4865 34.9329 19.7766 35.0627 20.5783C35.2307 21.693 35.2612 23.1971 35.1314 24.1897C34.8871 26.0144 34.6962 30.0228 34.6962 33.3975C34.6962 35.3597 34.6733 35.8483 34.5512 36.5279C34.2381 38.1999 34.0091 39.7269 33.9022 40.7577C33.7189 42.445 33.6044 44.5981 33.6655 45.2089C33.7189 45.7586 33.7189 45.7662 33.9175 45.7433C34.1923 45.7128 34.2152 45.6135 34.3145 43.7353C34.4061 42.0098 34.5588 40.4599 34.7344 39.4368C34.7955 39.078 34.8489 38.6733 34.8489 38.5359C34.8489 38.3908 34.8795 38.2763 34.91 38.2763C34.9787 38.2763 35.078 41.3303 35.078 43.4834C35.078 44.5065 35.1009 44.766 35.1849 44.766C35.4292 44.766 35.8262 44.5675 36.124 44.3003C36.6126 43.8498 37.002 43.8193 37.4906 44.1934C37.6204 44.2927 37.8571 44.4072 38.0327 44.453C38.2007 44.4988 38.3992 44.6057 38.4756 44.6897C38.6206 44.85 38.8573 44.8882 38.9337 44.766C38.9566 44.7279 39.1093 44.6897 39.2772 44.6897C39.4987 44.6897 39.6437 44.6286 39.8957 44.4148C40.5981 43.8269 41.0715 43.7659 41.7586 44.1552C42.4305 44.537 42.4076 44.6057 41.2318 45.4532C38.6283 47.3161 35.727 48.4385 32.5202 48.8202C31.543 48.9424 29.199 48.9424 28.3592 48.8202C24.7554 48.3163 21.7014 47.026 19.0444 44.8806C18.342 44.3079 18.2046 44.1782 18.2046 44.056C18.2046 43.9415 18.8536 43.6971 19.1742 43.6971C19.3498 43.6971 19.5178 43.659 19.5484 43.6132C19.6247 43.491 20.3958 43.1627 20.6096 43.1627C20.8921 43.1627 21.5945 43.4528 21.7778 43.6437C22.1672 44.056 22.3657 44.8729 22.1672 45.2394C22.0908 45.3769 22.1137 45.4227 22.3046 45.5754C22.4268 45.667 22.6253 45.9037 22.7474 46.0945C23.0605 46.5908 23.2284 46.6061 24.0148 46.1938L24.6562 45.8579L24.7783 44.4148C24.8471 43.6208 24.9463 42.6817 24.9921 42.3228C25.0303 41.964 25.1066 41.315 25.1525 40.8722C25.1983 40.4294 25.2899 39.8949 25.351 39.6735C25.412 39.4597 25.435 39.223 25.412 39.1543C25.3586 39.0169 25.5189 38.0091 25.6182 37.8182C25.6564 37.7495 25.6869 37.9403 25.6869 38.2839C25.6869 38.994 25.7556 39.3986 25.8472 39.2536C25.9389 39.1085 25.9312 37.3372 25.8396 37.3983C25.7022 37.4822 25.6793 37.0699 25.7938 36.6653C25.8625 36.4439 25.916 36.1079 25.9083 35.9171C25.9007 35.6346 25.8931 35.604 25.8472 35.7567C25.7404 36.1156 25.7022 35.2604 25.7251 32.9699C25.7404 30.6947 25.832 29.664 26.1526 27.7781C26.2443 27.2742 26.3664 26.671 26.4275 26.442C26.4886 26.2129 26.5726 25.8388 26.6107 25.6098C26.6489 25.3884 26.7329 25.1059 26.794 24.9837C26.8551 24.8692 26.9085 24.6859 26.9085 24.5791C26.9085 24.4722 26.9772 24.2584 27.0612 24.098C27.1376 23.9377 27.3284 23.3575 27.4735 22.8154C27.6186 22.2656 27.8782 21.4487 28.0461 20.9906C28.3515 20.1889 28.3744 20.0286 28.1836 20.0286C28.1301 20.0286 27.8858 19.9217 27.6415 19.7919C27.2292 19.5705 27.1528 19.5552 26.7253 19.6087C26.4657 19.6316 26.1145 19.6926 25.9312 19.7385C25.6869 19.7995 25.5495 19.7919 25.3586 19.7232C25.0074 19.5781 24.6409 19.2116 24.4958 18.8452C24.4195 18.6314 24.2439 18.4252 23.9614 18.2038C23.5644 17.8908 23.5491 17.8679 23.5491 17.5167C23.5491 17.2189 23.5109 17.1196 23.3277 16.944C23.1292 16.7532 23.0528 16.7303 22.7322 16.7608C22.5107 16.7837 22.2435 16.8753 22.0603 16.9975C21.7472 17.2036 21.1517 17.3563 20.6554 17.3563C20.4798 17.3563 20.2431 17.4327 20.0294 17.5701C19.5484 17.8755 19.4491 17.8984 19.1666 17.7839C18.9375 17.6923 18.4336 17.1502 18.4336 17.0051C18.4336 16.9059 18.6856 16.6921 19.388 16.1576C22.1901 14.0427 25.3586 12.7982 28.8936 12.447C29.6189 12.3707 31.6346 12.4088 32.4821 12.5081ZM31.6499 19.6316C31.543 19.8988 30.8329 22.4031 30.726 22.8917C30.6802 23.0979 30.5733 23.7697 30.497 24.3805C30.2221 26.5107 30.1992 26.6176 29.6189 28.4271C29.4357 28.9921 29.2677 29.5724 29.2372 29.7022C29.2066 29.8396 29.1608 29.9541 29.1227 29.9541C28.8554 29.9541 29.0005 26.9459 29.3441 25.2967C29.4739 24.6859 29.68 23.4949 29.8098 22.6474C30.0389 21.0746 30.0618 20.9906 30.497 20.082C30.7413 19.5705 30.7489 19.5705 31.2147 19.4331C31.4666 19.3567 31.6957 19.3185 31.7109 19.3567C31.7186 19.3949 31.6957 19.517 31.6499 19.6316ZM32.7035 26.8314C32.6729 27.9003 32.6119 28.9845 32.5584 29.2441C32.4744 29.664 32.4363 29.7251 32.2912 29.7251C31.9782 29.7251 31.7644 29.2059 31.7873 28.4653C31.7949 28.0759 32.2759 25.5411 32.5355 24.5714L32.6729 24.037L32.7111 24.4645C32.734 24.7012 32.7264 25.7701 32.7035 26.8314ZM29.283 32.7638C29.451 34.1381 29.2677 36.085 28.9012 36.818C28.8707 36.8867 28.7791 37.1692 28.7027 37.4593C28.634 37.7418 28.5424 37.9862 28.5119 38.0091C28.405 38.0778 28.3363 36.7493 28.3821 35.4895C28.4279 34.3366 28.6798 32.5271 28.9012 31.7483L28.9929 31.4429L29.0921 31.7407C29.1532 31.9087 29.2372 32.3668 29.283 32.7638ZM32.4363 32.947C32.5202 33.283 32.4744 34.8253 32.337 36.2148C32.0851 38.6275 32.0087 39.2688 31.9476 39.2688C31.9094 39.2688 31.8331 39.0016 31.7567 38.6733C31.688 38.3526 31.604 37.9862 31.5582 37.864C31.459 37.5433 31.4743 36.8638 31.604 36.001C31.6651 35.5964 31.7491 34.9474 31.7949 34.5733C31.9629 33.2066 32.2836 32.3897 32.4363 32.947ZM34.8489 36.9707C34.8489 37.1692 34.8031 37.6273 34.742 37.9785C34.681 38.3297 34.6122 38.8107 34.5893 39.0398C34.5206 39.5666 34.3068 40.666 34.261 40.7195C34.1465 40.8264 34.4977 37.4517 34.6657 36.7951C34.742 36.4744 34.8489 36.566 34.8489 36.9707ZM25.8396 37.5433C25.8396 37.5662 25.8091 37.6044 25.7633 37.6273C25.7251 37.6502 25.6869 37.6349 25.6869 37.5968C25.6869 37.551 25.7251 37.5128 25.7633 37.5128C25.8091 37.5128 25.8396 37.528 25.8396 37.5433Z" fill="#FEFEFE"/>
<path d="M26.9315 25.083C26.8857 25.3044 26.7407 25.9839 26.6185 26.5947C26.2062 28.5417 26.023 30.5191 25.9695 33.619C25.939 35.207 25.9466 35.3597 26.0306 34.9169C26.168 34.2069 26.3589 32.2828 26.4505 30.6413C26.5498 28.8623 26.8705 26.0908 27.1072 24.8921C27.1301 24.7776 27.1148 24.686 27.0766 24.686C27.0384 24.686 26.9774 24.8692 26.9315 25.083Z" fill="#FEFEFE"/>
<path d="M25.5116 39.5818C25.4811 39.6963 25.4964 40.1544 25.5422 40.6125C25.6491 41.6433 25.6414 41.8112 25.4964 43.5062C25.4353 44.2544 25.3818 45.1783 25.3818 45.5524C25.3818 46.3235 25.4582 46.377 25.756 45.8425C25.9316 45.5295 25.9392 45.4379 25.9774 43.6284C26.0155 41.5974 25.9392 40.498 25.7025 39.8032C25.5727 39.4291 25.5574 39.4062 25.5116 39.5818Z" fill="#FEFEFE"/>
</g>
<defs>
<filter id="filter0_d_607_3072" x="0.5" y="0.669434" width="68" height="67.9934" filterUnits="userSpaceOnUse" color-interpolation-filters="sRGB">
<feFlood flood-opacity="0" result="BackgroundImageFix"/>
<feColorMatrix in="SourceAlpha" type="matrix" values="0 0 0 0 0 0 0 0 0 0 0 0 0 0 0 0 0 0 127 0" result="hardAlpha"/>
<feOffset dx="4" dy="4"/>
<feGaussianBlur stdDeviation="7"/>
<feComposite in2="hardAlpha" operator="out"/>
<feColorMatrix type="matrix" values="0 0 0 0 0 0 0 0 0 0 0 0 0 0 0 0 0 0 0.11 0"/>
<feBlend mode="normal" in2="BackgroundImageFix" result="effect1_dropShadow_607_3072"/>
<feBlend mode="normal" in="SourceGraphic" in2="effect1_dropShadow_607_3072" result="shape"/>
</filter>
</defs>
</svg>
