<svg width="5" height="202" viewBox="0 0 5 202" fill="none" xmlns="http://www.w3.org/2000/svg">
<path d="M4.81427 0.243942C4.8608 0.949936 4.85835 1.59711 4.7702 2.24736C4.71143 2.67776 4.66 3.11127 4.64286 3.54477C4.59143 4.82361 4.54246 6.10243 4.52777 7.38437C4.52287 7.81477 4.63061 8.24828 4.6551 8.68178C4.69673 9.3661 4.7555 10.0535 4.73101 10.7378C4.69917 11.5863 4.75305 12.4223 4.84121 13.2614C4.88283 13.664 4.88773 14.0696 4.90242 14.4753C4.92201 15.0357 4.93671 15.5962 4.95385 16.1566C4.9661 16.5313 5.02732 16.9122 4.98569 17.2775C4.89264 18.0888 4.94405 18.897 4.9465 19.7083C4.9465 20.3616 5.04936 21.0212 4.90978 21.6714C4.89753 21.7302 4.89998 21.7984 4.90978 21.8572C5.09099 23.167 4.83141 24.4644 4.8363 25.7711C4.83875 26.6722 4.7506 27.5763 4.72856 28.4774C4.71631 28.9759 4.7555 29.4745 4.7702 29.973C4.7751 30.1588 4.81427 30.3539 4.78489 30.5335C4.60123 31.6792 4.70653 32.8403 4.64776 33.9922C4.61103 34.7075 4.63796 35.429 4.66245 36.1442C4.68694 36.8657 4.6698 37.5841 4.54001 38.2901C4.36615 39.2438 4.46411 40.2161 4.35881 41.176C4.34167 41.3277 4.37105 41.4887 4.38819 41.6404C4.40533 41.7953 4.46165 41.9501 4.45675 42.1018C4.40777 43.2878 4.36614 44.4706 4.28533 45.6535C4.26085 46.0281 4.25351 46.3904 4.278 46.7651C4.33432 47.6011 4.45676 48.4341 4.40534 49.2856C4.35636 50.0907 4.39799 50.905 4.41758 51.7163C4.43472 52.4347 4.46164 53.1438 4.37594 53.8653C4.18983 55.4197 4.26085 56.9865 4.29024 58.5502C4.30003 59.0797 4.28045 59.6123 4.2829 60.1418C4.29025 61.2348 4.30248 62.3279 4.31717 63.4209C4.31962 63.6717 4.34166 63.9194 4.33676 64.1703C4.30983 65.638 4.2731 67.1057 4.24861 68.5734C4.22902 69.6665 4.20698 70.7626 4.21433 71.8557C4.22657 73.6702 4.2633 75.4847 4.29024 77.2961C4.29514 77.6089 4.32452 77.9247 4.30248 78.2344C4.11882 80.8261 4.22902 83.424 4.19964 86.0157C4.19229 86.7341 4.17025 87.4525 4.15066 88.1709C4.13841 88.6384 4.10903 89.1091 4.10413 89.5767C4.07964 91.546 4.04046 93.5154 4.04291 95.4847C4.04536 98.6741 4.08944 101.863 4.08944 105.056C4.08944 106.211 4.00618 107.366 3.97924 108.521C3.9621 109.174 3.97924 109.827 3.97924 110.481C3.97924 110.856 4.01842 111.236 3.97924 111.605C3.70253 114.116 3.67561 116.652 3.4846 119.169C3.43073 119.885 3.3989 120.609 3.44053 121.325C3.53848 123.043 3.37685 124.759 3.42827 126.474C3.49439 128.632 3.38176 130.787 3.26911 132.939C3.22504 133.782 3.25931 134.627 3.24707 135.472C3.23727 136.002 3.24707 136.541 3.17606 137.064C3.04383 138.055 2.97771 139.049 2.9875 140.052C2.9875 140.176 2.95812 140.306 2.97526 140.427C3.15647 141.752 2.9067 143.037 2.73284 144.331C2.62509 145.13 2.57121 145.941 2.52713 146.75C2.44632 148.183 2.29451 149.608 2.32145 151.051C2.36308 153.395 2.35572 155.739 2.40224 158.083C2.41939 158.987 2.55408 159.885 2.59571 160.786C2.64713 161.845 2.66182 162.907 2.68386 163.969C2.6912 164.313 2.64958 164.66 2.68386 165C2.82589 166.465 2.78426 167.936 2.8112 169.403C2.82099 169.933 2.84058 170.465 2.86997 170.995C2.98016 172.896 3.11484 174.794 3.20299 176.695C3.26421 178.039 3.17605 179.377 3.04627 180.718C2.91159 182.111 2.84548 183.523 2.84058 184.926C2.83569 186.582 2.93853 188.236 2.97281 189.893C2.9924 190.766 2.99241 191.645 2.95078 192.518C2.91405 193.296 2.9973 194.076 2.88711 194.859C2.83814 195.209 2.94833 195.602 3.02424 195.965C3.13443 196.494 3.13689 197.014 3.05853 197.547C2.98506 198.039 2.89445 198.532 2.86507 199.027C2.81854 199.764 2.4145 200.318 2.23085 201.136C2.11575 200.916 2.03983 200.829 2.02024 200.727C1.62599 198.847 1.28073 196.952 1.12891 195.02C1.06524 194.215 1.09951 193.398 1.07257 192.586C1.01135 190.713 0.901171 188.84 0.884029 186.963C0.871785 185.53 0.991764 184.093 1.01135 182.656C1.03339 181.157 1.07503 179.649 0.986872 178.157C0.820357 175.383 0.604858 172.611 0.565678 169.824C0.543639 168.264 0.426099 166.703 0.367329 165.143C0.308559 163.551 0.25959 161.959 0.22041 160.365C0.176332 158.553 0.151837 156.739 0.10531 154.927C0.08572 154.147 -0.0171236 153.37 0.0024664 152.593C0.0318514 151.407 0.142042 150.221 0.198364 149.035C0.249788 147.939 0.391814 146.861 0.533842 145.78C0.626895 145.074 0.619559 144.344 0.590174 143.628C0.531403 142.213 0.670972 140.82 0.778717 139.417C0.817898 138.922 0.852187 138.423 0.861982 137.925C0.915854 134.924 0.952582 131.924 0.888914 128.923C0.886465 128.799 0.869322 128.669 0.886463 128.549C1.05788 127.211 0.999112 125.867 0.969727 124.526C0.930547 122.681 1.06768 120.842 1.15583 119.002C1.24154 117.194 1.40805 115.389 1.37621 113.571C1.35662 112.447 1.41541 111.32 1.4203 110.193C1.4301 108.162 1.46193 106.127 1.4203 104.096C1.35908 101.157 1.33949 98.2189 1.37378 95.2803C1.41051 92.06 1.37866 88.8397 1.3909 85.6194C1.3958 84.4954 1.43499 83.3683 1.47662 82.2443C1.5109 81.337 1.48642 80.439 1.43499 79.5318C1.36153 78.191 1.37867 76.8441 1.37132 75.5002C1.36153 73.311 1.36153 71.1218 1.35908 68.9326C1.35419 66.6196 1.34683 64.3065 1.34683 61.9935C1.34683 60.7456 1.37377 59.5008 1.37132 58.2529C1.36643 56.5034 1.34928 54.754 1.33214 53.0045C1.32969 52.6917 1.33214 52.3728 1.27582 52.0693C1.08971 51.0784 1.14114 50.0814 1.16807 49.0843C1.19991 47.8953 1.21215 46.7063 1.24643 45.5203C1.30276 43.489 1.37132 41.4577 1.43254 39.4265C1.64313 38.6709 1.57457 37.8875 1.59906 37.1165C1.63089 36.1164 1.65537 35.1193 1.67251 34.1192C1.69945 32.4006 1.7117 30.679 1.75088 28.9605C1.75822 28.592 1.84394 28.2235 1.91005 27.8612C2.02759 27.211 1.98596 26.5607 1.96637 25.9074C1.95412 25.5358 1.94187 25.1611 1.92718 24.7896C1.91738 24.5109 1.90515 24.2322 1.89046 23.9535C1.88311 23.7987 1.84393 23.6408 1.85862 23.489C2.01779 21.9934 1.85372 20.4979 1.87331 19.0023C1.89046 17.6956 1.73618 16.3858 1.66027 15.076C1.64313 14.7663 1.63088 14.4536 1.62599 14.1439C1.61374 13.5835 1.6064 13.0199 1.5966 12.4595C1.57212 10.9329 1.55008 9.40944 1.52559 7.88289C1.52315 7.6971 1.5011 7.51132 1.49865 7.32243C1.4913 6.76198 1.48396 6.19843 1.48886 5.63795C1.4962 4.66878 1.52804 3.70268 1.51824 2.73349C1.51334 2.36501 1.57701 2.08943 1.7925 1.80765C2.0839 1.42679 2.39979 1.12953 2.80139 0.937546C3.04136 0.822983 3.25687 0.637192 3.48705 0.494751C3.8813 0.250137 4.27554 -0.0192568 4.82161 0.243942L4.81427 0.243942Z" fill="#FEFEFE"/>
</svg>
