<svg width="296" height="5" viewBox="0 0 296 5" fill="none" xmlns="http://www.w3.org/2000/svg">
<path d="M295.841 4.81428C294.801 4.86081 293.848 4.85836 292.89 4.77021C292.257 4.71143 291.618 4.66001 290.98 4.64286C289.096 4.59144 287.213 4.54247 285.325 4.52778C284.692 4.52288 284.053 4.63062 283.415 4.65511C282.407 4.69673 281.395 4.7555 280.387 4.73102C279.138 4.69918 277.906 4.75306 276.671 4.84121C276.078 4.88284 275.48 4.88774 274.883 4.90243C274.058 4.92202 273.232 4.93672 272.407 4.95386C271.855 4.96611 271.294 5.02733 270.756 4.9857C269.562 4.89264 268.372 4.94406 267.177 4.94651C266.215 4.94651 265.243 5.04937 264.286 4.90979C264.199 4.89754 264.099 4.89999 264.012 4.90979C262.083 5.09099 260.173 4.83141 258.248 4.83631C256.921 4.83876 255.59 4.7506 254.263 4.72857C253.529 4.71632 252.795 4.75551 252.061 4.77021C251.787 4.7751 251.5 4.81428 251.235 4.7849C249.548 4.60124 247.838 4.70654 246.142 4.64777C245.088 4.61104 244.026 4.63797 242.973 4.66246C241.91 4.68695 240.852 4.66981 239.813 4.54002C238.408 4.36616 236.976 4.46411 235.563 4.35882C235.339 4.34167 235.102 4.37106 234.879 4.3882C234.651 4.40534 234.423 4.46165 234.199 4.45676C232.453 4.40778 230.711 4.36615 228.969 4.28534C228.417 4.26085 227.884 4.25351 227.332 4.278C226.101 4.33432 224.874 4.45677 223.62 4.40534C222.435 4.35637 221.235 4.39799 220.041 4.41758C218.983 4.43472 217.938 4.46165 216.876 4.37594C214.587 4.18984 212.279 4.26086 209.977 4.29024C209.197 4.30004 208.413 4.28046 207.633 4.2829C206.023 4.29025 204.414 4.30248 202.804 4.31718C202.435 4.31962 202.07 4.34167 201.7 4.33677C199.539 4.30983 197.378 4.27311 195.216 4.24862C193.606 4.22903 191.992 4.20699 190.383 4.21433C187.71 4.22658 185.038 4.26331 182.371 4.29024C181.91 4.29514 181.445 4.32452 180.989 4.30248C177.172 4.11883 173.347 4.22903 169.53 4.19964C168.472 4.19229 167.414 4.17025 166.356 4.15066C165.668 4.13842 164.975 4.10903 164.286 4.10414C161.386 4.07965 158.486 4.04047 155.586 4.04292C150.889 4.04537 146.192 4.08944 141.491 4.08944C139.79 4.08944 138.089 4.00618 136.388 3.97925C135.426 3.96211 134.464 3.97925 133.502 3.97925C132.95 3.97925 132.389 4.01843 131.846 3.97925C128.148 3.70254 124.414 3.67561 120.707 3.48461C119.653 3.43074 118.586 3.3989 117.533 3.44053C115.002 3.53848 112.476 3.37685 109.95 3.42828C106.771 3.49439 103.598 3.38176 100.428 3.26912C99.1881 3.22504 97.9432 3.25931 96.6984 3.24707C95.9186 3.23728 95.1252 3.24708 94.3546 3.17606C92.8954 3.04383 91.4316 2.97771 89.9542 2.9875C89.7718 2.9875 89.5803 2.95812 89.4024 2.97526C87.4508 3.15647 85.5584 2.9067 83.6523 2.73284C82.4759 2.62509 81.2812 2.57121 80.091 2.52714C77.9798 2.44633 75.8822 2.29451 73.7572 2.32145C70.3054 2.36308 66.8535 2.35572 63.4016 2.40225C62.0701 2.41939 60.7477 2.55408 59.4207 2.59571C57.8612 2.64713 56.2972 2.66182 54.7331 2.68386C54.227 2.69121 53.7163 2.64958 53.2147 2.68386C51.0578 2.82589 48.8918 2.78426 46.7304 2.8112C45.9506 2.82099 45.1663 2.84058 44.3866 2.86997C41.5868 2.98016 38.7915 3.11484 35.9917 3.20299C34.0127 3.26421 32.0428 3.17605 30.0683 3.04627C28.0164 2.91159 25.937 2.84548 23.8714 2.84058C21.4318 2.83569 18.9968 2.93853 16.5572 2.97281C15.2713 2.9924 13.9763 2.99241 12.6903 2.95078C11.5458 2.91405 10.3967 2.9973 9.24303 2.88711C8.72775 2.83814 8.14864 2.94833 7.61512 3.02424C6.83537 3.13443 6.0693 3.13689 5.28499 3.05853C4.55995 2.98506 3.83492 2.89445 3.10533 2.86507C2.02006 2.81854 1.20383 2.4145 0 2.23085C0.323757 2.11575 0.451435 2.03983 0.601914 2.02024C3.36981 1.62599 6.1605 1.28073 9.00591 1.12891C10.1915 1.06524 11.3953 1.09951 12.59 1.07257C15.3488 1.01136 18.1076 0.901171 20.8709 0.88403C22.9822 0.871786 25.098 0.991765 27.2138 1.01136C29.4208 1.03339 31.6415 1.07503 33.8394 0.986873C37.9251 0.820358 42.0063 0.60486 46.1102 0.56568C48.4085 0.543641 50.7067 0.426101 53.0049 0.367331C55.3487 0.308561 57.6925 0.259592 60.0409 0.220411C62.7085 0.176334 65.3806 0.151838 68.0482 0.105312C69.1973 0.0857221 70.3418 -0.0171215 71.4864 0.00246852C73.2328 0.0318536 74.9793 0.142045 76.7258 0.198366C78.34 0.24979 79.9269 0.391817 81.5183 0.533844C82.5579 0.626897 83.6341 0.619561 84.6875 0.590176C86.7713 0.531406 88.8233 0.670975 90.889 0.77872C91.6186 0.8179 92.3527 0.852189 93.0869 0.861984C97.5055 0.915857 101.924 0.952585 106.343 0.888917C106.525 0.886468 106.717 0.869325 106.894 0.886466C108.864 1.05788 110.843 0.999115 112.818 0.96973C115.536 0.93055 118.244 1.06768 120.953 1.15584C123.616 1.24154 126.274 1.40805 128.951 1.37622C130.606 1.35663 132.266 1.41541 133.926 1.42031C136.917 1.4301 139.913 1.46194 142.904 1.42031C147.232 1.35909 151.559 1.3395 155.887 1.37378C160.629 1.41051 165.371 1.37867 170.114 1.39091C171.769 1.39581 173.429 1.435 175.084 1.47662C176.42 1.51091 177.742 1.48642 179.078 1.435C181.053 1.36154 183.037 1.37868 185.016 1.37133C188.239 1.36153 191.463 1.36154 194.687 1.35909C198.093 1.35419 201.5 1.34683 204.906 1.34683C206.744 1.34683 208.577 1.37378 210.414 1.37133C212.991 1.36643 215.567 1.34928 218.144 1.33214C218.604 1.32969 219.074 1.33215 219.521 1.27582C220.98 1.08972 222.448 1.14114 223.917 1.16808C225.668 1.19991 227.419 1.21216 229.165 1.24644C232.156 1.30276 235.148 1.37133 238.139 1.43255C239.252 1.64314 240.405 1.57457 241.541 1.59906C243.014 1.6309 244.482 1.65538 245.955 1.67252C248.486 1.69946 251.021 1.7117 253.552 1.75088C254.094 1.75823 254.637 1.84394 255.17 1.91006C256.128 2.0276 257.086 1.98597 258.048 1.96638C258.595 1.95413 259.147 1.94188 259.694 1.92719C260.104 1.91739 260.515 1.90516 260.925 1.89047C261.153 1.88312 261.386 1.84394 261.609 1.85863C263.812 2.0178 266.014 1.85373 268.216 1.87332C270.141 1.89046 272.07 1.73619 273.998 1.66028C274.454 1.64314 274.915 1.63089 275.371 1.626C276.196 1.61375 277.026 1.60641 277.852 1.59661C280.1 1.57212 282.343 1.55009 284.591 1.5256C284.865 1.52315 285.138 1.5011 285.417 1.49866C286.242 1.49131 287.072 1.48397 287.897 1.48887C289.324 1.49621 290.747 1.52804 292.174 1.51825C292.717 1.51335 293.123 1.57702 293.538 1.79251C294.099 2.08391 294.537 2.3998 294.819 2.8014C294.988 3.04137 295.262 3.25688 295.471 3.48706C295.832 3.88131 296.228 4.27555 295.841 4.82162V4.81428Z" fill="#FEFEFE"/>
</svg>
