<svg width="23" height="31" viewBox="0 0 23 31" fill="none" xmlns="http://www.w3.org/2000/svg">
<g clip-path="url(#clip0_695_25727)">
<path d="M3.82608 1.50247C5.33897 0.31296 8.24791 -0.0277601 9.44496 0.204412C10.6428 0.435077 11.2684 1.10521 11.276 1.92083L11.3453 12.3241C11.3506 13.1412 10.9262 13.892 10.4015 13.993C9.87463 14.0918 9.0982 13.6063 8.67155 12.9113L3.21324 3.99078C2.7896 3.29502 1.93629 2.98822 3.82533 1.50171L3.82608 1.50247ZM2.01393 21.2846L7.50918 19.3398C8.27505 19.0677 8.96101 18.3124 9.0379 17.6558C9.11253 16.9992 8.55546 16.2205 7.8009 15.9213L1.99584 13.6192C1.23977 13.3207 0.368369 14.0285 0.138458 15.1878C0.138458 15.1878 0.000511415 19.2237 0.138458 20.0597C0.277912 20.8941 1.24806 21.5567 2.01468 21.2839L2.01393 21.2846ZM11.5993 22.2563C11.6152 21.4369 11.178 20.7298 10.6269 20.6801C10.0759 20.6288 9.20148 21.0992 8.67909 21.7226L4.84598 26.3193C4.32435 26.9442 4.58366 28.4111 5.34425 28.6893L9.35224 30.0815C10.1151 30.3589 11.4591 29.5373 11.475 28.7209L11.5993 22.257V22.2563ZM21.1282 21.1859L16.3212 19.8041C15.5417 19.5803 14.6575 19.6014 14.3575 19.8546C14.0575 20.1057 14.1321 20.8972 14.5241 21.6125L17.5574 27.1643C17.9494 27.8789 19.5188 27.7568 19.9508 27.0625C19.9508 27.0625 21.7795 24.3647 22.1157 23.3538C22.4519 22.3399 21.9061 21.409 21.1275 21.1844L21.1282 21.1859ZM22.2989 13.3794C22.0825 12.6769 20.5794 10.6062 19.7653 9.90063C18.952 9.19356 18.0218 9.28175 17.4979 9.90289L14.3997 13.5935C13.8751 14.2147 13.7349 15.1991 14.0846 15.7781C14.4336 16.357 15.3669 16.6856 16.1584 16.5077L21.5164 15.5142C22.4836 15.2821 22.5175 14.082 22.2974 13.3794H22.2989Z" fill="#FEFEFE"/>
</g>
<defs>
<clipPath id="clip0_695_25727">
<rect width="22.333" height="30" fill="white" transform="translate(0.0771484 0.135742)"/>
</clipPath>
</defs>
</svg>
