<svg width="30" height="21" viewBox="0 0 30 21" fill="none" xmlns="http://www.w3.org/2000/svg">
<path d="M28.5595 3.26574C28.2395 2.03574 27.2795 1.06574 26.0495 0.735742C23.8395 0.135742 14.9595 0.135742 14.9595 0.135742C14.9595 0.135742 6.08953 0.135742 3.86953 0.735742C2.64953 1.06574 1.68953 2.03574 1.36953 3.26574C0.769531 5.49574 0.769531 10.1357 0.769531 10.1357C0.769531 10.1357 0.769531 14.7857 1.35953 17.0157C1.68953 18.2457 2.64953 19.2157 3.86953 19.5457C6.08953 20.1357 14.9595 20.1357 14.9595 20.1357C14.9595 20.1357 23.8395 20.1357 26.0495 19.5457C27.2695 19.2157 28.2395 18.2457 28.5595 17.0157C29.1595 14.7857 29.1595 10.1357 29.1595 10.1357C29.1595 10.1357 29.1595 5.49574 28.5595 3.26574ZM12.0595 14.3657V5.91574L19.4795 10.1357L12.0595 14.3657Z" fill="#FEFEFE"/>
</svg>
