<svg width="69" height="69" viewBox="0 0 69 69" fill="none" xmlns="http://www.w3.org/2000/svg">
<g filter="url(#filter0_d_607_3070)">
<path d="M28.8529 10.7086C24.2409 11.2431 20.8736 12.6481 17.5903 15.4046C16.7122 16.1452 15.2079 17.7029 14.5894 18.5199C10.2524 24.2619 9.29028 31.8212 12.062 38.4261C13.2074 41.1673 15.1392 43.8169 17.4223 45.7869C22.1793 49.8872 28.5627 51.5365 34.6102 50.2461C43.8875 48.2532 50.5076 40.0983 50.5 30.6606C50.4924 26.9344 49.5608 23.59 47.629 20.3448C46.7509 18.8711 45.9415 17.848 44.6282 16.527C40.8027 12.7092 35.7326 10.617 30.38 10.6704C29.6699 10.6704 28.9827 10.6933 28.8529 10.7086ZM33.1059 12.5641C33.6939 12.6557 34.3887 12.7702 34.6483 12.8313C35.725 13.0833 37.4888 13.7323 38.6036 14.2897C39.7566 14.8624 41.0318 15.6107 41.0318 15.71C41.0318 15.8016 40.6653 15.8398 33.3961 16.5728C23.9966 17.512 18.6974 18.0465 17.9033 18.1381C17.5444 18.1763 17.239 18.1916 17.2161 18.1687C17.1397 18.0923 18.7127 16.6415 19.4992 16.0536C21.8128 14.3203 24.1035 13.2971 26.9821 12.7168C29.0056 12.3045 30.9985 12.2587 33.1059 12.5641ZM42.0168 16.4354C42.4215 16.7408 43.857 18.1534 43.857 18.2527C43.857 18.2985 43.7043 18.3443 43.4981 18.3519C43.2919 18.3596 42.4138 18.4206 41.5281 18.4817C40.65 18.5428 39.1381 18.6497 38.1684 18.7108C35.4425 18.8941 31.6399 19.1537 26.9439 19.4744C26.02 19.5354 24.9892 19.6042 24.6532 19.6271C24.3173 19.65 23.3705 19.7187 22.5534 19.7798C21.7364 19.8409 19.9649 19.963 18.6211 20.047C17.2772 20.131 16.0097 20.215 15.8035 20.2379L15.437 20.2837L15.7271 19.8791C15.8875 19.6576 16.1471 19.314 16.3075 19.1231C16.5747 18.7872 16.6205 18.7719 17.071 18.7261C17.3383 18.6955 17.8422 18.6421 18.2011 18.5963C18.56 18.5581 19.5526 18.4512 20.4155 18.3748C24.89 17.9396 38.2371 16.5957 40.4973 16.3514C41.0241 16.2979 41.5204 16.2445 41.5968 16.2368C41.6808 16.2368 41.8641 16.3208 42.0168 16.4354ZM44.6358 19.0315C44.7427 19.1537 45.0634 19.5736 45.3459 19.9707C47.1632 22.5363 48.2017 25.1782 48.6827 28.4845C48.8431 29.5993 48.8049 32.0961 48.6063 33.3255C48.0184 36.9601 46.5905 40.0296 44.2617 42.7097C43.5515 43.5191 42.1847 44.7943 41.4059 45.3669L41.047 45.6265L35.9082 45.6113L30.7618 45.5884L30.7847 42.1523L30.8152 38.7163L31.1436 38.029C31.6399 36.983 31.8537 36.6928 32.1057 36.6928C32.2278 36.6928 32.4035 36.6546 32.5104 36.6088C32.6554 36.5401 32.7471 36.5477 32.938 36.647C33.1518 36.7463 33.2052 36.7539 33.335 36.6623C33.4495 36.5859 33.5335 36.5783 33.6939 36.6394C33.8848 36.7081 33.9535 36.6852 34.3353 36.3874C34.7476 36.0819 34.8011 36.0056 34.7781 35.8071C34.7705 35.7613 34.824 35.6773 34.885 35.6238C35.053 35.4787 35.3585 35.662 35.5188 35.998C35.6562 36.2652 35.7097 36.311 36.1297 36.4637C36.3053 36.5325 36.374 36.6088 36.374 36.731C36.374 36.9753 36.4427 37.0059 36.6871 36.8837C36.8016 36.8226 36.9849 36.7692 37.0841 36.7692C37.1757 36.7692 37.2979 36.731 37.3437 36.6852C37.4125 36.6164 37.5423 36.6164 37.863 36.6775C38.1378 36.7386 38.3516 36.7386 38.4738 36.6928C38.6036 36.6394 38.7105 36.647 38.8098 36.7004C38.9167 36.7768 39.0236 36.7233 39.4206 36.4256C39.894 36.0667 39.894 36.059 39.8635 35.746C39.8253 35.4711 39.8482 35.41 40.0468 35.2268C40.1766 35.1046 40.3446 34.9748 40.4285 34.9366C40.5049 34.8908 40.5736 34.7992 40.5736 34.7304C40.5736 34.6312 40.5507 34.6235 40.482 34.6923C40.4285 34.7457 40.3446 34.7839 40.2911 34.7839C40.1155 34.7839 40.1842 34.6464 40.4209 34.5014C40.7263 34.3257 40.7111 34.0432 40.3827 33.8676C40.1842 33.7531 40.1537 33.692 40.1537 33.4247C40.1537 33.1651 40.1078 33.0659 39.8864 32.8597C39.7413 32.7223 39.5199 32.5695 39.3977 32.5237C39.077 32.4092 39.0694 32.287 39.3901 32.2336C39.5352 32.203 39.6573 32.1343 39.6573 32.0885C39.6573 31.8747 39.0465 31.4013 38.4662 31.1646C37.8248 30.905 37.695 30.7675 38.0309 30.6988C38.1455 30.6683 38.2982 30.6148 38.3593 30.5766C38.68 30.3781 39.0389 30.2483 39.3519 30.2407L39.6955 30.233L39.7642 29.8665C39.8177 29.5764 39.8024 29.4389 39.7032 29.2328C39.5428 28.9044 39.5963 28.8281 39.9551 28.8281C40.1155 28.8281 40.2606 28.8128 40.2758 28.7975C40.2911 28.7746 40.2987 28.6066 40.2835 28.4081C40.2606 28.1179 40.2147 28.0416 40.0315 27.95C39.7261 27.7896 39.7642 27.4307 40.1002 27.2169C40.3827 27.049 40.4133 26.8428 40.1766 26.6977C40.0162 26.5984 40.0162 26.5908 40.1537 26.4915C40.23 26.4381 40.2911 26.293 40.2987 26.1632C40.3064 26.041 40.3293 25.957 40.3522 25.9723C40.3827 25.9876 40.4667 25.9265 40.5431 25.8425C40.6729 25.6974 40.6729 25.6898 40.4973 25.644C40.398 25.6211 40.146 25.4989 39.9322 25.3844C39.5963 25.2088 39.5428 25.1477 39.5581 24.9644C39.5733 24.8193 39.497 24.6666 39.3137 24.4605C39.1687 24.3001 39.0465 24.1398 39.0465 24.1016C39.0465 24.0634 38.9472 23.9947 38.8251 23.9565C38.5654 23.8649 37.947 23.2311 37.5804 22.689C37.3666 22.3606 37.2445 22.2767 36.794 22.0858C36.5038 21.9636 36.122 21.8032 35.9617 21.7269C35.7097 21.6047 35.6257 21.5971 35.4654 21.6734C35.221 21.788 35.053 21.788 34.9156 21.6734C34.8545 21.62 34.7094 21.5436 34.5873 21.5055C34.3964 21.4291 34.3811 21.4367 34.4269 21.5742C34.4651 21.6887 34.4422 21.7269 34.3505 21.7269C34.2666 21.7269 34.236 21.6887 34.2589 21.6124C34.2971 21.5207 34.2666 21.5207 34.0986 21.5818C33.984 21.6276 33.8313 21.7116 33.7626 21.7803C33.671 21.8643 33.5564 21.8796 33.3808 21.8491C33.2434 21.8185 33.0449 21.788 32.938 21.7727C32.8311 21.7574 32.6402 21.7116 32.518 21.6658C32.3805 21.62 32.2126 21.62 32.098 21.6658C31.8308 21.7651 31.3803 21.6658 31.0519 21.4444C30.7694 21.2535 30.7618 21.2535 30.5174 21.3833C30.3036 21.5055 30.2349 21.5055 30.0822 21.4215C29.9371 21.3451 29.8379 21.3451 29.647 21.4138C29.5172 21.4596 29.3186 21.4978 29.2194 21.4978C29.0972 21.4978 29.0132 21.5513 28.9903 21.6505C28.9674 21.7345 28.8987 21.8032 28.8452 21.8032C28.7078 21.8032 28.7078 21.7345 28.8681 21.5589C29.0285 21.3756 28.914 21.3833 28.6238 21.5742C28.2038 21.8491 28.1657 21.872 27.9671 21.9101C27.845 21.9407 27.7457 22.017 27.7228 22.1239C27.677 22.2919 27.677 22.2919 27.5166 22.1468C27.3639 22.0094 27.341 22.0094 27.1501 22.1163C27.0356 22.185 26.9516 22.269 26.9592 22.3072C26.9669 22.3454 26.9974 22.4752 27.0203 22.5897C27.0738 22.7882 27.0661 22.8035 26.8905 22.7577C26.6614 22.6966 26.4858 22.8799 26.5469 23.1013C26.6003 23.3151 26.5087 23.3456 26.1498 23.2158C25.7681 23.086 25.6077 23.1318 25.6077 23.3838C25.6077 23.5671 25.5848 23.5747 25.2107 23.5518C24.9892 23.5442 24.7067 23.5747 24.5922 23.6205C24.47 23.674 24.3173 23.7122 24.2486 23.7122C24.0806 23.7122 23.7599 23.9336 23.8133 24.01C23.8286 24.0481 23.7217 24.1856 23.5766 24.323C23.3246 24.5521 23.3017 24.5979 23.3475 24.8728C23.3857 25.1248 23.3705 25.1935 23.2254 25.3233C23.1261 25.3996 22.9276 25.4989 22.7749 25.5447C22.6298 25.5829 22.4236 25.7051 22.3244 25.812L22.1487 26.0029L22.3244 26.1556L22.5 26.3083L22.164 26.6366C21.4081 27.3926 21.2401 27.6751 21.3012 28.0645C21.4005 28.6753 21.5226 28.8128 22.1106 28.9502C22.2251 28.9731 22.3549 29.0419 22.4007 29.0953C22.5076 29.2251 23.1032 29.1793 23.3475 29.019C23.5079 28.9121 23.5308 28.9197 23.6377 29.0342C23.7064 29.1106 23.7828 29.248 23.8057 29.3397C23.8362 29.4389 23.9126 29.5153 23.966 29.5153C24.0271 29.5153 24.1646 29.5534 24.2791 29.5993L24.4929 29.6756L24.2715 29.8589C24.1417 29.9581 23.9813 30.0421 23.905 30.0498C23.6606 30.0498 23.5155 30.1796 23.317 30.5461C23.1567 30.8439 23.1032 30.8897 22.9505 30.8515C22.8207 30.821 22.7138 30.8591 22.584 30.9966C22.4771 31.0959 22.3396 31.1646 22.2633 31.1417C22.1869 31.1264 21.9731 31.1798 21.7822 31.2562C21.4005 31.4242 21.1027 31.7983 21.1027 32.119C21.1027 32.3786 21.011 32.4932 20.7514 32.5619C20.5834 32.6077 20.53 32.6612 20.53 32.8062C20.53 32.9819 20.4765 33.0888 20.0642 33.7149C19.8046 34.1043 19.7664 34.4097 19.9191 34.7381C20.0871 35.0817 20.278 35.1351 20.9805 35.0282C21.4844 34.9519 21.5303 34.9595 21.6906 35.1046C21.8128 35.2191 21.996 35.2726 22.3778 35.3031C22.7214 35.326 22.9658 35.3947 23.0956 35.494C23.2406 35.6009 23.3475 35.6238 23.4774 35.578C23.5766 35.5475 23.8744 35.5245 24.134 35.5398C24.5234 35.5551 24.6303 35.5322 24.7601 35.4024C24.8518 35.3107 25.0121 35.242 25.1343 35.242C25.3328 35.242 25.8368 34.8602 25.8368 34.7075C25.8368 34.3868 26.5851 34.3028 27.173 34.5548C27.5166 34.6999 27.5319 34.7228 28.0511 35.7918C29.0819 37.9451 29.2423 38.5483 29.3645 40.8161C29.4943 43.2442 29.4866 45.344 29.3568 45.4967C29.2652 45.6189 28.8376 45.6265 24.638 45.6265C21.2936 45.6265 19.9802 45.6036 19.858 45.5349C19.1937 45.1913 16.9641 43.0457 16.1242 41.9614C14.0549 39.2737 12.8943 36.5554 12.3827 33.1804C12.0773 31.134 12.1918 28.431 12.6729 26.4992C13.2532 24.1779 14.7345 20.887 15.2461 20.7724C15.3377 20.7572 16.7732 20.6503 18.4302 20.5434C20.0871 20.4365 22.4618 20.2837 23.6988 20.1998C24.9358 20.1158 26.7225 19.9936 27.6693 19.9325C29.2652 19.8256 36.0457 19.3675 40.1918 19.0849C41.1768 19.0239 42.3298 18.9399 42.7498 18.9093C44.254 18.7872 44.4144 18.8024 44.6358 19.0315ZM35.87 21.8491C36.0762 21.9254 36.0075 22.0323 35.7555 22.0323C35.5494 22.0323 35.5264 22.017 35.6104 21.9178C35.7173 21.788 35.7097 21.788 35.87 21.8491ZM28.6238 22.2614C28.6009 22.2996 28.5322 22.3377 28.4864 22.3377C28.4329 22.3377 28.4405 22.3072 28.5093 22.2614C28.6543 22.1698 28.6849 22.1698 28.6238 22.2614ZM27.2876 23.1929C27.2876 23.2922 27.0432 23.2387 27.005 23.1242C26.9821 23.0708 27.0279 23.0555 27.1272 23.0784C27.2188 23.1013 27.2876 23.1548 27.2876 23.1929ZM37.8706 23.6205C37.7942 23.6969 37.6492 23.506 37.7102 23.4067C37.7561 23.338 37.7866 23.3456 37.8401 23.4373C37.8859 23.5136 37.8935 23.59 37.8706 23.6205ZM24.386 24.1703C24.386 24.2085 24.3326 24.2467 24.2638 24.2467C24.2027 24.2467 24.1722 24.2085 24.1951 24.1703C24.218 24.1245 24.2715 24.0939 24.3173 24.0939C24.3555 24.0939 24.386 24.1245 24.386 24.1703ZM22.8589 26.041C22.8054 26.1021 22.7138 26.1556 22.6603 26.1556C22.5993 26.1556 22.5534 26.1021 22.5534 26.041C22.5534 25.9647 22.6298 25.9265 22.752 25.9265C22.92 25.9265 22.9429 25.9418 22.8589 26.041ZM39.7337 26.3083C39.7337 26.3465 39.7032 26.3846 39.6573 26.3846C39.6192 26.3846 39.581 26.3465 39.581 26.3083C39.581 26.2625 39.6192 26.2319 39.6573 26.2319C39.7032 26.2319 39.7337 26.2625 39.7337 26.3083ZM31.4337 28.7288C31.4643 28.7441 31.4719 29.0648 31.4414 29.4236C31.4185 29.7902 31.3879 30.2254 31.3803 30.3934C31.365 30.6759 31.3345 30.7064 31.113 30.6683C31.029 30.6606 30.4945 29.9276 30.4945 29.8283C30.4945 29.7825 30.4029 29.7062 30.2884 29.6527C30.1204 29.5764 30.0669 29.4924 30.0517 29.2633C30.0364 29.0571 30.0593 28.9808 30.1357 28.9808C30.2655 28.9808 30.3647 29.3778 30.2502 29.4466C30.212 29.4771 30.2273 29.5153 30.296 29.5382C30.464 29.6069 30.5098 29.4847 30.4564 29.1029C30.38 28.6219 30.4335 28.5761 30.945 28.6372C31.1817 28.6677 31.4032 28.7059 31.4337 28.7288ZM33.0754 29.2404C33.167 29.4236 33.2434 29.6145 33.2434 29.6756C33.2434 29.7672 33.2586 29.7672 33.3121 29.6756C33.3655 29.5993 33.3885 29.5993 33.4343 29.668C33.4648 29.7214 33.4495 29.7902 33.3885 29.8283C33.2128 29.9352 33.3732 29.9887 33.6557 29.9123C33.8619 29.8512 33.9459 29.8589 34.0146 29.9429C34.068 30.004 34.152 30.0421 34.2131 30.0192C34.3353 29.9658 34.3429 30.065 34.2207 30.1872C34.152 30.2559 34.1673 30.2865 34.2666 30.3247C34.3429 30.3552 34.4345 30.3399 34.488 30.2865C34.6102 30.1643 34.6636 30.1796 34.8698 30.3857C34.9996 30.5155 35.1065 30.5537 35.2592 30.5308C35.3661 30.5079 35.5112 30.5308 35.5799 30.5919C35.6868 30.6759 35.6792 30.6988 35.5188 30.7828C35.4195 30.8439 35.2439 30.8821 35.1294 30.8897C34.7858 30.8897 34.4269 31.0806 34.1978 31.3784C33.9077 31.7602 33.7702 31.8212 33.4724 31.7143C33.2663 31.6456 33.1823 31.6533 33.0143 31.7602C32.854 31.8518 32.7089 31.8671 32.4493 31.8365C32.1515 31.7907 32.0904 31.7525 32.0522 31.5845C32.0293 31.4776 31.9911 31.3326 31.9759 31.2638C31.869 30.8821 32.5791 28.9044 32.8158 28.9044C32.8692 28.9044 32.9838 29.0571 33.0754 29.2404ZM29.731 29.6298C29.7844 29.6909 29.7921 29.7443 29.7462 29.7443C29.7081 29.7443 29.6317 29.6909 29.5783 29.6298C29.5248 29.5687 29.5172 29.5153 29.563 29.5153C29.6012 29.5153 29.6775 29.5687 29.731 29.6298ZM36.1907 30.7293C36.1449 30.7981 35.8395 30.8973 35.8395 30.8439C35.8395 30.821 35.9159 30.7752 36.0151 30.737C36.2366 30.653 36.2366 30.653 36.1907 30.7293ZM29.731 35.662C29.8531 35.8147 29.7768 36.0056 29.5859 36.0056C29.4179 36.0056 29.2728 35.7994 29.3263 35.6391C29.3721 35.5093 29.6164 35.5245 29.731 35.662ZM31.1665 36.5935C31.1436 36.8226 30.9756 36.9142 30.9069 36.7386C30.8381 36.5706 30.9221 36.3874 31.0672 36.3874C31.1588 36.3874 31.1817 36.4485 31.1665 36.5935Z" fill="#FEFEFE"/>
</g>
<defs>
<filter id="filter0_d_607_3070" x="0.5" y="0.669434" width="68" height="68.0068" filterUnits="userSpaceOnUse" color-interpolation-filters="sRGB">
<feFlood flood-opacity="0" result="BackgroundImageFix"/>
<feColorMatrix in="SourceAlpha" type="matrix" values="0 0 0 0 0 0 0 0 0 0 0 0 0 0 0 0 0 0 127 0" result="hardAlpha"/>
<feOffset dx="4" dy="4"/>
<feGaussianBlur stdDeviation="7"/>
<feComposite in2="hardAlpha" operator="out"/>
<feColorMatrix type="matrix" values="0 0 0 0 0 0 0 0 0 0 0 0 0 0 0 0 0 0 0.11 0"/>
<feBlend mode="normal" in2="BackgroundImageFix" result="effect1_dropShadow_607_3070"/>
<feBlend mode="normal" in="SourceGraphic" in2="effect1_dropShadow_607_3070" result="shape"/>
</filter>
</defs>
</svg>
